<svg width="33" height="32" viewBox="0 0 33 32" fill="none" xmlns="http://www.w3.org/2000/svg">
<path d="M27.8895 18.2045C26.9727 18.2046 26.0823 18.5111 25.3596 19.0753L21.8677 15.5829C22.4123 15.1386 22.9051 14.6343 23.3369 14.0797C23.5854 13.7608 23.7203 13.3681 23.7203 12.9638C23.7203 12.5595 23.5854 12.1668 23.3369 11.8479C22.4712 10.7353 21.3629 9.8351 20.0964 9.21588C18.83 8.59666 17.4389 8.27478 16.0291 8.27478C14.6194 8.27478 13.2283 8.59666 11.9619 9.21588C10.6954 9.8351 9.5871 10.7353 8.72136 11.8479C8.47289 12.1668 8.33796 12.5595 8.33796 12.9638C8.33796 13.3681 8.47289 13.7608 8.72136 14.0797C9.14732 14.6259 9.63252 15.1232 10.1681 15.5624L6.67369 19.0568C5.83639 18.4173 4.78733 18.1199 3.739 18.225C2.69066 18.33 1.72143 18.8295 1.02762 19.6224C0.333809 20.4153 -0.0327124 21.4422 0.00229532 22.4952C0.037303 23.5482 0.471223 24.5485 1.21616 25.2936C1.9611 26.0386 2.96137 26.4727 4.01437 26.5079C5.06736 26.543 6.09435 26.1766 6.88733 25.4829C7.68031 24.7892 8.17998 23.8201 8.28515 22.7718C8.39031 21.7234 8.0931 20.6743 7.45372 19.8369L11.0715 16.2189C12.3965 17.0545 13.9131 17.5373 15.4773 17.6216V23.7622C14.4372 23.9021 13.4892 24.432 12.8252 25.2447C12.1611 26.0573 11.8307 27.092 11.9008 28.1391C11.971 29.1862 12.4364 30.1675 13.2028 30.8843C13.9693 31.6012 14.9795 32 16.029 32C17.0784 32 18.0887 31.6012 18.8551 30.8843C19.6216 30.1675 20.087 29.1862 20.1571 28.1391C20.2272 27.092 19.8968 26.0573 19.2328 25.2447C18.5688 24.432 17.6207 23.9021 16.5806 23.7622V17.6216C18.1339 17.5374 19.6404 17.0601 20.9588 16.2344L24.5858 19.8616C24.0282 20.607 23.7386 21.5188 23.764 22.4493C23.7894 23.3798 24.1282 24.2745 24.7256 24.9884C25.3229 25.7023 26.1438 26.1936 27.0553 26.3827C27.9667 26.5718 28.9153 26.4476 29.7473 26.0303C30.5794 25.613 31.2462 24.9269 31.6396 24.0833C32.0331 23.2397 32.1302 22.2879 31.9151 21.3822C31.7001 20.4766 31.1856 19.67 30.455 19.0932C29.7243 18.5165 28.8203 18.2033 27.8895 18.2045ZM4.16847 25.376C3.67143 25.3768 3.18179 25.2555 2.74261 25.0228C2.30342 24.79 1.92814 24.453 1.64977 24.0412C1.37139 23.6294 1.19844 23.1555 1.14612 22.6613C1.0938 22.167 1.16371 21.6674 1.34972 21.2065C1.53572 20.7456 1.83212 20.3374 2.21284 20.0178C2.59357 19.6983 3.04696 19.4772 3.53317 19.374C4.01938 19.2707 4.5235 19.2885 5.00121 19.4258C5.47893 19.5631 5.91561 19.8156 6.27286 20.1612C6.27986 20.1784 6.29024 20.194 6.30338 20.2072C6.31652 20.2203 6.33216 20.2307 6.34937 20.2377C6.76358 20.6656 7.04256 21.2059 7.15146 21.7914C7.26037 22.3769 7.19436 22.9814 6.9617 23.5296C6.72903 24.0777 6.34002 24.5452 5.84325 24.8736C5.34648 25.202 4.76397 25.3767 4.16847 25.376ZM19.0631 27.8584C19.0631 28.4585 18.8851 29.0451 18.5517 29.544C18.2183 30.043 17.7445 30.4319 17.1901 30.6615C16.6357 30.8912 16.0256 30.9513 15.4371 30.8342C14.8485 30.7171 14.3079 30.4281 13.8836 30.0038C13.4592 29.5795 13.1703 29.0389 13.0532 28.4503C12.9361 27.8618 12.9962 27.2517 13.2259 26.6973C13.4555 26.1429 13.8444 25.669 14.3433 25.3357C14.8423 25.0023 15.4289 24.8243 16.029 24.8243C16.8334 24.8253 17.6045 25.1453 18.1733 25.714C18.7421 26.2828 19.0621 27.054 19.0631 27.8584ZM27.8895 25.376C27.2894 25.376 26.7028 25.198 26.2038 24.8646C25.7049 24.5312 25.316 24.0574 25.0864 23.503C24.8567 22.9486 24.7966 22.3385 24.9137 21.75C25.0308 21.1614 25.3197 20.6208 25.7441 20.1965C26.1684 19.7721 26.709 19.4832 27.2976 19.3661C27.8861 19.249 28.4962 19.3091 29.0506 19.5388C29.605 19.7684 30.0788 20.1573 30.4122 20.6562C30.7456 21.1552 30.9236 21.7418 30.9236 22.3419C30.9226 23.1463 30.6026 23.9175 30.0338 24.4862C29.4651 25.055 28.6939 25.375 27.8895 25.376ZM12.4432 3.58574C12.4432 2.87655 12.6535 2.18328 13.0476 1.59361C13.4416 1.00394 14.0016 0.544346 14.6568 0.27295C15.312 0.00155404 16.033 -0.069456 16.7285 0.0689004C17.4241 0.207257 18.063 0.548766 18.5645 1.05024C19.066 1.55171 19.4075 2.19063 19.5458 2.88619C19.6842 3.58176 19.6132 4.30273 19.3418 4.95794C19.0704 5.61314 18.6108 6.17316 18.0211 6.56717C17.4314 6.96117 16.7382 7.17147 16.029 7.17147C15.0783 7.17038 14.1669 6.79224 13.4947 6.12002C12.8225 5.44781 12.4443 4.5364 12.4432 3.58574Z" fill="#545454"/>
</svg>
