<svg width="58" height="59" viewBox="0 0 58 59" fill="none" xmlns="http://www.w3.org/2000/svg">
<g filter="url(#filter0_d_482_10327)">
<rect x="14" y="13" width="30" height="30" rx="12" fill="#97BCAB"/>
<g clip-path="url(#clip0_482_10327)">
<path d="M35.8688 20H22.1305C21.5064 20 21 20.5071 21 21.1305V34.8695C21 35.4936 21.5071 36 22.1305 36L23.1604 36.0007H35.8695C36.4936 36.0007 37 35.4936 37 34.8702V21.1312C37 20.5071 36.4929 20 35.8688 20ZM34.8389 20.247H35.8688C36.3574 20.247 36.753 20.6426 36.753 21.1312V22.4266H22.2762V21.1312C22.2762 20.6426 22.6718 20.247 23.1604 20.247H34.8389ZM22.1305 35.7537C21.6419 35.7537 21.2464 35.3582 21.2464 34.8696V21.1312C21.2464 20.6426 21.6419 20.2471 22.1305 20.2471H22.4569C22.1969 20.4544 22.0292 20.7726 22.0292 21.1312V34.8696C22.0292 35.2282 22.1962 35.5464 22.4562 35.7537H22.1305ZM35.8688 35.7537H23.1604C22.6718 35.7537 22.2763 35.3582 22.2763 34.8696V22.673H36.753V34.8696C36.753 35.3582 36.3575 35.7537 35.8688 35.7537Z" fill="white"/>
<path d="M23.7142 21.9167H24.261C24.4307 21.9167 24.5689 21.7784 24.5689 21.6087V21.062C24.5689 20.8923 24.4307 20.754 24.261 20.754H23.7142C23.5445 20.754 23.4062 20.8923 23.4062 21.062V21.6087C23.409 21.7784 23.5472 21.9167 23.7142 21.9167Z" fill="white"/>
<path d="M25.3053 21.9167H25.852C26.0217 21.9167 26.16 21.7784 26.16 21.6087V21.062C26.16 20.8923 26.0217 20.754 25.852 20.754H25.3053C25.1355 20.754 24.9973 20.8923 24.9973 21.062V21.6087C24.9973 21.7784 25.1349 21.9167 25.3053 21.9167Z" fill="white"/>
<path d="M26.8939 21.9167H27.4406C27.6104 21.9167 27.7486 21.7784 27.7486 21.6087V21.062C27.7486 20.8923 27.6104 20.754 27.4406 20.754H26.8939C26.7242 20.754 26.5859 20.8923 26.5859 21.062V21.6087C26.5859 21.7784 26.7242 21.9167 26.8939 21.9167Z" fill="white"/>
<path d="M29.2298 21.9167H35.2579C35.4276 21.9167 35.5659 21.7784 35.5659 21.6087V21.062C35.5659 20.8923 35.4276 20.754 35.2579 20.754H29.2298C29.0601 20.754 28.9219 20.8923 28.9219 21.062V21.6087C28.9226 21.7784 29.0601 21.9167 29.2298 21.9167Z" fill="white"/>
<path d="M24.1052 28.9399H27.5083C27.8005 28.9399 28.0366 28.7038 28.0366 28.4116L28.0359 24.2606C28.0359 23.9684 27.7998 23.7323 27.5076 23.7323H24.1052C23.813 23.7323 23.5769 23.9684 23.5769 24.2606V28.4097C23.5769 28.7039 23.813 28.9399 24.1052 28.9399ZM27.5076 28.6928H24.1052C23.9512 28.6928 23.8239 28.5683 23.8239 28.4116V27.7238C24.2673 27.0573 25.005 26.6618 25.8063 26.6618C26.6076 26.6618 27.346 27.0573 27.7887 27.7238V28.4136C27.7887 28.5655 27.6643 28.6928 27.5076 28.6928ZM25.8064 26.4126C25.3103 26.4126 24.9065 26.0089 24.9065 25.5128C24.9065 25.0166 25.3103 24.6129 25.8064 24.6129C26.3025 24.6129 26.7063 25.0166 26.7063 25.5128C26.7063 26.0096 26.3025 26.4126 25.8064 26.4126Z" fill="white"/>
<path d="M34.9236 29.5824H24.1052C23.813 29.5824 23.5769 29.8185 23.5769 30.1107V34.2598C23.5769 34.552 23.813 34.7881 24.1052 34.7881H34.9243C35.2165 34.7881 35.4525 34.552 35.4525 34.2598L35.4519 30.1081C35.4519 29.8186 35.2157 29.5824 34.9236 29.5824ZM35.2055 34.259C35.2055 34.4129 35.081 34.5402 34.9242 34.5402H24.1052C23.9512 34.5402 23.8239 34.4157 23.8239 34.259L23.8232 30.108C23.8232 29.954 23.9505 29.8267 24.1045 29.8267H34.9236C35.0775 29.8267 35.2048 29.9512 35.2048 30.108L35.2055 34.259Z" fill="white"/>
<path d="M30.5438 24.3187H35.0513C35.1786 24.3187 35.2819 24.2154 35.2819 24.0881C35.2819 23.9608 35.1786 23.8575 35.0513 23.8575L30.5438 23.8568C30.4801 23.8568 30.422 23.8835 30.3816 23.9232C30.3392 23.9656 30.3152 24.0217 30.3152 24.0854C30.3132 24.2154 30.4165 24.3187 30.5438 24.3187Z" fill="white"/>
<path d="M30.5438 25.7441H34.3369C34.4642 25.7441 34.5675 25.6408 34.5675 25.5135C34.5675 25.3862 34.4642 25.2829 34.3369 25.2829L30.5438 25.2822C30.4801 25.2822 30.422 25.3089 30.3816 25.3486C30.3392 25.391 30.3152 25.4471 30.3152 25.5108C30.3132 25.6408 30.4165 25.7441 30.5438 25.7441Z" fill="white"/>
<path d="M30.5438 27.1696H35.0513C35.1786 27.1696 35.2819 27.0662 35.2819 26.9389C35.2819 26.8117 35.1786 26.7083 35.0513 26.7083L30.5438 26.7076C30.4801 26.7076 30.422 26.7343 30.3816 26.774C30.3392 26.8164 30.3152 26.8726 30.3152 26.9362C30.3132 27.069 30.4165 27.1696 30.5438 27.1696Z" fill="white"/>
<path d="M30.5438 28.5977H33.8381C33.9654 28.5977 34.0687 28.4943 34.0687 28.367C34.0687 28.2398 33.9654 28.1364 33.8381 28.1364L30.5438 28.1357C30.4801 28.1357 30.422 28.1624 30.3816 28.2021C30.3392 28.2445 30.3152 28.3007 30.3152 28.3643C30.3132 28.4936 30.4165 28.5977 30.5438 28.5977Z" fill="white"/>
<path d="M31.7424 32.4804L32.0449 32.178C32.0983 32.1246 32.1168 32.0479 32.0928 31.9761C32.0689 31.9042 32.008 31.8543 31.9306 31.8433L30.3622 31.6339C30.3013 31.6257 30.2404 31.6469 30.1979 31.6894C30.1528 31.7345 30.1343 31.7927 30.1425 31.8563L30.3519 33.4248C30.3629 33.4994 30.4128 33.563 30.4847 33.587C30.5565 33.6109 30.6332 33.5925 30.6865 33.5391L30.989 33.2366L31.6076 33.8552C31.6446 33.8922 31.698 33.9134 31.7486 33.9134C31.7992 33.9134 31.8492 33.8949 31.8896 33.8552L32.3672 33.3776C32.4439 33.3009 32.4439 33.1757 32.3672 33.099L31.7424 32.4804Z" fill="white"/>
<path d="M28.8427 24.3509C28.8639 24.3803 28.8961 24.4015 28.9331 24.4043H28.944C28.9762 24.4043 29.0076 24.3913 29.0316 24.3673L29.6263 23.7726C29.6742 23.7247 29.6742 23.6454 29.6263 23.5975C29.5784 23.5495 29.499 23.5495 29.4511 23.5975L28.9625 24.0861L28.8776 23.9615C28.8407 23.9061 28.7633 23.8897 28.7052 23.9294C28.6497 23.9663 28.6333 24.0436 28.673 24.1018L28.8427 24.3509Z" fill="white"/>
<path d="M28.8427 25.8134C28.8639 25.8428 28.8961 25.864 28.9331 25.8668H28.944C28.9762 25.8668 29.0076 25.8538 29.0316 25.8298L29.6263 25.2352C29.6742 25.1873 29.6742 25.1079 29.6263 25.06C29.5784 25.0121 29.499 25.0121 29.4511 25.06L28.9625 25.5486L28.8776 25.424C28.8407 25.3686 28.7633 25.3522 28.7052 25.3919C28.6497 25.4288 28.6333 25.5062 28.673 25.5643L28.8427 25.8134Z" fill="white"/>
<path d="M28.8427 27.2782C28.8639 27.3077 28.8961 27.3289 28.9331 27.3316H28.944C28.9762 27.3316 29.0076 27.3186 29.0316 27.2947L29.6263 26.7C29.6742 26.6521 29.6742 26.5727 29.6263 26.5248C29.5784 26.4769 29.499 26.4769 29.4511 26.5248L28.9625 27.0134L28.8776 26.8889C28.8407 26.8335 28.7633 26.817 28.7052 26.8567C28.6497 26.8937 28.6333 26.971 28.673 27.0292L28.8427 27.2782Z" fill="white"/>
<path d="M28.8427 28.7409C28.8639 28.7703 28.8961 28.7915 28.9331 28.7943H28.944C28.9762 28.7943 29.0076 28.7813 29.0316 28.7573L29.6263 28.1626C29.6742 28.1147 29.6742 28.0354 29.6263 27.9875C29.5784 27.9396 29.499 27.9396 29.4511 27.9875L28.9625 28.4761L28.8776 28.3515C28.8407 28.2961 28.7633 28.2797 28.7052 28.3194C28.6497 28.3563 28.6333 28.4336 28.673 28.4918L28.8427 28.7409Z" fill="white"/>
</g>
</g>
<defs>
<filter id="filter0_d_482_10327" x="0" y="0.75" width="58" height="58" filterUnits="userSpaceOnUse" color-interpolation-filters="sRGB">
<feFlood flood-opacity="0" result="BackgroundImageFix"/>
<feColorMatrix in="SourceAlpha" type="matrix" values="0 0 0 0 0 0 0 0 0 0 0 0 0 0 0 0 0 0 127 0" result="hardAlpha"/>
<feOffset dy="1.75"/>
<feGaussianBlur stdDeviation="7"/>
<feComposite in2="hardAlpha" operator="out"/>
<feColorMatrix type="matrix" values="0 0 0 0 0.0313726 0 0 0 0 0.380392 0 0 0 0 0.345098 0 0 0 0.25 0"/>
<feBlend mode="normal" in2="BackgroundImageFix" result="effect1_dropShadow_482_10327"/>
<feBlend mode="normal" in="SourceGraphic" in2="effect1_dropShadow_482_10327" result="shape"/>
</filter>
<clipPath id="clip0_482_10327">
<rect width="16" height="16" fill="white" transform="translate(21 20)"/>
</clipPath>
</defs>
</svg>
