<svg width="33" height="40" viewBox="0 0 33 40" fill="none" xmlns="http://www.w3.org/2000/svg">
<path d="M7.38391 6.74976C7.70101 -0.0452423 13.4088 6.0343e-05 13.9524 6.0343e-05C14.496 6.0343e-05 20.2038 -0.0905425 20.5209 6.74976C20.5209 6.74976 21.6081 16.9423 13.9977 17.0329H13.9524H13.9071C6.2514 16.9423 7.38391 6.74976 7.38391 6.74976ZM21.4269 34.9717H13.9524H0V28.9015C0 28.9921 0 29.0827 0 29.0827C0 28.5844 0 28.1767 0 27.7237V27.5425C0 27.5425 0 27.5425 0 27.4972C0.0453 25.2775 0.4983 23.7826 2.718 22.3783C5.7078 20.521 9.01471 18.8902 9.01471 18.8902L11.6421 27.2707L13.1823 22.8766C10.4643 19.0714 13.3635 18.8902 13.9071 18.8902C14.4054 18.8902 17.3499 19.0714 14.6319 22.8766L16.1721 27.2707L18.7995 18.8902C18.7995 18.8902 22.1064 20.521 25.0962 22.3783C27.3612 23.7826 27.7689 25.3228 27.8142 27.4972C27.8142 27.4972 27.8142 27.4972 27.8142 27.5425V27.7237C27.8142 27.9502 27.8142 28.222 27.8142 28.4938C24.3261 28.4485 21.4269 31.3477 21.4269 34.9717ZM27.8595 27.4972C27.8595 27.4519 27.8595 27.4519 27.8595 27.4972ZM0 27.4972C0 27.4519 0 27.4519 0 27.4972ZM32.9331 34.9717C32.9331 37.735 30.6681 40 27.9048 40C25.1415 40 22.8765 37.735 22.8765 34.9717C22.8765 32.2084 25.1415 29.9434 27.9048 29.9434C30.6681 29.9434 32.9331 32.1631 32.9331 34.9717ZM27.2706 32.5255C27.2706 33.0238 27.6783 33.3862 28.1313 33.4315C28.5843 33.4315 28.992 33.0238 28.992 32.5708C28.992 32.0725 28.6296 31.7101 28.1313 31.7101C27.633 31.6648 27.2706 32.0272 27.2706 32.5255ZM29.1732 37.3273C29.0826 37.3726 28.992 37.4179 28.9467 37.4632C28.8561 37.5085 28.7202 37.5538 28.6296 37.5538C28.4937 37.5538 28.4031 37.5085 28.3578 37.3726C28.3125 37.282 28.3125 37.1914 28.3125 37.0555C28.3578 36.829 28.3578 36.6478 28.4031 36.4213C28.4937 35.7871 28.6296 35.1982 28.7202 34.564C28.7655 34.3828 28.7655 34.2469 28.7655 34.0657C28.7655 33.8845 28.6296 33.7486 28.4484 33.7486C28.1766 33.7486 27.9048 33.7486 27.5877 33.7486C27.3159 33.7486 27.0441 33.7486 26.7723 33.7486C26.727 33.7486 26.6364 33.7486 26.5911 33.7486C26.4552 33.7939 26.4099 33.8392 26.4099 33.9298C26.4099 34.0204 26.4552 34.111 26.5458 34.1563C26.6364 34.2016 26.727 34.2016 26.8176 34.2016C27.0441 34.2469 27.1347 34.2922 27.1347 34.5187C27.1347 34.564 27.1347 34.6093 27.1347 34.6093C27.0441 35.1529 26.9535 35.6965 26.8629 36.2401C26.8176 36.5572 26.7723 36.8743 26.727 37.1914C26.6817 37.6444 27.0894 38.0974 27.4518 38.1427C27.6783 38.188 27.8595 38.188 28.086 38.188C28.539 38.188 28.9014 38.0068 29.2185 37.6897C29.2638 37.6444 29.3091 37.5538 29.3544 37.4632C29.3997 37.3726 29.3091 37.282 29.1732 37.3273Z" fill="black"/>
</svg>
