<svg width="32" height="32" viewBox="0 0 32 32" fill="none" xmlns="http://www.w3.org/2000/svg">
<path fill-rule="evenodd" clip-rule="evenodd" d="M0 16C0 24.8368 7.1632 32 16 32C24.8368 32 32 24.8368 32 16C32 7.1632 24.8368 0 16 0C7.1632 0 0 7.1632 0 16ZM15.6797 11.6C15.6797 13.5882 14.0679 15.2 12.0797 15.2C10.0915 15.2 8.47969 13.5882 8.47969 11.6C8.47969 9.61177 10.0915 8 12.0797 8C14.0679 8 15.6797 9.61177 15.6797 11.6ZM12.8002 28.3968V23.04C12.8002 20.9872 14.3922 19.3728 16.7474 18.4512C15.2285 17.8863 13.6207 17.598 12.0002 17.6C8.9762 17.6 6.1826 18.5872 3.925 20.256C5.34645 24.2761 8.67262 27.327 12.8002 28.3968ZM27.008 22.5376C26.376 21.6848 24.272 20.8 21.6 20.8C18.3904 20.8 16 22.0752 16 23.04V28.8C20.5177 28.8025 24.7017 26.4222 27.008 22.5376ZM21.6 16.8C23.3673 16.8 24.8 15.3673 24.8 13.6C24.8 11.8327 23.3673 10.4 21.6 10.4C19.8327 10.4 18.4 11.8327 18.4 13.6C18.4 15.3673 19.8327 16.8 21.6 16.8Z" fill="#545454"/>
</svg>
