<svg width="32" height="32" viewBox="0 0 32 32" fill="none" xmlns="http://www.w3.org/2000/svg">
<path d="M3.10581 4.0929C1.40228 4.0929 0 5.49253 0 7.19604V28.8942C0 30.5977 1.40228 32 3.10581 32H28.8856C30.5891 32 32.0021 30.5977 32.0021 28.8942V7.19604C32.0021 5.49253 30.5891 4.0929 28.8856 4.0929H3.10581ZM1.95176 10.8948H30.053V12.937H1.95176V10.8948ZM24.8411 14.9765C25.0752 14.9759 25.3024 15.0557 25.4846 15.2025C25.5895 15.2863 25.6767 15.3899 25.7415 15.5074C25.8062 15.6249 25.8472 15.7541 25.862 15.8874C25.8768 16.0208 25.8652 16.1558 25.8278 16.2846C25.7905 16.4135 25.7281 16.5337 25.6442 16.6384L20.1984 23.443C20.109 23.5535 19.9976 23.644 19.8713 23.7089L21.6157 26.3255C21.6903 26.437 21.7422 26.5622 21.7685 26.6938C21.7947 26.8254 21.7947 26.9609 21.7686 27.0926C21.7424 27.2242 21.6905 27.3494 21.6159 27.4609C21.5413 27.5725 21.4455 27.6683 21.3338 27.7428C21.2218 27.817 21.0962 27.8685 20.9643 27.8941C20.8324 27.9197 20.6967 27.9191 20.565 27.8921C20.4333 27.8652 20.3082 27.8125 20.197 27.7372C20.0857 27.6618 19.9904 27.5652 19.9165 27.4529L17.4941 23.8233H10.4794L8.05702 27.4529C7.98316 27.5652 7.88785 27.6618 7.77657 27.7372C7.66529 27.8125 7.54023 27.8652 7.40855 27.8921C7.27688 27.9191 7.14118 27.9197 7.00925 27.8941C6.87732 27.8685 6.75174 27.817 6.63972 27.7428C6.415 27.5924 6.25912 27.3589 6.20627 27.0937C6.15343 26.8285 6.20795 26.5532 6.35786 26.3281L8.02511 23.8233H7.15292C6.88257 23.8247 6.6227 23.7188 6.43028 23.5289C6.23787 23.339 6.12863 23.0805 6.12653 22.8102C6.12582 22.6752 6.15189 22.5414 6.20322 22.4166C6.25455 22.2917 6.33013 22.1783 6.42558 22.0828C6.52103 21.9874 6.63446 21.9118 6.7593 21.8605C6.88415 21.8091 7.01794 21.7831 7.15292 21.7838H9.94763H11.7718L15.5503 17.9972C15.7432 17.8079 16.0033 17.7027 16.2736 17.7047H21.9401C22.0135 17.7057 22.0866 17.7146 22.1581 17.7313L24.0567 15.362C24.1432 15.253 24.251 15.1629 24.3735 15.097C24.496 15.0312 24.6308 14.9911 24.7694 14.9791C24.7932 14.9774 24.8172 14.9766 24.8411 14.9765ZM16.6937 19.7442L14.6489 21.7838H18.0764H18.9114L20.5467 19.7442H16.6937Z" fill="#545454"/>
<path d="M7.82882 7.95067e-06C7.69405 -0.000523179 7.56051 0.0256297 7.4359 0.0769585C7.31129 0.128287 7.19807 0.203777 7.10278 0.299073C7.00748 0.39437 6.93199 0.507589 6.88067 0.632201C6.82934 0.756813 6.80319 0.890354 6.80372 1.02512V7.82905C6.80319 7.96381 6.82934 8.09735 6.88067 8.22197C6.93199 8.34658 7.00748 8.4598 7.10278 8.55509C7.19807 8.65039 7.31129 8.72588 7.4359 8.77721C7.56051 8.82854 7.69405 8.85469 7.82882 8.85416C7.96359 8.85469 8.09713 8.82854 8.22174 8.77721C8.34636 8.72588 8.45958 8.65039 8.55487 8.5551C8.65017 8.4598 8.72566 8.34658 8.77698 8.22197C8.82831 8.09735 8.85446 7.96381 8.85393 7.82905V1.02512C8.85446 0.890353 8.82831 0.756813 8.77698 0.6322C8.72566 0.507587 8.65017 0.394368 8.55487 0.299071C8.45958 0.203775 8.34636 0.128286 8.22174 0.076957C8.09713 0.0256285 7.96359 -0.00052386 7.82882 7.95067e-06Z" fill="#545454"/>
<path d="M24.1699 7.95067e-06C24.0351 -0.00052386 23.9016 0.0256285 23.777 0.076957C23.6524 0.128286 23.5391 0.203775 23.4438 0.299071C23.3485 0.394368 23.2731 0.507587 23.2217 0.6322C23.1704 0.756813 23.1443 0.890353 23.1448 1.02512V7.82905C23.1443 7.96381 23.1704 8.09735 23.2217 8.22197C23.2731 8.34658 23.3485 8.4598 23.4438 8.5551C23.5391 8.65039 23.6524 8.72588 23.777 8.77721C23.9016 8.82854 24.0351 8.85469 24.1699 8.85416C24.4404 8.85256 24.6991 8.74373 24.8894 8.55154C25.0797 8.35935 25.186 8.09951 25.1849 7.82905V1.02512C25.186 0.754658 25.0797 0.494818 24.8894 0.302629C24.6991 0.11044 24.4404 0.00160392 24.1699 7.95067e-06Z" fill="#545454"/>
</svg>
