<svg width="32" height="32" viewBox="0 0 32 32" fill="none" xmlns="http://www.w3.org/2000/svg">
<path fill-rule="evenodd" clip-rule="evenodd" d="M9.33342 6.66665V2.66665C9.33342 1.93027 9.93037 1.33331 10.6667 1.33331H21.3334C22.0698 1.33331 22.6667 1.93027 22.6667 2.66665V6.66665H28.0001C28.7365 6.66665 29.3334 7.2636 29.3334 7.99998V26.6666C29.3334 27.403 28.7365 28 28.0001 28H4.00008C3.2637 28 2.66675 27.403 2.66675 26.6666V7.99998C2.66675 7.2636 3.2637 6.66665 4.00008 6.66665H9.33342ZM22.6667 9.33331V16H26.6667V9.33331H22.6667ZM12.0001 9.33331H20.0001V16H12.0001V9.33331ZM9.33341 9.33331H5.33341V16H9.33341V9.33331ZM12.0001 6.66665V3.99998H20.0001V6.66665H12.0001Z" fill="#545454"/>
</svg>
