<svg width="189" height="163" viewBox="0 0 189 163" fill="none" xmlns="http://www.w3.org/2000/svg">
<path d="M94.1555 162.947C132.497 162.947 163.578 131.865 163.578 93.5242C163.578 55.1831 132.497 24.1016 94.1555 24.1016C55.8145 24.1016 24.7329 55.1831 24.7329 93.5242C24.7329 131.865 55.8145 162.947 94.1555 162.947Z" fill="url(#paint0_linear_353_7669)"/>
<path d="M66.1252 98.3126L87.2501 40.3049L148.766 105.349L98.689 128.337C79.3179 137.229 58.8316 118.341 66.1252 98.3126Z" fill="#E1DCEB"/>
<path d="M125.818 65.7418C134.304 74.7836 141.14 83.7431 145.334 90.9115C147.434 94.4992 148.857 97.6141 149.503 100.052C149.826 101.272 149.948 102.296 149.877 103.112C149.807 103.924 149.552 104.496 149.15 104.873C148.749 105.249 148.162 105.469 147.347 105.487C146.528 105.505 145.513 105.319 144.317 104.92C141.925 104.12 138.906 102.503 135.459 100.181C128.57 95.5407 120.062 88.1513 111.575 79.1095C103.089 70.0677 96.2532 61.1082 92.0588 53.9399C89.9596 50.3521 88.5364 47.2372 87.8903 44.7991C87.5672 43.5797 87.4456 42.5556 87.5159 41.7394C87.5859 40.9272 87.8418 40.3549 88.243 39.9784C88.6441 39.6019 89.2315 39.3828 90.0464 39.3643C90.8654 39.3458 91.8798 39.532 93.0763 39.9317C95.4686 40.7309 98.4871 42.3485 101.935 44.6707C108.823 49.3106 117.332 56.7 125.818 65.7418Z" fill="#011625" stroke="#011625"/>
<mask id="mask0_353_7669" style="mask-type:alpha" maskUnits="userSpaceOnUse" x="64" y="40" width="85" height="91">
<path d="M66.1251 98.3126L87.25 40.3049L148.766 105.349L98.6889 128.337C79.3177 137.229 58.8315 118.341 66.1251 98.3126Z" fill="#E1DCEB"/>
</mask>
<g mask="url(#mask0_353_7669)">
<path fill-rule="evenodd" clip-rule="evenodd" d="M85.8822 93.5692C73.5574 77.4285 67.3214 58.186 65.3101 45.2671L75.2346 43.7219C77.0451 55.3506 82.7595 72.9295 93.8652 87.4735C104.866 101.881 120.961 113.115 143.915 113.115V123.159C117.127 123.159 98.3116 109.847 85.8822 93.5692Z" fill="#011625"/>
<path fill-rule="evenodd" clip-rule="evenodd" d="M87.2052 90.4822C74.8804 74.3416 68.6444 55.0991 66.6331 42.1802L76.5576 40.635C78.3681 52.2637 84.0825 69.8426 95.1882 84.3865C106.189 98.7936 122.284 110.028 145.238 110.028V120.073C118.45 120.073 99.6346 106.76 87.2052 90.4822Z" fill="white"/>
<path fill-rule="evenodd" clip-rule="evenodd" d="M71.3301 113.853C59.0053 97.7125 52.7693 78.4699 50.7579 65.551L60.6825 64.0059C62.493 75.6346 68.2074 93.2135 79.313 107.757C90.3142 122.164 106.409 133.399 129.363 133.399V143.443C102.575 143.443 83.7595 130.131 71.3301 113.853Z" fill="white"/>
</g>
<circle cx="114.405" cy="126.907" r="17.7249" fill="#086158"/>
<path fill-rule="evenodd" clip-rule="evenodd" d="M121.578 121.528C122.264 122.226 122.254 123.349 121.556 124.035L113.141 132.307C112.452 132.985 111.346 132.985 110.656 132.307L107.254 128.963C106.556 128.277 106.547 127.154 107.233 126.456C107.919 125.758 109.041 125.748 109.74 126.435L111.899 128.557L119.071 121.507C119.769 120.821 120.891 120.83 121.578 121.528Z" fill="white"/>
<path d="M148.876 42.2067L148.876 42.2065C149.916 39.5654 150.33 36.9335 150.769 34.1485C150.844 33.6732 150.919 33.1936 150.998 32.7086L148.876 42.2067ZM148.876 42.2067C148.739 42.5565 148.342 42.7291 147.993 42.5913L147.991 42.5902C147.642 42.4546 147.469 42.0599 147.606 41.7111L147.606 41.711M148.876 42.2067L147.606 41.711M147.606 41.711C148.616 39.145 149.015 36.5726 149.416 33.9866M147.606 41.711L149.416 33.9866M149.416 33.9866C149.493 33.4883 149.57 32.9896 149.652 32.4903L149.416 33.9866ZM150.435 31.9273C150.808 31.9887 151.059 32.3386 150.998 32.7085L149.652 32.4901C149.713 32.1182 150.065 31.8662 150.435 31.9273Z" fill="#011625" stroke="#011625"/>
<path d="M155.047 49.2174L155.046 49.2178C154.738 49.4317 154.312 49.3551 154.096 49.0464C153.883 48.7407 153.958 48.3176 154.267 48.1026C160.233 43.9725 166.078 38.4116 170.426 32.5835L170.426 32.5832C170.65 32.2832 171.078 32.2197 171.382 32.4444C171.682 32.6667 171.746 33.0923 171.521 33.3934C167.093 39.329 161.131 45.0028 155.047 49.2174Z" fill="#011625" stroke="#011625"/>
<path d="M171.34 53.3376L171.34 53.3367C171.237 52.977 170.858 52.7665 170.495 52.8692C166.085 54.1306 161.116 54.8734 156.53 53.4743L156.53 53.4742C156.169 53.3639 155.788 53.568 155.679 53.9237L155.679 53.924C155.57 54.279 155.772 54.6613 156.132 54.7715L171.34 53.3376ZM171.34 53.3376C171.443 53.6916 171.237 54.0692 170.872 54.1751C166.104 55.5372 160.881 56.2211 156.132 54.7716L171.34 53.3376Z" fill="#011625" stroke="#011625"/>
<circle cx="156.354" cy="63.6885" r="3.54498" fill="#417BA4"/>
<circle cx="126.813" cy="27.0566" r="3.54498" fill="#417BA4"/>
<path d="M133.633 42.6905C133.327 41.4238 131.525 41.4238 131.219 42.6905L130.823 44.3314C130.714 44.7841 130.361 45.1375 129.908 45.2468L128.267 45.6429C127 45.9487 127 47.7505 128.267 48.0563L129.908 48.4523C130.361 48.5616 130.714 48.9151 130.823 49.3678L131.219 51.0086C131.525 52.2753 133.327 52.2753 133.633 51.0086L134.029 49.3678C134.138 48.9151 134.492 48.5616 134.944 48.4523L136.585 48.0563C137.852 47.7505 137.852 45.9487 136.585 45.6429L134.944 45.2468C134.492 45.1375 134.138 44.7841 134.029 44.3314L133.633 42.6905Z" fill="#417BA4"/>
<path fill-rule="evenodd" clip-rule="evenodd" d="M118.521 15.4239C118.879 16.3349 118.431 17.3638 117.52 17.7221C114.92 18.7446 111.587 22.0383 109.362 26.138C107.668 29.2586 106.846 32.4101 107.191 34.9893C108.232 33.504 109.477 32.2857 110.922 31.5031C113.512 30.1001 116.467 30.249 119.328 32.1986C121.828 33.9021 122.847 36.3261 122.577 38.7412C122.319 41.0504 120.911 43.138 119 44.4494C117.06 45.7805 114.485 46.3942 111.828 45.5807C110.322 45.1196 108.878 44.2278 107.556 42.8737C106.295 47.7825 106.341 53.9313 108.425 59.3695C108.775 60.2836 108.318 61.3086 107.404 61.6589C106.49 62.0092 105.465 61.5522 105.114 60.6381C102.366 53.4661 102.723 45.2751 104.964 39.3095C104.9 39.1944 104.837 39.0778 104.775 38.9596C102.417 34.508 103.829 28.9017 106.246 24.447C108.683 19.9579 112.546 15.8686 116.223 14.423C117.134 14.0647 118.163 14.5128 118.521 15.4239ZM108.945 39.0047C110.283 40.9064 111.672 41.8255 112.866 42.1911C114.37 42.6515 115.836 42.3213 116.994 41.5265C118.181 40.712 118.926 39.4918 119.054 38.3474C119.17 37.3091 118.808 36.1337 117.332 35.1281C115.462 33.8536 113.926 33.9078 112.611 34.6201C111.299 35.3305 110.001 36.8169 108.945 39.0047Z" fill="#E3E3E3"/>
<path fill-rule="evenodd" clip-rule="evenodd" d="M175.739 84.746C157.16 77.8404 142.942 86.4272 138.344 91.2839C137.222 92.4688 135.353 92.52 134.168 91.3983C132.983 90.2767 132.932 88.4069 134.053 87.2221C139.892 81.0544 156.513 71.2966 177.798 79.2078C179.327 79.7763 180.106 81.4768 179.537 83.0061C178.969 84.5354 177.269 85.3144 175.739 84.746Z" fill="#CCC6D9"/>
<path fill-rule="evenodd" clip-rule="evenodd" d="M156.838 90.9543C157.253 90.8025 157.689 90.6007 158.025 90.3086C158.425 89.9616 158.588 89.5148 158.697 89.0444C158.837 88.4401 158.893 87.7964 159.063 87.1911C159.126 86.9663 159.247 86.8813 159.299 86.8436C159.43 86.7484 159.563 86.7229 159.687 86.7325C159.835 86.7435 160.039 86.801 160.172 87.0559C160.191 87.0924 160.216 87.148 160.233 87.2241C160.245 87.28 160.253 87.4545 160.266 87.5265C160.298 87.7038 160.325 87.8811 160.35 88.0593C160.434 88.6526 160.483 89.1565 160.748 89.7016C161.109 90.4415 161.47 90.8943 161.96 91.0948C162.434 91.2887 163 91.2523 163.724 91.1002C163.792 91.0831 163.861 91.0684 163.928 91.0564C164.247 90.9991 164.552 91.2143 164.615 91.5409C164.677 91.8673 164.475 92.1854 164.158 92.2571C164.092 92.2721 164.027 92.2863 163.963 92.2993C162.985 92.548 161.853 93.4359 161.195 94.2133C160.992 94.453 160.696 95.1232 160.393 95.5507C160.169 95.8661 159.918 96.074 159.707 96.1474C159.566 96.1969 159.447 96.1893 159.348 96.1643C159.205 96.1281 159.087 96.0485 158.996 95.9219C158.946 95.8526 158.9 95.7598 158.878 95.6413C158.868 95.5842 158.867 95.4393 158.867 95.3737C158.805 95.1555 158.73 94.9425 158.675 94.7223C158.543 94.1971 158.286 93.8646 157.98 93.4253C157.694 93.0142 157.386 92.7559 156.936 92.5497C156.877 92.5351 156.404 92.4161 156.237 92.3477C155.993 92.2476 155.877 92.0799 155.834 91.9895C155.763 91.8362 155.755 91.7023 155.77 91.5906C155.791 91.4259 155.863 91.2848 155.991 91.171C156.07 91.1002 156.188 91.0314 156.346 90.9978C156.468 90.9716 156.793 90.9565 156.838 90.9543ZM159.613 90.0982C159.635 90.1484 159.658 90.1989 159.683 90.2498C160.211 91.3335 160.801 91.9386 161.519 92.2322L161.543 92.2417C161.063 92.608 160.628 93.0174 160.296 93.4099C160.159 93.5715 159.978 93.9072 159.783 94.2515C159.605 93.6577 159.314 93.238 158.949 92.7128C158.67 92.312 158.377 92.0103 158.017 91.7645C158.296 91.6173 158.563 91.445 158.794 91.2437C159.18 90.9085 159.436 90.5201 159.613 90.0982Z" fill="#417BA4"/>
<path d="M54.1506 92.7268L54.1508 92.7267C54.6334 92.2921 54.6749 91.5459 54.2409 91.0601C53.8082 90.5722 53.0608 90.5302 52.5763 90.9664C49.8717 93.4005 48.3286 96.4238 47.8835 100.028C47.8023 100.676 48.2629 101.266 48.9061 101.348L48.9068 101.348C49.5548 101.429 50.145 100.968 50.2222 100.32L49.7258 100.261L50.2219 100.322C50.5964 97.288 51.8813 94.7682 54.1506 92.7268Z" fill="#011625" stroke="#011625"/>
<path d="M18.3893 106.621L18.3897 106.621C19.284 106.909 20.0094 106.773 20.5526 106.382C21.0678 106.011 21.3785 105.42 21.5131 104.753L21.5132 104.753C21.6413 104.117 21.611 103.375 21.5113 102.697C21.4279 102.13 21.2918 101.58 21.1373 101.133C21.5435 100.574 21.9964 100.049 22.4895 99.5622C26.5513 95.5545 33.5818 95.5972 39.7637 99.8009C40.7633 100.481 41.6504 101.68 42.4357 103.251C43.2171 104.814 43.8747 106.699 44.4396 108.694L44.4397 108.694C45.9703 114.097 46.711 120.204 47.0623 123.1C47.1151 123.535 47.159 123.898 47.1956 124.174L47.1958 124.176C47.2329 124.452 47.2781 124.675 47.3212 124.843C47.3426 124.926 47.3643 124.999 47.3853 125.059C47.401 125.104 47.429 125.18 47.4714 125.248C47.7673 125.722 48.1965 125.802 48.4494 125.809L48.4494 125.809L48.4548 125.809C48.8062 125.815 49.0854 125.703 49.299 125.544L49.3014 125.542C49.5933 125.322 49.7941 124.986 49.8378 124.557L49.8381 124.554C49.8601 124.32 49.8249 124.046 49.7808 123.807L49.7798 123.802C49.7697 123.75 49.7577 123.7 49.7477 123.659C49.7452 123.649 49.7429 123.64 49.7407 123.631C49.7332 123.6 49.7271 123.575 49.7215 123.551C49.715 123.521 49.7117 123.503 49.7102 123.491C49.7878 122.842 49.8985 122.201 50.012 121.543C50.0287 121.446 50.0455 121.349 50.0622 121.251L50.0624 121.25C50.4887 118.729 51.1779 116.313 51.9898 113.867L51.9899 113.867C52.208 113.21 52.4245 112.55 52.6412 111.891C55.0112 104.676 57.4048 97.3893 62.1657 91.5309L62.1658 91.5308C62.5741 91.0281 62.5035 90.2842 61.9989 89.87C61.4947 89.4535 60.7521 89.5314 60.3399 90.0346L60.3387 90.0361C55.3172 96.2136 52.7938 103.884 50.3657 111.264C50.1616 111.885 49.9582 112.503 49.754 113.118L49.754 113.118C49.332 114.391 48.9394 115.663 48.5963 116.95C48.086 113.753 47.3471 109.992 46.2823 106.633C45.6732 104.711 44.9461 102.91 44.0917 101.397C43.24 99.8883 42.2443 98.6346 41.084 97.8451L41.0839 97.845C34.0518 93.063 25.7576 93.0187 20.8365 97.8763L20.8363 97.8764C20.4666 98.2417 20.1139 98.6262 19.7822 99.0286C15.9818 94.6452 9.69851 93.7183 4.78905 97.0048C4.24511 97.368 4.10442 98.1012 4.46115 98.6414L4.46115 98.6414L4.46297 98.6441C4.82439 99.1837 5.55389 99.3352 6.09848 98.9717L6.09907 98.9713C10.1658 96.249 15.4045 97.1614 18.3859 101.047C18.0226 101.684 17.7079 102.352 17.4525 103.047C17.3194 103.408 17.0856 104.207 17.1374 104.896C17.1926 105.659 17.5716 106.356 18.3893 106.621Z" fill="#011625" stroke="#011625"/>
<defs>
<linearGradient id="paint0_linear_353_7669" x1="93.6204" y1="1.49585" x2="95.0425" y2="245.298" gradientUnits="userSpaceOnUse">
<stop stop-color="#F2F2F2"/>
<stop offset="1" stop-color="#EFEFEF"/>
</linearGradient>
</defs>
</svg>
