<svg width="135" height="155" viewBox="0 0 135 155" fill="none" xmlns="http://www.w3.org/2000/svg">
<path d="M133.963 37.7038C133.874 37.0926 133.808 36.8888 133.042 36.5384C129.839 35.2099 117.843 35.0225 114.379 34.9817C114.391 34.316 114.237 33.6577 113.931 33.0665C112.635 31.7543 104.346 31.9092 102.586 31.5506C102.423 31.5506 102.439 31.5506 102.398 31.4039C101.983 30.3851 101.877 26.9703 101.2 25.7804C99.937 23.5473 95.1448 22.2677 92.1863 24.3786C90.6601 23.9186 89.0291 23.9413 87.5164 24.4438C86.7008 24.7757 85.9676 25.2817 85.3679 25.9264C84.7682 26.5711 84.3165 27.3391 84.0445 28.1765C83.5839 29.7168 83.3344 31.3124 83.3028 32.9198C81.7951 33.4169 73.9385 34.0037 73.0338 35.1773C72.8105 35.5197 72.6633 35.906 72.6019 36.3102C67.0599 36.7258 67.6548 36.7992 67.5896 36.6036C65.5195 30.1569 58.0623 23.7103 58.0623 23.7103C57.8911 23.5554 57.72 23.7103 57.3451 23.8733C56.9188 22.662 56.3727 21.4962 55.7151 20.3932C55.7307 20.1213 55.6386 19.8541 55.4585 19.6497C55.2785 19.4452 55.0251 19.32 54.7534 19.3011C55.4869 18.4291 54.2644 17.0354 52.5855 18.1846C52.3002 17.7689 51.9987 17.3696 51.689 16.9295C51.8734 16.8117 52.0407 16.6691 52.1861 16.5057C52.3573 16.196 51.3711 16.5057 57.231 15.4054C58.3149 15.1854 63.099 14.2155 63.751 14.0036C63.8249 13.9946 63.8935 13.9606 63.9454 13.9073C63.9973 13.8539 64.0293 13.7844 64.0362 13.7102C65.1772 13.0827 63.9058 9.69228 63.4168 8.48608C65.4462 6.52193 65.0468 4.41108 63.3272 3.79983C62.5346 3.55725 61.6938 3.51801 60.8822 3.68573C60.1113 2.3541 59.0635 1.20347 57.8096 0.311631C56.8887 -0.193669 56.1796 0.116031 55.9677 0.596881C55.7558 1.07773 47.9155 10.3769 47.8177 10.4339C46.3344 10.8577 44.1421 11.7868 43.4167 13.1479C41.7378 16.3345 44.9978 20.2465 48.1763 19.0077L48.755 18.8203C49.0973 19.3174 49.5211 19.8798 49.896 20.3769C49.8247 20.5074 49.7647 20.6437 49.7167 20.7844C49.627 21.0778 49.0321 21.8602 49.4233 22.6426C49.8145 23.425 52.5203 25.3321 53.3353 25.8456L53.1641 25.9352C53.1075 25.9588 53.0623 26.0034 53.038 26.0596C53.0136 26.1159 53.0121 26.1794 53.0337 26.2368C53.5064 27.6223 56.0574 34.2564 54.8186 33.9956C53.0093 33.6044 48.5349 31.8521 43.0907 30.0754C40.0997 29.0974 38.0948 28.152 35.4297 27.5326C35.2341 26.2531 35.0141 25.8456 34.8185 24.8105C35.6982 24.4355 36.443 23.8016 36.9538 22.9931C37.2472 22.5041 36.9049 22.6997 37.5243 22.8219C37.7253 22.8818 37.9417 22.8619 38.1285 22.7662C38.3152 22.6706 38.4578 22.5066 38.5267 22.3085C39.2602 22.5611 39.9611 22.1455 39.7981 21.2897C40.3197 21.2897 41.2814 21.2897 41.4281 20.3851C41.6482 19.293 40.2953 18.9099 39.953 18.5024C39.3365 17.7365 38.8918 16.8471 38.649 15.8944C37.834 13.2864 37.1983 8.88543 35.7639 7.21468C35.3148 6.71804 34.7627 6.32549 34.1462 6.06448C33.5296 5.80348 32.8635 5.68031 32.1944 5.7036C31.5252 5.72688 30.8693 5.89606 30.2724 6.1993C29.6754 6.50255 29.152 6.93253 28.7386 7.45918C28.2199 7.1654 27.674 6.92248 27.1086 6.73383C26.4156 6.62077 25.7068 6.65219 25.0266 6.8261C24.3464 7.00001 23.7095 7.31266 23.1558 7.74443C20.4826 10.0183 21.86 13.9303 20.0588 18.1275C19.4965 19.4315 16.6929 22.2433 18.7467 23.3109C18.9586 23.3763 19.1844 23.3828 19.3997 23.3297C19.6151 23.2765 19.8119 23.1658 19.9692 23.0094C19.9892 23.2202 20.0501 23.425 20.1485 23.6125C20.3929 23.9051 20.7093 24.1289 21.0667 24.2618C21.424 24.3947 21.8098 24.4322 22.186 24.3704C22.4193 24.2933 22.6294 24.1588 22.7972 23.9792C22.8519 24.1485 22.9503 24.3003 23.0825 24.4193C23.7508 24.9491 24.5658 24.9002 25.2667 23.8407C25.3757 23.9946 25.5265 24.114 25.7013 24.1848C25.876 24.2555 26.0675 24.2747 26.2528 24.24V26.9377C25.8046 26.9947 25.3563 27.0518 24.9081 27.1333C24.8704 27.1258 24.8316 27.1258 24.794 27.1333C19.8761 27.8552 15.267 29.9675 11.5095 33.2213C7.74665 36.4217 4.66242 40.3428 2.43852 44.7536C0.474365 49.0731 0.686266 50.6705 1.36272 53.7186C1.77914 55.4715 2.57787 57.1107 3.70176 58.5189C4.94056 60.1978 6.85581 62.219 9.62682 65.2101C10.287 65.9191 11.1183 66.8401 11.8192 67.541C11.4443 69.2525 8.79552 79.5948 8.95037 81.6894C8.95037 81.9013 9.14597 82.1539 9.56977 82.3332C10.9579 82.7478 12.3927 82.986 13.8404 83.0423C13.3595 100.345 14.5902 123.042 16.1142 139.889C16.052 139.91 15.996 139.946 15.9512 139.994C15.6903 140.713 15.6903 141.501 15.9512 142.219C16.0572 142.439 16.2609 142.423 16.7662 142.464C16.7662 143.507 16.8559 144.713 16.9211 145.765C16.7383 145.907 16.5741 146.071 16.4321 146.254C16.375 146.384 16.3669 146.343 16.7336 148.479C16.4819 149.17 16.2884 149.882 16.155 150.606C16.079 151.146 16.0327 151.69 16.0164 152.236C16.0146 152.528 16.106 152.814 16.2772 153.051C17.3091 153.857 18.4651 154.49 19.7002 154.925C21.0795 154.706 22.3821 154.146 23.49 153.295C23.6275 153.172 23.7329 153.017 23.7968 152.844C23.8607 152.67 23.8813 152.484 23.8567 152.301C23.8072 150.967 23.5797 149.646 23.1803 148.373C23.3431 147.675 23.4306 146.962 23.4411 146.246C23.3922 146.091 23.3025 146.017 22.8624 145.732C22.9684 144.721 23.0662 143.58 23.1395 142.578H24.1583C24.8021 142.537 24.6065 141.413 24.6391 140.516C24.6391 140.198 24.3294 140.084 24.036 140.019L31.7622 90.2224C32.3246 93.3194 33.653 101.062 33.6449 104.224C33.6449 104.99 31.6807 130.255 31.1999 136.873C31.1224 136.891 31.0517 136.93 30.9961 136.987C30.7069 137.684 30.647 138.455 30.825 139.188C30.9146 139.432 31.1428 139.432 31.4851 139.489C31.3629 140.63 31.2488 141.853 31.1591 143.034C30.8331 143.034 30.7353 143.116 30.6294 143.417C30.3115 144.33 29.9855 147.566 30.556 148.462C30.9391 149.057 43.8568 151.527 47.2798 150.019C47.9644 149.709 47.9318 149.008 47.8177 148.267C47.6221 146.93 42.1127 145.096 40.4827 144.298C40.3279 144.216 40.3605 144.241 40.2953 144.118C39.4803 142.635 39.2521 142.008 39.0157 141.893C38.7801 141.825 38.5321 141.812 38.2904 141.853C38.2333 141.29 38.1763 140.744 38.1111 140.125C38.2469 140.149 38.3867 140.129 38.5104 140.068C38.8527 139.823 38.8201 138.796 38.9016 138.112C38.9113 138.019 38.8851 137.925 38.8283 137.851C38.3882 137.207 38.0133 139.913 42.4061 124.567C42.2594 126.278 41.0532 139.97 41.477 140.646C41.5993 140.818 41.8356 140.826 42.129 140.85C47.5325 141.396 116.164 143.931 121.926 143.996C122.912 143.996 126.001 144.061 126.294 143.866C129.032 142.203 135.145 46.2695 133.963 37.7038ZM73.205 35.3322C74.02 34.2319 82.6997 33.7429 83.5392 33.2621C83.5853 33.2413 83.6249 33.2083 83.6537 33.1667C83.6824 33.125 83.6992 33.0763 83.7022 33.0257C83.7418 31.4413 83.9996 29.8699 84.4683 28.3558C84.7287 27.5847 85.1559 26.8804 85.7193 26.293C86.2828 25.7056 86.9687 25.2496 87.7283 24.9572C89.9369 24.1422 93.6941 24.8594 94.778 26.8154C95.4545 28.0135 95.4708 32.1618 96.1635 32.7405C96.8563 33.3191 106.473 33.1235 107.574 34.2482C107.64 34.3819 107.687 34.5247 107.712 34.672C107.963 36.4496 107.944 38.2548 107.655 40.0266C105.43 40.9149 78.1357 42.1374 73.8651 41.6566C73.262 41.5914 73.2131 41.6566 73.0501 41.0535C72.6508 39.7902 72.4878 36.2939 73.205 35.3322ZM52.1943 20.3117C52.2513 19.839 52.0394 20.0591 52.4958 20.1569C52.431 20.2712 52.3949 20.3995 52.3904 20.5308C52.3859 20.6622 52.4133 20.7926 52.4701 20.9111C52.527 21.0296 52.6116 21.1326 52.7168 21.2113C52.8221 21.29 52.9448 21.342 53.0745 21.3631C52.9977 21.4709 52.9512 21.5973 52.9397 21.7291C52.9282 21.8609 52.9522 21.9935 53.0093 22.1129C53.2049 22.5204 53.482 22.5774 53.8976 22.6263C53.7359 22.81 53.5082 22.9224 53.264 22.9392C53.0199 22.956 52.779 22.8758 52.5936 22.716C52.5203 22.6426 52.1617 22.2025 51.689 21.6157C51.929 21.2123 52.0998 20.7716 52.1943 20.3117ZM55.1038 20.002C55.1608 20.034 55.2106 20.0772 55.2503 20.129C55.29 20.1808 55.3187 20.2402 55.3348 20.3035C55.3508 20.3668 55.3537 20.4327 55.3434 20.4971C55.3332 20.5616 55.3099 20.6233 55.275 20.6785C54.9229 20.6414 54.5671 20.6662 54.2236 20.7518C53.8569 20.8333 53.213 20.8904 53.0582 20.6459C52.83 20.2547 54.5007 19.5864 55.1038 20.002ZM53.3842 18.4291C54.2725 18.0623 54.7778 18.6817 54.623 19.0159C54.0529 19.3848 53.3867 19.5775 52.7077 19.5701C52.6707 19.5694 52.6342 19.5611 52.6006 19.5457C52.5669 19.5302 52.5368 19.508 52.5121 19.4804C52.3328 19.3093 52.4551 19.13 52.6099 18.967C52.8333 18.7423 53.0956 18.56 53.3842 18.4291ZM51.9579 15.927C50.9555 14.4682 48.5186 11.2245 48.1274 10.5969L55.8944 1.63193C56.1715 4.07693 58.8447 8.55943 60.1731 10.5969C60.2167 10.652 60.2766 10.6919 60.3443 10.711C61.0847 11.8194 61.9982 12.8018 63.0501 13.6206C62.4144 13.7021 54.2562 15.4706 51.9579 15.927ZM63.1234 4.37033C63.3293 4.44194 63.5181 4.55535 63.6781 4.70343C63.8381 4.85151 63.9657 5.03106 64.0529 5.23082C64.1402 5.43057 64.1852 5.64621 64.1851 5.86419C64.185 6.08217 64.1399 6.29778 64.0525 6.49748C63.6124 7.71183 62.4225 8.62463 61.3467 9.39073C61.0533 9.61078 60.7681 9.81453 60.5317 9.96938C59.4327 8.40563 58.4363 6.7722 57.5488 5.07938C59.2114 4.58223 61.6075 3.75093 63.1234 4.37033ZM47.997 18.4535C45.3483 19.4886 42.618 16.1226 43.922 13.4087C44.5007 12.1862 46.6034 11.1756 47.8829 10.7192C48.2171 11.3304 51.037 15.5603 51.5178 16.3182C50.4213 17.1499 49.2413 17.8655 47.997 18.4535ZM49.2114 18.5432C49.9204 18.1438 50.7599 17.6059 51.42 17.1414C51.689 17.5733 51.9661 18.046 52.235 18.478C52.0922 18.5886 51.9788 18.7328 51.9049 18.8977C51.831 19.0626 51.7988 19.2431 51.8112 19.4234C51.5886 19.3063 51.3353 19.2608 51.0859 19.293C50.7567 19.3595 50.4653 19.5489 50.2709 19.8227L49.2114 18.5432ZM52.015 24.3134C50.2301 22.7567 50.0671 22.879 49.896 22.4063C49.7248 21.9336 50.2138 21.2408 50.3198 20.9474C50.4991 20.4258 51.0696 19.6353 51.5423 19.9694C51.8601 20.1895 51.4119 21.4609 51.2978 21.7217C51.2535 21.7904 51.2179 21.8643 51.1918 21.9417C51.4935 22.3633 51.8172 22.7687 52.1617 23.1561C52.3526 23.324 52.5801 23.445 52.8261 23.5093C53.0722 23.5736 53.3298 23.5795 53.5785 23.5264C53.8272 23.4733 54.06 23.3628 54.2583 23.2037C54.4567 23.0446 54.615 22.8413 54.7208 22.61L55.112 22.5285C55.1443 22.5208 55.1727 22.5018 55.1922 22.4749C55.2116 22.4479 55.2208 22.4149 55.2179 22.3818C55.2179 22.1699 54.7452 22.3818 54.1095 22.1536C53.8324 22.0721 53.6531 22.0477 53.5879 21.8765C53.4412 21.5261 54.7289 21.2408 55.1283 21.249C55.2351 21.2363 55.3434 21.2449 55.4469 21.2742C55.5504 21.3036 55.6471 21.3532 55.7314 21.4201C55.8129 21.4935 56.9783 23.6532 57.1332 24.0118L53.645 25.6418C53.1804 25.3403 52.5692 24.8187 52.015 24.3134ZM54.7289 34.3868C54.8113 34.413 54.8981 34.4223 54.9842 34.4142C55.0702 34.4061 55.1538 34.3808 55.2298 34.3397C55.3059 34.2986 55.3729 34.2427 55.4268 34.1751C55.4808 34.1076 55.5206 34.0299 55.5439 33.9467C55.9514 32.7242 54.3622 28.5514 53.5879 26.2612L57.8504 24.2563C58.8365 25.1447 65.1854 30.9719 67.0028 36.791C68.046 40.051 67.6467 43.311 63.9384 45.6664C61.0888 47.3812 57.7763 48.1673 54.46 47.9158C51.1401 47.7057 47.8853 46.8996 44.8511 45.536C44.9734 43.7837 44.9326 39.8799 45.2342 37.769C45.237 37.7354 45.2274 37.7019 45.2073 37.6748C45.1872 37.6477 45.1579 37.6289 45.1249 37.6219C45.0918 37.6149 45.0574 37.6202 45.028 37.6368C44.9986 37.6533 44.9763 37.6801 44.9652 37.712C44.7311 38.4215 44.5566 39.1494 44.4436 39.888C44.2239 41.8121 44.1966 43.7532 44.3621 45.6827C44.2969 45.8131 44.1991 45.1285 45.4135 56.6444C45.4135 56.783 49.9612 76.6527 49.8389 79.334C48.2089 80.2142 38.8446 81.1922 36.7989 81.233C36.1551 79.66 32.618 69.008 32.0638 67.3128C35.3238 51.1513 32.6424 61.8523 37.3613 52.0315C39.0138 48.5777 40.4882 45.0414 41.7786 41.4365C42.0915 40.606 42.3421 39.7533 42.5284 38.8856C42.5936 38.7389 42.6832 38.584 42.5284 38.4129L40.442 35.6011C42.6588 30.0021 42.5854 30.3036 42.5773 30.1651C47.834 31.9662 52.887 33.9711 54.7289 34.3868ZM45.0467 46.3754C46.8136 47.1248 48.6511 47.6954 50.5317 48.0788C49.8389 52.7813 49.0402 59.1383 48.2008 66.3348C45.4298 53.1644 46.4322 60.1815 45.0467 46.3754ZM19.9529 131.633C19.7084 137.916 19.9529 137.639 19.6839 137.647C19.6485 137.647 19.6145 137.634 19.5887 137.61C19.563 137.585 19.5474 137.552 19.5454 137.517C19.2275 130.394 20.0833 116.881 21.7866 83.3031H22.0963C21.5503 95.8948 20.0099 130.092 19.9529 131.633ZM25.4052 36.1961C23.3901 33.9178 21.5356 31.5023 19.8551 28.967C21.4074 28.3837 23.0162 27.9631 24.6554 27.7119C25.1933 28.9507 26.8233 33.5066 27.2797 34.7943L25.4215 36.2205L25.4052 36.1961ZM26.3751 27.5815C27.9399 29.2115 31.1999 32.2026 33.4737 32.4145C33.2374 32.7975 31.7459 35.2181 31.4525 35.5685C30.5805 35.2833 26.9619 30.9475 26.3262 30.1977C26.0735 29.5212 25.6497 28.3639 25.3726 27.7038L26.3751 27.5815ZM23.4411 40.2303V40.1488C23.4411 40.1162 25.12 37.1822 25.283 36.8888C25.3563 36.7503 25.1037 36.9785 27.402 35.0958C31.2651 46.0494 31.1347 47.1415 33.107 54.4765C22.2512 38.5107 23.49 40.1488 23.4411 40.2303ZM32.2186 35.0632C32.3781 35.6451 32.5937 36.2101 32.8625 36.7503C33.0255 36.9296 32.5528 38.6655 31.7785 46.4651C30.3808 41.4137 28.7297 36.4359 26.8315 31.5506C27.4835 32.2596 30.3849 35.4463 31.2732 35.7886C31.3285 35.8241 31.3935 35.8417 31.4592 35.8387C31.5249 35.8358 31.588 35.8126 31.64 35.7723C31.7296 35.6745 31.9415 35.3892 32.2023 35.0225L32.2186 35.0632ZM34.2806 56.1391C35.3645 51.2491 37.6954 39.5457 37.9481 34.5824L39.9041 35.8701C42.235 39.1301 42.0231 38.7552 42.0068 38.9019C41.7052 40.6378 36.3507 53.36 34.2643 56.0984L34.2806 56.1391ZM39.79 35.3403L37.9888 34.2319C38.198 32.5279 38.3177 30.814 38.3474 29.0974C39.4803 29.4805 40.6539 29.9124 41.7541 30.3933C41.5585 30.8578 40.1567 34.4031 39.79 35.3403ZM36.5952 40.0103C36.3513 38.8491 36.03 37.7055 35.6335 36.5873C35.6742 36.408 35.8454 35.6174 35.9513 35.1203C36.1394 35.3311 36.338 35.5324 36.5463 35.7234C36.75 35.9027 36.913 36.0086 37.1331 35.9027C36.9619 37.2719 36.7908 38.5759 36.5952 40.0103ZM37.6547 28.8611C37.6461 30.7686 37.5209 32.6738 37.2798 34.5661C37.1331 34.8595 37.0108 35.0958 36.9212 35.2507C35.9673 34.339 35.064 33.3759 34.2154 32.3656C35.6579 31.9662 35.6742 29.725 35.5275 28.2254C36.2692 28.4047 36.9782 28.6003 37.6547 28.8285V28.8611ZM27.6954 23.1561C27.7443 23.0175 27.6954 23.0583 27.8176 23.0827C28.3132 23.1351 28.8122 23.022 29.2368 22.761C29.6614 22.5001 29.9877 22.106 30.1648 21.6402C30.3485 20.8381 30.2947 19.9998 30.01 19.2278C29.8879 18.863 29.7926 18.4898 29.7247 18.1112C29.3172 16.4812 28.3229 14.892 28.7793 13.2946C28.8894 12.86 29.1649 12.4856 29.547 12.2512C29.9291 12.0167 30.3877 11.9408 30.825 12.0395C31.0472 12.1196 31.2625 12.2178 31.4688 12.3329C32.1616 12.6915 32.6587 12.9523 32.9847 12.6263C32.9847 12.6263 33.9709 11.6564 34.9081 11.9091C35.283 12.0558 36.1632 13.9221 36.3588 14.9409C36.2119 14.7448 35.9966 14.611 35.7557 14.566C35.0874 14.4845 34.6229 15.0305 34.7207 15.1935C35.266 15.3157 35.8359 15.2644 36.3507 15.0468C36.6301 16.5818 36.7584 18.1405 36.7337 19.7005C36.3557 19.455 35.94 19.2733 35.5031 19.1626C35.1724 19.1514 34.8436 19.2155 34.5414 19.35C34.2166 19.2683 33.8815 19.2353 33.5471 19.2522C32.6098 19.4315 31.8356 20.4503 31.3629 20.8822C31.151 21.0778 30.9961 21.6157 31.3629 21.8439C31.7296 22.0721 32.2594 21.6565 32.4224 21.469C33.0945 20.7941 33.8255 20.1804 34.6066 19.6353C35.2807 20.0807 35.977 20.4914 36.693 20.8659C36.6001 21.2636 36.5699 21.6733 36.6033 22.0803C36.4127 22.5595 36.1222 22.9927 35.7512 23.351C35.3802 23.7093 34.9373 23.9846 34.4517 24.1585C34.3877 24.1787 34.3285 24.2116 34.2776 24.2553C34.2266 24.2989 34.1851 24.3525 34.1554 24.4126C34.1257 24.4728 34.1085 24.5383 34.1048 24.6053C34.1011 24.6723 34.111 24.7393 34.1339 24.8024C34.2969 25.8211 35.0793 27.9483 34.8429 30.0917C34.7696 30.76 34.5577 31.5995 33.8894 31.6728C31.9334 31.8929 28.2985 28.5269 26.9211 27.1088V24.02C27.2872 23.823 27.5642 23.4935 27.6954 23.099V23.1561ZM26.75 16.2123C26.8868 17.0761 26.9766 17.9467 27.0189 18.8203C26.5544 18.9833 25.935 18.372 25.8209 17.9401C25.5601 17.0436 25.7883 16.4731 26.75 16.2123ZM9.63497 81.5753C9.53717 79.6274 11.9496 70.0593 12.4141 68.0707C12.6408 68.3143 12.9193 68.5037 13.2291 68.6249C13.2996 68.6328 13.3709 68.6192 13.4335 68.5857C13.4961 68.5522 13.547 68.5005 13.5796 68.4375C13.6366 68.356 13.8322 68.0463 14.1175 67.6225C14.354 68.1223 14.6863 68.5708 15.0955 68.9428C13.8811 69.9371 13.6203 69.8637 13.7263 70.0593C13.7419 70.0891 13.7685 70.1116 13.8004 70.1222C13.8323 70.1329 13.867 70.1308 13.8974 70.1164C17.3693 68.5842 19.146 65.805 19.3498 61.9175C19.3523 61.8854 19.3429 61.8535 19.3234 61.8279C19.3038 61.8023 19.2755 61.7849 19.2438 61.7789C18.9667 61.7789 19.1623 62.4472 18.2577 64.7129C17.8501 64.3072 17.3492 64.0078 16.7988 63.8409C16.9076 63.6985 17.0275 63.5649 17.1574 63.4415C17.3449 63.3926 17.4508 63.2052 17.3449 62.9362C17.0759 62.2272 15.4052 59.3339 14.9814 58.6086C14.9859 58.5625 14.9859 58.5161 14.9814 58.47C15.0303 57.3372 15.2992 55.3323 15.5519 53.1725C16.0393 48.9307 16.2652 44.6629 16.2283 40.3933C16.1687 39.1533 15.9383 37.9274 15.5437 36.7503C15.5361 36.7157 15.5152 36.6855 15.4853 36.6664C15.4555 36.6473 15.4194 36.6408 15.3848 36.6484C15.3502 36.656 15.32 36.677 15.3009 36.7068C15.2818 36.7366 15.2753 36.7727 15.2829 36.8073C15.5356 38.6003 15.666 45.7071 15.666 45.8701C14.908 47.0193 11.3139 51.893 11.3302 52.6509C11.4156 53.107 11.558 53.5506 11.754 53.9712C11.754 54.1831 11.2568 52.8628 14.5576 58.9916C14.9895 59.8066 16.318 62.2516 16.6684 63.0177C15.3998 64.5753 14.2268 66.2083 13.1558 67.9077C11.322 66.4407 5.82076 60.2467 4.25596 58.1277C3.18661 56.7954 2.42665 55.242 2.03102 53.58C1.59846 52.178 1.47064 50.6997 1.65611 49.2442C2.47111 43.9875 7.78491 37.2393 11.9251 33.7592C14.207 31.8014 16.7951 30.2319 19.5861 29.1137C20.0507 29.9287 21.0205 31.3305 22.0311 32.7812C25.0059 36.9296 25.0222 36.302 24.8429 36.6117C24.4028 37.4267 23.0662 39.562 22.8543 40.0429C22.7402 40.3118 21.7948 39.1056 33.2863 56.2369C32.9195 58.2255 28.8934 80.5321 28.054 82.3984C26.6359 82.9608 11.0449 82.7733 9.63497 81.5753ZM15.2666 68.7961C14.9349 68.323 14.6868 67.7964 14.5331 67.2394C14.9706 66.4046 15.4863 65.6132 16.0735 64.8759C16.4239 64.4114 16.4076 64.3625 16.644 64.3788C17.1742 64.4536 17.6794 64.6518 18.1191 64.9574C17.4997 66.464 16.5102 67.7899 15.2422 68.8124L15.2666 68.7961ZM14.3701 57.5491C13.873 56.7341 12.0474 53.2866 11.9985 52.6591C12.3408 51.7463 14.1582 48.9916 15.7556 46.351C15.5682 49.1709 14.688 53.9794 14.3457 57.5654L14.3701 57.5491ZM23.1395 152.301C23.1393 152.422 23.1229 152.543 23.0906 152.66C23.0761 152.69 23.0535 152.715 23.0254 152.733C22.1873 153.375 21.2403 153.861 20.23 154.167C19.6758 154.338 19.6676 154.355 18.4533 153.792C17.7923 153.503 17.1523 153.168 16.538 152.79C16.3424 152.611 16.318 152.024 16.318 151.763C16.8808 152.276 17.5017 152.722 18.168 153.092C19.3253 153.719 20.1159 153.833 21.8844 153.01C22.3238 152.813 22.744 152.576 23.1395 152.301ZM22.4223 142.643C22.349 143.548 22.2675 144.477 22.186 145.308C21.4989 144.886 20.7826 144.513 20.0425 144.192C19.3416 144.012 18.0865 144.876 17.4997 145.308C17.4345 144.673 17.3693 143.874 17.2471 142.488C18.168 142.537 19.2601 142.562 20.1811 142.57C22.675 142.594 22.4386 142.521 22.4223 142.643ZM23.8975 141.828C23.816 141.828 16.6358 141.95 16.3424 141.926C16.1081 141.353 16.0486 140.724 16.1713 140.117C16.2832 140.086 16.3979 140.067 16.5136 140.06C18.9949 140.074 21.4725 140.254 23.9301 140.598C23.9506 141.027 23.9397 141.457 23.8975 141.885V141.828ZM37.345 140.052C37.402 140.671 37.4509 141.315 37.508 141.942C37.2298 141.989 36.9569 142.063 36.693 142.162C36.0654 142.497 36.6033 143.654 36.3996 143.915C35.6335 143.825 33.0336 143.1 31.6563 143.01C31.7052 141.91 31.7704 140.565 31.8274 139.53C33.4411 139.758 35.7965 139.946 37.345 140.052ZM47.125 148.568C47.125 148.894 47.1902 149.245 46.9457 149.383C44.1013 150.647 31.9986 148.691 30.8168 148.21C30.7041 147.952 30.6379 147.676 30.6212 147.395C35.12 148.153 43.4982 150.288 47.125 148.568ZM38.0133 139.44C37.9318 139.44 31.3792 139.025 31.151 138.984C31.0609 138.566 31.0225 138.139 31.0369 137.712C31.0279 137.525 31.0643 137.337 31.1428 137.166C32.129 136.995 37.1494 137.981 38.1437 138.218C38.1231 138.627 38.0796 139.036 38.0133 139.44ZM42.0394 104.395C41.5259 106.84 36.4485 131.82 35.6172 135.626C35.6061 135.658 35.5838 135.685 35.5544 135.701C35.525 135.718 35.4905 135.723 35.4575 135.716C35.4245 135.709 35.3952 135.69 35.3751 135.663C35.3549 135.636 35.3454 135.603 35.3482 135.569C36.0165 132.122 40.8169 106.881 41.3711 104.249C41.6319 103.018 39.4395 83.8328 39.1787 81.779H39.6107C40.8006 89.4726 42.292 103.148 42.0394 104.395ZM125.724 143.377C122.276 143.646 42.6669 140.304 41.9497 140.215C41.7786 138.071 43.05 123.564 43.2374 121.421C44.5414 116.8 47.0272 107.729 47.7607 102.961C48.3964 98.7962 47.2798 89.4726 46.7256 85.2672C46.8886 83.7513 47.0435 82.2436 47.2065 80.744C48.1463 80.6041 49.0712 80.3777 49.9693 80.0675C50.2138 79.9534 50.4583 79.7986 50.4828 79.5378C50.6376 78.0871 48.8528 69.66 48.5838 68.2011C49.4803 60.263 50.385 53.2622 51.0777 48.1603C55.6173 48.9753 60.3524 48.69 64.2807 46.1961C68.0623 43.8 68.6736 40.4911 67.7689 37.1822C69.2767 37.0355 70.8659 36.897 72.5122 36.7666C72.3329 38.0787 72.3655 41.2491 73.0583 41.7951C74.3704 42.8383 105.324 41.6077 107.883 40.5889C108.009 40.5452 108.116 40.4587 108.185 40.3444C108.576 39.5946 108.543 36.4569 108.429 35.2833C110.964 35.2833 132.064 35.1203 133.572 37.1496C135.275 39.4479 128.389 143.116 125.724 143.336V143.377Z" fill="url(#paint0_linear_353_7451)"/>
<path d="M68.9751 83.4987C68.8854 82.9364 68.698 82.8304 68.3883 82.7408C66.7583 82.2681 57.2961 81.7302 56.4974 82.2681C55.6987 82.806 54.1258 89.057 54.68 90.9967C54.7324 91.1087 54.8083 91.2082 54.9025 91.2883C54.9967 91.3684 55.107 91.4274 55.226 91.4613C57.1576 92.2763 66.4893 93.0342 67.4999 92.4637C68.5105 91.8932 69.2114 85.0391 68.9751 83.4987ZM67.4999 91.282C67.4321 91.5064 67.3333 91.7204 67.2065 91.9177C66.5545 92.2844 56.3996 91.7384 55.1934 90.8337C54.6474 89.0163 56.0084 82.9282 56.6523 82.48C57.2961 82.0317 67.3125 82.8875 68.3557 83.352C68.6898 84.7131 67.9971 89.7253 67.4999 91.282ZM65.5032 98.3317C64.6882 97.7042 54.0932 97.1989 53.2782 97.7205C52.4632 98.2421 50.9065 104.461 51.4607 106.449C51.5145 106.56 51.5908 106.659 51.6848 106.739C51.7788 106.819 51.8885 106.878 52.0068 106.914C53.9546 107.729 62.0068 108.34 63.8895 108.03C64.0125 108.026 64.1329 107.993 64.2416 107.935C64.3503 107.877 64.4444 107.796 64.517 107.696C65.3239 106.58 66.3589 99.0245 65.5032 98.3317ZM63.9873 107.362C63.319 107.737 53.2211 107.191 51.9742 106.278C51.4281 104.461 52.7892 98.3725 53.433 97.9242C54.0769 97.476 64.1829 98.3643 65.1283 98.7963C65.5358 100.32 64.5252 107.06 63.9873 107.362ZM63.6124 113.409C62.7974 112.79 52.2024 112.276 51.3874 112.798C50.5724 113.32 49.0157 119.53 49.5699 121.51C49.6224 121.622 49.6983 121.722 49.7925 121.802C49.8867 121.882 49.997 121.941 50.116 121.975C52.0638 122.79 60.116 123.401 61.9987 123.091C62.1224 123.086 62.2432 123.052 62.352 122.993C62.4607 122.933 62.5545 122.85 62.6262 122.749C63.4249 121.673 64.4763 114.11 63.6124 113.409ZM62.3817 121.812C62.3817 121.91 62.178 122.399 62.0883 122.439C61.42 122.814 51.3222 122.26 50.0752 121.355C49.5373 119.546 50.8902 113.458 51.5341 113.002C52.1779 112.545 62.1861 113.409 63.2375 113.874C63.5635 115.194 62.9359 120.092 62.3817 121.812Z" fill="url(#paint1_linear_353_7451)"/>
<path d="M64.8919 84.9821C63.4331 86.3676 62.1372 87.9731 61.1918 88.5762C60.8577 88.7963 60.6865 88.8697 60.3768 88.7067C59.8722 88.3879 59.4437 87.9623 59.1217 87.4597C59.1031 87.4363 59.077 87.42 59.0479 87.4136C59.0187 87.4072 58.9881 87.4109 58.9614 87.4243C58.9347 87.4377 58.9134 87.4598 58.901 87.487C58.8886 87.5142 58.886 87.5449 58.8935 87.5738C59.1671 88.2262 59.6155 88.7902 60.1894 89.2038C60.3977 89.3117 60.633 89.3561 60.8663 89.3314C61.0995 89.3068 61.3204 89.2143 61.5015 89.0653C62.1666 88.6041 62.7669 88.0558 63.2864 87.4353C63.9206 86.7075 64.5112 85.9427 65.0549 85.1451C65.0726 85.1367 65.088 85.1241 65.0998 85.1085C65.1116 85.0929 65.1194 85.0747 65.1228 85.0555C65.1261 85.0362 65.1247 85.0164 65.1188 84.9978C65.1128 84.9791 65.1025 84.9622 65.0887 84.9483C65.0749 84.9345 65.0579 84.9242 65.0393 84.9183C65.0206 84.9124 65.0009 84.911 64.9816 84.9143C64.9623 84.9176 64.9441 84.9255 64.9285 84.9373C64.9129 84.9491 64.9004 84.9645 64.8919 84.9821ZM61.689 100.426C59.9286 102.097 58.2578 104.216 57.4836 104.249C57.2427 104.202 57.0197 104.089 56.8397 103.923C55.9758 103.214 55.9758 102.733 55.7639 102.855C55.7484 102.862 55.7345 102.872 55.7231 102.885C55.7117 102.897 55.7031 102.912 55.6977 102.928C55.6924 102.944 55.6904 102.961 55.692 102.978C55.6936 102.995 55.6986 103.011 55.7069 103.026C56.0084 103.727 56.7256 104.811 57.4917 104.827C58.4697 104.827 60.0671 103.018 60.6458 102.293C61.2244 101.567 61.6482 100.899 61.8764 100.589C61.8981 100.564 61.9089 100.532 61.9066 100.499C61.9043 100.466 61.8891 100.436 61.8642 100.414C61.8394 100.393 61.8069 100.382 61.7741 100.384C61.7412 100.386 61.7106 100.401 61.689 100.426ZM59.79 115.504C58.0622 117.134 56.3507 119.294 55.5928 119.318C55.3472 119.279 55.1196 119.165 54.9408 118.992C54.0687 118.283 54.1258 117.81 53.865 117.924C53.8499 117.933 53.8367 117.944 53.826 117.958C53.8154 117.972 53.8075 117.987 53.803 118.004C53.7984 118.02 53.7973 118.038 53.7995 118.055C53.8018 118.072 53.8074 118.089 53.8161 118.104C54.1095 118.805 54.8267 119.889 55.6009 119.905C56.5789 119.905 58.1763 118.096 58.7468 117.37C59.3173 116.645 59.7574 115.977 59.9775 115.667C60.0916 115.545 59.9041 115.382 59.79 115.504ZM122.472 87.8265C119.839 87.6716 77.011 85.8704 74.297 85.7563C74.269 85.7635 74.2441 85.7798 74.2264 85.8027C74.2086 85.8256 74.199 85.8537 74.199 85.8827C74.199 85.9116 74.2086 85.9398 74.2264 85.9626C74.2441 85.9855 74.269 86.0018 74.297 86.009C77.0599 86.1883 120.679 88.0302 122.48 88.0791C122.508 88.0711 122.532 88.054 122.549 88.0305C122.566 88.0071 122.575 87.9786 122.574 87.9496C122.573 87.9206 122.563 87.8928 122.544 87.8705C122.525 87.8482 122.5 87.8327 122.472 87.8265ZM119.269 103.279C116.636 103.124 73.8081 101.323 71.0941 101.201C71.0748 101.196 71.0547 101.195 71.0352 101.199C71.0158 101.203 70.9975 101.212 70.9818 101.224C70.9661 101.236 70.9534 101.252 70.9446 101.27C70.9359 101.287 70.9314 101.307 70.9314 101.327C70.9314 101.347 70.9359 101.366 70.9446 101.384C70.9534 101.402 70.9661 101.418 70.9818 101.43C70.9975 101.442 71.0158 101.451 71.0352 101.455C71.0547 101.459 71.0748 101.458 71.0941 101.453C73.857 101.633 117.468 103.474 119.269 103.532C119.297 103.524 119.322 103.508 119.339 103.485C119.357 103.462 119.367 103.434 119.367 103.405C119.367 103.376 119.357 103.348 119.339 103.325C119.322 103.302 119.297 103.286 119.269 103.279ZM117.37 118.356C114.737 118.202 71.9091 116.4 69.1951 116.278C69.1671 116.285 69.1422 116.302 69.1245 116.324C69.1067 116.347 69.0971 116.375 69.0971 116.404C69.0971 116.433 69.1067 116.462 69.1245 116.484C69.1422 116.507 69.1671 116.524 69.1951 116.531C71.9498 116.71 115.569 118.552 117.37 118.601C117.402 118.601 117.433 118.588 117.456 118.565C117.479 118.542 117.492 118.511 117.492 118.479C117.492 118.446 117.479 118.415 117.456 118.392C117.433 118.369 117.402 118.356 117.37 118.356ZM122.105 93.5967C119.472 93.45 76.6442 91.6407 73.9384 91.5266C73.9192 91.5216 73.8991 91.5212 73.8796 91.5252C73.8601 91.5292 73.8418 91.5377 73.8261 91.5499C73.8104 91.5621 73.7977 91.5777 73.789 91.5955C73.7802 91.6134 73.7757 91.633 73.7757 91.6529C73.7757 91.6728 73.7802 91.6924 73.789 91.7102C73.7977 91.7281 73.8104 91.7437 73.8261 91.7559C73.8418 91.7681 73.8601 91.7765 73.8796 91.7806C73.8991 91.7846 73.9192 91.7841 73.9384 91.7792C76.6931 91.9585 120.312 93.8004 122.113 93.8493C122.141 93.8413 122.165 93.8242 122.182 93.8007C122.199 93.7773 122.208 93.7488 122.207 93.7198C122.206 93.6908 122.196 93.663 122.177 93.6407C122.159 93.6184 122.133 93.6029 122.105 93.5967ZM118.918 109.049C116.286 108.894 73.4576 107.093 70.7437 106.979C70.5807 106.979 70.5644 107.215 70.7437 107.232C73.5065 107.411 117.125 109.245 118.926 109.302C118.954 109.294 118.979 109.277 118.996 109.253C119.013 109.23 119.022 109.201 119.021 109.172C119.02 109.143 119.009 109.115 118.991 109.093C118.972 109.071 118.947 109.055 118.918 109.049ZM117.019 124.127C114.395 123.972 71.5668 122.171 68.8529 122.048C68.8183 122.048 68.7851 122.062 68.7606 122.086C68.7362 122.111 68.7224 122.144 68.7224 122.179C68.7224 122.213 68.7362 122.246 68.7606 122.271C68.7851 122.295 68.8183 122.309 68.8529 122.309C71.6157 122.48 115.226 124.322 117.028 124.379C117.055 124.371 117.08 124.354 117.097 124.331C117.114 124.307 117.123 124.279 117.122 124.25C117.121 124.221 117.11 124.193 117.092 124.171C117.073 124.148 117.048 124.133 117.019 124.127ZM76.1389 75.8215C76.3916 75.6748 76.5057 75.2102 76.579 74.9005C77.6548 70.5403 78.8937 50.5728 78.6329 49.4481C78.6106 49.373 78.5683 49.3054 78.5106 49.2525C78.046 48.8287 75.4788 48.7798 74.5904 48.7554C69.9368 48.6413 59.1054 48.9917 58.9832 49.1058C58.6816 49.4726 54.191 73.3928 54.7452 75.0146C55.2994 76.6365 74.2155 76.9055 76.1389 75.8215ZM55.2749 74.7946C55.269 74.7078 55.269 74.6206 55.2749 74.5338C55.2819 74.5599 55.2972 74.5829 55.3186 74.5994C55.3399 74.6158 55.3661 74.6248 55.3931 74.6248C55.4201 74.6248 55.4463 74.6158 55.4677 74.5994C55.4891 74.5829 55.5044 74.5599 55.5113 74.5338C55.8585 73.196 56.5432 71.9697 57.4999 70.9722C58.5946 69.7489 60.0041 68.8496 61.5749 68.3724C62.2855 69.2939 63.0589 70.1653 63.8895 70.9804C64.0769 71.119 64.297 70.9804 64.5252 70.8745C65.3402 72.9364 64.949 70.2714 64.5252 75.7645C63.3108 75.7237 56.3263 75.4548 55.2749 74.7946ZM64.4763 65.2754C64.0216 65.0949 63.6133 64.8144 63.2818 64.4546C62.9502 64.0948 62.7039 63.6651 62.561 63.1971C62.4744 62.8414 62.4198 62.4787 62.398 62.1132C62.6808 62.487 63.0752 62.7612 63.5241 62.8961C63.9729 63.0309 64.4531 63.0195 64.8951 62.8634C65.337 62.7073 65.7179 62.4146 65.9825 62.0278C66.2471 61.6409 66.3818 61.1799 66.3671 60.7114H66.5138C66.2936 61.4539 66.1972 62.2277 66.2285 63.0015C66.232 63.1158 66.2628 63.2276 66.3182 63.3275C66.5627 63.6372 66.8072 63.6291 67.2228 63.5639C67.2555 63.5622 67.2865 63.549 67.3104 63.5266C67.3343 63.5042 67.3494 63.4741 67.3532 63.4416C67.3532 63.2542 67.0272 63.3357 66.799 63.1075C66.799 62.8304 66.8887 61.8931 66.8968 61.6568C66.8968 60.6299 66.6931 60.744 66.9865 60.744C66.9301 61.1422 66.9857 61.5482 67.1469 61.9167C67.3081 62.2852 67.5686 62.6015 67.8993 62.8304C68.2952 63.0878 68.7604 63.218 69.2324 63.2034C69.7044 63.1888 70.1606 63.0302 70.5399 62.7489C70.5399 62.8548 70.4584 62.9771 70.3932 63.1401C70.1711 63.8736 69.7303 64.5219 69.1299 64.9983C68.1764 65.6666 67.5651 65.4302 67.6303 65.8785C67.7281 66.5223 67.9482 66.9788 68.0867 67.9323C67.3714 68.363 66.6829 68.8365 66.0248 69.3504C65.3955 68.7673 64.7314 68.223 64.0362 67.7204C64.3622 66.0171 64.9327 65.4791 64.4763 65.2754ZM67.1087 60.2142C67.0833 60.2837 67.0615 60.3544 67.0435 60.4262C66.9387 60.3557 66.8153 60.3181 66.689 60.3181C66.5627 60.3181 66.4393 60.3557 66.3345 60.4262C66.318 60.1885 66.2496 59.9573 66.1342 59.7489C66.0187 59.5405 65.859 59.3599 65.6662 59.2199C65.1552 58.8936 64.5611 58.721 63.9547 58.7228C63.5233 58.7031 63.1006 58.8489 62.7729 59.1303C63.003 58.0757 63.623 57.1471 64.5089 56.5304C66.0411 55.5769 68.4209 55.7644 69.3989 57.2803C69.6191 57.5863 69.7846 57.9282 69.8879 58.2908C69.9417 58.5683 70.018 58.8408 70.1161 59.1058C69.9398 59.032 69.7526 58.988 69.5619 58.9754C68.5024 58.9021 67.3695 59.1547 67.1087 60.2305V60.2142ZM65.0549 62.2436C64.8558 62.345 64.6384 62.4057 64.4155 62.422C64.1926 62.4383 63.9687 62.4099 63.757 62.3386C63.5452 62.2672 63.3498 62.1543 63.1822 62.0064C63.0146 61.8586 62.8783 61.6787 62.7811 61.4775C62.504 60.4343 62.9359 59.2607 63.9628 59.2525C67.068 59.1466 66.1389 61.8442 65.0549 62.2436ZM69.57 59.4971C70.5969 59.6112 70.8903 60.8336 70.5154 61.8442C70.3961 62.0322 70.2408 62.1947 70.0585 62.3223C69.8761 62.45 69.6703 62.5402 69.4528 62.588C69.2354 62.6357 69.0107 62.6399 68.7916 62.6004C68.5725 62.5609 68.3634 62.4784 68.1764 62.3577C67.125 61.8524 66.4241 59.057 69.5537 59.4971H69.57ZM71.2 60.3121L71.4038 60.1979C71.8683 60.5484 71.9498 61.1433 71.1593 61.8279C71.2938 61.3581 71.3078 60.862 71.2 60.3854V60.3121ZM61.5586 59.9208C61.624 59.8571 61.7118 59.8215 61.8031 59.8215C61.8944 59.8215 61.9822 59.8571 62.0476 59.9208C62.0865 59.9555 62.1346 59.9782 62.1861 59.9861C62.0473 60.4317 62.0194 60.9045 62.1046 61.3634C61.526 61.0129 61.0614 60.4506 61.5586 59.9534V59.9208ZM67.6711 70.5159C67.2815 70.2511 66.9086 69.9626 66.5545 69.652L68.9343 67.7204C69.1218 67.859 69.6352 68.242 69.9123 68.4784C68.5594 69.6927 67.9889 70.2714 67.6711 70.5403V70.5159ZM65.4543 69.5868C65.0301 69.864 64.5921 70.1197 64.1421 70.3529C63.9139 70.1165 61.9824 67.9894 61.9824 67.9894C62.3002 67.7775 62.9033 67.4352 63.1152 67.3211L65.4543 69.5868ZM67.4999 75.8704C67.4967 74.5653 67.3353 73.2654 67.0191 71.9992C67.557 70.9478 67.2636 71.1841 67.5733 71.2575C67.6143 71.2759 67.6587 71.2855 67.7037 71.2855C67.7487 71.2855 67.7931 71.2759 67.8341 71.2575C68.6444 70.5711 69.4017 69.8246 70.0998 69.0244C72.8789 70.2551 75.0713 72.2844 75.8048 75.2836C75.5847 75.8704 68.2253 75.8704 67.4999 75.8704ZM59.1706 49.3096C61.2163 49.2525 76.2123 48.8613 78.1194 49.6274C78.3068 51.2574 76.8643 71.4286 75.9759 74.7212C75.218 71.8687 73.1316 69.8313 70.4421 68.568C70.5643 68.2991 70.2709 68.136 68.9995 67.4351C68.98 67.4228 68.9574 67.4163 68.9343 67.4163C68.9113 67.4163 68.8887 67.4228 68.8691 67.4351L68.5513 67.6308C68.429 66.8158 68.3068 66.5794 68.2008 66.0007C68.694 65.8785 69.1566 65.6553 69.5591 65.3453C69.9617 65.0353 70.2957 64.6452 70.5399 64.1996C70.8395 63.6699 71.067 63.1025 71.2163 62.5125C72.2351 61.8116 72.7974 60.8336 72.0313 59.8882C72.2514 59.5459 72.4062 59.2688 72.2432 58.9021C72.3123 58.7975 72.3564 58.6784 72.3719 58.554C72.3875 58.4296 72.3741 58.3033 72.3329 58.1849C72.2939 58.0228 72.2336 57.8666 72.1536 57.7204C72.2365 57.5853 72.2908 57.4346 72.3131 57.2777C72.3354 57.1207 72.3252 56.9609 72.2831 56.8081C72.2411 56.6553 72.1681 56.5127 72.0688 56.3892C71.9694 56.2658 71.8457 56.164 71.7054 56.0904C71.7383 55.8917 71.7214 55.688 71.6561 55.4975C71.5908 55.3071 71.4792 55.1358 71.3313 54.9992C71.1834 54.8626 71.0038 54.7649 70.8087 54.715C70.6137 54.665 70.4093 54.6643 70.2139 54.713C70.1439 54.5278 70.0223 54.3666 69.8634 54.2484C69.7322 54.1379 69.5804 54.0544 69.4167 54.0026C69.2531 53.9509 69.0809 53.9319 68.9099 53.9469C68.2905 53.9958 68.5513 54.1914 68.4209 53.8736C68.3536 53.7207 68.2361 53.5953 68.088 53.5183C67.9398 53.4412 67.7697 53.417 67.6059 53.4497C67.3445 53.4684 67.0947 53.5649 66.8887 53.7268C66.6446 53.5248 66.3376 53.4142 66.0207 53.4142C65.7038 53.4142 65.3968 53.5248 65.1527 53.7268C65.0305 53.8572 65.0957 53.8246 64.9897 53.7839C64.7225 53.7149 64.442 53.7149 64.1747 53.7839C64.0146 53.819 63.8648 53.8911 63.7374 53.9944C63.6101 54.0977 63.5086 54.2293 63.4412 54.3788C63.3092 54.3547 63.1739 54.3547 63.0419 54.3788C62.7766 54.4745 62.5382 54.6326 62.3467 54.8397C62.1552 55.0467 62.0163 55.2968 61.9416 55.5687C61.9375 55.6312 61.9375 55.6938 61.9416 55.7562C61.7888 55.8445 61.6418 55.9425 61.5015 56.0496C61.3482 56.2338 61.2476 56.456 61.2103 56.6928C61.1729 56.9295 61.2004 57.1719 61.2896 57.3943C61.1009 57.5283 60.9607 57.7199 60.8903 57.9404C60.8478 58.219 60.8934 58.5039 61.0207 58.7554C61.0687 58.8234 61.1204 58.8887 61.1755 58.951L61.094 59.0488C61.0409 59.1907 61.0409 59.347 61.094 59.4889C60.9578 59.6482 60.8627 59.8385 60.8172 60.0432C60.7718 60.2478 60.7773 60.4605 60.8332 60.6625C61.0187 61.1646 61.3545 61.5972 61.7949 61.9013C61.7949 62.0887 61.7949 62.4066 61.8683 62.7163C61.9466 63.3589 62.1886 63.9706 62.571 64.4929C62.9535 65.0151 63.4636 65.4305 64.0525 65.6992C63.8627 66.2327 63.7048 66.777 63.5798 67.3292C63.2293 67.0684 63.1804 67.0032 63.0908 67.0521C61.7949 67.5655 61.4608 67.7204 61.4608 67.8671C58.0948 68.9511 55.7558 72.0155 55.2994 74.3871C55.3238 70.793 58.7957 50.5402 59.1706 49.3096ZM126.392 62.9445C126.278 62.8222 85.8048 62.5696 85.7233 62.5778C85.6888 62.5778 85.6556 62.5915 85.6311 62.6159C85.6067 62.6404 85.5929 62.6736 85.5929 62.7081C85.5929 62.6266 85.2832 66.3838 85.6989 66.6283C86.7991 67.2477 122.61 67.8427 125.862 67.5248C126.003 67.5266 126.141 67.4807 126.253 67.3944C126.848 66.7831 126.832 63.3194 126.392 62.9445ZM85.7478 62.8304H85.7967C85.7967 62.8304 85.7559 62.8711 85.7478 62.8304ZM125.846 66.9054C123.988 67.1417 87.8423 66.8239 85.9108 66.3756C85.7965 65.1967 85.7965 64.0094 85.9108 62.8304L126.05 63.5068C126.202 64.6422 126.133 65.7964 125.846 66.9054ZM126.49 56.1066C126.376 55.9844 85.9027 55.7318 85.8212 55.7399C85.7872 55.7418 85.7551 55.7562 85.7311 55.7802C85.7071 55.8043 85.6927 55.8363 85.6907 55.8703C85.6907 55.7888 85.3729 59.5459 85.7967 59.7904C86.9621 60.4587 122.879 60.9885 125.96 60.687C126.101 60.6888 126.239 60.6428 126.351 60.5565C126.946 59.9453 126.922 56.4815 126.49 56.1066ZM85.8456 55.9925H85.8945C85.9434 55.9925 85.8537 56.0414 85.8456 55.9925ZM125.944 60.0675C124.191 60.3039 87.9564 59.986 86.0086 59.5296C85.8985 58.3532 85.8985 57.169 86.0086 55.9925L126.147 56.669C126.296 57.8018 126.227 58.9526 125.944 60.0594V60.0675ZM126.579 49.5378C126.515 49.4859 126.434 49.4598 126.351 49.4644C126.351 49.4644 86.302 49.1547 86.0575 49.1629C85.9352 49.1629 85.7641 49.1628 85.7722 49.3014C85.7722 49.2199 85.4625 52.977 85.8782 53.2215C86.8888 53.792 125.813 54.6152 126.433 53.9876C127.052 53.3601 126.995 49.9127 126.579 49.5378ZM85.9271 49.4237H85.976C86.0249 49.4237 85.9352 49.4644 85.9271 49.4237ZM126.025 53.4987C124.159 53.735 87.8423 53.4008 86.0901 52.9607C85.9636 51.7858 85.9472 50.6016 86.0412 49.4237L126.18 50.1001C126.348 51.2296 126.295 52.3809 126.025 53.4905V53.4987ZM92.7079 74.493C93.1887 74.2241 93.2376 73.8003 93.0094 73.5313C92.3636 73.117 91.6396 72.8396 90.8823 72.7163C90.8104 71.9893 90.5521 71.2932 90.1325 70.6952C89.3175 69.9617 88.7877 71.6406 88.5025 72.6919C87.8179 72.749 86.3101 72.9445 86.196 73.621C86.196 73.8573 86.359 74.004 86.5709 74.11C87.0514 74.3029 87.5442 74.4635 88.0461 74.5909C87.3941 75.2755 85.9271 76.8647 86.8399 77.0359C87.3615 77.15 88.747 76.3187 89.4071 76.172C90.0184 76.5143 91.3387 77.5819 91.8522 77.2233C92.3656 76.8647 91.6321 75.7074 91.2165 74.9169C91.7245 74.8173 92.2234 74.6755 92.7079 74.493ZM100.491 74.8598C100.98 74.599 101.029 74.1752 100.793 73.9062C100.153 73.4853 99.4304 73.2073 98.6737 73.0912C98.6017 72.3617 98.3435 71.663 97.9239 71.0619C97.1089 70.3366 96.5791 72.0154 96.2939 73.0668C95.6093 73.1238 94.1015 73.3113 93.9874 73.9959C93.9467 74.2241 94.1505 74.379 94.3624 74.4849C94.8417 74.6732 95.3315 74.8338 95.8293 74.9658C95.1855 75.6422 93.7103 77.2396 94.6231 77.4108C95.1447 77.5249 96.571 76.6854 97.1904 76.5958C97.8342 76.9544 99.1301 77.9976 99.6354 77.639C100.141 77.2804 99.4154 76.123 99.0079 75.3325C99.5168 75.2246 100.014 75.0662 100.491 74.8598ZM108.6 75.1613C109.081 74.8924 109.13 74.4686 108.902 74.2078C108.258 73.789 107.533 73.5112 106.775 73.3928C106.707 72.6649 106.448 71.9679 106.025 71.3716C105.21 70.6381 104.68 72.317 104.395 73.3684C103.71 73.4336 102.203 73.621 102.097 74.2975C102.097 74.5338 102.26 74.6887 102.472 74.7865C102.949 74.9824 103.439 75.1458 103.939 75.2754C103.295 75.9519 101.82 77.5493 102.732 77.7204C103.254 77.8345 104.64 77.0033 105.3 76.8566C105.911 77.207 107.231 78.2665 107.745 77.9079C108.258 77.5493 107.516 76.392 107.109 75.6015C107.618 75.4987 108.117 75.3514 108.6 75.1613ZM117.06 75.4792C117.549 75.2184 117.59 74.7865 117.362 74.5257C116.718 74.1068 115.993 73.829 115.235 73.7107C115.164 72.9846 114.909 72.2888 114.493 71.6895C113.678 70.956 113.14 72.643 112.863 73.6862C112.178 73.7514 110.67 73.9389 110.565 74.6235C110.524 74.8517 110.728 75.0065 110.939 75.1125C111.419 75.3008 111.909 75.4613 112.406 75.5933C111.763 76.2698 110.287 77.8672 111.2 78.0383C111.714 78.1524 113.14 77.313 113.768 77.1744C114.387 77.5249 115.691 78.5844 116.213 78.2258C116.734 77.8672 115.992 76.7098 115.585 75.9193C116.089 75.8187 116.583 75.6714 117.06 75.4792ZM114.843 75.7645C114.843 76.066 115.577 77.0603 115.756 77.7042C115.609 77.639 115.406 77.5086 115.243 77.4189C113.939 76.7262 113.988 76.498 113.45 76.6854C113.034 76.8321 111.657 77.5738 111.29 77.639C111.372 77.3722 111.498 77.1213 111.665 76.8973C112.561 75.5689 113.001 75.5526 112.439 75.2673C111.902 75.1093 111.388 74.8848 110.907 74.599C111.054 74.2241 112.537 74.1181 113.042 74.11C113.327 74.11 113.23 73.89 113.686 72.8142C113.788 72.5474 113.925 72.2954 114.093 72.0644C114.248 72.2889 114.358 72.5405 114.42 72.806C114.721 73.841 114.558 74.1263 114.9 74.1996C115.567 74.3318 116.214 74.551 116.824 74.8517C116.696 74.9447 116.552 75.0137 116.4 75.0554C115.389 75.357 114.819 75.3244 114.843 75.7645ZM125.43 74.4197C124.866 74.172 124.279 73.9783 123.678 73.8411C123.597 73.3278 123.461 72.8249 123.27 72.3415C122.928 71.5265 122.374 71.3716 121.934 72.1051C121.654 72.6507 121.433 73.2244 121.274 73.8166C120.719 73.8555 120.172 73.9622 119.644 74.1345C119.179 74.3138 118.78 74.6886 119.032 75.0146C119.567 75.3691 120.169 75.6078 120.801 75.7155C120.315 76.218 119.876 76.7636 119.489 77.3455C119.114 77.9975 119.342 78.3969 120.165 78.1605C120.793 77.9649 121.689 77.4841 122.162 77.3455C122.569 77.5737 123.792 78.4947 124.371 78.4703C124.429 78.4725 124.488 78.4627 124.543 78.4415C124.598 78.4202 124.648 78.388 124.69 78.3468C124.732 78.3056 124.765 78.2563 124.787 78.2018C124.809 78.1474 124.82 78.089 124.819 78.0302C124.667 77.3397 124.391 76.6825 124.004 76.0904C124.513 75.9908 125.012 75.8463 125.495 75.6585C126.017 75.3651 126.18 74.8028 125.43 74.4197ZM123.474 75.6096C122.871 75.8949 123.906 76.8403 124.191 77.8753C123.816 77.7042 122.464 76.8647 122.366 76.824C121.926 76.6365 120.899 77.4026 119.978 77.7204L119.733 77.8101C120.067 77.0631 120.528 76.3794 121.094 75.7889C121.412 75.4385 119.676 75.1858 119.342 74.8028C119.407 74.6316 119.847 74.5094 120.019 74.4686C121.208 74.1915 121.608 74.4686 121.714 74.1263C121.905 73.4747 122.179 72.8503 122.529 72.2681C122.843 72.8476 123.035 73.4857 123.091 74.1426C123.14 74.4849 123.425 74.3463 124.583 74.7538C124.822 74.8259 125.052 74.9272 125.267 75.0554C124.982 75.2673 123.882 75.414 123.474 75.6096ZM89.5457 32.2842C90.4265 32.3553 91.3012 32.0871 91.9907 31.5344C94.0363 29.7088 91.1757 26.2369 88.3395 28.1032C86.1227 29.5621 87.4756 32.2027 89.5457 32.2842ZM88.641 28.6004C89.195 28.1951 89.8842 28.0198 90.5644 28.1114C90.9043 28.1609 91.2282 28.2881 91.5109 28.4832C91.7936 28.6782 92.0275 28.9359 92.1944 29.2361C92.7486 30.8253 91.2735 31.7789 89.562 31.6811C88.0705 31.5996 87.011 29.717 88.641 28.6004ZM19.529 68.1524C19.366 68.0872 19.529 68.1523 18.3554 69.3422C17.1818 70.5321 16.0897 71.1841 16.1957 71.3797C16.3016 71.5753 17.2878 71.0863 17.4508 70.9967C17.9745 70.6686 18.4469 70.2649 18.8526 69.7987C19.1378 69.4645 19.8306 68.2828 19.529 68.1524ZM32.1126 15.7968C32.1534 15.6012 31.6073 15.43 31.208 15.4789C30.3278 15.593 29.961 16.2939 30.1485 16.4161C30.8352 16.3297 31.5006 16.1198 32.1126 15.7968ZM34.0849 18.8204C34.316 18.9084 34.5663 18.9337 34.8103 18.8937C34.9191 18.8729 35.0237 18.8344 35.12 18.7797C35.218 18.7346 35.2997 18.6602 35.3537 18.5668C35.4077 18.4734 35.4314 18.3655 35.4215 18.258C35.4215 17.5082 34.3783 15.8538 34.1012 16.0331C34.0034 16.0901 34.0279 16.1309 34.1827 16.6443C34.282 16.9955 34.4073 17.3388 34.5576 17.6712C34.6438 17.8656 34.712 18.0675 34.7614 18.2743C34.5922 18.4306 34.3786 18.5303 34.1501 18.5596C34.133 18.5553 34.1152 18.5545 34.0978 18.5571C34.0803 18.5596 34.0635 18.5657 34.0484 18.5747C34.0333 18.5838 34.0201 18.5958 34.0095 18.61C33.999 18.6242 33.9914 18.6403 33.9871 18.6574C33.9829 18.6745 33.982 18.6923 33.9846 18.7098C33.9872 18.7272 33.9932 18.744 34.0023 18.7592C34.0114 18.7743 34.0233 18.7875 34.0375 18.798C34.0517 18.8085 34.0678 18.8161 34.0849 18.8204ZM33.8078 21.9663C33.8623 22.091 33.9435 22.2021 34.0457 22.292C34.1478 22.3818 34.2685 22.4481 34.3991 22.4862C34.5296 22.5243 34.667 22.5332 34.8014 22.5124C34.9359 22.4916 35.0641 22.4415 35.177 22.3656C35.208 22.3529 35.2334 22.3294 35.2484 22.2994C35.2634 22.2695 35.267 22.2351 35.2585 22.2027C35.1933 22.0152 35.0303 22.2515 34.6147 22.0152C34.5286 21.9629 34.4568 21.8902 34.4056 21.8034C34.3544 21.7167 34.3255 21.6187 34.3213 21.518C34.3259 21.4126 34.3531 21.3093 34.4009 21.2151C34.4486 21.1209 34.516 21.038 34.5984 20.972C34.6725 20.9328 34.755 20.9122 34.8388 20.9122C34.9226 20.9122 35.0052 20.9328 35.0792 20.972C35.2096 21.0779 35.3563 20.8742 35.2259 20.7764C34.4435 19.8717 33.3433 21.0209 33.8078 21.9663ZM35.7149 56.8483C35.5237 56.8518 35.3363 56.9027 35.1695 56.9963C35.0027 57.09 34.8617 57.2235 34.7592 57.385C34.6567 57.5465 34.5957 57.7309 34.5819 57.9217C34.5681 58.1125 34.6017 58.3037 34.6799 58.4783C35.2178 59.5623 37.0678 59.1629 37.0352 57.9893C37.0283 57.826 36.9881 57.6658 36.9169 57.5186C36.8458 57.3715 36.7453 57.2404 36.6216 57.1335C36.498 57.0266 36.3537 56.9462 36.1978 56.8971C36.0419 56.8481 35.8775 56.8315 35.7149 56.8483ZM36.424 58.242C36.4144 58.3217 36.3891 58.3987 36.3497 58.4687C36.3103 58.5387 36.2575 58.6002 36.1943 58.6498C36.1311 58.6994 36.0588 58.736 35.9814 58.7576C35.9041 58.7792 35.8232 58.7854 35.7435 58.7758C35.6637 58.7661 35.5867 58.7409 35.5167 58.7015C35.4467 58.6621 35.3852 58.6093 35.3356 58.5461C35.286 58.4829 35.2494 58.4105 35.2278 58.3332C35.2062 58.2558 35.2 58.175 35.2096 58.0953C35.2096 58.0207 35.2245 57.9469 35.2532 57.8781C35.282 57.8094 35.3241 57.747 35.3772 57.6947C35.4303 57.6424 35.4933 57.6011 35.5624 57.5733C35.6316 57.5456 35.7056 57.5318 35.7801 57.5329C35.874 57.5228 35.9689 57.5345 36.0574 57.5672C36.146 57.5999 36.2257 57.6527 36.2905 57.7214C36.3552 57.7901 36.4032 57.8728 36.4306 57.9631C36.458 58.0534 36.4641 58.1489 36.4484 58.242H36.424ZM35.4949 62.374C35.3029 62.3754 35.1142 62.425 34.9463 62.5181C34.7783 62.6112 34.6364 62.745 34.5334 62.9071C34.4305 63.0692 34.3698 63.2546 34.357 63.4462C34.3441 63.6378 34.3795 63.8296 34.4598 64.004C34.9896 65.0717 36.8478 64.6967 36.8152 63.515C36.8071 63.3521 36.7661 63.1925 36.6946 63.0459C36.6231 62.8993 36.5226 62.7687 36.3992 62.662C36.2757 62.5554 36.132 62.4748 35.9765 62.4253C35.8211 62.3758 35.6573 62.3584 35.4949 62.374ZM36.2039 63.7676C36.2065 63.8557 36.1902 63.9432 36.1563 64.0244C36.1223 64.1056 36.0714 64.1787 36.007 64.2387C35.9426 64.2987 35.8661 64.3443 35.7827 64.3724C35.6992 64.4005 35.6108 64.4105 35.5232 64.4018C35.4356 64.393 35.3508 64.3657 35.2746 64.3216C35.1984 64.2775 35.1325 64.2177 35.0812 64.1461C35.03 64.0745 34.9946 63.9929 34.9773 63.9065C34.9601 63.8202 34.9615 63.7312 34.9814 63.6454C34.9836 63.4955 35.0446 63.3525 35.1514 63.2473C35.2582 63.142 35.402 63.083 35.5519 63.083C35.6418 63.0778 35.7317 63.0922 35.8154 63.1252C35.8991 63.1582 35.9746 63.2091 36.0366 63.2742C36.0987 63.3394 36.1458 63.4173 36.1747 63.5025C36.2036 63.5877 36.2136 63.6782 36.2039 63.7676ZM32.0719 16.897C32.0719 17.0274 32.1208 17.1578 32.1697 17.4349C32.1786 17.488 32.1979 17.5388 32.2265 17.5844C32.2551 17.63 32.2925 17.6694 32.3364 17.7005C32.3804 17.7316 32.43 17.7536 32.4825 17.7654C32.5351 17.7772 32.5894 17.7784 32.6424 17.769C32.748 17.7511 32.8422 17.6922 32.9047 17.6053C32.9673 17.5184 32.9931 17.4103 32.9765 17.3045C32.9765 17.1578 32.9032 16.9541 32.8869 16.8074C32.875 16.6993 32.8207 16.6003 32.7358 16.5323C32.651 16.4643 32.5426 16.4328 32.4346 16.4447C32.3265 16.4566 32.2276 16.5109 32.1596 16.5957C32.0915 16.6806 32.06 16.7889 32.0719 16.897ZM35.5927 16.791C35.6065 16.8868 35.6546 16.9743 35.7281 17.0372C35.8015 17.1002 35.8953 17.1343 35.992 17.1333C36.0511 17.1328 36.1093 17.1196 36.1629 17.0947C36.2165 17.0698 36.2641 17.0338 36.3027 16.9891C36.3412 16.9444 36.3698 16.892 36.3865 16.8353C36.4032 16.7787 36.4077 16.7191 36.3995 16.6606C36.3343 16.302 36.318 16.2613 36.3017 16.1635C36.2888 16.0554 36.2334 15.9569 36.1478 15.8897C36.0622 15.8224 35.9534 15.7919 35.8453 15.8049C35.7373 15.8179 35.6388 15.8732 35.5715 15.9588C35.5043 16.0444 35.4738 16.1532 35.4867 16.2613C35.5112 16.3754 35.5438 16.5058 35.5927 16.791ZM47.7443 69.2037C47.8421 69.3015 47.997 69.1548 47.8992 69.057C45.9269 66.6854 45.4542 64.2892 45.8046 61.29C45.8091 61.2743 45.8099 61.2577 45.8069 61.2416C45.8039 61.2254 45.7972 61.2102 45.7874 61.1971C45.7775 61.184 45.7647 61.1734 45.75 61.1661C45.7353 61.1588 45.7192 61.155 45.7028 61.155C45.6864 61.155 45.6702 61.1588 45.6555 61.1661C45.6408 61.1734 45.6281 61.184 45.6182 61.1971C45.6083 61.2102 45.6016 61.2254 45.5986 61.2416C45.5956 61.2577 45.5964 61.2743 45.6009 61.29C44.7696 64.3137 45.3482 67.0358 47.7443 69.2037Z" fill="url(#paint2_linear_353_7451)"/>
<path d="M64.403 60.3853C64.296 60.3739 64.1889 60.4052 64.105 60.4723C64.021 60.5395 63.967 60.6371 63.9547 60.7439V61.2818C63.9547 61.3899 63.9976 61.4936 64.0741 61.57C64.1505 61.6464 64.2541 61.6893 64.3622 61.6893C64.4703 61.6893 64.5739 61.6464 64.6504 61.57C64.7268 61.4936 64.7697 61.3899 64.7697 61.2818V60.8499C64.7777 60.7951 64.7744 60.7392 64.7601 60.6857C64.7457 60.6322 64.7206 60.5822 64.6863 60.5387C64.652 60.4952 64.6091 60.4592 64.5604 60.4328C64.5117 60.4065 64.4581 60.3903 64.403 60.3853ZM68.861 61.7464C68.9135 61.7532 68.9669 61.7495 69.0179 61.7356C69.069 61.7216 69.1168 61.6976 69.1585 61.665C69.2002 61.6324 69.235 61.5918 69.2609 61.5456C69.2868 61.4994 69.3032 61.4485 69.3093 61.3959V60.8662C69.3093 60.7581 69.2663 60.6545 69.1899 60.5781C69.1135 60.5016 69.0098 60.4587 68.9018 60.4587C68.7943 60.4608 68.6919 60.5044 68.6159 60.5804C68.5399 60.6563 68.4963 60.7588 68.4943 60.8662V61.2981C68.4886 61.3517 68.4937 61.4059 68.5091 61.4575C68.5245 61.5091 68.55 61.5571 68.5841 61.5988C68.6182 61.6405 68.6603 61.675 68.7078 61.7003C68.7553 61.7256 68.8074 61.7413 68.861 61.7464ZM65.4706 64.5337C66.1371 64.7452 66.8458 64.7872 67.5326 64.6559C67.6141 64.6559 67.6059 64.5255 67.5326 64.5337L67.0191 64.4603C66.512 64.4182 66.0022 64.4182 65.4951 64.4603C65.4136 64.3951 65.3891 64.5255 65.4706 64.5337Z" fill="url(#paint3_linear_353_7451)"/>
<defs>
<linearGradient id="paint0_linear_353_7451" x1="4.04709" y1="6.67808" x2="153.199" y2="36.2297" gradientUnits="userSpaceOnUse">
<stop stop-color="#086158"/>
<stop offset="1" stop-color="#2DAB35"/>
</linearGradient>
<linearGradient id="paint1_linear_353_7451" x1="49.918" y1="83.8031" x2="72.4141" y2="86.2681" gradientUnits="userSpaceOnUse">
<stop stop-color="#086158"/>
<stop offset="1" stop-color="#2DAB35"/>
</linearGradient>
<linearGradient id="paint2_linear_353_7451" x1="18.8178" y1="20.1295" x2="140.926" y2="48.7173" gradientUnits="userSpaceOnUse">
<stop stop-color="#086158"/>
<stop offset="1" stop-color="#2DAB35"/>
</linearGradient>
<linearGradient id="paint3_linear_353_7451" x1="64.0819" y1="60.569" x2="69.8477" y2="62.2045" gradientUnits="userSpaceOnUse">
<stop stop-color="#086158"/>
<stop offset="1" stop-color="#2DAB35"/>
</linearGradient>
</defs>
</svg>
