<svg width="190" height="162" viewBox="0 0 190 162" fill="none" xmlns="http://www.w3.org/2000/svg">
<path d="M107.5 86.6866C113.409 86.6866 119.185 84.9344 124.098 81.6516C129.011 78.3689 132.841 73.7029 135.102 68.2439C137.363 62.7849 137.955 56.7779 136.802 50.9826C135.649 45.1874 132.804 39.8641 128.626 35.6859C124.447 31.5077 119.124 28.6624 113.329 27.5096C107.534 26.3569 101.527 26.9485 96.0676 29.2097C90.6086 31.4709 85.9427 35.3001 82.6599 40.2131C79.3772 45.1261 77.625 50.9022 77.625 56.8111C77.6341 64.7317 80.7846 72.3254 86.3854 77.9262C91.9862 83.5269 99.5798 86.6774 107.5 86.6866ZM88.7454 54.0052C89.0518 53.679 89.4193 53.4163 89.8272 53.2321C90.235 53.048 90.6751 52.9459 91.1224 52.9319C91.5697 52.9178 92.0153 52.992 92.4339 53.1502C92.8525 53.3083 93.2359 53.5474 93.5621 53.8538L103.241 62.949L121.275 43.5219C121.579 43.194 121.945 42.9292 122.352 42.7427C122.759 42.5562 123.199 42.4516 123.646 42.435C124.093 42.4183 124.539 42.4899 124.958 42.6457C125.378 42.8014 125.763 43.0382 126.091 43.3427C126.419 43.6471 126.683 44.0132 126.87 44.4199C127.056 44.8267 127.161 45.2662 127.178 45.7134C127.194 46.1606 127.123 46.6067 126.967 47.0262C126.811 47.4457 126.574 47.8304 126.27 48.1584L105.904 70.1002C105.598 70.4293 105.23 70.6948 104.821 70.8814C104.413 71.068 103.971 71.1721 103.522 71.1875C103.485 71.1875 103.447 71.1875 103.406 71.1875C102.539 71.1874 101.705 70.8568 101.073 70.263L88.895 58.8203C88.2369 58.2015 87.8514 57.3466 87.8234 56.4437C87.7953 55.5408 88.127 54.6637 88.7454 54.0052Z" fill="#337DB3"/>
<path d="M103.717 161.187C146.133 161.187 180.518 126.802 180.518 84.386C180.518 41.97 146.133 7.58502 103.717 7.58502C61.3014 7.58502 26.9164 41.97 26.9164 84.386C26.9164 126.802 61.3014 161.187 103.717 161.187Z" fill="url(#paint0_linear_353_7642)"/>
<path d="M92.5012 10.124L36.3979 55.2711V126.965C36.3979 138.011 45.3523 146.965 56.3979 146.965H153.307C164.352 146.965 173.307 138.011 173.307 126.965V55.2711L117.63 10.1652C110.309 4.23436 99.8414 4.21719 92.5012 10.124Z" fill="#053732"/>
<rect x="56.1531" y="21.457" width="97.8575" height="121.817" rx="24" fill="url(#paint1_linear_353_7642)"/>
<path d="M64.573 39.8232C64.573 38.4268 65.705 37.2948 67.1014 37.2948H140.715C142.111 37.2948 143.243 38.4268 143.243 39.8232V39.8232C143.243 41.2196 142.111 42.3517 140.715 42.3517H67.1014C65.705 42.3517 64.573 41.2196 64.573 39.8232V39.8232Z" fill="#086158"/>
<path d="M64.573 56.2581C64.573 54.8617 65.705 53.7297 67.1014 53.7297H140.715C142.111 53.7297 143.243 54.8617 143.243 56.2581V56.2581C143.243 57.6545 142.111 58.7865 140.715 58.7865H67.1014C65.705 58.7865 64.573 57.6545 64.573 56.2581V56.2581Z" fill="#D5D5D5"/>
<path d="M64.573 72.6935C64.573 71.2971 65.705 70.165 67.1014 70.165H140.715C142.111 70.165 143.243 71.2971 143.243 72.6935V72.6935C143.243 74.0899 142.111 75.2219 140.715 75.2219H67.1014C65.705 75.2219 64.573 74.0899 64.573 72.6935V72.6935Z" fill="#D5D5D5"/>
<path d="M64.573 89.1279C64.573 87.7315 65.705 86.5995 67.1014 86.5995H140.715C142.111 86.5995 143.243 87.7315 143.243 89.1279V89.1279C143.243 90.5243 142.111 91.6563 140.715 91.6563H67.1014C65.705 91.6563 64.573 90.5243 64.573 89.1279V89.1279Z" fill="#D5D5D5"/>
<path fill-rule="evenodd" clip-rule="evenodd" d="M36.3979 55.1406V126.965C36.3979 138.011 45.3523 146.965 56.398 146.965H102.594C122.054 146.965 130.052 121.992 114.214 110.687L36.3979 55.1406Z" fill="#BDBDBD"/>
<path fill-rule="evenodd" clip-rule="evenodd" d="M173.307 55.1406V126.965C173.307 138.011 164.352 146.965 153.307 146.965H48.2097L173.307 55.1406Z" fill="#BDBDBD"/>
<path fill-rule="evenodd" clip-rule="evenodd" d="M173.565 56.3309L52.9299 146.965H47.895L172.082 54.2881L173.565 56.3309Z" fill="#011625"/>
<path d="M9.9322 112.073L9.9324 112.073C12.7986 113.922 14.6641 116.476 15.6155 119.756L16.0957 119.617L15.6149 119.754C15.8057 120.423 16.5043 120.808 17.1719 120.612L17.1725 120.612C17.8349 120.417 18.2196 119.719 18.0246 119.051C16.9021 115.182 14.6804 112.144 11.2899 109.955L9.9322 112.073ZM9.9322 112.073C9.35111 111.697 9.18125 110.92 9.5556 110.335M9.9322 112.073L9.5556 110.335M9.5556 110.335C9.92797 109.749 10.7066 109.578 11.2897 109.955L9.5556 110.335Z" fill="#011625" stroke="#011625"/>
<path d="M51.6277 121.016L51.628 121.016C52.4539 120.594 52.741 119.787 52.6684 118.955C52.6047 118.201 52.2113 117.373 52.0022 117.001C51.5943 116.275 51.1241 115.589 50.6048 114.947C53.2001 110.101 58.8415 108.147 63.8304 110.437L63.831 110.437C64.465 110.727 65.2066 110.445 65.4955 109.816L65.4968 109.813L65.4968 109.813C65.7807 109.185 65.5085 108.437 64.8752 108.147C58.9054 105.406 52.1693 107.55 48.7942 113.057C48.3449 112.658 47.874 112.284 47.3865 111.936L47.3863 111.936C41.149 107.489 32.0727 108.99 25.2036 115.475L25.2035 115.476C24.0768 116.54 23.2082 118.085 22.5405 119.888C21.8709 121.698 21.391 123.801 21.0618 126.018C20.4716 129.991 20.3317 134.366 20.3437 138.024C19.71 136.586 19.0169 135.178 18.2871 133.776L18.2871 133.776C17.9542 133.136 17.6216 132.493 17.2879 131.848C13.3143 124.165 9.19053 116.192 2.58891 110.299L2.5875 110.298C2.06875 109.838 1.27485 109.882 0.8153 110.405C0.354637 110.926 0.406212 111.72 0.920647 112.18L0.920776 112.18C7.19601 117.784 11.1187 125.377 14.9972 132.884C15.3522 133.571 15.7068 134.257 16.0628 134.941L16.0628 134.942C17.3881 137.488 18.5738 140.023 19.4891 142.721L19.4894 142.722C19.5251 142.827 19.5606 142.931 19.5961 143.034C19.8379 143.739 20.0741 144.428 20.2748 145.131C20.2749 145.132 20.275 145.134 20.2751 145.136C20.2757 145.151 20.2754 145.175 20.2732 145.211C20.2715 145.24 20.2691 145.269 20.2662 145.304C20.2654 145.314 20.2645 145.325 20.2636 145.336C20.2599 145.383 20.2556 145.439 20.2537 145.496L20.2535 145.501C20.2473 145.771 20.2573 146.071 20.3207 146.316L20.3216 146.32C20.4414 146.769 20.7113 147.089 21.0569 147.271L21.0595 147.273C21.3122 147.405 21.6263 147.476 21.9979 147.41L22.0032 147.409C22.2695 147.358 22.7061 147.202 22.9372 146.653C22.9692 146.578 22.9857 146.494 22.9949 146.442C23.0071 146.374 23.0179 146.292 23.0266 146.198C23.044 146.009 23.0542 145.757 23.0462 145.449L23.0462 145.448C23.0375 145.138 23.0217 144.732 23.0028 144.245C22.877 141.001 22.6113 134.155 23.3388 127.942L23.3388 127.942C23.6072 125.648 23.9973 123.458 24.581 121.597C25.1674 119.728 25.934 118.243 26.9225 117.309C32.9843 111.586 40.7322 110.282 45.9335 113.989C46.5718 114.444 47.1717 114.949 47.7249 115.502C47.6317 116.023 47.5775 116.66 47.5862 117.306C47.5964 118.065 47.6938 118.878 47.9439 119.546L47.9439 119.546C48.2064 120.246 48.6445 120.828 49.2597 121.136L51.6277 121.016ZM51.6277 121.016C50.7101 121.484 49.9079 121.46 49.2599 121.136L51.6277 121.016Z" fill="#011625" stroke="#011625"/>
<path fill-rule="evenodd" clip-rule="evenodd" d="M167.545 25.8808C168.31 22.7769 168.26 19.7878 168.352 16.6394C168.37 16.0246 167.885 15.5134 167.27 15.4949C166.655 15.4764 166.142 15.9616 166.124 16.5765C166.037 19.5618 166.107 22.4028 165.38 25.3511C165.233 25.9474 165.599 26.5512 166.196 26.6956C166.793 26.8438 167.398 26.4771 167.545 25.8808Z" fill="#011625"/>
<path fill-rule="evenodd" clip-rule="evenodd" d="M174.049 31.8955C179.244 27.1619 184.138 21.0726 187.558 14.924C187.857 14.387 187.662 13.7091 187.124 13.4128C186.586 13.1165 185.907 13.3091 185.609 13.8462C182.301 19.791 177.568 25.6803 172.546 30.2547C172.092 30.6695 172.06 31.3733 172.475 31.8252C172.89 32.277 173.595 32.3104 174.049 31.8955Z" fill="#011625"/>
<path fill-rule="evenodd" clip-rule="evenodd" d="M175.365 37.0653C180.116 37.8469 185.012 36.5135 189.332 34.6282C189.896 34.38 190.153 33.7244 189.907 33.1651C189.66 32.6021 189.002 32.3465 188.438 32.591C184.504 34.3096 180.055 35.5838 175.728 34.8726C175.121 34.7726 174.547 35.1837 174.447 35.7875C174.347 36.3912 174.759 36.9653 175.365 37.0653Z" fill="#011625"/>
<path fill-rule="evenodd" clip-rule="evenodd" d="M38.152 14.9267C38.8288 14.6855 39.5411 14.365 40.0903 13.9009C40.7426 13.3498 41.0079 12.6399 41.1861 11.8926C41.4148 10.9326 41.5062 9.90992 41.7836 8.94834C41.8863 8.59125 42.0839 8.45627 42.1687 8.39637C42.383 8.24505 42.5997 8.2046 42.8035 8.21977C43.0451 8.23728 43.3769 8.32868 43.5951 8.73362C43.6262 8.79158 43.6667 8.87989 43.6939 9.00086C43.7137 9.08955 43.7266 9.36689 43.7476 9.48126C43.8001 9.76288 43.844 10.0445 43.8853 10.3277C44.0226 11.2702 44.1016 12.0708 44.5353 12.9366C45.1238 14.1122 45.7135 14.8314 46.5133 15.15C47.2866 15.4581 48.2112 15.4001 49.3926 15.1586C49.505 15.1313 49.6162 15.108 49.7263 15.0889C50.2472 14.9979 50.7451 15.3398 50.8474 15.8587C50.9497 16.3773 50.6187 16.8826 50.1025 16.9965C49.9947 17.0203 49.8885 17.0428 49.7835 17.0634C48.1871 17.4586 46.339 18.8691 45.265 20.1042C44.934 20.485 44.4493 21.5496 43.9549 22.2288C43.59 22.7298 43.18 23.0601 42.8358 23.1768C42.6051 23.2554 42.4106 23.2433 42.25 23.2036C42.0166 23.1461 41.8229 23.0196 41.6743 22.8185C41.5934 22.7084 41.5183 22.561 41.4825 22.3727C41.4654 22.2821 41.4634 22.0518 41.4638 21.9476C41.3631 21.601 41.2398 21.2626 41.1499 20.9129C40.9356 20.0785 40.5151 19.5502 40.0156 18.8524C39.5484 18.1993 39.0467 17.7889 38.3111 17.4614C38.2154 17.438 37.4432 17.249 37.1706 17.1405C36.7722 16.9814 36.5824 16.7149 36.5135 16.5714C36.3965 16.3278 36.3844 16.1151 36.4078 15.9377C36.4424 15.6759 36.5598 15.4519 36.7683 15.271C36.8975 15.1586 37.0904 15.0492 37.3487 14.996C37.5483 14.9543 38.0777 14.9302 38.152 14.9267ZM42.6817 13.5668C42.7175 13.6465 42.7557 13.7267 42.7961 13.8076C43.6581 15.5293 44.622 16.4905 45.7937 16.9569L45.8329 16.972C45.0491 17.554 44.3396 18.2043 43.7974 18.8279C43.5741 19.0846 43.2785 19.6179 42.9591 20.1648C42.6689 19.2216 42.1943 18.5548 41.5976 17.7204C41.1417 17.0837 40.6641 16.6044 40.0771 16.2139C40.5326 15.9801 40.9671 15.7063 41.3456 15.3865C41.9757 14.854 42.3923 14.237 42.6817 13.5668Z" fill="#086158"/>
<circle cx="162.187" cy="142.225" r="18.9632" fill="#086158"/>
<path fill-rule="evenodd" clip-rule="evenodd" d="M169.861 136.47C170.595 137.217 170.585 138.418 169.838 139.152L160.835 148.002C160.097 148.727 158.914 148.727 158.176 148.002L154.537 144.424C153.79 143.69 153.78 142.489 154.514 141.743C155.248 140.996 156.449 140.985 157.196 141.72L159.506 143.99L167.179 136.447C167.926 135.713 169.127 135.724 169.861 136.47Z" fill="white"/>
<defs>
<linearGradient id="paint0_linear_353_7642" x1="103.125" y1="-17.4233" x2="104.699" y2="252.29" gradientUnits="userSpaceOnUse">
<stop stop-color="#F2F2F2"/>
<stop offset="1" stop-color="#EFEFEF"/>
</linearGradient>
<linearGradient id="paint1_linear_353_7642" x1="105.082" y1="21.457" x2="105.082" y2="143.274" gradientUnits="userSpaceOnUse">
<stop stop-color="white"/>
<stop offset="0.71875" stop-color="#EAEAEA"/>
</linearGradient>
</defs>
</svg>
