<svg width="252" height="180" viewBox="0 0 252 180" fill="none" xmlns="http://www.w3.org/2000/svg">
<path d="M103.579 41.3713C101.432 41.093 82.3788 41.093 78.9603 41.3713C78.9018 41.3841 78.8502 41.4184 78.8158 41.4675C78.7814 41.5166 78.7668 41.5769 78.7748 41.6363C78.787 41.6807 78.8105 41.7211 78.843 41.7536C78.8755 41.7861 78.916 41.8096 78.9603 41.8218C82.0343 42.0868 101.393 42.206 103.513 41.9278C103.817 41.9013 103.91 41.411 103.579 41.3713ZM193.083 74.5228C192.818 74.5228 189.412 75.7285 190.313 76.2188L191.267 77.0138C191.055 77.4908 193.136 79.6638 191.705 84.7783C191.108 84.3675 191.095 84.7783 191.175 84.9108C193.387 87.1898 209.195 99.8435 212.719 102.136C213.037 102.6 215.051 101.606 215.369 101.5C222.37 98.5151 229.203 95.1536 235.84 91.4298C238.265 90.1048 238.239 85.348 235.297 83.4798C232.203 81.4222 228.981 79.5634 225.651 77.9148L229.759 74.695C230.05 74.4698 229.891 73.635 228.778 74.536C226.381 70.6634 225.411 66.0757 226.035 61.5643C226.194 61.4715 227.97 60.4115 227.188 60.067C223.213 58.4108 210.043 53.5745 205.988 53.3228C204.663 53.23 194.063 61.71 193.069 63.4193C190.949 66.957 191.599 70.9983 193.149 74.5625L193.083 74.5228ZM192.023 84.977C193.348 83.5328 192.937 79.571 192.301 77.822C194.116 79.2795 208.704 90.277 213.342 93.2185C215.846 98.5185 213.05 101.089 213.143 101.487C205.379 96.0938 199.058 89.9325 192.023 84.977V84.977ZM235.204 84.3808C237.417 85.5203 236.914 90.2638 235.324 90.8203C228.116 94.676 220.987 98.1475 213.541 101.42C214.519 100.101 215.052 98.5047 215.064 96.8623L225.267 92.6753C225.452 92.5825 225.267 92.3308 225.121 92.3705C221.695 93.5157 218.342 94.8652 215.078 96.4118C215.052 95.1239 214.651 93.8715 213.925 92.8078C217.039 91.5755 232.952 83.3208 235.204 84.3808V84.3808ZM213.117 70.9188C217.015 67.6908 221.094 64.6871 225.333 61.922C225.024 63.5331 224.966 65.1824 225.161 66.8113C224.512 67.0233 216.482 72.9063 216.071 73.2243C215.899 73.3568 216.071 73.635 216.283 73.529L225.254 67.434C225.532 69.3023 226.658 73.5555 228.394 74.7083C226.632 76.1393 217.913 83.0425 215.793 83.0425C214.204 81.5092 213.104 79.5396 212.632 77.382C212.16 75.2244 212.338 72.9755 213.143 70.9188H213.117ZM211.381 59.484C212.308 60.279 208.466 62.5183 208.32 62.558C207.883 62.6905 207.591 62.24 208.532 61.339C209.009 60.9283 210.758 58.9938 211.381 59.4973V59.484ZM204.16 61.6968C204.822 60.3718 207.578 58.1723 208.744 57.3773C208.802 57.3373 208.866 57.309 208.935 57.294C209.003 57.279 209.074 57.2776 209.143 57.2899C209.211 57.3022 209.277 57.3279 209.336 57.3657C209.395 57.4034 209.446 57.4524 209.486 57.5098C209.526 57.5672 209.554 57.632 209.569 57.7003C209.584 57.7687 209.586 57.8393 209.574 57.9082C209.561 57.9771 209.535 58.0429 209.498 58.1019C209.46 58.1608 209.411 58.2118 209.354 58.2518C208.32 59.0468 205.511 61.6835 204.729 62.2268C204.671 62.2593 204.604 62.2763 204.537 62.2763C204.47 62.2763 204.404 62.2593 204.345 62.2268C204.299 62.2055 204.257 62.1751 204.222 62.1374C204.188 62.0997 204.161 62.0555 204.144 62.0074C204.126 61.9593 204.119 61.9082 204.122 61.8571C204.124 61.8061 204.137 61.7561 204.16 61.71V61.6968ZM194.434 63.989C200.118 65.5314 205.703 67.4209 211.156 69.6468C211.5 69.819 211.381 70.402 210.97 70.3225C205.29 68.7398 199.71 66.815 194.262 64.5588C194.201 64.5249 194.154 64.4713 194.128 64.4069C194.102 64.3425 194.099 64.2712 194.119 64.2047C194.139 64.1382 194.181 64.0806 194.239 64.0414C194.296 64.0022 194.365 63.9837 194.434 63.989ZM193.454 75.1588C199.774 78.723 211.54 83.2545 215.979 83.917C216.866 84.0495 224.074 78.988 225.254 78.1268C226.022 78.882 232.422 82.4993 234.052 83.5063C231.693 83.6255 214.574 91.602 213.342 92.3838C205.988 86.885 198.356 81.3068 190.817 76.073L193.467 75.1588H193.454ZM103.579 41.3713H103.592H103.579ZM125.097 16.1168C125.016 16.0837 124.926 16.0837 124.845 16.1168C124.063 16.5938 119.545 22.7418 118.631 23.8945C117.756 22.702 116.869 21.5228 115.981 20.37C115.809 20.158 115.451 20.37 115.583 20.6483C116.471 22.066 117.425 23.4308 118.392 24.7955C118.551 25.0075 118.856 24.9015 118.989 24.7293C119.823 23.6693 125.137 17.2563 125.362 16.5275C125.372 16.4832 125.372 16.4373 125.364 16.3926C125.356 16.3479 125.339 16.3052 125.315 16.267C125.29 16.2288 125.258 16.1959 125.221 16.1701C125.183 16.1444 125.141 16.1262 125.097 16.1168V16.1168ZM99.8291 43.9418C91.8791 44.1008 83.0678 43.9418 79.6493 44.2333C79.579 44.2333 79.5116 44.2612 79.4619 44.3109C79.4123 44.3606 79.3843 44.428 79.3843 44.4983C79.3843 44.5686 79.4123 44.636 79.4619 44.6857C79.5116 44.7354 79.579 44.7633 79.6493 44.7633C83.7568 44.7633 96.5431 45.1873 99.8291 44.485C100.107 44.4188 100.054 44.0213 99.8291 43.9418V43.9418ZM100.121 30.6255C100.386 30.6255 100.465 30.175 100.121 30.1353C97.4706 29.7378 81.5706 30.5195 77.7148 31.1158C77.6445 31.1158 77.5771 31.1437 77.5274 31.1934C77.4777 31.2431 77.4498 31.3105 77.4498 31.3808C77.4498 31.4511 77.4777 31.5185 77.5274 31.5682C77.5771 31.6179 77.6445 31.6458 77.7148 31.6458C82.9088 31.6458 94.7146 30.8375 100.054 30.652L100.121 30.6255ZM94.8471 33.2755C95.0723 33.2755 95.1916 32.825 94.8471 32.7455C93.5221 32.4143 80.2721 32.7455 78.2713 32.9708C78.2398 32.9756 78.2096 32.9867 78.1824 33.0034C78.1553 33.02 78.1317 33.042 78.1132 33.0679C78.0947 33.0939 78.0815 33.1233 78.0745 33.1544C78.0676 33.1855 78.0669 33.2177 78.0726 33.249C78.0797 33.3006 78.1027 33.3486 78.1383 33.3866C78.1739 33.4246 78.2204 33.4506 78.2713 33.461C80.8286 33.6068 93.2836 33.6995 94.8471 33.2755ZM123.096 40.563C123.825 39.503 115.835 39.8873 115.491 40.245C115.146 40.6028 115.491 46.0485 115.491 46.552C115.491 47.3338 122.897 47.3205 123.189 47.0953C123.519 44.9393 123.519 42.7455 123.189 40.5895L123.096 40.563ZM122.526 46.499C121.824 46.499 116.617 46.5918 116.193 46.2605C116.193 44.3923 116.074 42.5373 116.007 40.6823H122.632C122.394 42.6122 122.358 44.5617 122.526 46.499V46.499Z" fill="url(#paint0_linear_353_7311)"/>
<path d="M216.508 77.3847C218.363 76.285 220.258 75.2117 222.047 74.0192C222.298 73.847 222.047 73.3965 221.755 73.5555L216.309 77.08C216.279 77.11 216.259 77.1497 216.255 77.1923C216.25 77.235 216.26 77.2779 216.284 77.3139C216.307 77.3498 216.342 77.3765 216.383 77.3894C216.424 77.4023 216.468 77.4007 216.508 77.3847ZM203.152 91.9332C202.993 91.8272 202.781 92.079 202.94 92.2115C204.265 93.3642 210.784 97.9222 212.215 98.9292C212.401 99.0617 212.56 98.757 212.387 98.6245C209.605 96.5045 206.107 93.7087 203.152 91.9332V91.9332ZM117.319 35.952C118.008 35.952 123.4 36.5747 123.347 35.687C123.294 34.7992 123.215 29.698 122.87 29.539C122.778 28.6512 116.06 29.3005 115.437 29.4197C115.053 29.4197 115.212 34.5872 115.238 35.21C115.278 36.111 116.722 35.9255 117.319 35.952V35.952ZM122.526 29.8437V35.422C120.294 35.1923 118.047 35.148 115.808 35.2895C115.896 33.4739 115.86 31.6545 115.702 29.8437C116.802 29.8437 121.824 30.016 122.526 29.8437V29.8437ZM211.924 96.3852C211.957 96.4133 211.999 96.4286 212.043 96.4286C212.086 96.4286 212.129 96.4133 212.162 96.3852C212.188 96.3561 212.203 96.3183 212.203 96.2792C212.203 96.2401 212.188 96.2024 212.162 96.1732C206.094 91.867 200.065 86.6862 194.102 82.645C193.93 82.5125 193.665 82.7642 193.837 82.9365C197.176 86.1165 207.604 93.5365 211.977 96.4515L211.924 96.3852ZM228.897 88.7797H228.923H228.897ZM123.321 20.8205C123.302 20.7613 123.262 20.7116 123.207 20.6819C123.153 20.6522 123.089 20.6449 123.029 20.6615C122.989 20.6709 122.952 20.6905 122.922 20.7184C122.892 20.7462 122.87 20.7814 122.857 20.8205V25.458H115.517C115.388 23.3227 115.149 21.1954 114.801 19.0847C116.874 19.181 118.95 19.1279 121.015 18.9257C121.062 18.9107 121.102 18.8801 121.128 18.8391C121.155 18.798 121.166 18.7491 121.161 18.7005C121.153 18.6723 121.14 18.646 121.122 18.6232C121.104 18.6004 121.081 18.5816 121.055 18.568C120.565 18.409 114.43 17.879 114.616 18.939C114.006 18.939 114.894 25.564 114.894 25.564C115.212 26.3722 116.55 26.094 117.252 26.094C117.955 26.094 122.831 26.2132 123.228 26.094C123.864 25.8422 123.506 21.6022 123.361 20.794L123.321 20.8205Z" fill="url(#paint1_linear_353_7311)"/>
<path d="M251.357 141.025C234.476 142.059 217.591 142.942 200.702 143.675C200.481 141.259 200.038 138.868 199.377 136.533C216.16 136.092 232.944 135.575 249.727 134.983C249.813 134.973 249.893 134.935 249.955 134.875C250.017 134.815 250.058 134.737 250.072 134.652C250.083 134.549 250.053 134.445 249.989 134.363C249.924 134.281 249.83 134.228 249.727 134.215C232.873 134.842 216.024 135.359 199.178 135.765C195.203 121.905 186.816 108.722 177.038 98.2807C176.733 94.7562 176.72 92.9807 175.209 89.443C172.294 82.7517 169.074 81.3605 169.154 82.9505C169.153 83.3693 169.22 83.7854 169.353 84.1827C168.823 83.5202 164.927 79.4657 164.132 81.652C163.546 81.2832 162.884 81.0512 162.196 80.9732C161.508 80.8952 160.811 80.9732 160.157 81.2015C157.679 77.2265 153.532 77.2265 150.882 75.9015C145.821 73.2515 148.153 64.798 151.876 61.6445C151.876 61.6445 167.869 61.3397 167.882 61.141C168.173 57.3912 171.367 0.32348 171.367 0.32348C131.961 -0.45827 89.5611 0.323478 50.4471 1.11848C50.1821 1.11848 49.9568 1.29073 49.9833 1.52923C52.3418 21.603 58.1321 62.6912 58.1321 62.6912C59.0861 63.0755 145.701 61.724 150.882 61.6445C148.667 64.0611 147.454 67.2304 147.49 70.5087C147.755 78.8562 154.393 75.3052 159.826 81.4135C156.301 82.924 155.851 87.3892 157.176 90.5825C157.417 91.1947 157.742 91.7701 158.143 92.2917C158.199 93.5368 158.553 94.7503 159.177 95.8295C160.873 99.0492 163.894 100.162 164.053 100.639C164.053 108.139 165.629 117.281 167.127 124.595C162.078 121.945 147.106 115.625 131.709 115.174C132.584 107.582 139.143 106.628 138.242 101.553C140.984 101.447 143.727 101.341 146.47 101.209C147.159 101.209 146.404 99.089 146.324 98.7312C145.211 93.8287 144.094 88.9351 142.972 84.0502C142.8 83.3877 142.031 78.9357 141.382 78.9357L132.836 79.0947C130.954 77.306 126.542 76.6435 124.74 78.7237C122.09 73.6225 113.901 74.3645 113.636 79.32C111.397 77.7962 108.071 77.4915 106.044 79.5585C105.832 79.6512 65.7508 80.1945 59.7883 80.433H59.6823C59.6179 80.4739 59.5721 80.5385 59.5548 80.6128C59.5374 80.6871 59.5499 80.7653 59.5896 80.8305C59.6956 81.5195 56.2373 97.87 55.8266 101.805C55.8266 102.362 61.8288 102.282 62.4516 102.282C53.8921 112.312 46.1938 123.628 43.9016 136.865C29.4591 136.639 15.0166 136.282 0.574079 136.335C0.503797 136.335 0.436393 136.363 0.386696 136.412C0.336999 136.462 0.30908 136.529 0.30908 136.6C0.30908 136.67 0.336999 136.737 0.386696 136.787C0.436393 136.837 0.503797 136.865 0.574079 136.865C14.9503 137.487 29.3663 137.554 43.7558 137.66C43.3272 140.287 43.1497 142.949 43.2258 145.61C28.9158 145.318 14.6058 144.868 0.30908 144.629C-0.00892042 144.629 -0.0619204 145.133 0.30908 145.133C14.6191 145.861 28.9556 146.126 43.2921 146.338C43.6631 153.533 46.4986 162.358 53.5476 165.591C56.4493 171.288 62.5973 176.416 69.4476 174.945C69.2488 175.979 69.0633 177.039 68.8646 178.099C68.7851 178.576 69.5006 178.774 69.5801 178.297C71.5278 167.803 73.5551 157.256 76.9603 147.133C77.0663 146.815 76.5893 146.696 76.4701 147.001C73.1576 155.799 71.2893 165.047 69.5668 174.256C62.5576 175.276 56.9661 170.811 54.0643 164.769C52.5032 161.577 51.6001 158.103 51.4089 154.554C51.2177 151.005 51.7423 147.454 52.9513 144.112C56.5686 134.837 66.2013 128.212 75.6618 123.681C85.281 119.122 95.6115 116.25 106.203 115.188C106.958 122.263 115.094 124.661 121.295 124.29C127.496 123.919 131.166 122.025 131.696 115.771C131.776 115.771 154.075 116.261 173.328 129.127C178.985 132.903 184.126 137.752 187.134 143.914C190.076 149.863 191.109 157.164 188.459 163.365C184.67 172.401 177.753 173.713 173.169 174.521C171.548 164.819 168.418 155.43 163.894 146.696C163.774 146.471 163.403 146.617 163.523 146.855C168.241 157.03 171.459 167.835 173.076 178.933C173.076 179.278 173.765 179.371 173.765 178.933C173.711 177.721 173.552 176.515 173.288 175.329C178.285 174.9 182.911 172.52 186.167 168.704C196.767 166.054 201.391 154.593 200.742 144.497C217.667 143.808 234.574 142.924 251.463 141.847C251.927 141.674 251.754 141.025 251.357 141.025V141.025ZM58.1851 54.3172C55.5351 37.4632 53.4283 20.6887 51.0301 3.82148C90.7801 3.13248 131.564 3.42398 170.77 2.76148L167.71 52.4622C151.16 52.9657 60.3183 53.4825 58.1851 54.3172ZM138.083 100.811C137.84 100.105 137.375 99.496 136.758 99.0757C137.445 97.9834 137.816 96.7223 137.831 95.432H138.546L139.54 100.732L138.083 100.811ZM136.97 91.0992C137.196 90.9166 137.405 90.7125 137.592 90.4897C137.91 91.9075 138.175 93.3252 138.44 94.743H137.804C137.869 93.4745 137.58 92.2129 136.97 91.0992V91.0992ZM146.033 100.467L139.938 100.732C139.779 98.9432 139.434 97.181 139.116 95.432C141.021 95.4953 142.928 95.4466 144.827 95.2862C145.224 96.9955 145.635 98.7445 146.033 100.467ZM144.708 94.6767H139.01L138.056 89.708L143.555 89.549L144.708 94.6767ZM143.383 88.9792L138.202 89.1382C138.301 88.5099 138.257 87.8671 138.071 87.2587C137.885 86.6503 137.562 86.0922 137.129 85.627C137.049 85.2295 136.97 84.8187 136.864 84.408L142.323 84.2887L143.383 88.9792ZM141.355 79.5187C141.647 80.8437 141.912 82.2615 142.177 83.6395L136.731 83.7322C136.453 82.3391 136.095 80.9633 135.658 79.6115L141.355 79.5187ZM136.347 85.1367C135.702 84.8435 134.973 84.7918 134.293 84.991C134.354 84.8269 134.403 84.6586 134.439 84.4875H136.188L136.347 85.1367ZM135.022 79.6247C135.27 81.0158 135.598 82.3916 136.002 83.7455H134.532C134.683 82.2775 134.276 80.8062 133.392 79.6247H135.022ZM102.944 80.1945H105.501C104.961 81.0293 104.77 82.0429 104.971 83.0167L102.718 83.666C102.824 82.5265 102.944 81.2545 102.944 80.1945V80.1945ZM102.228 80.1945V83.8912C102.004 84.0247 101.787 84.1707 101.579 84.3285L95.3116 84.4345C95.3695 83.0598 95.3296 81.6828 95.1923 80.3137L102.228 80.1945ZM99.4456 89.8007H95.2718V85.1632L100.704 85.0705C100.13 85.6997 99.7153 86.4581 99.4962 87.2816C99.277 88.105 99.2597 88.9692 99.4456 89.8007V89.8007ZM95.2983 95.9355H98.9156C98.9668 97.0915 99.3949 98.1991 100.135 99.089C99.6974 99.3914 99.3458 99.8015 99.1136 100.28C98.8815 100.758 98.7768 101.288 98.8096 101.818H95.2321C95.2718 99.831 95.2983 97.8832 95.2983 95.9355ZM99.2733 94.3322C99.1572 94.6089 99.0727 94.8978 99.0216 95.1935H95.3646V90.4102H99.6443C99.9321 91.201 100.449 91.8882 101.128 92.3845C100.3 92.813 99.6317 93.4957 99.2203 94.3322H99.2733ZM94.8346 101.805H78.4178C78.5901 99.5262 78.4178 98.0952 79.8886 96.1342L94.6888 95.962C94.6756 97.9097 94.7153 99.8575 94.7816 101.805H94.8346ZM80.4318 95.4055C81.8106 94.0115 82.8529 92.3211 83.4793 90.4632H86.7918V95.326L80.4318 95.4055ZM87.6398 80.4595L94.5828 80.3402C94.5082 81.7128 94.5082 83.0884 94.5828 84.461L87.6001 84.5802C87.6001 83.2155 87.6133 81.8375 87.6398 80.4595ZM87.5471 85.309L94.5563 85.1897V89.8272H87.4543C87.4543 88.3167 87.4543 86.8195 87.5471 85.309V85.309ZM87.4543 90.45H94.6226V95.2332L87.1628 95.326C87.2688 93.6962 87.3483 92.1195 87.4543 90.45V90.45ZM80.8293 80.5787L87.1761 80.4727L87.0303 84.5935L80.5643 84.6995C80.7217 83.3319 80.7704 81.954 80.7101 80.5787H80.8293ZM80.5113 85.415L87.0171 85.309L86.8978 89.814H83.6516C83.8106 89.0852 84.1021 87.8927 83.2408 87.4952C82.3796 87.0977 81.5581 89.0852 79.9681 89.8007C80.1138 88.3432 80.2463 86.8857 80.3921 85.4282L80.5113 85.415ZM74.8403 80.6847L80.3126 80.592C80.1233 81.9586 80.0038 83.334 79.9548 84.7127H79.5043C80.0741 83.3215 77.0001 82.4205 74.3501 84.7127C74.3898 84.037 74.7608 81.1352 74.7211 80.6847H74.8403ZM79.7826 85.4945C79.6898 86.9387 79.6103 88.3697 79.5176 89.814H77.4506C77.0531 88.648 77.4506 85.9052 78.5106 85.4945H79.7561H79.7826ZM74.0453 80.7245L73.8333 84.832H71.3556C70.3751 82.7915 70.9978 81.2412 70.0306 80.751L74.0453 80.7245ZM73.5153 85.574C73.2099 85.9566 72.9518 86.3748 72.7468 86.8195L71.7663 85.6137L73.5153 85.574ZM65.0486 80.8967L69.3018 80.8172C67.9768 81.4532 67.7781 83.7057 67.7781 84.938H65.7773C65.1016 84.355 64.8101 84.938 64.3066 84.938L65.0221 80.8172L65.0486 80.8967ZM67.9901 87.6277C67.2548 87.1372 66.6573 86.4667 66.2543 85.68H67.7516C67.7674 86.3328 67.8294 86.9837 67.9371 87.6277H67.9901ZM63.6043 89.6152L64.2403 85.7197C64.1075 87.0647 64.2749 88.4223 64.7306 89.6947L63.6043 89.6152ZM64.9293 90.2645C65.4726 92.0797 66.2543 93.736 66.6253 95.5645L62.6503 95.644L63.4453 90.2512L64.9293 90.2645ZM60.1196 80.91H64.4656C64.2138 82.235 63.9753 83.666 63.7368 85.0572C62.2926 85.0572 60.8351 85.1367 59.3908 85.203C59.7029 83.787 59.9285 82.3534 60.0666 80.91H60.1196ZM59.2981 85.7462H63.6043C63.4056 87.0712 63.1936 88.3962 62.9816 89.6285H58.5428C58.7681 88.3035 59.0066 87.0182 59.2451 85.7462H59.2981ZM58.4898 90.0922C59.9473 90.1717 61.4048 90.2115 62.8623 90.238C62.6106 92.0267 62.3191 93.842 62.0806 95.644C60.5303 95.644 58.9801 95.75 57.4298 95.8162C57.7876 93.9082 58.1321 92.0002 58.4898 90.0922V90.0922ZM61.4711 101.58H56.3566C56.6878 99.8045 57.0323 98.0422 57.3901 96.28L61.9878 96.3992C61.7083 98.1151 61.5181 99.8444 61.4181 101.58H61.4711ZM61.8421 101.58L62.6238 96.28H66.7446C66.7843 96.6322 66.7843 96.9878 66.7446 97.34L63.0213 101.593L61.8421 101.58ZM52.8188 142.297C51.2691 145.828 50.4943 149.651 50.5469 153.507C50.5995 157.363 51.4781 161.162 53.1236 164.65C40.2976 155.984 43.0271 136.825 48.4861 124.582C52.9513 114.552 60.0268 106.032 67.2746 97.8567C68.3346 96.651 64.9028 88.5817 64.7836 86.6075C64.7041 85.1367 65.3136 84.832 65.8568 85.8787C66.4001 86.9255 67.1818 88.118 68.2551 88.3697C68.6791 89.6152 69.0103 89.2177 68.9573 89.019C68.5068 86.8327 67.7251 83.719 69.1826 81.705C70.2426 80.3005 70.2028 82.8842 70.3088 83.3877C70.5606 84.5935 71.6338 86.9255 72.6011 87.3627C72.2698 88.3035 72.8263 87.9722 72.8661 87.853C74.7476 82.9107 80.4981 83.613 78.6431 84.832C78.154 85.1239 77.7384 85.5242 77.4283 86.002C77.1182 86.4798 76.9218 87.0224 76.8543 87.588C76.1786 92.2652 79.8621 91.563 82.5386 88.3035C83.6516 86.9785 83.7046 89.8272 81.9423 92.7025C80.4451 95.1405 78.4178 96.015 78.1793 99.2082C77.5168 107.012 75.9136 116.327 74.8403 123.191C66.0423 127.444 57.0456 133.194 52.7658 142.31L52.8188 142.297ZM75.5293 122.833C76.8231 116.096 77.7475 109.293 78.2986 102.454H98.8493C99.6178 106.893 105.13 107.489 106.018 114.379C95.4425 115.413 85.1269 118.274 75.5293 122.833V122.833ZM131.471 112.14C131.141 113.182 130.928 114.258 130.835 115.347C130.305 120.965 127.92 122.833 121.679 123.297C115.054 123.84 107.873 121.746 106.866 114.605C105.978 108.245 103.937 108.801 100.665 104.349C99.6841 103.024 98.8096 100.56 100.665 99.5262C101.576 100.527 102.717 101.291 103.99 101.752C106.852 108.178 107.82 115.585 116.141 116.407C132.226 117.904 128.622 109.146 133.723 101.5C134.715 101.042 135.614 100.404 136.373 99.619C136.952 100.103 137.351 100.766 137.507 101.504C137.663 102.242 137.567 103.01 137.235 103.687C135.936 106.827 132.809 108.019 131.471 112.14V112.14ZM164.304 82.4205C164.755 83.4275 165.219 84.4212 165.629 85.4282C164.98 84.5935 161.8 81.122 160.74 82.977C160.197 83.9442 161.336 85.3885 161.8 86.2497C160.022 86.5646 158.432 87.5514 157.361 89.0057C155.665 82.8445 161.654 79.7705 164.304 82.4205ZM158.315 91.4437C158.064 90.821 157.799 90.185 157.534 89.5622C158.696 88.2009 160.259 87.2411 161.999 86.8195C162.744 88.3584 163.228 90.0108 163.43 91.7087C163.788 95.1007 161.191 92.676 159.932 91.51C159.442 91.0065 158.62 90.7945 158.249 91.4437H158.315ZM187.002 167.512C191.387 161.364 191.573 153.427 189.029 146.484C185.425 136.666 176.852 129.789 167.829 124.979C166.094 116.967 164.969 108.835 164.463 100.652C164.463 99.407 160.25 98.559 158.938 93.6697C158.7 92.782 158.209 90.45 159.813 92.1195C161.416 93.789 164.145 95.326 164.026 91.669C163.867 87.3362 160.926 84.4477 161.191 83.4672C161.522 82.235 163.973 84.5537 164.371 84.9512C165.406 86.0906 166.346 87.3138 167.18 88.6082C167.325 88.8202 167.683 88.6082 167.551 88.4095C167.241 87.8795 166.923 87.3495 166.597 86.8195C166.809 86.369 164.424 82.1555 164.848 81.758C165.272 81.3605 167.18 82.7385 167.604 83.083C169.816 85.0042 169.922 86.2895 170.678 87.2832C170.712 87.2954 170.749 87.2954 170.784 87.2832C170.831 87.2871 170.878 87.2728 170.915 87.2432C170.951 87.2136 170.976 87.1711 170.982 87.1242C170.903 86.2762 170.413 85.7992 170.174 85.2162C169.936 84.6332 169.445 83.3215 169.777 82.8577C169.936 82.7252 170.85 83.401 170.956 83.507C171.83 84.3442 172.56 85.3202 173.116 86.3955C177.17 93.3252 175.951 97.7905 176.64 98.4662C186.697 109.795 197.443 126.384 199.616 141.356C201.086 151.744 197.814 163.855 186.935 167.512H187.002Z" fill="url(#paint2_linear_353_7311)"/>
<path d="M90.8982 23.2199C91.2029 23.1272 91.0837 22.6899 90.8054 22.6502C85.9824 22.7429 80.8547 22.6502 76.0979 22.7827C75.7269 22.7827 75.7799 23.3524 76.0979 23.4054C78.5359 23.8029 88.7782 23.8692 90.8982 23.2199ZM217.396 94.081C219.198 93.2992 227.996 89.7482 229.043 89.152C229.062 89.1345 229.078 89.1131 229.089 89.0891C229.1 89.0652 229.105 89.0391 229.105 89.0128C229.105 88.9865 229.1 88.9605 229.089 88.9365C229.078 88.9125 229.062 88.8911 229.043 88.8737C229.021 88.8416 228.991 88.816 228.956 88.7996C228.921 88.7833 228.882 88.7768 228.844 88.781C226.618 89.2447 219.41 92.6765 217.171 93.7895C217.051 93.8822 217.21 94.1605 217.396 94.081V94.081ZM128.528 62.97L100.438 63.394C101.644 77.015 128.886 77.227 128.528 62.97ZM128.528 33.82C128.528 33.8775 128.55 33.9328 128.589 33.9747C128.629 34.0166 128.683 34.0418 128.74 34.0452C133.232 34.1512 142.732 34.4295 146.323 33.9392C146.614 33.9392 146.522 33.449 146.323 33.449C141.248 33.449 133.921 33.449 128.806 33.5947C128.773 33.5865 128.738 33.5862 128.704 33.5938C128.67 33.6015 128.639 33.6167 128.612 33.6385C128.585 33.6603 128.563 33.688 128.549 33.7195C128.534 33.751 128.527 33.7853 128.528 33.82V33.82ZM90.1032 13.9449C90.4742 13.9449 90.3152 13.415 90.0104 13.362C80.8812 13.627 70.9437 13.8257 62.0397 14.0245C62.0099 14.0292 61.9814 14.0399 61.9558 14.056C61.9302 14.072 61.9081 14.093 61.8908 14.1177C61.8735 14.1424 61.8614 14.1703 61.8551 14.1998C61.8488 14.2294 61.8485 14.2598 61.8542 14.2894C61.8618 14.3359 61.8839 14.3787 61.9171 14.412C61.9504 14.4453 61.9932 14.4673 62.0397 14.475C68.5189 14.9387 81.6894 14.2364 90.1032 13.9449V13.9449ZM95.2044 10.9107C95.5092 10.9107 95.6019 10.3807 95.2044 10.3409C92.2364 9.9832 62.9672 10.4602 60.9267 10.9107C60.7279 10.9107 60.7412 11.3082 60.9267 11.3082C68.4394 11.2949 86.4462 10.7782 95.2044 10.9107ZM37.6067 105.555V105.542V105.555ZM38.1632 105.781C39.184 103.893 39.9673 101.885 40.4952 99.805C40.7419 99.09 40.7983 98.3231 40.6589 97.5797C40.5195 96.8363 40.1891 96.142 39.7002 95.5649C40.1811 94.3548 40.4284 93.0644 40.4289 91.7622C40.1639 89.6025 37.8717 89.7349 36.6394 91.3912C31.6707 98.0162 26.1852 108.616 26.3442 116.765C26.2514 117.149 26.4502 117.586 26.7947 117.268C32.6772 111.44 37.0285 104.249 39.4617 96.3334C41.1179 98.7979 38.5607 103.051 37.6067 105.542C37.4874 105.873 37.9909 106.072 38.1632 105.781V105.781ZM26.8477 116.222C26.9449 114.751 27.1486 113.29 27.4572 111.849L29.4977 113.32C28.6364 114.274 27.7487 115.268 26.8477 116.222ZM39.1569 95.0217C38.2597 94.2687 37.1821 93.7619 36.0299 93.551C36.4726 92.7422 37.0061 91.9864 37.6199 91.2984C38.2162 90.7419 39.3557 90.5167 39.7002 91.4575C39.8171 92.6636 39.6304 93.8798 39.1569 94.9952V95.0217ZM72.8782 27.5262C72.2952 27.7647 68.9032 32.8262 68.2804 33.7139C67.5095 32.6895 66.6199 31.76 65.6304 30.9447C65.5752 30.9191 65.5125 30.9143 65.454 30.9314C65.3955 30.9485 65.3452 30.9861 65.3124 31.0375C65.2931 31.0887 65.2931 31.1452 65.3124 31.1964C66.068 32.4336 66.9566 33.5843 67.9624 34.6282C67.9984 34.668 68.0424 34.6998 68.0915 34.7216C68.1405 34.7433 68.1936 34.7546 68.2473 34.7546C68.301 34.7546 68.3541 34.7433 68.4031 34.7216C68.4522 34.6998 68.4961 34.668 68.5322 34.6282V34.562L72.8782 28.626C73.4877 27.7647 73.3154 27.3009 72.8782 27.5262ZM152.378 20.5699C152.656 20.5699 152.709 20.0399 152.378 20.0002C144.111 19.5891 135.826 19.7086 127.574 20.3579C127.296 20.3579 127.322 20.8482 127.574 20.8349C133.828 20.7819 145.554 20.9807 152.378 20.5699Z" fill="url(#paint3_linear_353_7311)"/>
<path d="M72.8787 35.5549C73.4087 35.3429 72.3487 31.3944 72.203 30.7716C72.1986 30.7438 72.1889 30.7171 72.1742 30.693C72.1595 30.6689 72.1402 30.648 72.1175 30.6314C72.0947 30.6148 72.0689 30.6028 72.0415 30.5962C72.0141 30.5896 71.9857 30.5884 71.9579 30.5927C71.93 30.5971 71.9033 30.6069 71.8793 30.6215C71.8552 30.6362 71.8343 30.6555 71.8177 30.6782C71.8011 30.701 71.7891 30.7268 71.7825 30.7542C71.7758 30.7816 71.7746 30.81 71.779 30.8379C71.938 32.2556 72.097 33.6866 72.362 35.0779C70.1492 35.2501 68.1485 35.2369 65.9887 35.3296C65.5912 33.6071 65.2467 31.3546 64.6637 29.6454C66.3303 29.7855 68.0057 29.7855 69.6722 29.6454C70.772 29.6454 70.6925 28.9564 69.7517 28.9696C69.1952 28.9696 64.4517 28.8769 64.4517 29.4466C63.829 29.4466 65.1407 34.9984 65.2202 35.3694C65.2339 35.4354 65.2683 35.4954 65.3183 35.5406C65.3683 35.5859 65.4314 35.6141 65.4985 35.6211C65.6575 36.3101 72.627 36.2041 72.8787 35.5549ZM153.121 30.9041C153.109 30.8526 153.081 30.8065 153.04 30.7729C152.999 30.7393 152.948 30.7202 152.895 30.7186C144.866 30.5066 136.28 30.8909 128.144 30.8776C127.906 30.8776 127.893 31.2751 128.144 31.3016C135.273 31.7786 146.297 32.0701 152.948 31.1956C153.008 31.1771 153.059 31.137 153.091 31.0831C153.123 31.0292 153.133 30.9654 153.121 30.9041V30.9041ZM65.684 25.9751C67.5427 26.0269 69.4026 25.9428 71.249 25.7234C72.4017 26.0149 70.6395 18.7804 70.4275 18.4491C70.3996 18.3867 70.3523 18.3349 70.2926 18.3015C70.2329 18.2681 70.1641 18.2548 70.0962 18.2636C68.9037 18.2636 63.3652 18.2636 62.5835 18.4359C61.6295 17.6674 63.0207 24.1996 63.2195 24.9814C63.6037 26.2931 64.4517 25.9751 65.684 25.9751ZM62.7425 18.8864C65.1873 19.1849 67.6571 19.2205 70.1095 18.9924L70.9575 25.1139L64.0145 25.4716C64.0675 25.0211 62.9015 19.7609 62.7425 18.8864ZM146.84 23.3516C146.911 23.3516 146.978 23.3237 147.028 23.274C147.077 23.2243 147.105 23.1569 147.105 23.0866C147.105 23.0163 147.077 22.9489 147.028 22.8992C146.978 22.8495 146.911 22.8216 146.84 22.8216C145.197 22.4904 131.073 22.9939 128.144 23.2456C127.919 23.2456 127.919 23.6299 128.144 23.6431C129.734 23.7094 145.263 23.7491 146.84 23.3516ZM35.58 65.3806C35.8317 65.3806 37.7 64.3206 38.1372 66.0431C38.7467 68.4016 41.1317 66.9839 41.516 65.1819C42.0062 62.9559 39.8862 61.2069 37.382 61.2069C32.294 61.2069 33.46 65.6191 35.58 65.3806ZM37.382 61.7236C40.244 61.8164 42.0062 64.5194 40.2705 66.1094C38.7865 67.4344 38.9455 65.5264 38.23 64.7844C36.799 63.4594 35.6595 65.0626 34.8512 64.3869C33.195 63.0619 36.3617 61.6441 37.382 61.7236ZM68.4135 40.1394C66.3332 40.1394 66.2537 39.7949 66.5187 41.8221C66.5982 42.3919 67.009 46.4199 67.698 46.4596C67.8437 47.0956 73.793 46.8704 74.5482 46.6451C75.5685 46.6451 74.5482 43.5049 74.5482 43.1471C73.6737 38.5361 74.7602 39.9671 68.4135 40.1394ZM68.0292 46.1549C67.698 44.4854 67.4462 42.2726 66.9692 40.6826C69.1387 40.8946 71.3269 40.8144 73.475 40.4441C73.6098 42.2889 73.8979 44.1193 74.3362 45.9164C72.2692 46.0091 70.1227 46.1151 68.0292 46.1549ZM155.201 10.1281C152.763 9.90286 117.65 10.1281 113.198 10.4726C113.141 10.4824 113.09 10.5141 113.055 10.561C113.02 10.608 113.005 10.6665 113.013 10.7244C113.022 10.77 113.045 10.8119 113.078 10.8449C113.111 10.8779 113.153 10.9005 113.198 10.9099C116.975 11.1086 152.498 11.0159 155.201 10.7111C155.278 10.7111 155.352 10.6804 155.407 10.6257C155.462 10.5711 155.492 10.4969 155.492 10.4196C155.492 10.3423 155.462 10.2682 155.407 10.2135C155.352 10.1588 155.278 10.1281 155.201 10.1281V10.1281ZM95.4037 19.8669C95.7085 19.8006 95.6025 19.3899 95.3375 19.3369L75.2107 19.8404C75.1815 19.8435 75.1532 19.8527 75.1277 19.8673C75.1022 19.8819 75.08 19.9017 75.0626 19.9254C75.0451 19.9491 75.0328 19.9761 75.0264 20.0048C75.0199 20.0335 75.0196 20.0633 75.0252 20.0921C75.0329 20.1385 75.0549 20.1814 75.0882 20.2146C75.1215 20.2479 75.1643 20.2699 75.2107 20.2776C80.259 20.6486 91.018 20.7546 95.4037 19.8669ZM175.208 57.1126C175.301 58.1196 176.308 68.1631 176.679 68.8919C179.329 74.0594 189.081 74.1919 189.293 66.5466C189.664 63.3666 190.949 54.2374 190.446 51.9716C190.592 51.2296 191.36 47.9966 191.506 46.2874C191.506 46.0091 192.036 38.4434 190.976 39.5961C189.561 41.4797 188.307 43.4786 187.226 45.5719C187.041 46.3801 186.855 47.1751 186.656 47.9701C186.07 47.7491 185.462 47.5935 184.841 47.5064C184.841 46.9631 184.444 44.3131 184.258 43.2531C183.344 41.4776 182.403 39.8876 181.608 38.0459C180.482 35.2766 180.455 35.2236 180.137 38.2711C179.607 41.3756 179.607 44.5476 180.137 47.6521C174.135 48.8976 174.758 52.4354 175.195 57.1126H175.208ZM189.704 42.5376C189.866 42.6944 190.06 42.8146 190.273 42.89C190.485 42.9654 190.712 42.9944 190.936 42.9749V46.3139C190.378 46.368 189.815 46.3091 189.28 46.1407C188.745 45.9722 188.249 45.6976 187.823 45.3334C188.472 44.4191 189.147 43.4784 189.704 42.5376ZM187.796 46.0224C188.674 46.6464 189.727 46.9757 190.804 46.9631C190.367 49.4276 189.929 51.8789 189.585 54.3566C189.134 55.9731 186.935 56.5561 185.504 56.7549C186.378 53.2569 187.041 49.4939 187.796 45.9826V46.0224ZM185.146 55.8009C185.081 56.1335 185.037 56.4698 185.014 56.8079L181.781 56.8874L180.456 44.4059C181.055 44.5867 181.689 44.6185 182.303 44.4984C182.917 44.3784 183.493 44.1101 183.98 43.7169C183.98 43.7169 184.841 55.6021 185.146 55.7611V55.8009ZM180.614 40.1659C180.817 40.2189 181.029 40.2298 181.237 40.1979C181.444 40.166 181.643 40.0919 181.82 39.9804L183.635 43.2399C183.16 43.5944 182.608 43.834 182.024 43.9397C181.44 44.0455 180.84 44.0145 180.27 43.8494C180.247 42.5994 180.363 41.3507 180.614 40.1261V40.1659ZM189.797 55.4299C189.558 58.7689 189.134 65.8179 188.273 68.9714C186.749 73.0656 180.111 73.1319 177.183 68.9714C176.626 64.3736 176.07 59.6964 175.527 55.1649C178.004 58.7556 187.637 58.3184 189.797 55.3901V55.4299Z" fill="url(#paint4_linear_353_7311)"/>
<path d="M11.6772 70.032C13.6939 71.0851 15.8229 71.9074 18.0239 72.4832C13.7972 78.3 25.8944 86.5945 36.9582 82.169C42.0329 80.1417 47.1077 73.7022 42.1389 69.237C47.4389 64.9572 49.3072 58.7827 49.0819 52.012C48.7374 41.571 44.1264 33.886 33.5662 31.4082C28.3635 30.1907 22.9116 30.6119 17.9577 32.614L15.9039 29.063C16.5532 28.7185 17.2289 28.3872 17.8914 28.0957C19.6404 27.4995 19.1104 26.2142 18.0769 26.5985C-2.22206 34.0052 -6.91256 60.704 11.6772 70.032ZM18.1829 71.5557C17.8119 70.2307 18.8057 68.9057 18.3419 67.4615C17.2819 64.0297 12.8432 66.0172 11.7169 63.6985C10.4847 61.1677 13.7707 60.7305 14.4332 58.9152C14.5504 58.5975 14.5802 58.2541 14.5196 57.9208C14.459 57.5876 14.3102 57.2767 14.0887 57.0205C12.1807 54.6355 7.76844 57.153 9.02719 51.588C9.98119 47.3877 14.0357 45.4002 16.9772 47.2552C19.9187 49.1102 21.6809 50.3557 25.4042 48.1827C31.6052 44.539 30.8367 52.1577 28.9419 54.4632C27.9349 55.7087 26.1064 55.6425 24.7019 56.1725C20.1174 57.895 20.1439 60.9822 23.7744 61.7375C25.1789 62.029 26.9809 61.8965 28.0807 62.9565C31.0619 65.8582 24.9007 72.0592 22.9529 73.0795C21.9062 72.8675 18.7129 72.2447 18.1829 71.5557V71.5557ZM34.9972 32.5742C42.8014 34.999 46.9222 40.6435 48.0352 48.7127C48.5642 52.1952 48.4339 55.746 47.6509 59.1802C47.3329 59.6175 42.8544 60.8497 41.4102 58.9947C40.8526 58.245 40.4803 57.374 40.3237 56.4529C40.1671 55.5317 40.2307 54.5866 40.5092 53.6947C41.3704 51.4687 44.2987 49.5077 43.3977 47.2287C42.1522 44.0752 38.5084 48.3815 36.9714 47.4937C34.6659 46.1687 38.9854 43.6247 34.0564 42.7105C32.2412 42.3792 30.7572 43.1212 29.4189 41.1205C26.3582 36.536 34.3214 32.561 34.9972 32.5345V32.5742ZM19.8789 38.444C19.9361 38.5343 20.0227 38.6021 20.1241 38.6359C20.2255 38.6697 20.3355 38.6674 20.4354 38.6295C20.5502 38.5823 20.6421 38.4923 20.6916 38.3785C20.741 38.2647 20.7442 38.1361 20.7004 38.02L18.2889 33.3162C23.2035 31.3456 28.6142 30.9747 33.7517 32.2562C27.1267 34.4425 26.3449 41.9155 31.1017 43.2007C32.1087 43.479 36.6137 43.0815 35.8319 45.0027C35.6733 45.3144 35.5843 45.6569 35.5712 46.0064C35.5581 46.3559 35.6211 46.7041 35.756 47.0268C35.8909 47.3495 36.0943 47.639 36.3523 47.8752C36.6102 48.1114 36.9164 48.2887 37.2497 48.3947C39.1047 48.726 41.0922 45.9302 42.4569 47.0697C44.8419 49.0572 38.6144 52.1312 39.6744 56.5567C40.4694 59.9487 41.8739 61.022 45.3189 60.5317C46.0736 60.4668 46.8055 60.2409 47.4654 59.8692C44.6167 69.8465 33.9637 74.4442 24.2249 73.2385C26.1859 71.4365 29.2334 67.859 29.5249 65.2885C29.9754 60.7305 24.7417 61.6447 22.8204 60.6377C20.1704 59.3127 23.9599 57.0072 26.3847 56.4772C27.1792 56.3464 27.9483 56.0916 28.6637 55.722C32.6387 53.284 31.5389 43.479 25.7752 47.0962C20.8462 50.1835 19.3224 47.56 17.0302 46.3807C13.3599 44.5125 8.32494 47.454 8.07319 53.0057C7.92744 56.782 11.0412 55.9737 12.8564 56.9807C13.1818 57.1028 13.4534 57.336 13.6232 57.6392C13.7929 57.9424 13.8499 58.2958 13.7839 58.637C13.3599 59.962 11.4387 60.227 10.9087 61.8302C10.6991 62.4556 10.7068 63.1333 10.9304 63.7537C11.1541 64.3742 11.5806 64.9009 12.1409 65.2487C13.8767 66.2557 16.9507 65.3812 17.6794 67.7795C18.0372 68.9455 17.3349 70.138 17.4144 71.3172C14.0339 70.1022 11.0571 67.9723 8.81588 65.1649C6.57465 62.3576 5.15701 58.983 4.72094 55.4172C3.52844 46.4072 9.02719 37.649 17.1097 33.8197C17.9444 35.3567 18.9912 36.9467 19.8789 38.444V38.444ZM7.95394 34.9062C9.943 32.8437 12.2351 31.0966 14.7512 29.7255C15.4897 30.8585 16.1664 32.0307 16.7784 33.2367C12.6199 35.1687 9.15905 38.337 6.86826 42.3091C4.57748 46.2812 3.56845 50.8636 3.97894 55.4305C4.25515 58.0481 5.07561 60.579 6.38766 62.8609C7.69971 65.1427 9.47435 67.125 11.5977 68.6805C-1.06931 61.6447 -1.59931 45.0557 7.95394 34.9062ZM149.371 44.2475C148.232 43.9957 131.192 43.9162 128.781 44.2475C128.721 44.2475 128.664 44.2712 128.621 44.3135C128.579 44.3557 128.555 44.413 128.555 44.4727C128.555 44.5325 128.579 44.5898 128.621 44.632C128.664 44.6743 128.721 44.698 128.781 44.698C129.695 44.8305 147.503 45.1352 149.371 44.698C149.433 44.6843 149.488 44.6499 149.528 44.6005C149.567 44.5511 149.589 44.4897 149.589 44.4264C149.589 44.3631 149.567 44.3016 149.528 44.2523C149.488 44.2029 149.433 44.1685 149.371 44.1547V44.2475ZM155.029 13.7725C142.243 13.9182 125.72 13.481 114.192 13.7725C113.874 13.7725 113.901 14.223 114.192 14.2495C119.029 14.7795 151.133 14.7397 155.029 14.2495C155.067 14.2463 155.104 14.2354 155.137 14.2174C155.171 14.1994 155.2 14.1747 155.224 14.1449C155.247 14.1151 155.264 14.0808 155.274 14.0441C155.284 14.0074 155.286 13.9691 155.281 13.9315C155.259 13.8828 155.224 13.8416 155.179 13.8133C155.134 13.7849 155.082 13.7707 155.029 13.7725V13.7725ZM153.611 41.3722C145.86 41.2 136.174 41.677 127.919 41.465C127.681 41.465 127.628 41.8095 127.919 41.836C132.994 42.3395 148.881 42.843 153.664 41.9155C153.916 41.8492 153.942 41.3722 153.611 41.3722V41.3722Z" fill="url(#paint5_linear_353_7311)"/>
<defs>
<linearGradient id="paint0_linear_353_7311" x1="81.2531" y1="19.7781" x2="238.716" y2="87.1773" gradientUnits="userSpaceOnUse">
<stop stop-color="#086158"/>
<stop offset="1" stop-color="#2DAB35"/>
</linearGradient>
<linearGradient id="paint1_linear_353_7311" x1="117.122" y1="21.7454" x2="237.493" y2="61.1036" gradientUnits="userSpaceOnUse">
<stop stop-color="#086158"/>
<stop offset="1" stop-color="#2DAB35"/>
</linearGradient>
<linearGradient id="paint2_linear_353_7311" x1="6.02797" y1="7.66724" x2="271.126" y2="93.4092" gradientUnits="userSpaceOnUse">
<stop stop-color="#086158"/>
<stop offset="1" stop-color="#2DAB35"/>
</linearGradient>
<linearGradient id="paint3_linear_353_7311" x1="31.1375" y1="14.8" x2="229.407" y2="101.211" gradientUnits="userSpaceOnUse">
<stop stop-color="#086158"/>
<stop offset="1" stop-color="#2DAB35"/>
</linearGradient>
<linearGradient id="paint4_linear_353_7311" x1="37.522" y1="12.7123" x2="174.775" y2="92.5296" gradientUnits="userSpaceOnUse">
<stop stop-color="#086158"/>
<stop offset="1" stop-color="#2DAB35"/>
</linearGradient>
<linearGradient id="paint5_linear_353_7311" x1="3.68799" y1="16.6537" x2="146.742" y2="90.005" gradientUnits="userSpaceOnUse">
<stop stop-color="#086158"/>
<stop offset="1" stop-color="#2DAB35"/>
</linearGradient>
</defs>
</svg>
