<svg width="56" height="54" viewBox="0 0 56 54" fill="none" xmlns="http://www.w3.org/2000/svg">
<path d="M3.14258 5.0202V15.087C3.14258 16.1543 4.00564 17.0174 5.07293 17.0174H26.0433C27.1106 17.0174 27.9736 16.1543 27.9736 15.087V5.0202C27.9736 3.9529 27.1106 3.08984 26.0433 3.08984H5.07293C4.00564 3.08984 3.14258 3.95949 3.14258 5.0202ZM4.49975 5.0202C4.49975 4.70396 4.7567 4.44702 5.07293 4.44702H26.0433C26.3595 4.44702 26.6165 4.70396 26.6165 5.0202V15.087C26.6165 15.4033 26.3595 15.6602 26.0433 15.6602H5.07293C4.7567 15.6602 4.49975 15.4033 4.49975 15.087V5.0202Z" fill="url(#paint0_linear_353_7456)"/>
<path d="M12.1619 21.7087C12.1619 20.5425 11.2132 19.5872 10.0405 19.5872C8.87436 19.5872 7.91907 20.536 7.91907 21.7087C7.91907 22.6442 8.53177 23.4414 9.38166 23.7247C8.53836 24.0014 7.91907 24.7985 7.91907 25.7407C7.91907 26.6762 8.53177 27.4734 9.38166 27.7567C8.53836 28.0334 7.91907 28.8305 7.91907 29.7727C7.91907 30.7082 8.53177 31.5054 9.38166 31.7887C8.53836 32.0654 7.91907 32.8625 7.91907 33.8047C7.91907 34.9708 8.86777 35.9261 10.0405 35.9261C11.2066 35.9261 12.1619 34.9774 12.1619 33.8047C12.1619 32.8691 11.5492 32.0654 10.6993 31.7887C11.5426 31.512 12.1619 30.7148 12.1619 29.7727C12.1619 28.8371 11.5492 28.04 10.6993 27.7567C11.5426 27.48 12.1619 26.6828 12.1619 25.7407C12.1619 24.8051 11.5492 24.008 10.6993 23.7247C11.5492 23.448 12.1619 22.6508 12.1619 21.7087ZM10.8047 33.7915C10.8047 34.2131 10.4621 34.5557 10.0405 34.5557C9.61883 34.5557 9.27624 34.2131 9.27624 33.7915C9.27624 33.3698 9.61883 33.0272 10.0405 33.0272C10.4621 33.0272 10.8047 33.3698 10.8047 33.7915ZM10.8047 29.7661C10.8047 30.1877 10.4621 30.5303 10.0405 30.5303C9.61883 30.5303 9.27624 30.1877 9.27624 29.7661C9.27624 29.3444 9.61883 29.0018 10.0405 29.0018C10.4621 29.0018 10.8047 29.3444 10.8047 29.7661ZM10.8047 25.7407C10.8047 26.1623 10.4621 26.5049 10.0405 26.5049C9.61883 26.5049 9.27624 26.1623 9.27624 25.7407C9.27624 25.319 9.61883 24.9764 10.0405 24.9764C10.4621 24.9764 10.8047 25.319 10.8047 25.7407ZM10.0405 22.4729C9.61883 22.4729 9.27624 22.1303 9.27624 21.7087C9.27624 21.287 9.61883 20.9444 10.0405 20.9444C10.4621 20.9444 10.8047 21.287 10.8047 21.7087C10.8047 22.1303 10.4621 22.4729 10.0405 22.4729Z" fill="url(#paint1_linear_353_7456)"/>
<path d="M17.2481 21.7087C17.2481 20.5425 16.2994 19.5872 15.1267 19.5872C13.9605 19.5872 13.0052 20.536 13.0052 21.7087C13.0052 22.6442 13.618 23.4414 14.4612 23.7247C13.618 24.0014 13.0052 24.7985 13.0052 25.7407C13.0052 26.6762 13.618 27.4734 14.4612 27.7567C13.618 28.0334 13.0052 28.8305 13.0052 29.7727C13.0052 30.7082 13.618 31.5054 14.4678 31.7887C13.6245 32.0654 13.0052 32.8625 13.0052 33.8047C13.0052 34.9708 13.954 35.9261 15.1267 35.9261C16.2928 35.9261 17.2481 34.9774 17.2481 33.8047C17.2481 32.8691 16.6354 32.0654 15.7855 31.7887C16.6288 31.512 17.2481 30.7148 17.2481 29.7727C17.2481 28.8371 16.6354 28.04 15.7855 27.7567C16.6288 27.48 17.2481 26.6828 17.2481 25.7407C17.2481 24.8051 16.6354 24.008 15.7855 23.7247C16.6354 23.448 17.2481 22.6508 17.2481 21.7087ZM15.8909 33.7915C15.8909 34.2131 15.5483 34.5557 15.1267 34.5557C14.705 34.5557 14.3624 34.2131 14.3624 33.7915C14.3624 33.3698 14.705 33.0272 15.1267 33.0272C15.5483 33.0272 15.8909 33.3698 15.8909 33.7915ZM15.8909 29.7661C15.8909 30.1877 15.5483 30.5303 15.1267 30.5303C14.705 30.5303 14.3624 30.1877 14.3624 29.7661C14.3624 29.3444 14.705 29.0018 15.1267 29.0018C15.5483 29.0018 15.8909 29.3444 15.8909 29.7661ZM15.8909 25.7407C15.8909 26.1623 15.5483 26.5049 15.1267 26.5049C14.705 26.5049 14.3624 26.1623 14.3624 25.7407C14.3624 25.319 14.705 24.9764 15.1267 24.9764C15.5483 24.9764 15.8909 25.319 15.8909 25.7407ZM15.1267 22.4729C14.705 22.4729 14.3624 22.1303 14.3624 21.7087C14.3624 21.287 14.705 20.9444 15.1267 20.9444C15.5483 20.9444 15.8909 21.287 15.8909 21.7087C15.8909 22.1303 15.5483 22.4729 15.1267 22.4729Z" fill="url(#paint2_linear_353_7456)"/>
<path d="M22.3341 21.7087C22.3341 20.5425 21.3854 19.5872 20.2127 19.5872C19.04 19.5872 18.0913 20.536 18.0913 21.7087C18.0913 22.6442 18.704 23.4414 19.5539 23.7247C18.7106 24.0014 18.0913 24.7985 18.0913 25.7407C18.0913 26.6762 18.704 27.4734 19.5539 27.7567C18.7106 28.0334 18.0913 28.8305 18.0913 29.7727C18.0913 30.7082 18.704 31.512 19.5539 31.7887C18.7106 32.0654 18.0913 32.8625 18.0913 33.8047C18.0913 34.9708 19.04 35.9261 20.2127 35.9261C21.3854 35.9261 22.3341 34.9774 22.3341 33.8047C22.3341 32.8691 21.7214 32.0654 20.8715 31.7887C21.7148 31.512 22.3341 30.7148 22.3341 29.7727C22.3341 28.8371 21.7214 28.04 20.8715 27.7567C21.7148 27.48 22.3341 26.6828 22.3341 25.7407C22.3341 24.8051 21.7214 24.008 20.8715 23.7247C21.7148 23.448 22.3341 22.6508 22.3341 21.7087ZM20.977 33.7915C20.977 34.2131 20.6344 34.5557 20.2127 34.5557C19.7911 34.5557 19.4485 34.2131 19.4485 33.7915C19.4485 33.3698 19.7911 33.0272 20.2127 33.0272C20.6344 33.0272 20.977 33.3698 20.977 33.7915ZM20.977 29.7661C20.977 30.1877 20.6344 30.5303 20.2127 30.5303C19.7911 30.5303 19.4485 30.1877 19.4485 29.7661C19.4485 29.3444 19.7911 29.0018 20.2127 29.0018C20.6344 29.0018 20.977 29.3444 20.977 29.7661ZM20.977 25.7407C20.977 26.1623 20.6344 26.5049 20.2127 26.5049C19.7911 26.5049 19.4485 26.1623 19.4485 25.7407C19.4485 25.319 19.7911 24.9764 20.2127 24.9764C20.6344 24.9764 20.977 25.319 20.977 25.7407ZM20.2127 22.4729C19.7911 22.4729 19.4485 22.1303 19.4485 21.7087C19.4485 21.287 19.7911 20.9444 20.2127 20.9444C20.6344 20.9444 20.977 21.287 20.977 21.7087C20.977 22.1303 20.6344 22.4729 20.2127 22.4729Z" fill="url(#paint3_linear_353_7456)"/>
<path d="M27.4136 21.7087C27.4136 20.5425 26.4649 19.5872 25.2922 19.5872C24.1195 19.5872 23.1708 20.536 23.1708 21.7087C23.1708 22.6442 23.7835 23.4414 24.6334 23.7247C23.7901 24.0014 23.1708 24.7985 23.1708 25.7407C23.1708 26.6762 23.7835 27.4734 24.6334 27.7567C23.7901 28.0334 23.1708 28.8305 23.1708 29.7727C23.1708 30.7082 23.7835 31.512 24.6334 31.7887C23.7901 32.0654 23.1708 32.8625 23.1708 33.8047C23.1708 34.9708 24.1195 35.9261 25.2922 35.9261C26.4649 35.9261 27.4136 34.9774 27.4136 33.8047C27.4136 32.8691 26.8009 32.0654 25.951 31.7887C26.7943 31.512 27.4136 30.7148 27.4136 29.7727C27.4136 28.8371 26.8009 28.04 25.951 27.7567C26.7943 27.48 27.4136 26.6828 27.4136 25.7407C27.4136 24.8051 26.8009 24.008 25.951 23.7247C26.8009 23.448 27.4136 22.6508 27.4136 21.7087ZM26.063 33.7915C26.063 34.2131 25.7204 34.5557 25.2988 34.5557C24.8771 34.5557 24.5345 34.2131 24.5345 33.7915C24.5345 33.3698 24.8771 33.0272 25.2988 33.0272C25.7204 33.0272 26.063 33.3698 26.063 33.7915ZM26.063 29.7661C26.063 30.1877 25.7204 30.5303 25.2988 30.5303C24.8771 30.5303 24.5345 30.1877 24.5345 29.7661C24.5345 29.3444 24.8771 29.0018 25.2988 29.0018C25.7204 29.0018 26.063 29.3444 26.063 29.7661ZM26.063 25.7407C26.063 26.1623 25.7204 26.5049 25.2988 26.5049C24.8771 26.5049 24.5345 26.1623 24.5345 25.7407C24.5345 25.319 24.8771 24.9764 25.2988 24.9764C25.7204 24.9764 26.063 25.319 26.063 25.7407ZM25.2988 22.4729C24.8771 22.4729 24.5345 22.1303 24.5345 21.7087C24.5345 21.287 24.8771 20.9444 25.2988 20.9444C25.7204 20.9444 26.063 21.287 26.063 21.7087C26.063 22.1303 25.7204 22.4729 25.2988 22.4729Z" fill="url(#paint4_linear_353_7456)"/>
<path d="M34.9573 4.54547H49.1022C49.4777 4.54547 49.7808 4.24241 49.7808 3.86688C49.7808 3.49135 49.4777 3.18829 49.1022 3.18829H34.9573C34.5817 3.18829 34.2787 3.49135 34.2787 3.86688C34.2787 4.24241 34.5817 4.54547 34.9573 4.54547Z" fill="url(#paint5_linear_353_7456)"/>
<path d="M34.9573 6.31186H49.1022C49.4777 6.31186 49.7808 6.0088 49.7808 5.63327C49.7808 5.25774 49.4777 4.95468 49.1022 4.95468H34.9573C34.5817 4.95468 34.2787 5.25774 34.2787 5.63327C34.2787 6.0088 34.5817 6.31186 34.9573 6.31186Z" fill="url(#paint6_linear_353_7456)"/>
<path d="M34.9573 8.08374H49.1022C49.4777 8.08374 49.7808 7.78068 49.7808 7.40515C49.7808 7.02962 49.4777 6.72656 49.1022 6.72656H34.9573C34.5817 6.72656 34.2787 7.02962 34.2787 7.40515C34.2787 7.78068 34.5817 8.08374 34.9573 8.08374Z" fill="url(#paint7_linear_353_7456)"/>
<path d="M49.1022 9.84924C49.4777 9.84924 49.7808 9.54618 49.7808 9.17065C49.7808 8.79512 49.4777 8.49207 49.1022 8.49207H34.9573C34.5817 8.49207 34.2787 8.79512 34.2787 9.17065C34.2787 9.54618 34.5817 9.84924 34.9573 9.84924H49.1022Z" fill="url(#paint8_linear_353_7456)"/>
<path d="M55.1765 35.1087C55.1765 35.0758 55.1765 35.0428 55.1765 35.0165V4.23624C55.1765 1.89741 53.2725 0 50.9402 0H4.23624C1.89741 0 0 1.904 0 4.23624V35.0099C0 37.3487 1.904 39.2461 4.23624 39.2461H36.3341V45.0833C36.3341 45.1821 36.3341 45.2875 36.3407 45.3863L36.5186 46.8819C36.6306 47.4221 36.7953 47.9426 37.0127 48.4565C37.4475 49.4908 38.0734 50.4132 38.8706 51.2104C39.6678 52.0075 40.5901 52.6334 41.6245 53.0682C42.6918 53.5228 43.8249 53.7468 44.9977 53.7468H47.3365C48.5026 53.7468 49.6424 53.5162 50.7096 53.0682C51.744 52.6334 52.6664 52.0075 53.4635 51.2104C54.2607 50.4132 54.8866 49.4908 55.3214 48.4565C55.776 47.3892 56 46.256 56 45.0833V36.9336C56 36.2814 55.7431 35.6687 55.2885 35.2075C55.2489 35.1746 55.216 35.1351 55.1765 35.1087ZM29.9238 37.8955H4.23624C2.64847 37.8955 1.35059 36.6042 1.35059 35.0099V4.23624C1.35059 2.64847 2.64188 1.35059 4.23624 1.35059H29.9238V37.8955ZM36.3341 36.9402V37.8889H31.2809V1.35059H50.9402C52.528 1.35059 53.8259 2.64188 53.8259 4.23624V34.5092C53.7402 34.5026 53.648 34.496 53.5624 34.496C53.1539 34.496 52.7718 34.5948 52.4292 34.7727C52.1656 33.6922 51.2169 32.8819 50.0706 32.8292V13.9012C50.0706 12.6165 49.0231 11.5755 47.7449 11.5755H36.9798C35.6951 11.5755 34.6541 12.6231 34.6541 13.9012V33.5209C34.6541 34.6805 35.504 35.6424 36.6174 35.8202C36.4329 36.1496 36.3341 36.5384 36.3341 36.9402ZM36.9798 34.4894C36.4461 34.4894 36.0047 34.0546 36.0047 33.5144V13.9012C36.0047 13.3675 36.4395 12.9261 36.9798 12.9261H47.7449C48.2786 12.9261 48.72 13.3609 48.72 13.9012V33.1454C48.6212 33.1981 48.5224 33.264 48.4301 33.3299H48.4038C48.2852 33.0334 48.1007 32.7567 47.8701 32.5195C47.4089 32.0584 46.7962 31.808 46.144 31.808C45.6762 31.808 45.2414 31.9398 44.8725 32.1638V31.6499H46.9873C47.8108 31.6499 48.4762 30.9845 48.4762 30.1609V24.2315C48.4762 20.8584 45.7355 18.1176 42.3624 18.1176C38.9892 18.1176 36.2485 20.8584 36.2485 24.2315V30.1609C36.2485 30.9845 36.9139 31.6499 37.7374 31.6499H39.984V34.4828H36.9798V34.4894ZM44.8329 21.3986H39.8852C38.9233 21.3986 38.1459 22.176 38.1459 23.1379V28.1845C38.1459 29.1464 38.9233 29.9238 39.8852 29.9238H39.984V30.2993H37.7374C37.6649 30.2993 37.6056 30.24 37.6056 30.1675V24.2381C37.6056 21.616 39.7402 19.4814 42.3624 19.4814C44.9845 19.4814 47.1191 21.616 47.1191 24.2381V30.1675C47.1191 30.24 47.0598 30.2993 46.9873 30.2993H44.8659V29.9238C45.808 29.9106 46.5722 29.1332 46.5722 28.1845V23.1379C46.5722 22.176 45.7948 21.3986 44.8329 21.3986ZM39.8852 28.5666C39.6744 28.5666 39.5031 28.3953 39.5031 28.1845V23.1379C39.5031 22.9271 39.6744 22.7558 39.8852 22.7558H44.8329C45.0438 22.7558 45.2151 22.9271 45.2151 23.1379V28.1845C45.2151 28.3821 45.0569 28.5534 44.8659 28.5666V28.0593V26.8207C44.8659 26.4781 44.7934 26.1487 44.6616 25.8456C44.5431 25.5689 44.3652 25.312 44.1478 25.0946C43.6866 24.6334 43.0739 24.3831 42.4216 24.3831C41.4202 24.3831 40.5572 24.9892 40.1816 25.8522C40.0499 26.1487 39.9774 26.4781 39.9774 26.8273V28.5732H39.8852V28.5666ZM54.768 45.0833C54.768 49.1812 51.4344 52.5148 47.3365 52.5148H44.9977C41.1435 52.5148 37.9614 49.5633 37.5991 45.8014C37.5727 45.5642 37.5661 45.3271 37.5661 45.0833V39.2461V38.8903V38.2447V37.8889V36.9402C37.5661 36.4527 37.856 36.0376 38.2645 35.84H39.2856C39.4108 35.8993 39.5294 35.9784 39.6282 36.0838C39.8588 36.3144 39.984 36.6174 39.984 36.9402V37.8889V38.2447V38.8903V39.2461V40.8273C39.984 41.0776 40.1289 41.2885 40.3398 41.3873C40.4188 41.4268 40.5045 41.4466 40.5967 41.4466C40.9393 41.4466 41.2094 41.1699 41.2094 40.8339V39.2527V38.8969V38.2513V37.8955V35.8466V35.4908V34.8452V34.4894V31.6565V31.3007V30.6551V30.2993V29.9238V29.568V28.9224V28.5666V27.4729V26.8207C41.2094 26.1553 41.7496 25.6085 42.4216 25.6085C42.7445 25.6085 43.0475 25.7336 43.2781 25.9642C43.5087 26.1948 43.6339 26.4979 43.6339 26.8207V28.5666V28.9224V29.568V29.9238V30.2993V30.6551V31.3007V31.6565V34.4894V34.8452V35.4908V35.8466V37.8955V38.2513V38.8969V39.2527V40.8339C43.6339 41.1765 43.9106 41.4466 44.2466 41.4466H44.3059C44.6485 41.4466 44.9186 41.1699 44.9186 40.8339V39.2527V38.8969V38.2513V37.8955V35.8466V35.4908V34.8452V34.4894V34.2522C44.9186 33.5868 45.4588 33.04 46.1308 33.04C46.4536 33.04 46.7567 33.1652 46.9873 33.3958C47.2179 33.6264 47.3431 33.9294 47.3431 34.2522V34.4894V34.8452V35.4908V35.8466V37.8955V38.2513V38.8969V39.2527V40.8339C47.3431 41.1765 47.6198 41.4466 47.9558 41.4466H48.0151C48.3576 41.4466 48.6278 41.1699 48.6278 40.8339V39.2527V38.8969V38.2513V37.8955V35.6687V35.5962C48.6278 35.4776 48.6475 35.3591 48.6739 35.2536C48.6805 35.2405 48.6871 35.2207 48.6871 35.2075C48.8122 34.8452 49.1021 34.5553 49.4711 34.4433C49.5831 34.4104 49.7082 34.3906 49.8334 34.3906C49.8532 34.3906 49.8729 34.3906 49.8861 34.3906C50.1892 34.4038 50.4725 34.5289 50.6833 34.7464C50.9139 34.9769 51.0391 35.28 51.0391 35.6028V37.9021V38.2579V38.9035V39.2593V40.8405C51.0391 41.1831 51.3158 41.4532 51.6518 41.4532H51.7111C52.0536 41.4532 52.3238 41.1765 52.3238 40.8405V39.0155V38.6334V37.9285V37.5266V36.9336C52.3238 36.7228 52.3765 36.5252 52.4753 36.3473C52.6795 35.9718 53.0814 35.7214 53.536 35.7214C53.5953 35.7214 53.648 35.728 53.7073 35.7346C53.8259 35.7544 53.9379 35.7873 54.0499 35.8334C54.1751 35.8927 54.2936 35.9718 54.3925 36.0772C54.4649 36.1496 54.5242 36.2287 54.5769 36.3144C54.6692 36.4725 54.7285 36.6504 54.7416 36.8348C54.7416 36.8678 54.7482 36.9007 54.7482 36.9336L54.768 45.0833Z" fill="url(#paint9_linear_353_7456)"/>
<defs>
<linearGradient id="paint0_linear_353_7456" x1="3.73232" y1="3.68565" x2="28.4537" y2="13.8369" gradientUnits="userSpaceOnUse">
<stop stop-color="#086158"/>
<stop offset="1" stop-color="#2DAB35"/>
</linearGradient>
<linearGradient id="paint1_linear_353_7456" x1="8.01983" y1="20.2862" x2="12.9386" y2="20.5804" gradientUnits="userSpaceOnUse">
<stop stop-color="#086158"/>
<stop offset="1" stop-color="#2DAB35"/>
</linearGradient>
<linearGradient id="paint2_linear_353_7456" x1="13.106" y1="20.2862" x2="18.0247" y2="20.5804" gradientUnits="userSpaceOnUse">
<stop stop-color="#086158"/>
<stop offset="1" stop-color="#2DAB35"/>
</linearGradient>
<linearGradient id="paint3_linear_353_7456" x1="18.1921" y1="20.2862" x2="23.1108" y2="20.5804" gradientUnits="userSpaceOnUse">
<stop stop-color="#086158"/>
<stop offset="1" stop-color="#2DAB35"/>
</linearGradient>
<linearGradient id="paint4_linear_353_7456" x1="23.2715" y1="20.2862" x2="28.1903" y2="20.5804" gradientUnits="userSpaceOnUse">
<stop stop-color="#086158"/>
<stop offset="1" stop-color="#2DAB35"/>
</linearGradient>
<linearGradient id="paint5_linear_353_7456" x1="34.6469" y1="3.24635" x2="36.9239" y2="9.23664" gradientUnits="userSpaceOnUse">
<stop stop-color="#086158"/>
<stop offset="1" stop-color="#2DAB35"/>
</linearGradient>
<linearGradient id="paint6_linear_353_7456" x1="34.6469" y1="5.01274" x2="36.9239" y2="11.003" gradientUnits="userSpaceOnUse">
<stop stop-color="#086158"/>
<stop offset="1" stop-color="#2DAB35"/>
</linearGradient>
<linearGradient id="paint7_linear_353_7456" x1="34.6469" y1="6.78462" x2="36.9239" y2="12.7749" gradientUnits="userSpaceOnUse">
<stop stop-color="#086158"/>
<stop offset="1" stop-color="#2DAB35"/>
</linearGradient>
<linearGradient id="paint8_linear_353_7456" x1="34.6469" y1="8.55012" x2="36.9239" y2="14.5404" gradientUnits="userSpaceOnUse">
<stop stop-color="#086158"/>
<stop offset="1" stop-color="#2DAB35"/>
</linearGradient>
<linearGradient id="paint9_linear_353_7456" x1="1.33" y1="2.29925" x2="62.9357" y2="17.0829" gradientUnits="userSpaceOnUse">
<stop stop-color="#086158"/>
<stop offset="1" stop-color="#2DAB35"/>
</linearGradient>
</defs>
</svg>
