<svg width="83" height="67" viewBox="0 0 83 67" fill="none" xmlns="http://www.w3.org/2000/svg">
<path d="M69.2462 18.7511C69.2351 18.5155 69.5672 18.4551 69.643 18.6795C71.6367 24.5892 74.2108 51.8145 73.9238 55.1231C73.5596 59.317 73.4713 63.1905 69.7278 63.5435C69.4533 63.5692 69.0752 63.6297 68.9904 63.2809C68.6687 61.9549 72.5923 64.4476 72.6576 54.4226C72.7438 41.1056 69.4713 23.4572 69.2462 18.7518V18.7511Z" fill="url(#paint0_linear_353_7574)"/>
<path d="M68.0407 28.6569C68.0748 28.3004 68.5849 28.2803 68.6425 28.634C69.4959 33.8634 71.1888 53.3812 69.3396 60.1623C68.6613 62.6495 66.3395 63.5098 63.7718 63.2902C63.5334 63.27 63.2478 63.2589 63.2415 62.9365C63.236 62.6418 63.5091 62.6376 63.7169 62.6189C70.735 61.9823 68.7204 54.2853 68.5042 36.1698C68.4695 33.2497 67.8573 30.5701 68.04 28.6563L68.0407 28.6569Z" fill="url(#paint1_linear_353_7574)"/>
<path d="M50.2046 26.5619C60.2505 27.2853 60.5806 27.1623 60.4639 28.2242C60.1998 30.6265 59.6543 32.983 59.3089 35.3715C59.2116 36.0442 59.2686 36.104 48.8064 34.9017C47.4687 34.7482 47.9725 34.8642 49.1386 27.4799C49.2693 26.6508 49.3784 26.5021 50.2046 26.5619ZM57.5528 34.7364C58.3346 34.9664 58.0893 34.7899 59.1595 28.9344C59.2818 28.2652 59.6842 28.5056 51.7397 27.867C51.2887 27.8308 50.7668 27.6446 50.4006 27.8065C49.9037 28.0268 50.1921 28.6703 50.09 29.1185C49.7731 30.514 49.5437 31.9288 49.288 33.3388C49.149 34.106 48.4937 33.7697 57.5528 34.737V34.7364Z" fill="url(#paint2_linear_353_7574)"/>
<path d="M57.0962 44.5438C57.0803 44.5424 47.1991 43.5549 47.0767 43.5493C46.0205 43.5 46.3339 43.3582 47.3096 37.846C47.5813 36.313 47.3714 35.5361 48.5722 35.771C49.7119 35.9941 56.4507 36.7467 58.1018 36.7724C59.4569 36.7939 58.9587 36.862 57.8704 43.7988C57.7815 44.3652 57.6147 44.6911 57.0962 44.5431V44.5438ZM56.2311 43.5035C56.7947 43.4319 56.5563 43.5785 57.4924 38.1442C57.5848 37.6098 58.0038 37.8676 49.0476 36.926C48.4583 36.8641 48.7043 36.9836 47.8648 41.2512C47.6237 42.4784 47.6035 42.5257 48.8377 42.6807C51.2533 42.9844 53.6772 43.2241 56.2304 43.5042L56.2311 43.5035Z" fill="url(#paint3_linear_353_7574)"/>
<path d="M47.4213 26.8564C47.0669 28.2372 46.2692 33.2345 46.1955 33.8585C46.0774 34.8641 46.0377 34.6084 38.6374 33.853C35.554 33.5382 35.1239 33.7195 35.3525 32.5514C36.7083 25.6292 35.5082 31.5104 36.791 25.6417C36.8667 25.2942 36.8042 25.3581 42.7973 25.8918C47.625 26.3213 47.5958 26.1782 47.4213 26.8571V26.8564ZM45.1184 33.1129C45.47 31.3394 45.8112 29.5652 46.1858 27.7966C46.2824 27.3415 46.2636 27.3866 43.921 27.1747C37.3907 26.5826 37.4769 26.4235 37.3789 27.0093C36.4595 32.5034 36.1663 32.5062 36.9765 32.5812C45.0996 33.3359 45.0287 33.5639 45.1177 33.1129H45.1184Z" fill="url(#paint4_linear_353_7574)"/>
<path d="M32.7292 33.2304C32.7132 33.2291 23.5172 32.2735 23.1941 32.2159C22.3949 32.0727 22.6312 32.1436 23.8668 26.0386C24.0148 25.3089 23.8598 24.2784 25.1051 24.3847C34.7181 25.204 34.9308 24.8204 34.6076 25.9914C32.8585 32.3187 33.8932 33.3576 32.7299 33.2304H32.7292ZM25.7389 25.598C24.7889 25.3006 25.0641 25.9073 24.226 30.0282C23.9891 31.1936 23.9661 31.2297 25.094 31.3576C27.3025 31.6071 29.5165 31.801 31.7278 32.0303C32.4895 32.1088 32.1851 32.0894 33.2928 26.7884C33.4519 26.0254 33.912 26.2971 25.7389 25.5987V25.598Z" fill="url(#paint5_linear_353_7574)"/>
<path d="M46.7765 44.6622C47.6111 44.8533 55.4409 45.8026 56.4972 45.8207C57.8523 45.8429 57.4284 45.9889 56.313 52.5608C56.2379 53.0021 56.0962 53.2419 55.5847 53.146C52.6723 52.5977 49.7077 52.4455 46.7779 52.0236C44.8682 51.7484 44.7918 51.9256 45.1357 50.0521C46.0795 44.9069 45.8369 44.5302 46.7765 44.6622ZM55.9871 46.7443C47.0051 45.8547 47.0774 45.6296 46.9836 46.2099C46.3602 50.0695 46.0114 50.3621 46.249 50.7373C46.4679 51.082 46.2747 50.827 54.3401 51.8666C55.3672 51.9993 55.0899 51.9215 55.9871 46.7443Z" fill="url(#paint6_linear_353_7574)"/>
<path d="M34.4937 42.2401C32.7807 42.0983 34.0344 41.4597 34.7668 35.2609C34.9121 34.0322 35.0545 34.3971 43.081 35.2678C47.0379 35.6973 45.7002 34.7508 44.541 42.6417C44.3701 43.8044 44.459 43.0656 34.4944 42.2394L34.4937 42.2401ZM42.9121 42.0837C43.5932 42.3082 43.3854 41.9517 44.2228 37.8405C44.523 36.3679 44.5334 36.4728 42.6564 36.2769C35.7953 35.5604 35.8732 35.3964 35.7738 36.0093C34.9496 41.1059 34.491 41.2269 35.4062 41.3172C37.9024 41.5639 40.3951 41.8245 42.9128 42.083L42.9121 42.0837Z" fill="url(#paint7_linear_353_7574)"/>
<path d="M32.9236 34.6968C31.5636 41.462 31.8402 42.389 30.458 41.9213C29.6908 41.6614 23.2015 40.938 21.8193 40.9158C21.3009 40.9074 21.0174 40.6051 21.1313 40.0165C22.3537 33.6878 22.1126 33.0241 23.3912 33.1729C33.3927 34.3334 33.0647 33.9963 32.9236 34.6975V34.6968ZM29.9118 40.7163C30.6936 40.9721 30.3996 40.904 31.5094 35.5447C31.6574 34.8317 31.7916 35.2173 23.9618 34.3C23.0146 34.1888 23.4774 34.6572 22.3954 39.3306C22.1869 40.2313 22.0834 39.9658 29.9118 40.7156V40.7163Z" fill="url(#paint8_linear_353_7574)"/>
<path d="M20.7099 33.4024C19.3499 40.1675 19.6265 41.0946 18.2442 40.6269C17.477 40.367 10.9878 39.6436 9.60557 39.6213C9.08715 39.613 8.80362 39.3107 8.91759 38.7221C10.14 32.3934 9.89883 31.7297 11.1775 31.8784C21.1789 33.039 20.8509 32.7019 20.7099 33.4031V33.4024ZM17.698 39.4219C18.4798 39.6776 18.1859 39.6095 19.2957 34.2502C19.443 33.5372 19.5778 33.9229 11.748 33.0056C10.8008 32.8944 11.2637 33.3628 10.1817 38.0362C9.97319 38.9368 9.86964 38.6714 17.698 39.4212V39.4219Z" fill="url(#paint9_linear_353_7574)"/>
<path d="M42.3005 51.4883C33.1934 50.3778 33.5395 50.3681 32.6966 50.4237C31.5583 50.4988 32.1538 50.0443 33.1935 43.9977C33.3929 42.8378 33.4367 43.2458 43.2116 44.3771C44.1414 44.4848 44.1497 44.4834 43.9802 45.3702C42.9002 51.0255 42.9934 51.7517 42.3005 51.4883ZM41.5159 50.3174C42.0531 50.4355 41.8481 50.0818 42.6786 46.0526C42.8558 45.1936 42.4791 45.3778 40.4888 45.1603C34.1073 44.4633 34.2011 44.284 34.0906 45.0039C33.4534 49.1381 33.0301 49.3236 33.7258 49.4035C36.2887 49.6982 38.8523 50.0026 41.5166 50.3174H41.5159Z" fill="url(#paint10_linear_353_7574)"/>
<path d="M20.4442 31.9114C11.8958 30.9642 12.3614 30.9628 11.5602 31.0122C10.31 31.0886 10.7596 30.6056 12.2412 24.0719C12.5032 22.9183 12.3607 23.4055 22.0008 24.099C22.8785 24.1623 22.6957 24.2109 21.7979 29.0177C21.3052 31.6571 21.3378 32.0886 20.4442 31.9114ZM19.5936 30.7981C20.3177 31.0428 20.1023 30.8412 21.2489 25.657C21.374 25.0921 21.3511 25.165 18.4157 24.9128C15.2127 24.6376 13.0459 24.2978 12.957 24.8322C12.0696 30.1407 11.8117 30.1074 12.3955 30.156C14.8194 30.3576 17.2405 30.5855 19.5943 30.7981H19.5936Z" fill="url(#paint11_linear_353_7574)"/>
<path d="M44.0983 60.3689C43.2129 60.2973 43.4471 60.2924 44.2762 54.9373C44.4311 53.9359 45.0191 53.4821 46.0392 53.5711C49.0045 53.8289 51.9593 54.1645 54.885 54.7295C56.2311 54.9894 55.8197 54.7483 54.7703 60.619C54.4583 62.3633 54.3561 61.2007 44.0983 60.3689ZM53.1407 60.5085C53.7856 60.8018 53.6737 60.3563 54.1998 57.0554C54.2748 56.5857 54.5611 56.0102 54.3853 55.676C54.1588 55.2458 53.4743 55.455 52.9962 55.3869C45.4388 54.3167 45.5132 54.2146 45.402 54.8838C44.6938 59.1618 44.1719 59.3112 45.1664 59.4418L53.1414 60.5078L53.1407 60.5085Z" fill="url(#paint12_linear_353_7574)"/>
<path d="M30.2739 42.9412C31.2468 43.0273 31.2572 43.0371 31.0584 43.9898C30.7124 45.6465 30.3851 47.306 30.0452 48.9641C29.7693 50.3102 30.0334 49.9891 21.2314 48.8863C19.0188 48.609 19.5462 49.0475 20.6248 42.5409C20.8103 41.4214 20.7394 42.0927 30.2732 42.9405L30.2739 42.9412ZM20.7519 47.6889C20.6456 48.0162 20.3009 47.7744 28.4907 48.7807C29.1342 48.8599 28.8812 48.7994 29.7707 44.3679C29.8847 43.8015 30.1328 44.1059 22.0591 43.1622C21.4684 43.0934 21.6651 43.0489 20.7512 47.6882L20.7519 47.6889Z" fill="url(#paint13_linear_353_7574)"/>
<path d="M16.543 49.8404C18.0371 49.9974 17.4471 49.8953 16.1407 56.5576C15.9968 57.2907 16.1059 56.9856 6.55549 55.7758C5.37898 55.6264 5.8696 55.2379 7.02527 48.9926C7.15314 48.3025 7.3227 48.8716 16.543 49.8404ZM14.8405 55.6083C15.6167 55.8772 15.2984 54.584 16.1268 51.2615C16.338 50.4151 16.4305 50.7438 8.47976 49.6812C7.81193 49.5916 8.076 49.5631 7.03152 54.2963C6.90366 54.8765 6.49712 54.6368 14.8411 55.6083H14.8405Z" fill="url(#paint14_linear_353_7574)"/>
<path d="M28.2016 57.9777C28.0779 58.7108 28.1683 58.428 18.4406 57.3112C17.9048 57.2494 17.7457 57.0687 17.9173 56.4863C19.2627 51.9408 18.4573 49.9999 19.9778 50.2702C32.2148 52.446 29.7513 48.7677 28.2009 57.9777H28.2016ZM28.1884 52.6614C28.3177 52.0047 28.4351 52.2813 20.4663 51.232C19.8784 51.1548 20.1703 51.1611 19.1314 55.6545C18.9771 56.3209 19.2481 56.1514 21.0327 56.3814C27.44 57.2077 27.3934 57.3453 27.4643 56.8943C27.686 55.4801 27.9118 54.0652 28.1884 52.6614Z" fill="url(#paint15_linear_353_7574)"/>
<path d="M32.5311 51.8179C41.6784 52.9527 38.3761 52.5663 41.6729 53.0007C42.9161 53.1647 42.4324 53.0896 41.1294 59.3787C40.9508 60.2397 41.0558 59.9889 33.6603 59.1313C31.2579 58.8527 30.6283 58.975 30.7548 58.0264C31.6158 51.5691 31.6958 51.7873 32.5311 51.8179ZM33.0884 52.8498C32.5867 52.7018 32.6589 52.936 32.0453 55.9652C31.932 56.5239 31.5658 57.2599 31.791 57.6018C32.0585 58.0083 32.8723 57.8582 33.4546 57.9208C33.4692 57.9221 35.7653 58.2481 39.7799 58.7401C40.6604 58.8478 40.4276 58.9812 40.9425 55.615C41.0259 55.0715 41.3282 54.3989 41.1148 54.0173C40.8522 53.5469 40.0718 53.7901 39.5214 53.6865C39.0168 53.592 39.4943 53.6594 33.0884 52.8505V52.8498Z" fill="url(#paint16_linear_353_7574)"/>
<path fill-rule="evenodd" clip-rule="evenodd" d="M73.6425 13.1444C78.3076 16.4508 82.1498 48.7831 82.334 54.8068L82.3347 54.8075L82.3416 54.8061C82.4222 57.4454 82.2812 61.2106 80.0602 62.6414C78.9837 63.335 77.7426 63.7943 76.3979 63.6817C76.2617 63.6706 76.1158 63.679 75.9691 63.6873C75.6356 63.7068 75.3006 63.7262 75.0775 63.508C74.7509 63.1883 75.2853 62.0445 75.58 61.4121C75.6543 61.253 75.7134 61.1265 75.7398 61.0535C76.8357 58.0382 77.0122 55.7922 76.7454 52.7192C76.4785 49.6463 75.4521 38.7817 74.0136 31.8428C70.3326 14.0895 69.8934 13.8643 67.8482 12.8157C67.4319 12.6016 66.9482 12.3535 66.3576 11.9164C65.2339 11.0846 67.1102 10.906 68.425 11.202C70.4827 11.6648 68.7627 3.68914 61.6647 4.36113C60.9364 4.43063 61.1046 4.62799 61.5334 5.13459C62.1414 5.85245 63.2755 7.19158 63.1275 9.66345C63.1247 9.70514 63.1261 9.75031 63.1275 9.79618C63.1338 10.0123 63.14 10.2479 62.771 10.1819C62.0789 10.0568 62.0754 9.87888 62.0657 9.40146C62.0525 8.79617 62.0302 7.7093 60.5827 5.63841C59.4013 3.94834 55.8036 7.31945 57.3123 11.2222L57.3721 11.3785C57.6952 12.2222 58.0052 13.0311 58.9892 13.2277C61.6313 13.7552 61.4618 16.9046 59.3179 17.5342C57.6021 18.0381 55.7077 15.5648 57.174 14.0526C57.4353 13.783 57.2491 13.4932 56.9419 13.0144C56.6994 12.6378 56.3825 12.1437 56.1483 11.4501C56.1379 11.4195 56.1303 11.3931 56.1171 11.3702C56.01 11.1833 55.5611 11.1923 50.8015 10.7635C50.7707 10.76 50.74 10.7547 50.7098 10.7475C50.584 10.7211 50.4485 10.6933 50.3992 10.8942C50.3707 11.0109 50.4437 11.12 50.5514 11.1701C50.6626 11.2222 50.739 11.3688 50.8321 11.5474C51.0239 11.9164 51.2866 12.4209 52.0719 12.5036C54.8697 12.7962 54.1122 17.5815 51.0705 16.5467C49.5618 16.0339 49.06 14.3869 50.0545 13.1242C50.2519 12.8733 50.0816 12.6565 49.8801 12.4015C49.7293 12.2097 49.5611 11.9963 49.5187 11.7302C49.3596 10.7183 48.7619 10.4994 47.8335 10.464C46.4164 10.4087 45.0018 10.3028 43.5923 10.1464C41.9725 9.97616 41.6702 9.94489 42.067 10.6551L42.1858 10.8705C42.5916 11.6113 42.9342 12.2361 43.8432 12.4063C46.9398 12.9866 45.5875 17.8483 42.395 16.332C41.7244 16.013 41.2059 14.9658 41.329 14.1478C41.4116 13.6002 41.5805 13.366 41.7035 13.1951C41.896 12.9282 41.9759 12.8177 41.4339 11.9122C41.2198 11.555 41.0878 11.1909 40.9725 10.8719C40.7807 10.341 40.6347 9.93795 40.2324 9.90945C38.9852 9.81957 37.7387 9.72066 36.4929 9.61272C33.4269 9.35212 33.2831 9.33961 33.7445 10.1124L33.7528 10.1263C34.1371 10.7698 34.4728 11.3313 35.4068 11.4598C36.1608 11.5634 36.7688 12.2715 37.0475 13.0575C37.6604 14.7858 35.3609 16.0783 34.2198 15.6148C31.9974 14.7114 32.602 12.6225 33.1552 12.3473C33.6402 12.1054 33.5298 11.692 33.2441 11.4418C32.7049 10.9699 32.4943 10.3528 32.322 9.71626C32.2261 9.36324 32.2142 9.36324 30.7542 9.33127C30.003 9.31459 28.8675 9.28958 27.1392 9.20341C26.0891 9.15129 27.2928 10.53 28.069 10.6218C31.2003 10.9929 30.3067 16.0102 26.8994 14.6364C26.0259 14.284 25.3789 13.1277 25.8014 12.1923C26.2205 11.2646 26.1635 10.5891 25.6416 9.74128C25.3845 9.32293 25.2462 9.17213 24.7722 9.18673C22.677 9.25066 21.2983 9.25969 20.3921 9.26595C18.684 9.27707 18.6569 9.27707 18.6812 9.6148C18.7097 10.0144 19.0363 10.4265 19.6381 10.5043C22.848 10.9178 22.135 14.7934 19.6047 14.7385C17.5672 14.694 16.8994 12.3431 18.0328 11.1172C18.3692 10.7538 17.586 9.69611 16.6075 9.94906C14.4609 10.5043 12.7784 11.5988 11.7506 13.6781C11.0515 15.0929 10.4511 15.7552 10.5978 16.1068C10.8174 16.635 12.7173 16.4633 18.4866 17.0867C23.807 17.6621 52.8141 19.9873 62.3756 20.7545C64.2512 20.9046 65.3784 20.995 65.4326 21.0005C65.7634 21.0339 65.8336 20.9088 65.8482 20.6128C65.9343 18.8817 65.9496 17.1458 65.3096 15.5106C64.2443 12.7879 62.1831 12.4279 60.6925 12.168C59.6348 11.9824 58.8648 11.8483 58.9426 10.9553C58.9753 10.5801 59.354 10.6329 59.6188 10.6704L59.7001 10.6808L60.1727 10.7364C61.0142 10.8337 61.8607 10.931 62.6689 11.1562C65.0115 11.8087 67.106 14.1179 67.3131 16.7733C67.8524 23.6934 62.8065 57.4663 62.655 58.1557C61.6411 62.7797 58.9753 66.8604 54.2018 66.7005C53.9491 66.6939 53.6964 66.6889 53.4437 66.6852C49.8724 66.6241 35.7883 66.3815 24.4686 64.3211C22.6993 63.9993 21.2003 63.8388 19.5756 63.6658C16.4595 63.3329 12.8834 62.9507 6.06195 61.2835C2.35311 60.3774 -0.0972157 57.319 0.634546 52.1091C0.909298 50.1862 1.22115 48.2687 1.56992 46.3578C1.97229 46.4523 2.44831 46.542 3.0112 46.6309C1.92503 52.164 1.62412 55.3238 3.00217 57.3308C5.41775 60.8478 12.9911 60.8235 30.5395 63.8221C37.9551 65.089 53.2797 65.5122 56.2623 64.9729C61.4576 64.0341 62.5841 52.3349 63.8502 39.1889C64.3631 33.8637 64.8989 28.3015 65.737 23.1208C65.7662 22.9401 65.7919 22.8053 65.7474 22.7017C65.5605 22.2639 64.1331 22.3556 56.5076 21.7295L56.4319 21.7226C54.566 21.5481 18.6867 18.1951 11.2482 17.8226L11.2496 17.8233C9.69296 17.7455 9.66377 17.8608 8.80553 21.2931C8.04942 24.3597 7.2017 27.403 6.26348 30.4189C5.92162 32.2908 5.56418 34.1597 5.1912 36.0256C4.69224 35.972 4.19373 35.9143 3.69571 35.8526C4.92226 30.3182 6.2739 24.9338 7.42679 21.0464L7.59983 20.4613C8.69365 16.7455 10.1356 11.8511 13.4185 9.55991C14.4032 8.87193 15.2322 8.71209 15.8181 8.59812C16.488 8.46817 16.8396 8.40007 16.7402 7.67734C16.2538 4.12277 18.7173 -0.034995 24.4046 0.511915C25.6381 0.630053 26.4053 0.996977 26.9418 1.2541C27.3824 1.46466 27.6673 1.60087 27.9279 1.46467C31.1336 -0.210116 33.6729 0.764871 35.1545 1.33402C35.7223 1.55223 36.135 1.71067 36.3699 1.63701C39.4589 0.668969 41.4485 1.78086 42.7007 2.48135C43.2991 2.81561 43.7292 3.05606 44.0301 2.93027C46.4541 1.91776 48.8335 2.10747 51.1615 3.26106C51.4054 3.38198 51.8147 3.23326 52.3888 3.02479C53.7828 2.51818 56.1525 1.65647 59.5111 3.44521C59.796 3.5974 60.1775 3.50359 60.6918 3.37711C61.4639 3.1874 62.5334 2.92402 64.0212 3.30762C69.0191 4.59602 70.5626 8.23884 70.1957 11.1228C70.1282 11.651 70.5271 11.7781 71.2241 11.9998C71.8378 12.1944 72.6821 12.464 73.6425 13.1444ZM20.2941 7.97129C20.6645 7.97199 21.0342 7.97338 21.4039 7.95531C24.1433 7.82049 24.839 7.93794 24.955 7.73085C25.1294 7.42091 24.0127 6.38686 26.479 2.70651C27.0426 1.86564 23.2149 0.716225 20.8737 2.06856C20.7027 2.16724 20.5262 2.25967 20.3497 2.35279C19.8028 2.6391 19.2545 2.9268 18.8681 3.40352C17.8542 4.65439 17.5047 6.10263 17.8493 7.70236C17.9098 7.9845 17.9988 8.12765 18.3191 8.07484C18.9744 7.96643 19.6339 7.96851 20.2941 7.9706V7.97129ZM29.6291 8.10055C32.0676 8.22911 32.0676 8.22911 32.0558 7.73432L32.0565 7.73502C32.0044 5.52514 33.0065 3.8309 34.7855 2.38128C34.6917 2.35974 34.5492 2.2965 34.3623 2.2131C33.4422 1.80449 31.454 0.921925 28.9905 2.23187C28.6076 2.43548 28.7201 2.53485 29.0349 2.81213C29.5409 3.25758 30.5687 4.16238 30.8855 6.70027C30.8897 6.73501 30.8974 6.77323 30.905 6.81354C30.9467 7.02619 30.9974 7.28749 30.6395 7.30069C30.3289 7.31181 29.9794 7.21313 29.9481 6.8191C29.8598 5.71694 29.242 4.89693 28.6256 4.0776C28.4763 3.88184 28.3303 3.68352 28.1878 3.48274C27.9821 3.19018 27.7764 2.9539 27.3484 3.3507C26.1149 4.49456 25.7771 6.15822 26.0454 7.64815C26.0975 7.93794 26.2712 7.94419 26.4686 7.95114L26.5123 7.95253C27.8459 8.00743 28.8591 8.06024 29.6291 8.10055ZM36.2073 8.39381C37.1906 8.42786 38.445 8.47095 40.0364 8.55782C40.4804 8.58214 40.5555 8.18742 40.6771 7.54878C40.8369 6.70791 41.0774 5.44383 42.347 4.15682C42.6806 3.81909 42.6403 3.62381 42.2539 3.39518C40.7007 2.47718 39.0454 2.27843 37.249 2.61477C37.3032 2.78156 37.4881 3.03868 37.7257 3.36738C38.3373 4.2145 39.2963 5.54321 39.2734 7.07901C39.2727 7.12209 39.2775 7.16935 39.2817 7.2166C39.3005 7.40701 39.3199 7.60576 39.0002 7.6009C38.949 7.60061 38.8978 7.602 38.8467 7.60507C38.5805 7.61618 38.2872 7.62939 38.233 7.27359C38.0308 5.94279 37.486 4.84203 36.5735 3.80936C35.9029 3.0498 35.8154 3.11095 35.29 3.47579C35.2233 3.52235 35.1503 3.57308 35.0676 3.62798C33.8188 4.45842 33.338 5.75725 32.971 7.11931C32.6611 8.2715 32.9398 8.28123 36.2073 8.39381ZM41.5819 8.47234C41.7417 8.79201 42.7508 8.68777 48.4304 9.10959L48.4297 9.11028C48.8655 9.14295 48.8891 8.8059 48.9301 8.20687C48.9864 7.39033 49.0767 6.08595 50.2949 4.56544C50.4666 4.35071 50.509 4.23327 50.2289 4.08108C48.411 3.09567 46.5868 2.92541 44.6639 3.98031C45.6709 5.05259 46.0871 6.27567 46.2588 7.60159C46.263 7.63286 46.2699 7.669 46.2782 7.70653C46.3185 7.90389 46.37 8.15684 46.0447 8.15059L45.9912 8.14989C45.7042 8.14572 45.3512 8.14016 45.3046 7.67178C45.2206 6.81493 44.7577 6.14293 44.2956 5.47024C44.1552 5.26593 44.0149 5.06162 43.8849 4.85245C43.7327 4.60714 43.5659 4.56405 43.306 4.7635C42.1733 5.63216 41.634 6.78644 41.559 8.19159C41.5527 8.31251 41.5472 8.40285 41.5819 8.47234ZM53.0893 9.6843C53.8509 9.83301 54.6125 9.98103 55.3853 10.0582L55.3846 10.0589C55.8752 10.1075 55.8905 9.80452 55.9204 9.22495C55.9718 8.22355 56.0663 6.39658 58.7397 4.14292C58.2832 4.1464 57.926 3.96919 57.5806 3.79685C57.3033 3.65926 57.033 3.52444 56.7237 3.49039C55.4882 3.35349 54.2838 3.31387 53.133 3.97614C52.6737 4.24021 52.6806 4.33542 53.0024 4.70304C54.4694 6.37921 55.9489 9.94351 53.9538 8.87748C53.803 8.79687 53.7717 8.63217 53.7209 8.36393C53.6174 7.81702 53.4325 6.84134 51.9836 5.27636C51.959 5.24919 51.9352 5.22138 51.912 5.19296C51.7571 5.0102 51.5861 4.80797 51.2942 5.10124C49.5799 6.82258 49.4033 9.2312 50.1865 9.26664C51.1692 9.31112 52.1289 9.49806 53.0893 9.6843Z" fill="url(#paint17_linear_353_7574)"/>
<defs>
<linearGradient id="paint0_linear_353_7574" x1="69.0898" y1="20.4654" x2="74.8732" y2="20.6126" gradientUnits="userSpaceOnUse">
<stop stop-color="#086158"/>
<stop offset="1" stop-color="#2DAB35"/>
</linearGradient>
<linearGradient id="paint1_linear_353_7574" x1="63.406" y1="29.8738" x2="71.451" y2="30.2412" gradientUnits="userSpaceOnUse">
<stop stop-color="#086158"/>
<stop offset="1" stop-color="#2DAB35"/>
</linearGradient>
<linearGradient id="paint2_linear_353_7574" x1="48.3042" y1="26.9479" x2="61.5494" y2="31.0394" gradientUnits="userSpaceOnUse">
<stop stop-color="#086158"/>
<stop offset="1" stop-color="#2DAB35"/>
</linearGradient>
<linearGradient id="paint3_linear_353_7574" x1="46.7146" y1="36.1082" x2="59.8697" y2="40.3898" gradientUnits="userSpaceOnUse">
<stop stop-color="#086158"/>
<stop offset="1" stop-color="#2DAB35"/>
</linearGradient>
<linearGradient id="paint4_linear_353_7574" x1="35.5898" y1="25.8148" x2="48.5241" y2="29.8028" gradientUnits="userSpaceOnUse">
<stop stop-color="#086158"/>
<stop offset="1" stop-color="#2DAB35"/>
</linearGradient>
<linearGradient id="paint5_linear_353_7574" x1="23.0134" y1="24.7562" x2="35.701" y2="28.6988" gradientUnits="userSpaceOnUse">
<stop stop-color="#086158"/>
<stop offset="1" stop-color="#2DAB35"/>
</linearGradient>
<linearGradient id="paint6_linear_353_7574" x1="45.2704" y1="45.0067" x2="58.2153" y2="49.3324" gradientUnits="userSpaceOnUse">
<stop stop-color="#086158"/>
<stop offset="1" stop-color="#2DAB35"/>
</linearGradient>
<linearGradient id="paint7_linear_353_7574" x1="33.9213" y1="34.8463" x2="46.7049" y2="38.906" gradientUnits="userSpaceOnUse">
<stop stop-color="#086158"/>
<stop offset="1" stop-color="#2DAB35"/>
</linearGradient>
<linearGradient id="paint8_linear_353_7574" x1="21.388" y1="33.5345" x2="33.9898" y2="37.4156" gradientUnits="userSpaceOnUse">
<stop stop-color="#086158"/>
<stop offset="1" stop-color="#2DAB35"/>
</linearGradient>
<linearGradient id="paint9_linear_353_7574" x1="9.17422" y1="32.2401" x2="21.7761" y2="36.1212" gradientUnits="userSpaceOnUse">
<stop stop-color="#086158"/>
<stop offset="1" stop-color="#2DAB35"/>
</linearGradient>
<linearGradient id="paint10_linear_353_7574" x1="32.3639" y1="43.6554" x2="44.8985" y2="47.8593" gradientUnits="userSpaceOnUse">
<stop stop-color="#086158"/>
<stop offset="1" stop-color="#2DAB35"/>
</linearGradient>
<linearGradient id="paint11_linear_353_7574" x1="11.112" y1="23.7463" x2="23.5332" y2="27.6669" gradientUnits="userSpaceOnUse">
<stop stop-color="#086158"/>
<stop offset="1" stop-color="#2DAB35"/>
</linearGradient>
<linearGradient id="paint12_linear_353_7574" x1="43.8249" y1="53.9009" x2="56.4495" y2="58.3546" gradientUnits="userSpaceOnUse">
<stop stop-color="#086158"/>
<stop offset="1" stop-color="#2DAB35"/>
</linearGradient>
<linearGradient id="paint13_linear_353_7574" x1="19.9661" y1="42.2896" x2="31.9654" y2="46.3022" gradientUnits="userSpaceOnUse">
<stop stop-color="#086158"/>
<stop offset="1" stop-color="#2DAB35"/>
</linearGradient>
<linearGradient id="paint14_linear_353_7574" x1="6.15394" y1="49.0417" x2="18.3253" y2="52.9578" gradientUnits="userSpaceOnUse">
<stop stop-color="#086158"/>
<stop offset="1" stop-color="#2DAB35"/>
</linearGradient>
<linearGradient id="paint15_linear_353_7574" x1="18.1281" y1="50.5936" x2="30.3583" y2="54.6281" gradientUnits="userSpaceOnUse">
<stop stop-color="#086158"/>
<stop offset="1" stop-color="#2DAB35"/>
</linearGradient>
<linearGradient id="paint16_linear_353_7574" x1="31.0163" y1="52.1566" x2="43.2349" y2="56.2042" gradientUnits="userSpaceOnUse">
<stop stop-color="#086158"/>
<stop offset="1" stop-color="#2DAB35"/>
</linearGradient>
<linearGradient id="paint17_linear_353_7574" x1="2.44925" y1="3.29692" x2="90.5457" y2="28.3686" gradientUnits="userSpaceOnUse">
<stop stop-color="#086158"/>
<stop offset="1" stop-color="#2DAB35"/>
</linearGradient>
</defs>
</svg>
