<svg width="66" height="70" viewBox="0 0 66 70" fill="none" xmlns="http://www.w3.org/2000/svg">
<path d="M52.8 2.48121C51.2556 2.42001 49.92 3.92121 50.1432 5.38641C50.2486 5.89706 50.5099 6.36242 50.891 6.71833C51.272 7.07425 51.7541 7.30319 52.2708 7.37361C53.7108 7.56081 55.2804 6.35841 55.2264 4.85361C55.1814 4.23008 54.9098 3.64456 54.4628 3.20752C54.0158 2.77047 53.4243 2.51212 52.8 2.48121ZM53.7648 6.30081L52.6848 5.58081L51.2772 6.45921L51.756 5.13081L50.9712 4.62321L52.0224 4.45041L52.6848 3.38841L53.0844 4.22721L54.3084 4.17321L53.4048 5.04801L53.7648 6.30081ZM37.7268 21.6332C37.968 21.572 38.2632 21.356 38.2308 21.0824C38.1984 20.8088 37.9032 20.6684 37.6656 20.6576C37.284 20.6576 36.9024 21.0176 36.9672 21.302C37.032 21.5864 37.4136 21.7088 37.7268 21.6332ZM27.114 61.1C27.4684 60.8049 27.7841 60.4662 28.0536 60.092C28.518 59.4404 29.1984 58.4936 28.9428 57.464C28.7808 56.8016 28.1832 55.9376 27.3264 55.9088C26.4696 55.88 25.7784 56.7872 25.5732 57.4496C25.2888 58.3532 25.7136 59.174 25.998 59.7176C26.2737 60.2485 26.6532 60.7186 27.114 61.1ZM26.52 57.788C26.52 57.6456 26.5622 57.5064 26.6413 57.388C26.7204 57.2696 26.8329 57.1773 26.9644 57.1228C27.096 57.0683 27.2408 57.0541 27.3804 57.0818C27.5201 57.1096 27.6484 57.1782 27.7491 57.2789C27.8498 57.3796 27.9183 57.5079 27.9461 57.6475C27.9739 57.7872 27.9596 57.932 27.9052 58.0635C27.8507 58.1951 27.7584 58.3075 27.64 58.3867C27.5216 58.4658 27.3824 58.508 27.24 58.508C27.049 58.508 26.8659 58.4321 26.7308 58.2971C26.5958 58.1621 26.52 57.979 26.52 57.788ZM51.8784 60.9992C51.9216 59.6276 51.1584 58.7024 50.6112 58.7024C50.064 58.7024 49.3008 59.6276 49.3404 60.9992H51.8784ZM52.2096 60.3368L53.0844 60.3548C53.1599 60.0384 53.1163 59.7052 52.962 59.4188C52.6596 58.8896 52.1736 58.6484 51.846 59.156C52.0823 59.5045 52.2089 59.9157 52.2096 60.3368ZM48.12 60.3548L48.9948 60.3368C48.9959 59.9163 49.1211 59.5056 49.3548 59.156C49.0236 58.6484 48.5376 58.8932 48.2388 59.4188C48.0853 59.7055 48.043 60.0388 48.12 60.3548ZM50.6112 58.4216C50.78 58.4368 50.9494 58.4 51.0968 58.3162C51.2441 58.2324 51.3623 58.1056 51.4356 57.9527C51.5088 57.7999 51.5336 57.6283 51.5066 57.4609C51.4796 57.2936 51.4021 57.1385 51.2845 57.0164C51.1669 56.8943 51.0149 56.8111 50.8486 56.7779C50.6824 56.7446 50.51 56.763 50.3545 56.8305C50.199 56.898 50.0679 57.0114 49.9786 57.1555C49.8894 57.2996 49.8463 57.4675 49.8552 57.6368C49.861 57.8382 49.9417 58.0302 50.0815 58.1753C50.2213 58.3204 50.4101 58.4083 50.6112 58.4216ZM48.732 58.652C48.8803 58.6384 49.0179 58.5693 49.1174 58.4584C49.2169 58.3476 49.2708 58.2033 49.2684 58.0544C49.2579 57.9495 49.2172 57.8499 49.1511 57.7678C49.0851 57.6857 48.9966 57.6245 48.8964 57.5917C48.7962 57.559 48.6886 57.5561 48.5868 57.5833C48.485 57.6106 48.3933 57.6669 48.3229 57.7453C48.2525 57.8237 48.2064 57.921 48.1903 58.0251C48.1741 58.1293 48.1886 58.2359 48.2319 58.332C48.2753 58.428 48.3456 58.5094 48.4344 58.5663C48.5232 58.6231 48.6266 58.6529 48.732 58.652ZM52.4904 58.652C52.6387 58.6384 52.7763 58.5693 52.8758 58.4584C52.9753 58.3476 53.0292 58.2033 53.0268 58.0544C53.0163 57.9495 52.9755 57.8499 52.9095 57.7678C52.8435 57.6857 52.755 57.6245 52.6548 57.5917C52.5546 57.559 52.447 57.5561 52.3452 57.5833C52.2434 57.6106 52.1517 57.6669 52.0813 57.7453C52.0109 57.8237 51.9648 57.921 51.9487 58.0251C51.9325 58.1293 51.947 58.2359 51.9903 58.332C52.0337 58.428 52.104 58.5094 52.1928 58.5663C52.2816 58.6231 52.385 58.6529 52.4904 58.652ZM28.8276 22.67C28.5744 22.6895 28.3218 22.6263 28.1076 22.49C28.2031 22.1739 28.361 21.8801 28.572 21.626C28.5877 21.6028 28.5947 21.5747 28.5917 21.5468C28.5888 21.5189 28.576 21.493 28.5558 21.4736C28.5355 21.4542 28.509 21.4425 28.481 21.4408C28.453 21.4391 28.4253 21.4473 28.4028 21.464C28.2768 21.5936 27.7296 22.3856 27.834 22.6412C27.9384 22.8968 28.788 23.0372 28.9788 22.8536C29.0031 22.8336 29.0185 22.8047 29.0215 22.7733C29.0246 22.7419 29.015 22.7106 28.995 22.6862C28.9749 22.6619 28.946 22.6465 28.9146 22.6434C28.8832 22.6404 28.8519 22.65 28.8276 22.67ZM30.9444 24.4916C31.7337 24.4659 32.4927 24.1812 33.1044 23.6816C33.0746 23.9285 32.9932 24.1664 32.8654 24.3798C32.7377 24.5932 32.5664 24.7772 32.3628 24.92C32.3389 24.9343 32.3217 24.9575 32.3149 24.9846C32.3082 25.0116 32.3124 25.0401 32.3268 25.064C32.3411 25.0879 32.3643 25.1051 32.3913 25.1118C32.4183 25.1186 32.4469 25.1143 32.4708 25.1C32.7879 24.9251 33.0476 24.662 33.2182 24.3425C33.3888 24.023 33.463 23.6609 33.432 23.3C33.4302 23.2687 33.4193 23.2386 33.4008 23.2133C33.3822 23.188 33.3567 23.1687 33.3273 23.1576C33.298 23.1466 33.266 23.1443 33.2354 23.151C33.2048 23.1578 33.1768 23.1733 33.1548 23.1956C32.5769 23.8169 31.7837 24.1942 30.9372 24.2504C30.9015 24.2523 30.868 24.268 30.8438 24.2942C30.8196 24.3205 30.8066 24.3551 30.8076 24.3908C30.8162 24.4203 30.8343 24.4461 30.859 24.4643C30.8837 24.4825 30.9137 24.4921 30.9444 24.4916ZM31.1136 16.514C31.0735 16.514 31.035 16.5299 31.0066 16.5583C30.9783 16.5867 30.9624 16.6251 30.9624 16.6652C30.9624 16.7053 30.9783 16.7438 31.0066 16.7721C31.035 16.8005 31.0735 16.8164 31.1136 16.8164C31.4042 16.8306 31.688 16.9098 31.9441 17.0481C32.2001 17.1864 32.4219 17.3803 32.5932 17.6156C32.6109 17.6367 32.6356 17.6508 32.6628 17.6552C32.69 17.6597 32.7179 17.6542 32.7415 17.6399C32.765 17.6255 32.7826 17.6031 32.7911 17.5769C32.7995 17.5506 32.7983 17.5222 32.7876 17.4968C32.6191 17.2007 32.3758 16.954 32.082 16.7815C31.7882 16.609 31.4542 16.5168 31.1136 16.514ZM26.8116 16.7588C26.5721 16.9612 26.2642 17.0642 25.9512 17.0468C25.9189 17.0452 25.8872 17.0558 25.8622 17.0764C25.8373 17.097 25.821 17.1262 25.8165 17.1582C25.812 17.1902 25.8196 17.2227 25.8379 17.2494C25.8561 17.2761 25.8837 17.295 25.9152 17.3024C26.1089 17.343 26.3093 17.3385 26.501 17.2892C26.6926 17.2399 26.8703 17.1471 27.0204 17.018C27.1644 16.8812 26.9736 16.64 26.8116 16.7588ZM26.4804 20.4416C26.4804 20.2796 26.394 19.6172 26.3976 19.4624C26.3976 19.429 26.3843 19.3969 26.3607 19.3733C26.337 19.3497 26.305 19.3364 26.2716 19.3364C26.2387 19.3354 26.2068 19.3473 26.1826 19.3695C26.1584 19.3917 26.1438 19.4224 26.142 19.4552C26.1224 19.7969 26.1224 20.1395 26.142 20.4812C26.1472 20.5261 26.1701 20.567 26.2055 20.5951C26.2231 20.6089 26.2432 20.6192 26.2647 20.6253C26.2862 20.6314 26.3087 20.6332 26.331 20.6306C26.3532 20.628 26.3747 20.6211 26.3942 20.6102C26.4137 20.5992 26.4309 20.5846 26.4448 20.5671C26.4587 20.5495 26.469 20.5294 26.4751 20.5079C26.4812 20.4863 26.483 20.4638 26.4804 20.4416ZM31.56 20.3552C31.56 20.2364 31.488 19.7612 31.4916 19.6352C31.4916 19.6018 31.4783 19.5697 31.4547 19.5461C31.431 19.5225 31.399 19.5092 31.3656 19.5092C31.3321 19.5092 31.3001 19.5225 31.2765 19.5461C31.2528 19.5697 31.2396 19.6018 31.2396 19.6352C31.2396 19.7648 31.2036 20.2652 31.218 20.3948C31.2186 20.4188 31.2243 20.4423 31.2345 20.464C31.2448 20.4856 31.2595 20.5049 31.2776 20.5206C31.2957 20.5363 31.3169 20.548 31.3398 20.5551C31.3627 20.5622 31.3868 20.5644 31.4106 20.5616C31.4344 20.5589 31.4573 20.5512 31.478 20.5391C31.4987 20.527 31.5166 20.5107 31.5307 20.4913C31.5447 20.4719 31.5546 20.4498 31.5596 20.4263C31.5647 20.4029 31.5648 20.3787 31.56 20.3552Z" fill="url(#paint0_linear_353_7548)"/>
<path d="M14.748 36.08C14.7441 36.0917 14.7441 36.1043 14.748 36.116C16.3214 39.6607 18.8856 42.6752 22.1319 44.7969C25.3783 46.9185 29.1686 48.057 33.0468 48.0752C44.2932 48.0752 53.5092 38.6108 53.0376 27.026C52.8679 22.8696 51.3645 18.8783 48.75 15.6428C46.7136 13.1399 44.1044 11.1642 41.1432 9.88279C41.1812 9.75298 41.2101 9.62065 41.2296 9.48679C41.4312 8.17279 40.8696 7.29439 39.8724 6.40519C39.3712 5.97331 38.8447 5.57179 38.2956 5.20279C37.7505 4.79438 37.1206 4.51386 36.4524 4.38199C36.0967 4.31023 35.7291 4.32336 35.3794 4.42032C35.0298 4.51727 34.7079 4.69531 34.44 4.93999C34.3392 5.04439 34.2528 5.20999 34.1448 5.27479C33.9874 5.32245 33.8211 5.33354 33.6588 5.30719C32.5576 5.30703 31.468 5.53209 30.457 5.96856C29.4461 6.40502 28.535 7.04365 27.78 7.84519C27.3276 7.92128 26.9006 8.10621 26.5356 8.38403C26.1706 8.66185 25.8786 9.02424 25.6848 9.43999C14.9208 13.9076 10.3416 25.64 14.748 36.08ZM26.9052 39.0968C26.4855 37.713 26.3029 36.2682 26.3652 34.8236C26.4192 33.6212 26.5056 31.6124 27.8052 30.77C28.2105 30.4887 28.6526 30.2645 29.1192 30.104C28.7052 32.3972 29.508 34.7048 30.48 36.8C29.8644 37.0196 27.4704 38.7404 26.9052 39.104V39.0968ZM29.7852 30.0968C29.7528 29.7368 29.5872 28.6568 29.562 28.4876C29.557 28.4126 29.5329 28.3401 29.492 28.277C29.451 28.214 29.3945 28.1626 29.328 28.1276C29.2092 28.0664 28.68 27.8864 28.5396 27.8144C26.88 27.0008 25.6416 25.064 25.8 22.238C26.2379 22.3017 26.6839 22.2809 27.114 22.1768C27.6792 22.0076 28.032 21.4748 28.158 20.5964C28.2394 20.5219 28.3358 20.4657 28.4408 20.4316C28.5457 20.3974 28.6567 20.3861 28.7664 20.3984C28.99 20.4175 29.2064 20.4864 29.4 20.6C29.441 20.8858 29.5483 21.158 29.7133 21.395C29.8783 21.6319 30.0965 21.8269 30.3504 21.9644C30.9204 22.2398 31.5744 22.2857 32.1774 22.0928C32.7803 21.8999 33.2861 21.4827 33.5904 20.9276C33.7443 20.6201 33.8407 20.287 33.8748 19.9448C34.4875 19.9818 35.1023 19.9296 35.7 19.79C35.7 19.9736 35.7 20.3048 35.8188 20.3696C36.2148 20.5676 36.8988 18.9764 37.86 18.9764C38.1612 18.9956 38.4452 19.1235 38.6592 19.3364C38.825 19.459 38.96 19.6184 39.0537 19.802C39.1474 19.9857 39.1972 20.1886 39.1992 20.3948C39.1766 20.5763 39.1182 20.7516 39.0273 20.9104C38.9365 21.0693 38.815 21.2085 38.67 21.32C38.24 21.7245 37.6761 21.9565 37.086 21.9716C37.0736 21.973 37.0618 21.9774 37.0516 21.9845C37.0414 21.9915 37.0331 22.001 37.0274 22.012C37.0217 22.0231 37.0188 22.0353 37.019 22.0477C37.0192 22.0601 37.0224 22.0723 37.0284 22.0832C37.6175 23.06 38.0317 24.1321 38.2524 25.2512C38.058 27.3716 37.9752 28.2752 37.9356 28.7144C37.6044 32.6744 36.24 35.9648 34.044 39.2804C33.5519 39.9763 33.1389 40.7249 32.8128 41.5124C31.5996 37.7 28.5972 34.1288 29.3568 30.0788C29.4198 30.0531 29.4848 30.0327 29.5512 30.0176C29.5512 30.0728 29.562 30.1196 29.5836 30.158C29.5862 30.1712 29.5914 30.1838 29.5988 30.1951C29.6063 30.2063 29.6159 30.2159 29.6271 30.2235C29.6383 30.231 29.6509 30.2362 29.6641 30.2389C29.6773 30.2416 29.6909 30.2416 29.7042 30.239C29.7174 30.2364 29.73 30.2312 29.7412 30.2237C29.7525 30.2163 29.7621 30.2067 29.7696 30.1955C29.7772 30.1843 29.7824 30.1717 29.7851 30.1585C29.7877 30.1452 29.7878 30.1316 29.7852 30.1184V30.0968ZM32.19 15.0416C32.0017 14.8889 31.7903 14.7673 31.5636 14.6816C33.0036 14.5484 34.116 14.138 35.0988 12.9824C35.2068 13.04 35.8188 13.3424 35.9124 13.4036C36.9564 15.0272 36.384 15.6896 36.0024 17.6876C35.8872 18.2888 35.772 18.9152 35.7072 19.466C35.1107 19.6174 34.4974 19.6924 33.882 19.6892C33.9108 19.4048 33.9252 19.0988 33.9648 18.8036C34.0388 18.7738 34.1008 18.7203 34.1411 18.6514C34.1813 18.5825 34.1976 18.5023 34.1873 18.4232C34.177 18.344 34.1407 18.2706 34.0842 18.2143C34.0276 18.1581 33.9539 18.1222 33.8748 18.1124L29.5548 18.008C29.4894 18.012 29.4264 18.0337 29.3725 18.0708C29.3186 18.1079 29.2759 18.159 29.2488 18.2187C29.2218 18.2783 29.2116 18.3441 29.2192 18.4091C29.2268 18.4741 29.2519 18.5358 29.292 18.5876C29.2669 19.1485 29.285 19.7106 29.346 20.2688C29.1651 20.1782 28.9664 20.1287 28.7642 20.1237C28.5619 20.1187 28.3611 20.1584 28.176 20.24C28.2063 19.7413 28.187 19.2408 28.1184 18.746C28.1675 18.7006 28.204 18.6433 28.2245 18.5797C28.245 18.516 28.2487 18.4482 28.2353 18.3827C28.2219 18.3172 28.1919 18.2562 28.1481 18.2057C28.1042 18.1552 28.0481 18.1169 27.9852 18.0944C27.9492 18.0944 28.0068 18.0944 25.6992 18.0368C25.728 17.3168 25.7388 15.3188 26.0592 14.3432C27.8952 15.7148 30.1308 16.1432 32.1792 15.1568C32.1926 15.1455 32.2012 15.1296 32.2033 15.1121C32.2053 15.0947 32.2005 15.0772 32.19 15.0632V15.0416ZM33.738 18.8324C33.6444 19.3904 33.684 19.9772 33.4788 20.4992C33.2653 21.0327 32.8542 21.4634 32.3311 21.7014C31.8081 21.9395 31.2133 21.9666 30.6708 21.7772C30.4052 21.6878 30.1706 21.5245 29.9946 21.3064C29.8186 21.0883 29.7084 20.8245 29.6772 20.546C29.5883 19.9503 29.551 19.3481 29.5656 18.746C30.1488 18.8 33.1908 18.8432 33.738 18.854V18.8324ZM27.8736 18.8324C27.9708 19.7396 28.0212 21.3524 27.2148 21.7988C26.9751 21.9028 26.7164 21.9556 26.4552 21.9536C26.2267 21.9734 25.9967 21.9625 25.7712 21.9212C25.5384 21.8826 25.3207 21.7806 25.1422 21.6262C24.9637 21.4718 24.8313 21.2712 24.7596 21.0464C24.5892 20.2921 24.519 19.5186 24.5508 18.746L27.8736 18.8324ZM32.8704 45.7208C32.0172 44.36 29.04 39.752 28.2552 38.6C28.9529 37.9835 29.7273 37.4595 30.5592 37.0412C30.8004 37.502 32.3592 40.7024 32.6796 41.984C32.6878 42.0125 32.7051 42.0375 32.7288 42.0553C32.7525 42.0731 32.7813 42.0827 32.811 42.0827C32.8406 42.0827 32.8695 42.0731 32.8932 42.0553C32.9169 42.0375 32.9341 42.0125 32.9424 41.984C33.4464 40.0328 34.6884 39.1508 36.1428 36.1196C36.9617 36.5776 37.7069 37.1565 38.3532 37.8368C37.68 39.0212 34.08 44.3132 32.8704 45.7388V45.7208ZM39.48 38.3696C37.392 36.422 36.5388 35.9756 36.276 35.8748C37.2882 33.7572 37.9345 31.4834 38.1876 29.15C39.2316 29.96 40.3116 30.7556 41.2764 31.6376C41.0676 32.6204 39.9228 37.0088 39.48 38.3696ZM41.082 10.106C50.2152 14.246 55.122 24.092 51.6552 34.55C49.8804 33.7832 43.0512 31.6988 41.4888 31.4576C41.0496 31.04 38.9688 29.4236 38.2236 28.8584C38.2236 28.6856 38.1948 29.1896 38.4828 25.694C38.4828 25.6544 39.2856 21.662 39.624 20.7908C39.8054 20.33 40.0258 19.8856 40.2828 19.4624C40.7035 18.7014 40.8316 17.8128 40.6428 16.964C40.5724 16.6945 40.4502 16.4414 40.2828 16.2188C40.6482 15.8608 40.8988 15.4021 41.0028 14.9012C41.1 14.1416 40.722 13.4036 40.3548 12.7664C40.6252 12.3408 40.7791 11.8517 40.8012 11.348C40.7913 11.1569 40.7371 10.9708 40.6428 10.8044C40.8312 10.6035 40.9759 10.3657 41.0676 10.106H41.082ZM26.2212 9.17359C27.3012 7.64359 29.4612 8.02879 31.2864 8.39599C33.4916 8.84566 35.6372 9.54998 37.68 10.4948C37.7029 10.5067 37.7296 10.5091 37.7542 10.5013C37.7789 10.4935 37.7994 10.4763 37.8114 10.4534C37.8233 10.4305 37.8256 10.4038 37.8179 10.3791C37.8101 10.3545 37.7929 10.3339 37.77 10.322C35.7948 9.35075 33.7081 8.62534 31.5564 8.16199C30.5304 7.94239 29.3028 7.68679 28.2372 7.80199C29.4645 6.64753 31.026 5.91153 32.6976 5.69959C33.8388 5.55559 34.1664 5.78959 34.476 5.40439C34.6296 5.19153 34.8289 5.01565 35.0592 4.88959C35.6532 4.57999 36.5208 4.52959 37.5576 5.11999C38.1172 5.44046 38.6526 5.80143 39.1596 6.19999C39.6677 6.56767 40.1179 7.00936 40.4952 7.51039C40.8494 7.97824 41.0198 8.55975 40.974 9.14479C40.9569 9.6586 40.7752 10.1533 40.4556 10.556C40.3148 10.3934 40.1606 10.2429 39.9948 10.106C39.138 9.38599 36.258 7.35559 35.6748 6.99919C35.6504 6.98391 35.621 6.97893 35.593 6.98535C35.565 6.99176 35.5406 7.00904 35.5254 7.03339C35.5101 7.05773 35.5051 7.08715 35.5115 7.11517C35.5179 7.14319 35.5352 7.16751 35.5596 7.18279C36.3768 7.69399 38.8968 9.58039 39.5196 10.1096C39.9228 10.4444 40.3116 10.7468 40.4268 11.1032C40.5996 11.654 40.2828 12.1832 40.0668 12.6944C40.0559 12.7184 40.0529 12.7452 40.058 12.771C40.0632 12.7968 40.0763 12.8204 40.0956 12.8384C40.4196 13.4216 40.794 14.2388 40.6896 14.9012C40.589 15.3115 40.3758 15.6855 40.074 15.9812C38.598 14.2244 35.0808 12.2552 32.7408 11.3732C29.9976 10.3256 26.5344 10.322 25.5912 10.7144C25.6869 10.1612 25.9019 9.63541 26.2212 9.17359ZM25.5012 9.86119C25.3873 10.1979 25.3077 10.5453 25.2636 10.898C24.9864 11.0132 24.738 11.4812 24.5436 12.2336C24.3096 13.2344 24.1044 14.0984 24.6048 14.9444C24.8308 15.3135 25.1466 15.6195 25.5228 15.8336C25.4796 16.1936 25.368 17.5076 25.3788 18.0548L24.432 18.0332H24.4068C24.3365 18.0471 24.2719 18.0817 24.2214 18.1325C24.1709 18.1833 24.1367 18.248 24.1231 18.3184C24.1096 18.3887 24.1174 18.4615 24.1455 18.5274C24.1735 18.5934 24.2207 18.6494 24.2808 18.6884C24.2649 19.4624 24.3106 20.2364 24.4176 21.0032C24.4723 21.2792 24.602 21.5348 24.7926 21.7418C24.9831 21.9489 25.227 22.0994 25.4976 22.1768C25.3974 23.4746 25.6604 24.7747 26.2572 25.9316C26.8157 27.0124 27.7544 27.8485 28.8924 28.2788C29.2524 28.3976 29.2524 28.3832 29.2884 28.5776C29.2884 28.5776 29.4396 29.4848 29.49 29.7584C28.4272 29.9342 27.4607 30.4799 26.7612 31.2992C22.5767 32.0949 18.5764 33.6611 14.964 35.918C13.9352 33.5156 13.3922 30.9333 13.3663 28.3201C13.3404 25.7069 13.8321 23.1143 14.813 20.692C15.7939 18.2697 17.2446 16.0656 19.0815 14.2067C20.9184 12.3477 23.1051 10.8709 25.5156 9.86119H25.5012ZM14.28 3.95719C14.4924 3.93559 14.4672 3.61519 14.28 3.64039C13.4376 3.66559 10.2084 3.77359 9.33717 3.76639C9.31325 3.77089 9.29166 3.7836 9.27612 3.80234C9.26058 3.82107 9.25208 3.84465 9.25208 3.86899C9.25208 3.89333 9.26058 3.9169 9.27612 3.93564C9.29166 3.95437 9.31325 3.96709 9.33717 3.97159C10.1436 4.01119 13.4592 4.03999 14.28 3.95719ZM13.92 4.80679C13.5924 4.80679 10.14 5.07679 9.44877 5.08759C9.42108 5.08759 9.39453 5.09859 9.37495 5.11817C9.35537 5.13775 9.34437 5.1643 9.34437 5.19199C9.34437 5.21968 9.35537 5.24623 9.37495 5.26581C9.39453 5.28539 9.42108 5.29639 9.44877 5.29639C10.0104 5.29639 13.5276 5.20279 13.956 5.11999C13.9944 5.11168 14.0284 5.08938 14.0513 5.05742C14.0741 5.02546 14.0843 4.98613 14.0798 4.94708C14.0754 4.90803 14.0565 4.87204 14.027 4.84611C13.9974 4.82018 13.9593 4.80616 13.92 4.80679ZM14.4924 6.22879C14.4924 6.22879 10.0752 6.39439 9.65397 6.39799C9.62646 6.40283 9.60154 6.41722 9.58358 6.43861C9.56562 6.46001 9.55577 6.48705 9.55577 6.51499C9.55577 6.54292 9.56562 6.56996 9.58358 6.59136C9.60154 6.61276 9.62646 6.62714 9.65397 6.63199C11.274 6.63199 12.894 6.69319 14.5032 6.56359C14.5433 6.55651 14.5795 6.53522 14.6051 6.50361C14.6308 6.472 14.6442 6.4322 14.6429 6.39151C14.6416 6.35081 14.6256 6.31196 14.598 6.28207C14.5703 6.25218 14.5328 6.23326 14.4924 6.22879ZM38.76 59.9192L38.4936 59.7824C38.4843 59.777 38.4737 59.7742 38.463 59.7742C38.4522 59.7742 38.4417 59.777 38.4324 59.7824C38.0836 60.0785 37.8035 60.447 37.6116 60.8624C37.6063 60.8754 37.6059 60.8899 37.6105 60.9032C37.6152 60.9164 37.6245 60.9275 37.6368 60.9344C37.8939 61.0679 38.1787 61.1394 38.4684 61.1432C39.426 61.1432 40.0308 60.3224 40.5708 59.5592C41.0388 58.8896 41.6256 58.058 41.334 57.2516C41.2341 56.9824 41.0608 56.7467 40.8336 56.5712C40.8243 56.5626 40.812 56.5578 40.7994 56.5578C40.7867 56.5578 40.7745 56.5626 40.7652 56.5712C40.3934 56.8535 40.0987 57.2249 39.9084 57.6512C39.9025 57.6596 39.8993 57.6697 39.8993 57.68C39.8993 57.6903 39.9025 57.7003 39.9084 57.7088L40.2 57.986C39.8633 58.7257 39.3723 59.3848 38.76 59.9192ZM37.8636 59.444C37.6182 59.7217 37.3978 60.0204 37.2048 60.3368C37.1112 60.542 37.3848 60.6428 37.4568 60.5168C37.658 60.2063 37.8793 59.9093 38.1192 59.6276C38.1948 59.5484 38.04 59.3252 37.8636 59.444ZM39.678 57.3884C39.7006 57.3891 39.7231 57.3846 39.7437 57.3752C39.7643 57.3659 39.7824 57.3519 39.7968 57.3344C39.9992 57.0247 40.2204 56.7278 40.4592 56.4452C40.5384 56.3624 40.3836 56.1428 40.2 56.2652C39.957 56.5419 39.739 56.8394 39.5484 57.1544C39.5345 57.1776 39.527 57.2041 39.5266 57.2312C39.5261 57.2582 39.5328 57.2849 39.5459 57.3086C39.559 57.3323 39.5781 57.3521 39.6013 57.3661C39.6245 57.3801 39.6509 57.3878 39.678 57.3884ZM50.4168 52.7804C50.4397 52.7807 50.4624 52.7756 50.483 52.7656C50.5036 52.7556 50.5216 52.741 50.5356 52.7228C50.5496 52.7046 50.5591 52.6835 50.5635 52.661C50.5678 52.6385 50.5669 52.6153 50.5608 52.5932L50.6436 50.0732C50.6436 49.8788 50.6616 49.6376 50.4384 49.5116C50.2152 49.3856 14.9856 49.3028 15.0252 49.3028C15.0128 49.3033 15.0008 49.3069 14.9901 49.3132C14.9794 49.3194 14.9704 49.3282 14.964 49.3388C14.8533 50.2946 14.8088 51.2569 14.8308 52.2188C14.8729 52.3059 14.9406 52.3781 15.0249 52.4258C15.1092 52.4734 15.206 52.4941 15.3024 52.4852C15.7956 52.4852 50.4168 52.7804 50.4168 52.7804ZM50.3448 50.0804C50.3448 50.1632 50.3448 50.1128 50.28 52.4744C48.5952 52.424 15.4464 52.1648 15.198 52.1504C15.0864 52.1108 15.0864 52.0028 15.0936 51.8336L15.162 49.6052C16.9296 49.6556 50.118 49.742 50.2548 49.7528C50.3916 49.7636 50.3556 49.9112 50.3448 50.0804ZM18.1464 63.2816C18.1884 63.2816 18.2287 63.2649 18.2584 63.2352C18.2881 63.2055 18.3048 63.1652 18.3048 63.1232C18.3048 63.0812 18.2881 63.0409 18.2584 63.0112C18.2287 62.9815 18.1884 62.9648 18.1464 62.9648C17.34 63.0116 14.0748 63.1016 13.2036 63.0908C13.1797 63.0953 13.1581 63.108 13.1425 63.1267C13.127 63.1455 13.1185 63.169 13.1185 63.1934C13.1185 63.2177 13.127 63.2413 13.1425 63.26C13.1581 63.2788 13.1797 63.2915 13.2036 63.296C14.0064 63.3356 17.3148 63.3608 18.1464 63.2816ZM17.7684 64.1312C17.4444 64.1312 13.992 64.4012 13.2972 64.412C13.2695 64.412 13.2429 64.423 13.2233 64.4426C13.2038 64.4621 13.1928 64.4887 13.1928 64.5164C13.1928 64.5441 13.2038 64.5706 13.2233 64.5902C13.2429 64.6098 13.2695 64.6208 13.2972 64.6208C13.9488 64.6208 17.3904 64.5236 17.8044 64.4444C17.8428 64.4361 17.8768 64.4138 17.8996 64.3818C17.9225 64.3499 17.9327 64.3105 17.9283 64.2715C17.9238 64.2324 17.9049 64.1964 17.8754 64.1705C17.8458 64.1446 17.8077 64.1306 17.7684 64.1312ZM18.3516 65.5568C18.3516 65.5568 13.9416 65.7188 13.5096 65.7224C13.4821 65.7272 13.4571 65.7416 13.4392 65.763C13.4212 65.7844 13.4114 65.8114 13.4114 65.8394C13.4114 65.8673 13.4212 65.8944 13.4392 65.9158C13.4571 65.9372 13.4821 65.9515 13.5096 65.9564C15.1224 65.9564 16.7496 66.0176 18.3552 65.888C18.3769 65.8878 18.3984 65.8832 18.4184 65.8747C18.4384 65.8662 18.4565 65.8538 18.4717 65.8382C18.487 65.8227 18.499 65.8043 18.5071 65.7841C18.5152 65.7639 18.5192 65.7423 18.519 65.7206C18.5187 65.6988 18.5142 65.6774 18.5057 65.6574C18.4971 65.6374 18.4847 65.6192 18.4692 65.604C18.4537 65.5888 18.4353 65.5768 18.4151 65.5687C18.3949 65.5606 18.3733 65.5566 18.3516 65.5568ZM29.6124 63.2816C29.6544 63.2816 29.6947 63.2649 29.7244 63.2352C29.7541 63.2055 29.7708 63.1652 29.7708 63.1232C29.7708 63.0812 29.7541 63.0409 29.7244 63.0112C29.6947 62.9815 29.6544 62.9648 29.6124 62.9648C28.7988 63.008 25.5372 63.1016 24.6696 63.0908C24.6457 63.0953 24.6241 63.108 24.6085 63.1267C24.593 63.1455 24.5845 63.169 24.5845 63.1934C24.5845 63.2177 24.593 63.2413 24.6085 63.26C24.6241 63.2788 24.6457 63.2915 24.6696 63.296C25.476 63.3356 28.7772 63.3608 29.6124 63.2816ZM29.2344 64.1312C28.9104 64.1312 25.458 64.4012 24.7632 64.412C24.7355 64.412 24.7089 64.423 24.6894 64.4426C24.6698 64.4621 24.6588 64.4887 24.6588 64.5164C24.6588 64.5441 24.6698 64.5706 24.6894 64.5902C24.7089 64.6098 24.7355 64.6208 24.7632 64.6208C25.4112 64.6208 28.8528 64.5236 29.2668 64.4444C29.3049 64.4361 29.3386 64.4141 29.3615 64.3825C29.3844 64.351 29.3948 64.3121 29.3908 64.2733C29.3868 64.2345 29.3686 64.1986 29.3397 64.1723C29.3109 64.1461 29.2734 64.1315 29.2344 64.1312ZM29.8212 65.5568C29.8212 65.5568 25.4076 65.7188 24.9792 65.7224C24.9517 65.7272 24.9267 65.7416 24.9088 65.763C24.8908 65.7844 24.881 65.8114 24.881 65.8394C24.881 65.8673 24.8908 65.8944 24.9088 65.9158C24.9267 65.9372 24.9517 65.9515 24.9792 65.9564C26.592 65.9564 28.2192 66.0176 29.8248 65.888C29.8687 65.8875 29.9106 65.8696 29.9413 65.8382C29.9721 65.8068 29.989 65.7645 29.9886 65.7206C29.9881 65.6767 29.9702 65.6347 29.9388 65.604C29.9074 65.5733 29.8651 65.5563 29.8212 65.5568ZM41.4312 63.2816C41.4732 63.2816 41.5135 63.2649 41.5432 63.2352C41.5729 63.2055 41.5896 63.1652 41.5896 63.1232C41.5896 63.0812 41.5729 63.0409 41.5432 63.0112C41.5135 62.9815 41.4732 62.9648 41.4312 62.9648C40.6176 63.0116 37.3596 63.1016 36.4848 63.0908C36.4608 63.0953 36.4393 63.108 36.4237 63.1267C36.4082 63.1455 36.3997 63.169 36.3997 63.1934C36.3997 63.2177 36.4082 63.2413 36.4237 63.26C36.4393 63.2788 36.4608 63.2915 36.4848 63.296C37.2948 63.3356 40.596 63.3608 41.4312 63.2816ZM41.0532 64.1312C40.7328 64.1312 37.2768 64.4012 36.5856 64.412C36.5579 64.412 36.5313 64.423 36.5117 64.4426C36.4922 64.4621 36.4812 64.4887 36.4812 64.5164C36.4812 64.5441 36.4922 64.5706 36.5117 64.5902C36.5313 64.6098 36.5579 64.6208 36.5856 64.6208C37.2336 64.6208 40.6752 64.5236 41.0928 64.4444C41.1316 64.4361 41.166 64.4136 41.189 64.3812C41.212 64.3488 41.222 64.309 41.217 64.2696C41.212 64.2302 41.1924 64.1941 41.1621 64.1684C41.1317 64.1428 41.0929 64.1295 41.0532 64.1312ZM41.64 65.5568C41.64 65.5568 37.2264 65.7188 36.798 65.7224C36.7705 65.7272 36.7455 65.7416 36.7276 65.763C36.7096 65.7844 36.6998 65.8114 36.6998 65.8394C36.6998 65.8673 36.7096 65.8944 36.7276 65.9158C36.7455 65.9372 36.7705 65.9515 36.798 65.9564C38.4108 65.9564 40.038 66.0176 41.6436 65.888C41.6875 65.8875 41.7294 65.8696 41.7601 65.8382C41.7909 65.8068 41.8078 65.7645 41.8074 65.7206C41.8069 65.6767 41.789 65.6347 41.7576 65.604C41.7262 65.5733 41.6839 65.5563 41.64 65.5568ZM52.926 63.2816C52.968 63.2816 53.0083 63.2649 53.038 63.2352C53.0677 63.2055 53.0844 63.1652 53.0844 63.1232C53.0844 63.0812 53.0677 63.0409 53.038 63.0112C53.0083 62.9815 52.968 62.9648 52.926 62.9648C52.1196 63.008 48.8544 63.1016 47.9796 63.0908C47.9557 63.0953 47.9341 63.108 47.9185 63.1267C47.903 63.1455 47.8945 63.169 47.8945 63.1934C47.8945 63.2177 47.903 63.2413 47.9185 63.26C47.9341 63.2788 47.9557 63.2915 47.9796 63.296C48.7896 63.3356 52.08 63.3608 52.926 63.2816ZM52.548 64.1312C52.2276 64.1312 48.7716 64.4012 48.0804 64.412C48.0527 64.412 48.0261 64.423 48.0065 64.4426C47.987 64.4621 47.976 64.4887 47.976 64.5164C47.976 64.5441 47.987 64.5706 48.0065 64.5902C48.0261 64.6098 48.0527 64.6208 48.0804 64.6208C48.7284 64.6208 52.17 64.5236 52.5876 64.4444C52.6264 64.4361 52.6608 64.4136 52.6838 64.3812C52.7068 64.3488 52.7168 64.309 52.7118 64.2696C52.7068 64.2302 52.6872 64.1941 52.6569 64.1684C52.6265 64.1428 52.5877 64.1295 52.548 64.1312ZM53.1348 65.5568C53.1348 65.5568 48.7212 65.7188 48.2928 65.7224C48.2653 65.7272 48.2403 65.7416 48.2224 65.763C48.2044 65.7844 48.1946 65.8114 48.1946 65.8394C48.1946 65.8673 48.2044 65.8944 48.2224 65.9158C48.2403 65.9372 48.2653 65.9515 48.2928 65.9564C49.902 65.9564 51.5328 66.0176 53.1384 65.888C53.1823 65.8875 53.2242 65.8696 53.2549 65.8382C53.2857 65.8068 53.3027 65.7645 53.3022 65.7206C53.3017 65.6767 53.2838 65.6347 53.2524 65.604C53.221 65.5733 53.1787 65.5563 53.1348 65.5568ZM18.8916 61.298L18.0564 61.28C18.0564 60.8552 18.0276 59.7608 18.0132 59.4224C18.1217 59.3317 18.1917 59.2032 18.209 59.0628C18.2264 58.9225 18.1899 58.7808 18.1068 58.6664C18.0744 58.6196 18.1068 58.6304 17.088 58.6664V57.9464C17.1513 57.8565 17.1938 57.7537 17.2125 57.6453C17.2312 57.537 17.2255 57.4259 17.196 57.32C17.1919 57.3041 17.1825 57.2902 17.1694 57.2803C17.1564 57.2705 17.1403 57.2655 17.124 57.266L15.8424 57.3056C15.8208 57.032 15.7272 56.0492 15.6912 55.9844C15.6666 55.9376 15.6256 55.9017 15.576 55.8836C16.0224 55.2392 15.3204 55.0124 15.4572 54.6812C15.5148 54.5408 15.306 54.4436 15.2232 54.5732C15.0207 54.8442 14.865 55.1472 14.7624 55.4696C14.7655 55.5652 14.7921 55.6585 14.8398 55.7413C14.8876 55.8242 14.9549 55.8941 15.036 55.9448C14.9837 55.9656 14.9397 56.0029 14.9104 56.0509C14.8812 56.099 14.8684 56.1552 14.874 56.2112V57.3308L13.848 57.3632C13.8332 57.3634 13.8189 57.3685 13.8072 57.3776C13.7955 57.3867 13.7871 57.3993 13.7832 57.4136C13.7436 57.5292 13.734 57.6529 13.7554 57.7732C13.7768 57.8935 13.8285 58.0064 13.9056 58.1012C13.9056 58.3064 13.9308 58.5872 13.9524 58.7888C12.9156 58.832 12.9552 58.8176 12.9228 58.8536C12.6636 59.1632 12.498 59.6996 12.804 59.9336V61.2404H12.1992C12.1696 61.2404 12.1412 61.2521 12.1203 61.2731C12.0993 61.294 12.0876 61.3224 12.0876 61.352C12.0876 61.3816 12.0993 61.41 12.1203 61.4309C12.1412 61.4518 12.1696 61.4636 12.1992 61.4636C12.2388 61.4636 18.8448 61.5428 18.906 61.5356C18.9375 61.5337 18.9669 61.5193 18.9879 61.4957C19.0088 61.4721 19.0195 61.4411 19.0176 61.4096C19.0157 61.3781 19.0013 61.3486 18.9777 61.3277C18.9541 61.3068 18.9231 61.2961 18.8916 61.298ZM15.5832 57.32H15.1332V56.1824C15.2499 56.1472 15.3713 56.1302 15.4932 56.132C15.5004 56.2832 15.5652 57.086 15.5832 57.32ZM15.0288 55.448C15.0932 55.3042 15.1691 55.1657 15.2556 55.034C15.3744 55.2644 15.5472 55.394 15.4464 55.6208C15.403 55.6994 15.3511 55.7731 15.2916 55.8404C15.1332 55.7288 15 55.5992 15.0288 55.4408V55.448ZM14.9496 57.986C14.998 58.0882 15.0745 58.1746 15.1701 58.235C15.2657 58.2955 15.3765 58.3276 15.4896 58.3276C15.6027 58.3276 15.7135 58.2955 15.8091 58.235C15.9047 58.1746 15.9811 58.0882 16.0296 57.986C16.1269 58.0791 16.2471 58.1447 16.3779 58.1763C16.5088 58.208 16.6457 58.2044 16.7748 58.166V58.6952L14.2044 58.796C14.2044 58.6196 14.1864 58.436 14.172 58.2704C14.3159 58.2973 14.4644 58.2843 14.6014 58.233C14.7385 58.1816 14.8589 58.0937 14.9496 57.9788V57.986ZM13.074 61.226V60.0128C13.2354 60.0249 13.3975 60.0019 13.5491 59.9454C13.7008 59.8888 13.8383 59.8 13.9524 59.6852C14.0845 59.8036 14.2556 59.8691 14.433 59.8691C14.6104 59.8691 14.7815 59.8036 14.9136 59.6852C15.3312 60.1424 15.9576 59.93 16.3032 59.4224C16.3715 59.5192 16.4607 59.5994 16.5643 59.657C16.6679 59.7146 16.7831 59.7481 16.9014 59.755C17.0197 59.762 17.1381 59.7421 17.2477 59.697C17.3572 59.6519 17.4552 59.5826 17.5344 59.4944C17.6106 59.5147 17.6899 59.5208 17.7684 59.5124C17.7684 59.894 17.7684 60.8588 17.7936 61.262C16.6884 61.2548 13.7976 61.2332 13.074 61.2332V61.226Z" fill="url(#paint1_linear_353_7548)"/>
<path d="M61.7783 20.6864C61.2095 20.2832 61.6127 20.3264 60.7847 17.6012C60.5039 16.676 60.1907 15.5636 59.3447 15.2072C59.3447 12.5216 59.3447 1.3328 59.3627 0.951201C59.3775 0.927067 59.3856 0.899407 59.3861 0.8711C59.3866 0.842792 59.3795 0.814873 59.3655 0.790246C59.3515 0.76562 59.3312 0.745187 59.3067 0.731074C59.2821 0.716962 59.2543 0.709685 59.2259 0.710001C52.422 0.710001 10.1256 0.900801 6.37436 0.944001C6.35168 0.94447 6.32944 0.950288 6.30943 0.960982C6.28943 0.971676 6.27224 0.986944 6.25926 1.00554C6.24627 1.02414 6.23787 1.04554 6.23472 1.068C6.23158 1.09047 6.23378 1.11335 6.24116 1.1348C6.15116 5.8688 6.02156 31.7168 5.98916 41.5736C4.07889 43.2515 2.57885 45.3452 1.60436 47.6936C-0.152443 51.9884 -0.256843 55.2536 1.29836 57.3524C2.32796 58.7564 4.38356 60.3332 6.01436 59.6096C5.96396 66.4712 5.94956 68.4764 5.98916 69.056C6.00716 69.326 6.03956 69.2864 6.07916 69.2864C6.11876 69.2864 56.8643 69.1928 59.1143 69.1676C59.1425 69.1676 59.1702 69.1598 59.1943 69.1452C59.2184 69.1306 59.238 69.1097 59.2511 69.0848C59.2691 69.0488 59.3483 52.9964 59.4095 48.7376C59.8487 48.7255 60.2792 48.6124 60.6675 48.407C61.0559 48.2016 61.3916 47.9094 61.6487 47.5532C62.5303 46.45 63.257 45.2315 63.8087 43.9316C64.6223 41.7896 65.2091 40.2452 65.5511 37.8512C66.3071 32.5772 65.1731 26.8172 62.8943 22.04C62.4875 21.1796 62.5451 21.23 61.7783 20.6864ZM4.91996 57.1976C4.24316 56.8844 3.62756 55.4732 3.87596 54.2564C4.0718 53.4571 4.51533 52.7401 5.14316 52.208C5.42992 51.9237 5.74473 51.6693 6.08276 51.4484V52.6904C5.81325 52.8754 5.57091 53.0971 5.36276 53.3492C5.34657 53.3747 5.34041 53.4054 5.34546 53.4352C5.35051 53.465 5.36642 53.4919 5.39012 53.5107C5.41382 53.5294 5.44363 53.5388 5.47381 53.5369C5.50398 53.535 5.53239 53.522 5.55356 53.5004C5.90733 53.1514 6.31443 52.861 6.75956 52.64C7.07276 52.4996 7.13756 52.5644 7.06196 52.856C6.99687 53.2068 6.82455 53.5288 6.56876 53.7776C6.3134 53.983 6.03119 54.1526 5.72996 54.2816C5.56695 54.3516 5.41237 54.4397 5.26916 54.5444C5.25013 54.5634 5.23864 54.5887 5.23678 54.6156C5.23492 54.6424 5.24283 54.669 5.25905 54.6905C5.27527 54.712 5.29871 54.7269 5.32504 54.7325C5.35138 54.738 5.37883 54.7339 5.40236 54.7208C5.69036 54.53 6.59396 54.2492 7.09076 53.9C7.45076 53.6516 7.48316 53.8388 7.36076 54.2096C7.10876 54.9548 6.23396 55.34 5.65436 55.808C5.63422 55.8283 5.62181 55.855 5.61928 55.8834C5.61674 55.9119 5.62425 55.9403 5.64049 55.9638C5.65673 55.9874 5.68069 56.0044 5.70821 56.0121C5.73573 56.0198 5.76507 56.0177 5.79116 56.006C5.95316 55.916 6.11516 55.8044 6.34556 55.646C6.57596 55.4876 7.22756 55.16 7.46516 55.286C7.49199 55.2984 7.51473 55.3182 7.53068 55.343C7.54663 55.3679 7.55512 55.3969 7.55516 55.4264C7.59116 55.6856 7.37516 55.9376 7.15556 56.2184C6.14756 57.5072 5.31596 57.3884 4.91996 57.1976ZM58.9739 68.84C55.8419 68.858 8.70716 68.9768 6.25556 69.0056C6.28436 67.9796 6.25556 61.4924 6.27356 57.3956C6.76284 57.0237 7.21386 56.6041 7.61996 56.1428C7.72076 56.0024 8.03396 55.5164 7.78916 55.1348C7.7345 55.053 7.65662 54.9894 7.56552 54.9522C7.47442 54.9149 7.37427 54.9058 7.27796 54.926C7.52631 54.6677 7.68312 54.3351 7.72436 53.9792C7.72436 53.8676 7.75676 53.6192 7.54436 53.5148C7.46999 53.4905 7.391 53.4837 7.31356 53.4949C7.23613 53.5061 7.16234 53.5351 7.09796 53.5796C7.13036 53.5292 7.15556 53.4788 7.18436 53.4248C7.31396 53.1692 7.49396 52.5824 7.34996 52.3664C7.15196 52.0748 6.64796 52.316 6.34556 52.496C6.36716 18.872 6.53996 6.8372 6.52196 1.2248C10.0032 1.2248 56.8895 1.034 59.0819 1.0196C59.0531 3.0176 59.0063 16.766 59.0063 16.766C58.4085 16.8643 57.836 17.0796 57.3215 17.3996C57.1809 17.4675 57.0633 17.5752 56.9831 17.7092C56.9559 17.7562 56.939 17.8085 56.9336 17.8625C56.9282 17.9166 56.9344 17.9711 56.9518 18.0226C56.9692 18.074 56.9974 18.1212 57.0344 18.1609C57.0715 18.2006 57.1166 18.2319 57.1667 18.2528C57.0192 18.3416 56.8956 18.4652 56.8067 18.6128C56.7708 18.7526 56.7876 18.9008 56.854 19.029C56.9204 19.1572 57.0318 19.2564 57.1667 19.3076C56.7851 19.6496 56.8607 20.2508 57.6311 20.3624C58.1001 20.4282 58.5772 20.4075 59.0387 20.3012C59.2511 23.48 58.9379 66.806 58.9739 68.84ZM59.4059 21.0716C59.3843 20.8088 59.3591 20.5316 59.3267 20.2364C59.5575 20.1664 59.7816 20.0761 59.9963 19.9664C60.1475 19.8908 60.0251 19.664 59.8739 19.7396C59.3012 20.0059 58.6725 20.1294 58.0415 20.0996C57.8075 20.0996 57.4151 20.0996 57.3215 19.8728C57.2279 19.646 57.4547 19.4768 57.6095 19.4336C58.2889 19.5352 58.9827 19.4086 59.5823 19.0736C59.611 19.0583 59.6324 19.0323 59.6418 19.0012C59.6513 18.9702 59.648 18.9366 59.6327 18.908C59.6175 18.8794 59.5914 18.858 59.5604 18.8485C59.5293 18.8391 59.4958 18.8423 59.4671 18.8576C58.9257 19.1176 58.3198 19.2128 57.7247 19.1312C57.2999 19.0736 57.1019 18.9548 57.1091 18.7712C57.1091 18.6848 57.4691 18.4112 57.6131 18.35C58.2508 18.4405 58.8979 18.4405 59.5355 18.35C59.6975 18.3284 59.6759 18.08 59.5139 18.1016C59.0315 18.1628 57.4835 18.1232 57.3359 17.9936C57.3203 17.9835 57.3075 17.9696 57.2987 17.9533C57.2898 17.9369 57.2851 17.9186 57.2851 17.9C57.2851 17.8814 57.2898 17.8631 57.2987 17.8467C57.3075 17.8304 57.3203 17.8165 57.3359 17.8064C57.7175 17.4104 59.0783 17.0108 59.4419 16.9532C59.4706 16.9499 59.4967 16.9353 59.5146 16.9127C59.5325 16.89 59.5407 16.8612 59.5373 16.8326C59.534 16.804 59.5194 16.7778 59.4968 16.7599C59.4742 16.742 59.4454 16.7339 59.4167 16.7372H59.3555V15.5096C60.0035 15.8948 60.2555 16.7768 60.4571 17.4896C61.3643 20.654 60.8459 20.4452 61.7711 21.068C61.9188 21.1615 62.0564 21.2701 62.1815 21.392C61.2635 21.9608 60.2231 21.752 59.4059 21.0824V21.0716Z" fill="url(#paint2_linear_353_7548)"/>
<path d="M35.682 38.4524C35.5987 38.4524 35.5172 38.4771 35.448 38.5234C35.3787 38.5697 35.3247 38.6354 35.2929 38.7124C35.261 38.7894 35.2526 38.8741 35.2689 38.9558C35.2851 39.0375 35.3253 39.1125 35.3842 39.1714C35.4431 39.2303 35.5181 39.2704 35.5998 39.2867C35.6815 39.303 35.7662 39.2946 35.8432 39.2627C35.9201 39.2309 35.9859 39.1769 36.0322 39.1076C36.0785 39.0383 36.1032 38.9569 36.1032 38.8736C36.1032 38.7619 36.0588 38.6548 35.9798 38.5758C35.9008 38.4968 35.7937 38.4524 35.682 38.4524ZM34.44 40.5116C34.3474 40.5116 34.2569 40.539 34.18 40.5905C34.103 40.6419 34.043 40.715 34.0076 40.8005C33.9722 40.886 33.9629 40.9801 33.981 41.0709C33.999 41.1617 34.0436 41.2451 34.1091 41.3105C34.1745 41.376 34.2579 41.4205 34.3487 41.4386C34.4395 41.4567 34.5336 41.4474 34.6191 41.412C34.7046 41.3765 34.7777 41.3166 34.8291 41.2396C34.8805 41.1626 34.908 41.0722 34.908 40.9796C34.908 40.8555 34.8587 40.7364 34.7709 40.6487C34.6831 40.5609 34.5641 40.5116 34.44 40.5116ZM33.324 42.3188C33.2528 42.3188 33.1832 42.3399 33.124 42.3795C33.0648 42.419 33.0186 42.4752 32.9914 42.541C32.9641 42.6068 32.957 42.6792 32.9709 42.749C32.9848 42.8189 33.0191 42.883 33.0694 42.9334C33.1198 42.9837 33.1839 43.018 33.2538 43.0319C33.3236 43.0458 33.396 43.0386 33.4618 43.0114C33.5275 42.9841 33.5838 42.938 33.6233 42.8788C33.6629 42.8196 33.684 42.75 33.684 42.6788C33.684 42.5833 33.6461 42.4917 33.5785 42.4242C33.511 42.3567 33.4195 42.3188 33.324 42.3188Z" fill="url(#paint3_linear_353_7548)"/>
<defs>
<linearGradient id="paint0_linear_353_7548" x1="26.1857" y1="4.98715" x2="60.3303" y2="8.97798" gradientUnits="userSpaceOnUse">
<stop stop-color="#086158"/>
<stop offset="1" stop-color="#2DAB35"/>
</linearGradient>
<linearGradient id="paint1_linear_353_7548" x1="10.2983" y1="6.30549" x2="60.2258" y2="14.432" gradientUnits="userSpaceOnUse">
<stop stop-color="#086158"/>
<stop offset="1" stop-color="#2DAB35"/>
</linearGradient>
<linearGradient id="paint2_linear_353_7548" x1="1.76211" y1="3.64373" x2="74.5311" y2="19.6708" gradientUnits="userSpaceOnUse">
<stop stop-color="#086158"/>
<stop offset="1" stop-color="#2DAB35"/>
</linearGradient>
<linearGradient id="paint3_linear_353_7548" x1="33.0385" y1="38.6486" x2="36.6023" y2="39.2104" gradientUnits="userSpaceOnUse">
<stop stop-color="#086158"/>
<stop offset="1" stop-color="#2DAB35"/>
</linearGradient>
</defs>
</svg>
