<svg width="74" height="86" viewBox="0 0 74 86" fill="none" xmlns="http://www.w3.org/2000/svg">
<path d="M20.1295 18.061C18.568 18.1195 17.2315 19.7395 17.8345 21.211C18.379 22.516 20.1385 22.39 21.214 21.9175C23.32 21.0175 22.4245 17.98 20.1295 18.061ZM21.367 21.49C20.4265 22.0885 18.5365 22.1965 18.064 21.148C17.5915 20.0995 18.514 18.646 19.8415 18.448C21.88 18.079 22.834 20.5585 21.367 21.49ZM29.593 19.645C29.944 19.195 30.6235 18.8125 31.132 19.042C31.429 19.1815 31.6045 18.79 31.267 18.727C30.9158 18.6654 30.5543 18.7096 30.2282 18.8538C29.9021 18.998 29.6262 19.2358 29.4355 19.537C29.4284 19.5473 29.4234 19.559 29.4208 19.5712C29.4182 19.5835 29.4181 19.5962 29.4204 19.6085C29.4227 19.6208 29.4274 19.6326 29.4342 19.6431C29.4411 19.6536 29.4499 19.6627 29.4602 19.6697C29.4706 19.6768 29.4822 19.6818 29.4945 19.6844C29.5068 19.687 29.5194 19.6872 29.5317 19.6849C29.5441 19.6826 29.5558 19.6779 29.5663 19.671C29.5768 19.6642 29.5859 19.6553 29.593 19.645ZM10.2835 5.992C11.1139 6.34826 11.9819 6.60942 12.871 6.7705C12.979 6.7705 13.0375 6.64 13.0645 6.559C13.423 5.4475 14.1542 4.49381 15.1345 3.859C18.883 1.654 22.492 5.4205 20.9215 8.9845C20.0485 10.96 17.7715 11.5315 15.913 12.0535C15.58 12.148 15.6565 12.292 15.9805 13.066C16.5265 14.38 17.065 15.6955 17.596 17.0125C17.704 17.269 18.163 17.1025 18.3475 17.0665C18.6355 17.017 20.2105 16.8325 20.26 16.441C20.3095 16.0495 19.297 13.9615 19.1035 13.5205C22.6765 12.5395 25.093 8.7505 24.2785 5.083C23.257 0.533498 18.2755 -0.542002 14.329 0.767498C12.25 1.4605 10.18 3.319 10.1485 5.677C10.1485 5.9155 10.1035 5.9155 10.2835 5.992ZM13.8115 1.2715C17.722 -0.240502 22.8835 0.483999 23.95 5.1685C24.751 8.647 22.3525 12.2695 18.964 13.192C18.829 13.228 18.685 13.291 18.9235 13.7635C19.3015 14.533 19.9 16.0585 20.035 16.36C19.3281 16.5911 18.6023 16.7598 17.866 16.864L15.985 12.4C17.758 12.283 20.485 10.8745 21.241 9.1465C22.762 5.65 19.45 1.492 15.4 3.4C14.7742 3.69635 14.2226 4.12904 13.7858 4.66632C13.3489 5.2036 13.0379 5.83186 12.8755 6.505L10.3555 5.767C10.387 3.85 12.088 1.9375 13.8115 1.2715ZM30.3265 20.878C30.0565 20.6305 29.35 21.6835 29.71 21.8995C29.9125 22.0165 30.601 21.13 30.3265 20.878ZM36.217 20.6575C36.4751 20.8033 36.6911 21.0133 36.8441 21.2672C36.997 21.5211 37.0818 21.8102 37.09 22.1065C37.0901 22.1282 37.0973 22.1493 37.1106 22.1665C37.1238 22.1837 37.1424 22.1961 37.1633 22.2017C37.1843 22.2073 37.2066 22.2059 37.2267 22.1977C37.2467 22.1894 37.2635 22.1748 37.2745 22.156C37.5535 21.4225 36.9955 20.698 36.406 20.311C36.1675 20.149 35.974 20.5855 36.217 20.6575ZM32.986 28.033C33.6205 27.52 34.6555 27.43 35.1685 28.1725C35.5555 28.735 35.227 29.4235 34.534 29.2525C34.3386 29.1732 34.1491 29.0799 33.967 28.9735C33.9501 28.9672 33.9318 28.9657 33.914 28.969C33.8963 28.9724 33.8798 28.9805 33.8664 28.9926C33.853 29.0046 33.8431 29.0201 33.8378 29.0374C33.8325 29.0546 33.8321 29.073 33.8365 29.0905C34.084 29.833 35.551 29.797 35.6635 28.8205C35.7985 27.655 34.066 26.728 32.887 27.9205C32.8721 27.9336 32.863 27.9521 32.8617 27.972C32.8605 27.9918 32.8671 28.0113 32.8802 28.0263C32.8934 28.0412 32.9119 28.0503 32.9317 28.0515C32.9516 28.0528 32.9711 28.0461 32.986 28.033ZM34.579 23.65C35.029 23.857 35.479 22.7275 35.1145 22.5745C34.75 22.4215 34.3 23.533 34.579 23.65ZM31.6225 25.3015C32.257 25.558 32.158 25.2295 32.0725 25.153C31.5601 24.8929 31.031 24.6674 30.4885 24.478C31.15 23.4295 31.7755 22.3675 32.5 21.3595C32.563 21.274 32.428 21.166 32.365 21.256C31.681 22.2145 30.988 23.1685 30.3265 24.1405C29.9035 24.757 30.0385 24.6625 31.6225 25.3015ZM47.8 62.647C48.1118 62.4892 48.3597 62.2288 48.502 61.9097C48.6444 61.5905 48.6725 61.2321 48.5817 60.8947C48.4909 60.5573 48.2866 60.2614 48.0033 60.0568C47.72 59.8523 47.3749 59.7515 47.026 59.7715C44.6725 59.7715 44.866 64.258 47.8 62.647ZM57.529 52.3285C58.51 53.2735 60.751 52.8685 60.058 50.8885C59.2345 48.526 55.747 50.614 57.529 52.3285ZM54.9145 69.244C51.8275 69.496 53.452 73.7755 55.639 72.4795C57.1285 71.593 56.4625 69.1 54.9145 69.244ZM46.9405 47.2975C46.585 45.799 44.083 45.4255 43.525 47.1625C42.652 49.903 47.512 49.714 46.9405 47.2975ZM66.052 62.5525C62.9245 63.6865 67.645 68.281 68.4505 64.1725C68.752 62.6605 67.3165 62.0935 66.052 62.5525ZM36.622 55.645C36.2713 55.6956 35.9481 55.8636 35.7052 56.1217C35.4623 56.3797 35.3142 56.7125 35.2849 57.0657C35.2557 57.4188 35.347 57.7715 35.5441 58.066C35.7412 58.3604 36.0324 58.5794 36.37 58.687C38.6875 59.38 39.079 55.285 36.622 55.645Z" fill="url(#paint0_linear_353_7468)"/>
<path d="M73.522 68.515C73.3645 61.477 69.067 54.1555 64.6975 48.787C65.7503 47.3443 66.3443 45.618 66.4021 43.8329C66.4599 42.0479 65.9788 40.2868 65.0215 38.779C63.793 36.844 62.137 36.1735 61.615 34.729C60.985 33.01 61.7725 31.129 61.6645 29.392C61.5385 27.304 60.3145 25.0045 58.159 24.442C56.728 24.0685 54.613 24.7345 53.8435 22.1245C53.2405 20.077 54.2935 17.0485 52.4935 14.191C51.5305 12.6565 49.834 11.806 48.1825 11.2255C46.0945 10.492 43.624 10.204 41.6125 11.293C40.4099 10.8296 39.1122 10.6674 37.8325 10.8205C39.25 9.34449 39.8575 6.27549 39.1825 4.33149C38.9755 3.72849 35.479 6.21699 35.227 9.33099C33.8095 7.67049 32.41 7.11699 30.349 6.85149C29.557 6.74799 31.2085 10.861 32.626 11.4055C31.546 11.5045 30.052 11.8555 29.2735 12.652C29.0294 12.9462 28.847 13.2866 28.7372 13.6529C28.6274 14.0191 28.5924 14.4037 28.6344 14.7837C28.6764 15.1638 28.7945 15.5314 28.9816 15.8649C29.1687 16.1983 29.421 16.4906 29.7235 16.7245C28.117 19.2805 26.704 22.093 26.4385 25.144C25.1598 25.4619 24.0574 26.2701 23.3695 27.394C21.457 30.184 23.68 31.444 22.969 33.649C22.1275 36.2995 19.585 35.314 18.379 37.0735C17.479 38.347 17.6905 40.1425 18.5635 41.38C17.245 42.136 15.5845 43.0765 14.5405 44.161C14.779 37.2265 13.879 30.814 13.528 29.383C13.4785 29.194 12.772 29.3425 12.583 29.356C12.9683 28.5231 13.2334 27.6398 13.3705 26.7325C13.447 25.8865 13.3705 24.676 12.286 24.6085C12.1915 24.343 12.286 21.6115 10.5535 20.1085C10.1755 19.78 9.77501 19.717 9.78401 20.3155C9.78401 21.2155 10.4095 22.003 10.495 23.4655C10.0839 23.4892 9.68853 23.6315 9.35651 23.875C7.83101 23.479 6.17951 26.944 7.55651 27.2005C7.37519 27.8435 7.41803 28.5291 7.67801 29.1445C7.55651 29.1445 7.29551 29.0455 7.22801 29.185C3.97451 35.53 -0.610988 46.8835 0.644512 53.8675C2.10701 61.999 10.8595 64.258 18.01 63.448C18.4307 67.4935 19.619 71.4216 21.511 75.022C22.042 76.021 24.211 80.296 25.4125 81.295C25.0694 82.7308 24.8957 84.2018 24.895 85.678C24.895 85.822 25.111 85.7995 25.1155 85.678C25.1649 84.2966 25.3503 82.9235 25.669 81.5785C26.6624 81.9954 27.6762 82.3619 28.7065 82.6765C36.8026 85.0995 45.421 85.1697 53.5555 82.879C54.748 82.5415 56.0305 82.2265 57.07 81.529C57.4795 82.879 57.9295 84.1705 58.366 85.489C58.3693 85.4999 58.3746 85.5101 58.3818 85.519C58.389 85.5278 58.3979 85.5352 58.4079 85.5406C58.4179 85.5461 58.4289 85.5495 58.4403 85.5506C58.4516 85.5518 58.4631 85.5508 58.474 85.5475C58.4849 85.5443 58.4951 85.5389 58.504 85.5317C58.5128 85.5245 58.5202 85.5157 58.5256 85.5056C58.5311 85.4956 58.5345 85.4846 58.5356 85.4733C58.5368 85.4619 58.5358 85.4504 58.5325 85.4395C58.1275 83.9905 57.736 82.5415 57.2995 81.106C57.5883 79.8192 57.7392 78.5053 57.7495 77.1865C60.5035 77.5825 64.4005 77.9065 67.1095 77.362C69.8185 76.8175 72.082 75.346 72.9595 72.6325C73.3821 71.3025 73.5724 69.9096 73.522 68.515ZM44.4745 14.173C45.3025 15.739 45.5275 18.0295 45.2665 19.753C45.0966 21.056 44.572 22.2873 43.75 23.3125L43.3 23.1865C44.4115 19.5865 43.3945 15.469 40.231 13.255C38.9747 12.4543 37.5696 11.9155 36.1 11.671C38.7415 10.15 43.0435 11.455 44.4745 14.173ZM39.043 4.62399C39.304 8.18799 38.773 9.40299 37.243 10.924C36.953 10.9866 36.6719 11.0849 36.406 11.2165C36.1802 10.6167 35.8563 10.0586 35.4475 9.56499C35.83 7.50399 37 5.42499 39.043 4.62399ZM30.4705 7.09449C30.4705 7.03149 30.4705 7.04499 30.5245 7.05849C33.58 7.75599 34.723 8.59299 36.1315 11.3695C36.0235 11.4373 35.9225 11.5157 35.83 11.6035C34.9611 11.4267 34.075 11.3482 33.1885 11.3695C31.7755 11.122 30.7 8.37699 30.4705 7.09449ZM30.0655 16.9C32.9905 18.4975 37.6525 19.8655 41.1085 19.4155C40.1691 20.5498 39.6876 21.9944 39.7585 23.4655C39.8125 24.6085 40.519 25.3555 41.5135 24.5095C42.031 24.0595 42.6925 23.272 43.4665 23.5285C44.2405 23.785 44.137 24.6715 43.8175 25.3285C42.634 27.754 40.3615 27.349 41.2435 32.947C41.3939 33.8994 41.6304 34.8363 41.95 35.746C41.7999 36.4774 41.3988 37.1332 40.816 37.6C38.1475 40.021 33.0175 39.4405 33.103 36.115C33.1283 35.1979 33.1058 34.2802 33.0355 33.3655C31.267 33.0055 29.0215 32.1865 27.919 30.6385C27.5424 30.0749 27.2653 29.4509 27.1 28.7935C26.3395 26.1475 26.8615 23.3215 27.928 20.833C28.519 19.4595 29.2345 18.143 30.0655 16.9ZM42.2425 35.9215C42.7375 35.9665 43.21 36.034 43.678 36.1105C43.678 36.4705 44.128 37.9105 43.7815 39.6475C43.444 41.488 42.139 43.4005 40.141 43.5625C37.126 43.801 36.4285 40.8265 36.442 39.3775C40.2985 39.652 42.4 36.5425 42.2425 35.9215ZM35.8525 39.3055C35.641 39.3055 35.1235 41.3755 33.2515 41.7985C31.4785 42.2035 30.3985 40.786 30.727 39.0985C30.9835 37.7485 31.969 36.817 32.1625 36.3985L32.788 36.259C32.653 37.978 34.1245 39.013 35.8525 39.3055ZM12.7 25C13.402 25.45 13.0555 27.151 12.844 27.79C12.673 28.3165 12.4705 28.8385 12.2815 29.3605C10.8472 29.4244 9.41003 29.3551 7.98851 29.1535C7.79476 28.5079 7.72753 27.831 7.79051 27.16C7.99581 27.1034 8.17439 26.9758 8.29451 26.8C8.71301 27.2905 9.32951 26.5885 9.64451 26.287L10.432 26.413C9.89395 26.8001 9.50357 27.3587 9.32501 27.997C9.32658 28.0167 9.33463 28.0354 9.3479 28.0501C9.36118 28.0649 9.37893 28.0748 9.39842 28.0784C9.41791 28.082 9.43804 28.079 9.45568 28.07C9.47333 28.061 9.4875 28.0464 9.49601 28.0285C9.62508 27.6785 9.82527 27.3591 10.084 27.0903C10.3426 26.8216 10.6542 26.6093 10.999 26.467C11.575 26.3005 11.449 26.071 10.999 26.161C10.8595 26.188 9.44651 26.116 9.41951 25.8865C9.39251 25.657 11.8945 24.487 12.7 25ZM10.558 23.713V24.253C10.558 24.3385 10.711 24.343 10.729 24.253C11.0845 22.2865 10.1395 21.4225 10.1395 20.239C10.1395 20.0185 10.288 20.176 10.3915 20.239C11.8675 21.4225 11.9935 23.596 12.025 24.586C11.1419 24.668 10.2923 24.9646 9.55001 25.45C9.17201 25.657 8.86151 25.999 9.38351 26.224C9.16751 26.3815 8.61851 27.0025 8.42051 26.5345C8.22251 26.0665 8.94701 23.749 10.5445 23.704L10.558 23.713ZM7.38551 26.6335C7.30001 25.6165 8.04251 24.226 9.10001 24.1C8.49701 24.6895 7.95701 26.044 8.15951 26.638C7.97501 26.8855 7.40801 27.2185 7.37201 26.6245L7.38551 26.6335ZM7.44401 29.284C9.26651 29.815 11.404 29.635 13.294 29.5765L13.6585 32.1235C11.2345 32.3199 8.79465 32.1177 6.43601 31.525C6.76001 30.769 7.10201 30.031 7.43051 29.275L7.44401 29.284ZM72.244 73.564C70.174 71.1745 67.9555 74.914 69.8455 76.012C68.239 76.9435 66.3625 77.2315 64.531 77.281C57.907 77.461 50.9455 75.8095 44.965 72.997C45.271 69.397 44.4295 66.598 43.21 64.7575C48.2635 63.466 52.156 63.142 57.025 62.854C57.106 62.854 57.124 62.71 57.025 62.7055C56.0814 62.6612 55.136 62.6778 54.1945 62.755C54.109 62.3545 51.1705 59.371 48.3445 53.305C48.2995 53.2105 48.151 53.2555 48.1915 53.3545C49.6166 56.5681 51.4204 59.6001 53.5645 62.386C53.659 62.512 53.758 62.638 53.866 62.7595C48.9119 63.0388 44.0167 63.974 39.3085 65.5405C39.0925 65.617 39.241 65.8375 39.367 65.9365C38.6938 65.9712 38.0266 66.0814 37.378 66.265C37.081 66.0985 36.0955 66.031 35.3665 65.3245C34.4665 64.4245 34.3945 66.5305 35.542 67.0255C32.473 68.704 31.78 71.215 32.671 71.1205C32.887 71.098 33.058 70.8865 33.211 70.738C33.4765 70.4905 33.751 70.2475 34.012 69.9865C32.7295 72.6865 34.0705 73.5145 34.435 72.2365C34.6792 71.3808 35.1449 70.6047 35.785 69.9865C35.02 71.4805 35.695 73.33 36.352 72.8305C36.721 72.5425 36.586 71.0305 37.8685 70.315C38.0125 70.2385 38.1655 70.189 38.3185 70.117C38.728 70.63 40.069 71.3275 41.5855 71.323C41.6305 71.4265 41.635 71.476 41.698 71.5165C46.5433 74.358 51.8908 76.2388 57.448 77.056C57.4367 78.4178 57.2859 79.7749 56.998 81.106C55.7155 81.97 52.75 82.6945 51.1885 83.0455C45.1813 84.3826 38.9625 84.4623 32.923 83.2795C31.5325 83.005 26.4205 81.8665 25.606 80.9215C24.0805 79.153 23.3965 77.56 22.249 75.5215C19.9585 71.449 18.3475 66.139 18.2845 61.4635C18.1921 57.8233 19.1414 54.2325 21.0205 51.1135C21.9031 49.8024 22.8586 48.542 23.8825 47.338C23.9545 47.257 23.8285 47.1445 23.761 47.2255C22.0375 49.183 20.548 50.956 19.513 53.377C18.2429 56.4282 17.7303 59.7416 18.019 63.034C12.4345 63.7405 6.12101 62.6785 2.66501 57.787C4.14551 57.184 3.67301 53.9575 1.15751 54.4975C0.0100128 49.9975 1.81451 43.378 3.28151 39.1975C4.18151 36.628 5.24351 34.126 6.36851 31.642C7.51601 32.2135 11.287 32.623 13.717 32.389C14.3703 37.7274 14.506 43.1165 14.122 48.481C14.122 48.58 14.2705 48.58 14.2885 48.481C14.4835 47.1623 14.5857 45.8315 14.5945 44.4985C16.534 42.658 19.882 40.8985 22.303 39.76C21.9655 40.6375 22.8475 41.6725 23.7655 41.668C25.6555 41.668 25.6735 39.0895 24.355 38.8555C26.7435 37.8691 29.2068 37.0745 31.7215 36.4795C30.8215 37.69 29.9215 39.229 30.574 40.759C31.339 42.595 34.048 42.7795 35.6185 40.228C33.5492 44.573 32.2126 49.2304 31.663 54.0115C31.663 54.1195 31.8115 54.1555 31.8295 54.0475C32.5178 49.1164 33.9803 44.325 36.163 39.85C36.182 40.8484 36.5124 41.816 37.108 42.6175C39.4075 45.6415 45.433 43.216 44.0155 36.16C47.3756 36.757 50.6075 37.9292 53.569 39.625C53.2459 39.9092 53.0382 40.302 52.9851 40.7291C52.932 41.1561 53.0373 41.5878 53.281 41.9425C53.4052 42.1321 53.5656 42.2953 53.753 42.4229C53.9404 42.5504 54.1511 42.6397 54.3731 42.6857C54.595 42.7317 54.8239 42.7334 55.0465 42.6908C55.2691 42.6482 55.4812 42.5622 55.6705 42.4375C55.8473 42.3065 55.9905 42.1354 56.0883 41.9382C56.1861 41.7411 56.2357 41.5235 56.233 41.3035C61.138 44.7235 65.0935 49.3495 68.2435 54.394C70.66 58.264 72.7795 62.8405 73.1305 67.498C73.2835 69.55 73.162 71.7055 72.244 73.555V73.564ZM36.5095 69.1L36.091 69.55C34.1065 70.9 34.291 72.9835 33.841 72.556C33.2875 72.016 34.2145 69.649 35.047 68.911C35.758 68.281 34.9345 68.371 34.2865 69.4645L34.2505 69.5005C33.7469 69.9089 33.2648 70.3429 32.806 70.801C31.798 71.728 33.13 66.6565 39.5965 66.175C40.9465 67.4125 41.2975 69.289 41.536 71.0485C39.7 71.0485 38.4355 69.901 38.269 69.919C37.2655 70.036 36.6175 71.17 36.37 72.043C36.3385 72.151 36.2665 72.628 36.1585 72.664C35.821 72.781 35.1775 70.63 36.6085 69.2395C36.7165 69.1315 36.595 69.0145 36.5095 69.1ZM35.7625 66.904C34.957 66.661 34.723 65.293 35.02 65.356C35.5677 65.8431 36.2184 66.2 36.9235 66.4C36.5229 66.5291 36.1343 66.6932 35.7625 66.8905V66.904ZM39.4885 65.815C39.3625 65.815 42.1885 65.0095 42.994 64.8025C44.722 67.894 44.8525 70.2025 44.6455 72.853L41.9095 71.4355C41.6125 68.8705 40.8115 66.6565 39.4885 65.8015V65.815Z" fill="url(#paint1_linear_353_7468)"/>
<path d="M11.773 57.544C12.331 58.6555 14.923 58.273 14.8375 56.5585C14.7205 54.1015 10.4725 54.9655 11.773 57.544ZM9.72101 36.7945C9.78851 34.405 6.90851 34.774 6.60701 37.1275C6.44951 38.3335 9.64901 39.3685 9.72101 36.7945ZM9.30251 43.2205C8.69951 43.801 8.74451 45.7405 10.432 45.6955C13.3435 45.6235 11.2015 41.398 9.30251 43.2205ZM24.3595 68.65C25.2595 69.9055 27.37 68.992 27.0145 67.3585C26.5105 65.05 22.8745 66.598 24.3595 68.65ZM26.344 49.0165C24.5125 49.0165 24.2695 51.541 25.5925 52.126C28.729 53.512 28.8685 49.0165 26.344 49.0165ZM38.0485 79.3555C39.8125 80.5615 42.0985 77.65 40.1185 76.5025C38.035 75.283 36.1945 78.1 38.0485 79.3555Z" fill="url(#paint2_linear_353_7468)"/>
<defs>
<linearGradient id="paint0_linear_353_7468" x1="11.5292" y1="3.34931" x2="77.1575" y2="15.5183" gradientUnits="userSpaceOnUse">
<stop stop-color="#086158"/>
<stop offset="1" stop-color="#2DAB35"/>
</linearGradient>
<linearGradient id="paint1_linear_353_7468" x1="2.16826" y1="7.72894" x2="83.7365" y2="24.571" gradientUnits="userSpaceOnUse">
<stop stop-color="#086158"/>
<stop offset="1" stop-color="#2DAB35"/>
</linearGradient>
<linearGradient id="paint2_linear_353_7468" x1="7.41559" y1="37.0751" x2="46.0825" y2="43.9405" gradientUnits="userSpaceOnUse">
<stop stop-color="#086158"/>
<stop offset="1" stop-color="#2DAB35"/>
</linearGradient>
</defs>
</svg>
