<svg width="62" height="56" viewBox="0 0 62 56" fill="none" xmlns="http://www.w3.org/2000/svg">
<path d="M54.0588 29.9584C53.507 29.8553 52.9462 29.8097 52.3851 29.8232L54.2682 19.604C54.4609 18.5441 54.6083 18.4549 53.4932 18.3877C42.5851 17.7303 36.2332 18.2769 36.2165 18.0168C36.2094 17.906 35.6705 14.9267 35.4512 13.1327C35.3946 12.6705 35.0802 11.0983 34.9694 10.5616C34.7966 9.72434 34.8149 9.52425 34.4051 9.53774C30.9608 9.65111 22.3999 10.5148 17.8674 11.2464C10.0082 12.5144 10.041 12.5276 10.084 12.8828C10.084 12.8911 10.3798 16.7526 11.837 24.7306C8.07702 24.8202 8.30409 25.5056 8.84013 33.4692C9.09707 37.3043 10.0638 45.0171 10.9342 48.9418C12.137 54.3668 12.5545 55.5722 16.6733 55.8198C19.3625 55.9804 42.835 56.2531 48.9855 55.4723C49.5713 55.3981 49.9596 54.6115 50.0846 54.1163C50.2451 53.4784 50.5663 52.8094 51.8966 47.1718C55.4376 32.1877 56.3501 30.4553 54.0588 29.9584ZM52.6456 18.8743C53.8725 18.8881 53.8198 18.8711 53.7867 19.0246C53.7373 19.2543 49.1297 43.3604 47.9092 49.0915C46.9181 43.0402 45.1086 31.9789 44.9605 31.3709C44.4091 29.1047 43.8284 28.9827 42.1811 28.8035C41.8117 28.763 27.6122 28.5009 27.4802 28.4922C27.2875 28.4791 27.3244 28.4113 27.3383 28.3442C27.3383 28.3442 27.3675 28.165 27.3826 28.0872C29.0328 19.6609 28.9094 19.0041 29.2213 18.9922C43.5242 18.451 47.6083 18.8168 52.6453 18.8743H52.6456ZM10.5584 13.0736C10.5183 12.929 10.6313 12.9952 11.1963 12.9297C12.4733 12.7819 15.8254 12.2109 17.7454 11.9202C25.0075 10.8215 34.1594 9.93278 34.1603 9.94113C34.495 9.90901 34.4202 9.90227 34.487 10.4007C34.5191 10.6442 34.5804 11.0209 34.6032 11.2278C35.3856 18.3646 35.8407 18.1298 35.3831 18.133C33.2643 18.1465 31.1477 18.2664 29.0411 18.4921C28.587 18.5445 28.6063 18.8033 28.1836 20.8116C27.3537 24.755 26.9532 26.8703 26.8006 27.899C26.7627 28.156 26.693 28.4209 26.2607 28.3936C25.2008 28.3268 22.8826 28.4274 22.265 27.6016C20.3732 25.073 22.29 24.8151 16.0036 24.7403C15.5986 24.7355 13.8942 24.7024 12.4466 24.7188C12.3859 24.4496 12.3181 23.9887 12.2154 23.4019C11.097 16.9322 10.5581 12.8828 10.5584 13.0736ZM51.4605 46.3265C51.2286 47.5791 50.7732 49.4801 50.5448 50.3627C49.1843 55.6168 49.7059 54.8768 46.8211 55.0586C42.421 55.3358 17.834 55.4832 15.7367 55.2462C12.8651 54.9215 12.5356 53.5998 11.6222 48.8795C11.1963 46.6788 9.95461 39.0072 9.31483 30.8587C8.87097 25.2092 9.06078 25.5522 10.728 25.3666C12.3156 25.1909 14.286 25.3611 16.6087 25.3627C16.7227 25.3627 19.2241 25.4774 19.5661 25.5072C19.9836 25.5435 20.2046 25.5911 20.3691 25.7642C21.0435 26.4708 21.5805 28.4842 22.8575 28.7925C24.9163 29.29 37.4437 29.2923 41.8711 29.4635C43.9395 29.5435 44.0031 29.7448 44.4084 32.0522C44.8809 34.7382 44.8581 35.2132 46.779 46.1139C47.8912 52.4227 48.0727 53.9907 48.4963 53.9091C48.7228 53.8654 48.5946 53.1929 48.5464 52.9691C48.5368 52.9247 48.392 52.046 48.1665 50.6656C50.5406 39.5458 50.3929 40.5357 52.2942 30.3066C52.802 30.3066 53.3095 30.3342 53.8144 30.3898C55.6072 30.6284 54.8421 31.7307 52.548 41.8406C52.5862 41.9151 51.6442 45.3289 51.4605 46.3265Z" fill="url(#paint0_linear_353_7558)"/>
<path d="M29.8283 23.8326C29.5129 23.7947 29.475 23.5394 29.6514 23.4212C30.2815 22.996 42.4965 23.3515 44.5112 23.6781C45.0302 23.762 44.71 24.1387 43.7169 24.1516C41.8975 24.174 31.6349 24.0488 29.8283 23.8326Z" fill="url(#paint1_linear_353_7558)"/>
<path d="M36.4613 21.2957C33.1622 21.2957 29.2586 21.5829 29.8977 20.9684C30.4595 20.4286 38.9173 20.3582 39.0605 20.9344C39.0927 21.0629 39.0904 21.1098 38.9806 21.164C38.5701 21.3645 36.4613 21.3022 36.4613 21.2957Z" fill="url(#paint2_linear_353_7558)"/>
<path d="M29.4111 26.527C29.1863 26.3934 29.3189 26.1172 29.774 26.0565C30.8037 25.9197 34.8004 26.1024 34.8085 26.1027C36.636 26.1349 36.7452 26.1695 37.2276 26.4339C37.4029 26.5302 37.3923 26.6879 37.2318 26.801C36.8325 27.0817 29.7936 26.7531 29.4111 26.527Z" fill="url(#paint3_linear_353_7558)"/>
<path d="M40.3918 21.2384C40.088 21.0515 40.5955 20.8142 40.9407 20.809C42.4165 20.7881 44.5912 20.8389 45.415 20.8867C45.6533 20.9006 45.9016 21.1196 45.7552 21.312C45.5872 21.5326 45.4166 21.4944 44.7094 21.5397C44.7046 21.4613 40.9009 21.5525 40.3918 21.2384Z" fill="url(#paint4_linear_353_7558)"/>
<path d="M12.4254 14.5265C12.4254 14.0852 12.305 14.1006 14.2439 13.7447C16.8303 13.2703 19.0449 13.0089 23.8031 12.4469C25.8824 12.2018 25.6813 12.1713 25.8348 12.7976C26.3979 15.0966 27.1166 20.4152 27.1263 20.4994C27.2021 21.1604 27.1818 21.1141 24.9773 21.477C24.7945 21.5072 19.7742 22.2761 19.164 22.3648C14.7193 23.009 13.7917 23.1356 13.6565 22.657C13.0488 20.4962 12.4257 14.7433 12.4254 14.5265ZM26.1685 17.4771C25.3871 12.7693 25.6013 12.5204 25.2667 12.5731C23.9209 12.7838 20.3864 13.2826 19.2356 13.4685C12.8288 14.5037 14.6502 14.2294 12.8176 14.503C12.6615 14.5261 12.8529 14.4988 13.3315 17.9961C13.977 22.7058 13.9199 22.5668 14.0483 22.5247C14.1906 22.4762 14.2764 22.5456 14.375 22.376C14.4713 22.2119 14.9357 21.7231 15.4281 21.1337C16.2041 20.2412 17.0286 19.3921 17.8979 18.5903C18.4362 18.0681 18.3524 18.0845 20.0916 19.2076C20.3678 19.3862 20.4169 19.408 20.3639 19.4761C20.3575 19.4841 18.9588 21.3784 18.8984 21.6325C18.7256 22.358 20.6327 19.5317 23.119 16.5695C23.7963 15.762 23.6512 15.7286 26.095 17.5709C26.1444 17.6059 26.1685 17.6239 26.1685 17.4771Z" fill="url(#paint5_linear_353_7558)"/>
<path d="M19.7916 15.8561C19.4383 15.815 18.7613 15.8561 18.6967 15.1594C18.6646 14.8129 19.031 14.1959 19.8806 14.1387C20.5136 14.096 20.6716 14.378 20.794 14.1824C21.1701 13.5809 21.6483 13.585 21.9682 13.885C22.2406 14.142 22.1195 14.2634 22.4095 14.2283C22.8016 14.1811 23.5063 14.0507 23.8782 14.2097C24.2913 14.3867 24.0777 14.9272 23.6801 15.1029C22.3684 15.6826 19.4656 15.8561 19.7916 15.8561ZM19.7302 15.5233C20.7471 15.4061 24.5951 15.0033 23.7311 14.4355C23.5384 14.307 23.2243 14.4394 22.8469 14.4606C22.2187 14.4956 22.1352 14.6729 22.0321 14.5091C21.9619 14.3342 21.843 14.1833 21.6894 14.0742C21.4431 13.9187 21.0679 14.1574 20.988 14.4943C20.9433 14.6818 20.8916 14.7699 20.6427 14.651C20.0578 14.3703 19.3111 14.3941 19.0481 15.0685C18.9729 15.2612 19.1081 15.3377 19.2591 15.4363C19.4053 15.5077 19.5682 15.5378 19.7302 15.5233Z" fill="url(#paint6_linear_353_7558)"/>
<path d="M16.1014 14.7111C17.7946 14.6061 18.3518 17.0352 16.8134 17.8034C16.5698 17.9243 16.2989 17.98 16.0273 17.9648C15.7557 17.9497 15.4927 17.8643 15.2641 17.717C14.9581 17.536 14.7205 17.2592 14.5878 16.9295C14.4551 16.5997 14.4349 16.2355 14.5303 15.8931C14.6257 15.5507 14.8313 15.2493 15.1153 15.0356C15.3994 14.8219 15.7459 14.7079 16.1014 14.7111ZM17.3347 16.3543C17.2499 15.8054 17.1304 15.3512 16.4707 15.0927C15.5422 14.7288 14.5141 15.9477 15.0961 16.9266C15.2261 17.1547 15.4275 17.3338 15.6693 17.4363C15.9111 17.5388 16.1798 17.559 16.4342 17.4938C16.6886 17.4286 16.9145 17.2817 17.0772 17.0756C17.2399 16.8694 17.3304 16.6155 17.3347 16.353V16.3543Z" fill="url(#paint7_linear_353_7558)"/>
<path d="M1.93227 41.6721C1.91846 41.5597 1.66859 39.9811 1.64771 39.1448C1.63069 38.4568 1.95765 38.2564 2.0858 38.5249C2.53127 39.4563 2.64496 40.302 2.86176 41.411C2.89002 41.5555 2.92053 41.4752 3.85034 41.2954C3.9393 41.2784 4.52673 41.2215 4.82029 41.1733C5.02873 41.1393 5.62323 41.2276 5.41414 41.4466C4.94972 41.9342 3.27736 42.4359 3.14792 42.4519C3.00821 42.4693 3.06602 42.5232 3.15756 43.0483C3.20927 43.3451 3.67819 45.9123 3.38463 45.9605C3.31044 45.9727 3.22404 46.0035 3.15981 45.9248C2.71851 45.381 2.36715 44.1583 2.26758 43.5481C2.05143 42.2268 2.42817 42.821 0.251879 42.8951C0.198442 42.8929 0.146402 42.8775 0.100605 42.8499C-0.158905 42.7105 0.135614 42.3903 0.397372 42.2849C0.866937 42.0678 1.35631 41.8966 1.85872 41.7733C1.93227 41.7579 1.94191 41.7245 1.93227 41.6721Z" fill="url(#paint8_linear_353_7558)"/>
<path d="M29.1137 2.05061C29.1137 1.51553 30.5735 1.89227 30.5677 1.61188C30.5426 1.25085 30.5673 0.88808 30.6406 0.533694C30.6855 0.313689 30.6364 0.00889331 30.9001 0.000221565C31.0173 -0.00363254 31.0835 0.0422955 31.1368 0.177189C31.1705 0.256969 31.1949 0.340539 31.2087 0.4261C31.4108 1.94012 30.9621 1.69121 32.0695 1.74035C32.3637 1.75053 32.6508 1.8341 32.9045 1.98348C33.0777 2.11035 32.7642 2.27736 32.6187 2.30466C31.3314 2.55228 31.3366 2.29181 31.3385 2.66919C31.3764 3.16432 31.3311 3.66233 31.2042 4.14243C31.1551 4.32517 30.9521 4.40579 30.8259 4.22754C30.6846 4.02777 30.7437 3.92595 30.6457 3.35298C30.5394 2.7315 30.699 2.47424 30.5237 2.46621C29.7239 2.43024 29.1147 2.41932 29.1137 2.05061Z" fill="url(#paint9_linear_353_7558)"/>
<path d="M2.85761 14.8769C2.9819 14.8918 3.10183 14.932 3.20994 14.9951C3.31805 15.0582 3.41205 15.1428 3.48615 15.2437C3.68656 15.4679 3.80293 15.7547 3.81536 16.0552C3.82778 16.3556 3.73548 16.6511 3.55424 16.891C2.05114 18.6934 -0.0474316 15.9137 1.69142 15.023C2.05506 14.8528 2.46317 14.8016 2.85761 14.8769ZM2.39351 16.8136C2.59775 16.8137 2.79546 16.7418 2.95197 16.6106C3.10851 16.4794 3.21383 16.2972 3.24944 16.0961C3.26133 15.6895 3.18328 15.3301 2.73556 15.2748C1.92781 15.175 1.54721 15.6831 1.72771 16.2641C1.81122 16.5275 2.11088 16.8419 2.39383 16.8136H2.39351Z" fill="url(#paint10_linear_353_7558)"/>
<path d="M60.7412 11.8479C61.1414 12.5308 61.0749 13.1394 60.7859 13.5274C59.7732 14.8863 58.1246 13.5209 58.4937 12.366C58.8238 11.3321 60.4406 11.3347 60.7412 11.8479ZM59.462 13.4333C59.8853 13.7348 60.3523 13.3539 60.4593 12.9765C60.5723 12.578 60.3851 12.0011 60.061 11.9947C58.8566 11.97 58.7789 12.9454 59.462 13.4333Z" fill="url(#paint11_linear_353_7558)"/>
<defs>
<linearGradient id="paint0_linear_353_7558" x1="9.65113" y1="11.5247" x2="61.2954" y2="23.4993" gradientUnits="userSpaceOnUse">
<stop stop-color="#086158"/>
<stop offset="1" stop-color="#2DAB35"/>
</linearGradient>
<linearGradient id="paint1_linear_353_7558" x1="29.9078" y1="23.2659" x2="31.0681" y2="27.6461" gradientUnits="userSpaceOnUse">
<stop stop-color="#086158"/>
<stop offset="1" stop-color="#2DAB35"/>
</linearGradient>
<linearGradient id="paint2_linear_353_7558" x1="30.0481" y1="20.5675" x2="31.4685" y2="24.2102" gradientUnits="userSpaceOnUse">
<stop stop-color="#086158"/>
<stop offset="1" stop-color="#2DAB35"/>
</linearGradient>
<linearGradient id="paint3_linear_353_7558" x1="29.4952" y1="26.0443" x2="31.2921" y2="29.7327" gradientUnits="userSpaceOnUse">
<stop stop-color="#086158"/>
<stop offset="1" stop-color="#2DAB35"/>
</linearGradient>
<linearGradient id="paint4_linear_353_7558" x1="40.4293" y1="20.8357" x2="42.0427" y2="23.6144" gradientUnits="userSpaceOnUse">
<stop stop-color="#086158"/>
<stop offset="1" stop-color="#2DAB35"/>
</linearGradient>
<linearGradient id="paint5_linear_353_7558" x1="12.7736" y1="12.7402" x2="28.3297" y2="17.6874" gradientUnits="userSpaceOnUse">
<stop stop-color="#086158"/>
<stop offset="1" stop-color="#2DAB35"/>
</linearGradient>
<linearGradient id="paint6_linear_353_7558" x1="18.8232" y1="13.7793" x2="23.555" y2="16.4955" gradientUnits="userSpaceOnUse">
<stop stop-color="#086158"/>
<stop offset="1" stop-color="#2DAB35"/>
</linearGradient>
<linearGradient id="paint7_linear_353_7558" x1="14.5481" y1="14.8473" x2="18.134" y2="15.6693" gradientUnits="userSpaceOnUse">
<stop stop-color="#086158"/>
<stop offset="1" stop-color="#2DAB35"/>
</linearGradient>
<linearGradient id="paint8_linear_353_7558" x1="0.129628" y1="38.7337" x2="6.30924" y2="39.7604" gradientUnits="userSpaceOnUse">
<stop stop-color="#086158"/>
<stop offset="1" stop-color="#2DAB35"/>
</linearGradient>
<linearGradient id="paint9_linear_353_7558" x1="29.2049" y1="0.185118" x2="33.4951" y2="1.06231" gradientUnits="userSpaceOnUse">
<stop stop-color="#086158"/>
<stop offset="1" stop-color="#2DAB35"/>
</linearGradient>
<linearGradient id="paint10_linear_353_7558" x1="1.10097" y1="14.9562" x2="4.15765" y2="15.6969" gradientUnits="userSpaceOnUse">
<stop stop-color="#086158"/>
<stop offset="1" stop-color="#2DAB35"/>
</linearGradient>
<linearGradient id="paint11_linear_353_7558" x1="58.5021" y1="11.6209" x2="61.3543" y2="12.2772" gradientUnits="userSpaceOnUse">
<stop stop-color="#086158"/>
<stop offset="1" stop-color="#2DAB35"/>
</linearGradient>
</defs>
</svg>
