<svg width="72" height="65" viewBox="0 0 72 65" fill="none" xmlns="http://www.w3.org/2000/svg">
<path fill-rule="evenodd" clip-rule="evenodd" d="M14.095 37.5505C16.134 37.9295 17.5742 37.217 18.317 37.0541C18.5331 37.0086 19.4881 37.4331 20.9965 37.4331C21.4294 37.411 21.8535 37.3028 22.244 37.1147C22.6345 36.9267 22.9835 36.6625 23.2705 36.3378C23.3198 36.2809 23.2288 36.2089 23.1796 36.2657C22.5949 36.8415 21.8095 37.1676 20.989 37.1753C20.1912 37.1407 19.4001 37.0135 18.6316 36.7963C18.1124 36.6789 18.192 36.8229 16.8769 37.1753C15.9786 37.42 15.0401 37.4806 14.1178 37.3535C12.9504 37.1867 12.7306 36.9252 12.6814 37.0578C12.6763 37.0724 12.677 37.0884 12.6834 37.1025C12.6897 37.1166 12.7012 37.1277 12.7155 37.1336C13.1611 37.3158 13.6231 37.4554 14.095 37.5505ZM40.7423 32.4341C42.4136 32.3014 43.7742 30.8271 43.6492 29.9365C43.6515 29.9275 43.6517 29.9182 43.6498 29.9091C43.6479 29.9001 43.644 29.8916 43.6383 29.8843C43.6327 29.877 43.6254 29.8711 43.6171 29.867C43.6088 29.8629 43.5997 29.8608 43.5904 29.8608C43.5812 29.8608 43.5721 29.8629 43.5638 29.867C43.5555 29.8711 43.5482 29.877 43.5425 29.8843C43.5369 29.8916 43.5329 29.9001 43.5311 29.9091C43.5292 29.9182 43.5294 29.9275 43.5317 29.9365C43.4711 30.2853 43.3043 30.6069 43.0542 30.8575C42.5324 31.4352 41.8837 31.8841 41.1592 32.1688C40.7157 32.3469 40.6513 32.2977 40.6665 32.3848C40.6671 32.3935 40.6698 32.402 40.6743 32.4095C40.6787 32.417 40.6848 32.4234 40.6922 32.4282C40.6995 32.433 40.7079 32.436 40.7165 32.437C40.7252 32.438 40.734 32.437 40.7423 32.4341ZM8.48208 38.7595C8.49665 38.7545 8.50863 38.7439 8.51539 38.73C8.52214 38.7162 8.52311 38.7002 8.51808 38.6856C8.51306 38.6711 8.50245 38.6591 8.48859 38.6523C8.47473 38.6456 8.45875 38.6446 8.44418 38.6496C7.51004 38.8519 6.54342 38.8519 5.60928 38.6496C5.20755 38.5473 5.18481 38.4639 5.14312 38.5397C5.13577 38.553 5.13364 38.5685 5.13715 38.5832C5.14065 38.5979 5.14954 38.6108 5.16207 38.6193C6.04513 39.256 7.51943 39.2295 8.48208 38.7595ZM54.8372 11.0549C54.9622 11.0966 54.8372 10.926 55.4625 9.81178C56.7321 7.51127 59.0137 5.49501 61.3294 4.20263C62.2655 3.67961 62.3451 3.73267 62.3072 3.63792C62.2999 3.62405 62.2878 3.61332 62.2731 3.60774C62.2585 3.60216 62.2423 3.60211 62.2276 3.6076C58.3656 5.12359 55.5762 8.26926 54.7993 10.9791C54.7963 10.9865 54.795 10.9945 54.7953 11.0025C54.7957 11.0105 54.7977 11.0183 54.8013 11.0255C54.8048 11.0326 54.8099 11.0389 54.8161 11.044C54.8223 11.0491 54.8294 11.0528 54.8372 11.0549ZM66.1388 14.0755C64.4599 12.8172 61.7993 12.2146 59.6959 11.9569C58.2911 11.7698 56.8697 11.7418 55.4587 11.8735C55.4507 11.874 55.4429 11.8761 55.4358 11.8796C55.4286 11.8831 55.4222 11.8879 55.4169 11.8939C55.4116 11.8999 55.4076 11.9069 55.405 11.9144C55.4024 11.922 55.4013 11.93 55.4019 11.9379C55.4019 12.0403 55.4246 11.9379 56.7814 11.991C59.5632 12.0895 63.9217 12.749 66.0555 14.1702C66.135 14.2119 66.2033 14.1172 66.1388 14.0755ZM53.0407 33.9046C52.7948 34.0282 52.5316 34.1138 52.26 34.1585C52.253 34.1553 52.2455 34.1535 52.2378 34.1531C52.2301 34.1528 52.2225 34.154 52.2152 34.1566C52.208 34.1593 52.2014 34.1633 52.1958 34.1685C52.1901 34.1737 52.1855 34.18 52.1823 34.1869C52.1791 34.1939 52.1772 34.2015 52.1769 34.2091C52.1766 34.2168 52.1778 34.2245 52.1804 34.2317C52.183 34.2389 52.1871 34.2455 52.1923 34.2512C52.1975 34.2568 52.2037 34.2614 52.2107 34.2646C52.2861 34.3196 52.3732 34.3561 52.4652 34.3714C52.5572 34.3867 52.6515 34.3803 52.7406 34.3527C52.8297 34.325 52.9111 34.277 52.9783 34.2124C53.0456 34.1478 53.0968 34.0683 53.1279 33.9804C53.1379 33.9688 53.143 33.9538 53.1419 33.9385C53.1409 33.9232 53.1338 33.909 53.1222 33.8989C53.1106 33.8889 53.0956 33.8838 53.0803 33.8849C53.065 33.8859 53.0508 33.893 53.0407 33.9046ZM6.46582 50.5994C5.74951 50.6638 5.87458 50.9784 6.59088 50.8799C7.30719 50.7813 6.9244 50.5577 6.46582 50.5994ZM17.6917 49.1895C17.6164 49.1953 17.5417 49.2067 17.4681 49.2236C17.0588 49.3373 17.1497 49.4776 17.5553 49.4851C18.3436 49.4889 18.389 49.1365 17.6917 49.1895ZM6.07924 58.816C5.76846 58.816 5.3743 58.9866 5.88974 59.0927C6.01539 59.1113 6.14309 59.1113 6.26874 59.0927C6.80312 58.9639 6.3597 58.8085 6.07924 58.816ZM17.1118 56.7808C16.5244 56.8074 16.7594 57.031 17.1118 57.0651C17.7258 57.1295 17.8774 56.7505 17.1118 56.7808ZM28.1634 62.3407C27.4054 62.3786 28.0497 62.6818 28.5424 62.625C29.0351 62.5681 28.8873 62.3028 28.1634 62.3407ZM39.7228 59.4073C38.9648 59.377 39.2339 59.7067 39.791 59.7029C40.2268 59.6991 40.3746 59.4414 39.7228 59.4073ZM52.332 63.8226C51.8355 63.8226 51.5399 64.031 52.097 64.1068C52.2557 64.1238 52.4158 64.1238 52.5746 64.1068C53.1506 63.9931 52.7754 63.815 52.332 63.8226ZM61.4696 54.3174C62.2958 54.3856 62.3148 54.0748 61.4696 54.0255C60.5562 53.9687 60.8594 54.2681 61.4696 54.3174ZM67.1773 52.5436C66.9423 52.5815 66.7983 52.7142 67.1053 52.8014C67.2558 52.8392 67.4134 52.8392 67.5639 52.8014C68.0187 52.6195 67.5298 52.4868 67.1773 52.5436ZM14.5612 13.7003C15.0827 13.6993 15.5989 13.5952 16.0801 13.394C16.5612 13.1929 16.9979 12.8985 17.3649 12.528C17.7319 12.1575 18.022 11.718 18.2186 11.235C18.4152 10.7519 18.5143 10.2348 18.5103 9.71324C18.4785 8.68654 18.0483 7.71254 17.3108 6.99754C16.5733 6.28253 15.5865 5.88269 14.5593 5.88269C13.5321 5.88269 12.5452 6.28253 11.8078 6.99754C11.0703 7.71254 10.6401 8.68654 10.6082 9.71324C10.6042 10.2351 10.7035 10.7525 10.9003 11.2358C11.0971 11.7192 11.3876 12.1588 11.755 12.5293C12.1224 12.8999 12.5595 13.1942 13.0411 13.3951C13.5227 13.5961 14.0393 13.6998 14.5612 13.7003ZM11.9272 7.07163C12.2644 6.7106 12.6722 6.42274 13.1253 6.22594C13.5784 6.02913 14.0672 5.92757 14.5612 5.92757C15.0552 5.92757 15.5439 6.02913 15.9971 6.22594C16.4502 6.42274 16.858 6.7106 17.1952 7.07163C17.8778 7.77743 18.2568 8.72244 18.2511 9.70426C18.2454 10.6861 17.8555 11.6267 17.1649 12.3245C16.8239 12.6681 16.4182 12.9407 15.9714 13.1268C15.5245 13.3129 15.0452 13.4086 14.5612 13.4086C14.0771 13.4086 13.5979 13.3129 13.151 13.1268C12.7041 12.9407 12.2985 12.6681 11.9575 12.3245C11.2668 11.6267 10.8769 10.6861 10.8713 9.70426C10.8656 8.72244 11.2446 7.77743 11.9272 7.07163ZM54.894 11.3164L54.8902 11.3088V11.3126L54.894 11.3164ZM45.1614 17.5395C45.1614 17.5395 46.1354 16.8611 46.215 16.8005C46.6281 16.4821 47.1359 16.1638 47.5415 15.9023C48.6216 15.2087 48.5799 15.1443 50.0239 14.3446C50.4408 14.1096 53.9617 12.2032 54.2687 12.0213C54.2808 12.0128 54.2894 12.0001 54.2928 11.9857C54.2962 11.9713 54.2942 11.9562 54.2872 11.9431C54.2802 11.93 54.2687 11.92 54.2548 11.9149C54.2409 11.9097 54.2256 11.9098 54.2118 11.9152C52.8209 12.6315 50.1149 13.7799 48.1024 15.1897C47.4077 15.641 46.736 16.1267 46.0899 16.6451C45.728 16.9151 45.3801 17.2035 45.0477 17.5092C45.0475 17.5227 45.0518 17.5359 45.0599 17.5467C45.0681 17.5575 45.0796 17.5653 45.0927 17.5688C45.1058 17.5723 45.1196 17.5713 45.1321 17.566C45.1445 17.5607 45.1548 17.5514 45.1614 17.5395ZM39.9881 39.3432C40.2322 39.4731 40.5037 39.5433 40.7802 39.5479C40.9015 39.5479 40.981 39.4607 41.0076 39.2826C41.0341 39.1029 41.0341 38.9203 41.0076 38.7406C40.8787 37.8841 40.6286 38.0925 40.6854 38.1835C40.4429 38.2479 39.6318 39.1575 39.9881 39.3432ZM40.7082 38.3161C40.7124 38.3179 40.7169 38.3188 40.7214 38.3188C40.726 38.3188 40.7305 38.3179 40.7347 38.3161C40.7657 38.6299 40.7657 38.946 40.7347 39.2598C40.5527 39.231 40.3747 39.1815 40.2041 39.112C40.3336 38.8242 40.5033 38.5562 40.7082 38.3161Z" fill="url(#paint0_linear_353_7595)"/>
<path fill-rule="evenodd" clip-rule="evenodd" d="M60.7647 15.7579L61.6478 14.8749L62.0836 16.0763C62.1139 16.1597 61.8032 16.0157 66.3701 17.9069C66.4421 17.9372 66.3966 17.9372 67.5071 17.5279C67.6587 18.8202 67.6435 18.7975 67.6928 18.8506C67.996 19.1727 70.3836 21.7082 70.7247 22C71.3728 22.5723 72.7903 18.5322 71.4297 16.3833C68.6706 12.0438 65.1686 10.7438 60.0977 10.3762C59.0971 10.308 56.8686 10.7059 55.8794 10.8954C58.1004 9.63335 58.0018 9.73947 57.9942 9.64472L57.9222 8.64038L58.8621 8.76166C58.9228 8.76166 58.5324 9.02696 64.8844 4.78599C64.9754 4.72535 64.9526 4.78599 64.9526 3.59215C65.8395 3.42539 65.9494 3.41023 65.9873 3.39507C66.3208 3.25484 68.9397 2.17849 69.2315 1.96625C69.2673 1.94487 69.2936 1.91053 69.3049 1.87034C69.3162 1.83014 69.3116 1.78715 69.2921 1.75023C68.2499 -0.0841187 66.6922 -0.197818 64.6456 0.166019C60.795 0.844423 58.2861 3.32306 55.8415 6.34366C55.0969 7.33929 54.6359 8.51802 54.5075 9.75463C53.0256 7.26084 50.4863 6.37019 47.8675 5.309C44.0131 3.75133 35.425 3.65658 31.8776 6.1428C30.2126 7.27373 28.8742 8.82253 27.9967 10.6339C27.9663 10.6945 27.9588 10.8272 28.1369 10.8765C28.7698 11.0508 34.4434 10.8765 35.1028 10.8765C35.1938 10.8765 35.1976 10.812 35.9707 10.2322C36.0238 10.433 36.0882 10.7324 36.1223 10.9144C36.1295 10.9478 36.1483 10.9775 36.1754 10.9984C36.2024 11.0192 36.236 11.0297 36.2702 11.0281C42.1825 10.7893 41.8225 10.8234 41.8793 10.7628C41.8793 10.7628 42.5047 10.054 42.7889 9.77358C42.8252 9.87919 42.8556 9.98674 42.8799 10.0957C43.0428 10.812 42.9594 10.9144 43.0921 10.9561C44.2821 11.3351 46.8138 12.093 48.0721 12.3887C44.3352 13.5787 42.1067 14.8862 39.8138 18.138C38.9798 19.4086 38.3291 20.7903 37.8809 22.2426C37.6029 22.2151 37.3235 22.2789 37.085 22.4245C36.922 22.5344 36.9789 22.8035 37.0395 22.9892C36.5734 22.8982 36.3194 23.1143 36.4748 23.588C36.5999 23.967 36.9978 24.4938 36.9978 24.7629C36.9713 24.725 36.9069 24.6189 36.8917 24.5999C36.5086 24.3066 36.0313 24.1637 35.5501 24.1982C35.0801 24.1982 34.6973 24.6757 34.3865 24.8993C34.686 23.9594 34.144 23.4137 32.7948 24.6833C32.8247 24.5979 32.8337 24.5065 32.8212 24.4169C32.8087 24.3272 32.7749 24.2419 32.7227 24.1679C32.3438 23.7889 31.4342 24.6303 31.0665 24.8501C31.0665 24.6947 31.184 24.3687 30.8429 24.1982C30.2934 23.9215 29.903 24.4824 29.5657 24.9562C29.4368 24.4294 28.7698 24.3119 28.2657 24.5128C27.9701 24.661 27.7397 24.9133 27.6187 25.2211C27.4977 25.5288 27.4946 25.8704 27.6101 26.1803C27.0454 25.8847 26.3746 25.6914 26.348 26.3282C26.3468 26.4903 26.3659 26.652 26.4049 26.8095C26.1396 26.6427 25.7303 26.4305 25.4498 26.5707C24.9192 26.8398 25.0708 27.3818 25.374 27.8896C22.0578 27.8896 2.07708 28.2686 0.360221 28.3634C0.328586 28.3708 0.300385 28.3887 0.280198 28.4141C0.260011 28.4396 0.249025 28.4711 0.249025 28.5036C0.249025 28.5361 0.260011 28.5676 0.280198 28.5931C0.300385 28.6185 0.328586 28.6364 0.360221 28.6438C16.9451 28.4392 46.848 28.2648 47.0033 28.352C49.6563 30.1939 44.7673 35.0792 41.379 35.8296C40.3159 35.0733 39.2126 34.3749 38.0742 33.7375C37.9794 33.6883 37.9605 33.8475 37.9453 33.9536C37.9302 34.0597 37.915 34.1734 37.8998 34.3326C36.9241 33.3145 35.7674 32.4868 34.4889 31.8918C31.9648 30.8231 30.3199 31.6834 28.8987 33.9725C28.2884 35.0202 27.7807 36.1245 27.3827 37.2698C27.0394 38.2799 26.7485 39.3071 26.511 40.3472C25.9009 40.4706 25.2745 40.4911 24.6577 40.4079C23.2403 40.2298 21.1861 39.6916 20.7654 39.8318C19.9543 40.1047 19.2835 40.7717 18.4422 41.0522C17.096 41.5175 15.6692 41.7037 14.2487 41.5994C12.8282 41.4952 11.4438 41.1026 10.18 40.4458C9.80103 40.2639 7.39061 41.0219 6.84485 41.1356C5.49563 41.4084 2.05813 40.5595 0.0873438 39.089C0.0747248 39.0828 0.0603474 39.0812 0.0466702 39.0844C0.0329929 39.0876 0.0208651 39.0955 0.0123605 39.1067C0.00385591 39.1179 -0.000497235 39.1317 4.52048e-05 39.1458C0.000587644 39.1598 0.00599207 39.1732 0.0153345 39.1837C2.01644 40.6997 5.48047 41.5714 6.87896 41.2985C7.22006 41.2303 9.83514 40.4837 10.0929 40.6125C11.3785 41.2896 12.7886 41.6976 14.2371 41.8116C15.6856 41.9256 17.1422 41.7433 18.518 41.2758C19.3972 40.984 20.0339 40.3321 20.845 40.0668C21.1671 39.9607 23.2933 40.4951 24.635 40.6656C25.2407 40.7534 25.8568 40.7393 26.4579 40.6239C26.2912 41.3478 25.7378 43.8757 25.6999 44.3722C25.6954 44.3981 25.6965 44.4247 25.703 44.4502C25.7095 44.4756 25.7214 44.4994 25.7378 44.52C25.8023 44.5806 25.9235 44.5844 26.727 44.5996C26.5224 45.8503 26.5413 45.7555 26.4504 45.8692C26.0472 46.2844 25.6154 46.6707 25.158 47.0252C24.8737 47.2601 24.5099 47.6657 24.6729 47.9992C24.7714 48.1925 25.0177 48.2038 25.2338 48.1849C25.2338 48.2872 25.2338 48.4843 25.3323 48.5108C25.4991 48.5487 27.1363 48.5336 27.4168 48.5298L27.7086 48.9088C27.2879 49.591 24.4758 54.2488 24.544 55.0409C24.5667 55.2759 25.0253 55.401 25.2755 55.4692C25.2262 55.5981 25.1769 55.7269 25.1314 55.8255C25.086 55.924 25.0935 55.9278 25.0746 55.9581C25.0556 55.9884 23.6268 56.3371 22.9787 56.8071C22.5543 57.1103 22.5997 57.4362 22.8271 57.5651C23.4487 57.9251 26.8673 57.8493 27.0567 57.6484C27.3069 57.3831 27.5002 56.2575 27.5646 55.8937C27.8311 55.9444 28.1055 55.9353 28.3681 55.8672C29.6181 54.8522 30.7795 53.7326 31.8397 52.5206C32.2793 52.7897 32.7455 53.0474 33.2382 53.2786C32.8592 53.7069 28.8001 58.2321 28.7584 58.5618C28.7016 58.9749 29.8954 59.4335 30.2479 59.2175C30.354 59.1493 30.6269 58.8385 34.883 53.9532C35.6747 54.2213 36.4891 54.4167 37.3162 54.5369C38.6256 54.7252 39.9463 54.8239 41.2691 54.8325C42.7624 55.6511 44.5664 56.6327 45.7185 57.2543C41.2085 62.8331 41.4245 62.5413 41.4245 62.6474C41.4245 62.8483 41.7239 63.0529 41.8945 63.1591C42.065 63.2652 42.391 63.4243 42.5691 63.3296C42.8306 63.1856 46.8707 58.2245 47.0716 57.9782C49.2318 59.1152 51.0662 60.0778 51.5513 60.3166C51.7067 60.3962 51.8355 60.2408 51.9303 60.093C52.0461 59.9024 52.145 59.702 52.2259 59.4942C52.2367 59.4621 52.2363 59.4273 52.2245 59.3956C52.2128 59.3639 52.1905 59.3371 52.1615 59.3198L47.9129 56.9511L50.5166 53.7751L63.2737 60.8585C63.3051 60.8721 63.3399 60.8761 63.3736 60.87C63.4073 60.864 63.4384 60.8481 63.4632 60.8244C63.6983 60.5136 63.8919 60.1734 64.0392 59.8125C64.0847 59.6723 64.0089 59.623 63.9142 59.5624C63.8952 59.5624 56.357 55.31 51.4944 52.5813L54.1891 49.284C54.8405 49.3112 55.4901 49.1965 56.0928 48.9478C56.6955 48.6992 57.237 48.3225 57.6797 47.8438C57.7176 48.2834 57.7441 48.6321 57.7631 48.8747C57.7664 48.8877 57.774 48.8993 57.7846 48.9075C57.7953 48.9158 57.8083 48.9203 57.8218 48.9203C57.8353 48.9203 57.8483 48.9158 57.859 48.9075C57.8696 48.8993 57.8772 48.8877 57.8805 48.8747C57.8578 48.4957 57.8313 48.1167 57.8047 47.7149C58.7939 46.578 59.1919 44.8914 59.207 43.3792C59.6047 43.3049 59.9972 43.2049 60.3819 43.0798C60.397 43.0798 60.4115 43.0738 60.4221 43.0632C60.4328 43.0525 60.4388 43.038 60.4388 43.023C60.4388 43.0079 60.4328 42.9934 60.4221 42.9828C60.4115 42.9721 60.397 42.9661 60.3819 42.9661C60.0132 42.9709 59.6456 43.0064 59.2828 43.0722C60.8519 41.1507 63.5807 37.7663 64.043 37.175C65.18 43.8151 65.2558 48.8519 65.3998 49.3029C65.3998 49.3825 65.5135 49.4432 65.5135 49.2537C65.5152 49.2436 65.5152 49.2334 65.5135 49.2233C65.3278 47.2829 65.199 42.8373 64.2363 36.9325C67.598 32.6991 67.4502 32.8166 67.3744 32.6953C67.2228 32.4641 66.6164 32.2632 66.1919 32.2481C66.1503 32.2481 66.226 32.1685 65.2369 33.3851C64.8313 33.279 64.2325 33.1577 63.5162 33.0288C63.2054 31.5128 62.8568 30.0234 62.455 28.4809C70.8271 28.6779 70.3761 28.712 70.4405 28.6059L70.8536 28.6438C70.8626 28.6461 70.8719 28.6463 70.881 28.6445C70.89 28.6426 70.8985 28.6387 70.9058 28.633C70.9131 28.6273 70.919 28.6201 70.9231 28.6118C70.9272 28.6034 70.9293 28.5943 70.9293 28.5851C70.9293 28.5758 70.9272 28.5667 70.9231 28.5584C70.919 28.5501 70.9131 28.5428 70.9058 28.5372C70.8985 28.5315 70.89 28.5276 70.881 28.5257C70.8719 28.5238 70.8626 28.524 70.8536 28.5263L70.4367 28.4884C70.4557 27.9389 70.3761 27.3856 69.8568 27.1961C70.179 27.0369 70.7058 26.8171 70.4898 26.4115C70.2737 26.006 69.7318 26.4381 69.5157 26.4115C69.4778 26.1614 69.8947 25.3541 69.1367 25.1646C68.8596 25.1627 68.5826 25.1754 68.3067 25.2025C68.447 24.9486 68.7236 24.4976 68.6857 24.2209C68.6516 24.0428 68.5 23.9026 68.0869 24.0049C68.0035 24.0276 67.7079 24.1451 67.4995 24.1982C67.5417 24.1364 67.5773 24.0704 67.6056 24.0011C67.6776 23.6576 67.6152 23.2995 67.4313 23.0006C66.9916 22.3449 66.3511 22.849 65.8167 23.0953C65.9164 22.9221 65.9711 22.7266 65.9759 22.5268C65.957 22.1706 65.5552 22.0872 65.2179 22.1857C64.9393 22.2907 64.6694 22.4174 64.4107 22.5647C64.5211 22.4097 64.5692 22.2187 64.5454 22.0298C64.5215 21.8409 64.4274 21.6679 64.2818 21.5452C64.0506 21.3936 63.467 21.5452 63.2017 21.6475C63.5807 20.9729 63.4442 20.3931 63.1334 20.0823C62.8227 19.7715 62.1064 20.0444 61.788 20.0141C61.8682 19.9032 61.938 19.7853 61.9964 19.6616C62.0684 19.323 62.0059 18.9696 61.8221 18.6762C61.782 18.6128 61.7258 18.5611 61.6592 18.5265C61.5926 18.4919 61.5181 18.4756 61.4431 18.4791C61.0641 18.4791 60.416 18.9794 60.3061 18.8581C60.1962 18.7369 60.3061 18.3048 59.9271 18.1001C59.5481 17.8955 59.1047 18.0319 59.1047 18.6876C58.4566 17.1716 57.8275 15.9057 57.2628 14.8597C60.9618 15.883 60.6965 15.8337 60.7647 15.7579ZM26.89 57.4476C26.4655 57.5461 23.3502 57.5651 22.9371 57.2884C22.793 56.9397 24.8775 56.2651 25.1428 56.1249C25.2527 56.0642 25.3588 55.689 25.4157 55.4957C26.0749 55.6663 26.7446 55.7929 27.4206 55.8747C27.3334 56.1476 27.0643 57.2278 26.89 57.4476ZM56.0045 6.47252C58.449 3.53151 60.9618 1.09456 64.6949 0.446476C66.552 0.124329 67.9884 0.166019 68.97 1.78054C68.4659 2.05342 66.4231 2.91753 65.8925 3.12219L64.7859 3.33443C64.7534 3.34122 64.7241 3.35875 64.7028 3.38418C64.6815 3.40962 64.6694 3.44149 64.6684 3.47466V4.5927L58.847 8.557C57.7593 8.43194 57.7934 8.42057 57.7441 8.46604C57.6948 8.51152 57.7062 8.46604 57.8047 9.60303C57.547 9.75463 56.3494 10.4482 55.4625 10.975C54.5037 11.1645 54.7235 11.1418 54.5492 11.1228C54.5567 9.51587 54.9736 7.71184 56.0045 6.47252ZM43.2399 10.7362C43.1993 10.3138 43.1037 9.89844 42.9557 9.50071C42.9467 9.48314 42.9339 9.46785 42.9181 9.45602C42.9023 9.44419 42.8841 9.43614 42.8647 9.43249C42.7775 9.43249 42.7093 9.48934 42.6373 9.55756C42.3947 9.78874 41.8793 10.3724 41.7201 10.5316L36.3763 10.7287C36.3422 10.5581 36.2474 10.1147 36.1906 9.94792C36.184 9.9271 36.1728 9.90805 36.1577 9.89221C36.1427 9.87637 36.1243 9.86415 36.1038 9.85648C36.0834 9.84882 36.0614 9.8459 36.0397 9.84795C36.018 9.85 35.997 9.85697 35.9783 9.86833C35.8608 9.92897 35.1521 10.4937 35.046 10.5771C34.0644 10.6074 29.3042 10.7324 28.334 10.615C29.1923 8.91455 30.4675 7.45939 32.0406 6.38535C35.4477 4.00905 43.9448 4.00904 47.7803 5.52503C50.4636 6.58622 53.0066 7.44276 54.4809 10.001C54.4401 10.3697 54.4198 10.7404 54.4203 11.1114C54.0603 11.0849 54.3104 11.1683 53.704 10.759C50.293 8.45847 42.5463 6.04805 38.6275 7.20778C38.6127 7.2122 38.6001 7.22212 38.5924 7.2355C38.5846 7.24889 38.5823 7.26473 38.5858 7.27979C38.6465 7.49581 39.8782 6.56348 44.8469 7.62846C47.7007 8.23486 51.5286 9.55377 53.8404 11.0849C52.0781 11.0584 50.7554 11.5435 48.4322 12.2598C47.2762 12.0021 44.3617 11.0925 43.2399 10.7362ZM40.0412 18.2858C42.5804 14.6513 45.0818 13.484 49.3531 12.1878C50.6758 11.7823 52.1312 11.2327 53.5221 11.2251C53.9654 11.206 54.4096 11.2288 54.8486 11.2934C54.8486 11.2934 54.9168 11.2934 54.9054 11.3161C54.9639 11.9047 54.8658 12.4982 54.6212 13.0367C54.2846 13.865 53.8274 14.639 53.2644 15.3335C51.7901 17.2284 51.1685 17.941 49.1219 19.2523C48.9059 19.2068 48.0986 18.9794 47.894 18.9188C47.8754 18.9136 47.8559 18.9128 47.8369 18.9162C47.818 18.9196 47.8 18.9272 47.7843 18.9385C47.7687 18.9497 47.7558 18.9644 47.7466 18.9813C47.7373 18.9982 47.732 19.017 47.731 19.0363L47.6211 20.6849C46.2302 21.2496 43.5166 22.4586 42.4023 23.4516C42.0233 22.5609 41.9816 22.0758 41.7542 22.0758C41.6102 22.0758 41.6102 22.0986 41.1668 23.9026C40.5945 24.1717 38.1992 25.2859 37.5701 25.3769C37.3768 24.8008 38.2599 20.8138 40.0412 18.2858ZM54.3445 17.4596C53.9655 17.2777 53.3856 17.5809 53.0408 17.7894C53.1924 17.5203 53.4198 17.0731 53.1241 16.9328C52.7724 16.844 52.3999 16.8956 52.0857 17.0768C52.4836 16.6183 52.8892 16.099 53.3932 15.4396C53.8157 14.8946 54.1815 14.3079 54.4847 13.6886C54.5567 14.5262 54.697 16.0725 54.8827 18.0698C54.6897 18.0753 54.5005 18.1245 54.3293 18.2138C54.443 18.0319 54.7311 17.6529 54.3445 17.4596ZM25.6696 27.8858C25.4005 27.5068 25.139 27.0028 25.5521 26.7943C25.6796 26.7596 25.8155 26.7759 25.9311 26.8398C26.1466 26.9413 26.3489 27.0685 26.5337 27.2188C26.5551 27.2347 26.581 27.2434 26.6077 27.2436C26.6344 27.2438 26.6604 27.2354 26.682 27.2198C26.7035 27.2041 26.7196 27.182 26.7277 27.1566C26.7358 27.1312 26.7355 27.1038 26.727 27.0786C26.6266 26.8179 26.5827 26.5389 26.5982 26.2599C26.5982 26.222 26.5982 26.1917 26.6474 26.1803C26.7862 26.1522 26.9302 26.1668 27.0605 26.222C27.2876 26.3025 27.505 26.408 27.7086 26.5366C27.7282 26.5479 27.7504 26.5539 27.7731 26.5539C27.7957 26.5539 27.8179 26.5479 27.8375 26.5366C28.0308 26.4115 27.6252 25.953 27.8375 25.32C27.8752 25.1923 27.9406 25.0744 28.029 24.9749C28.1174 24.8753 28.2267 24.7965 28.3491 24.744C28.7774 24.5734 29.3497 24.6682 29.3535 25.1646V25.2708C29.353 25.2938 29.3595 25.3165 29.3722 25.3357C29.3849 25.3549 29.4032 25.3699 29.4246 25.3785C29.4459 25.3871 29.4694 25.3891 29.4919 25.384C29.5144 25.379 29.5349 25.3673 29.5505 25.3503C29.8348 25.0661 30.2327 24.1679 30.7406 24.418C30.896 24.4976 30.8505 24.6303 30.8391 24.797C30.8278 24.9638 30.8884 25.1457 31.04 25.1267C31.2826 25.0964 32.7265 23.7093 32.5901 24.5924C32.5593 24.7571 32.5084 24.9175 32.4385 25.0699C32.4303 25.093 32.4301 25.1183 32.4379 25.1415C32.4457 25.1648 32.4611 25.1848 32.4816 25.1983C32.5021 25.2119 32.5265 25.2181 32.551 25.2161C32.5755 25.2142 32.5986 25.204 32.6166 25.1874C32.9312 24.8349 33.8938 23.9253 34.2046 24.2361C34.2994 24.3308 34.2274 24.7326 34.1819 24.869C34.154 24.9167 34.1209 24.9612 34.0833 25.0017C34.0151 25.104 34.0492 25.2177 34.1743 25.2177C34.595 25.2177 35.0346 24.4218 35.5463 24.4218C35.9743 24.3912 36.3996 24.5119 36.7477 24.7629C36.7856 24.8008 36.9448 25.1798 37.0964 25.0244C37.3806 24.7439 36.9448 24.183 36.7174 23.7472C36.6378 23.588 36.5051 23.281 36.6719 23.209C36.8146 23.1695 36.9662 23.1775 37.1039 23.2318C37.1722 23.372 37.2934 23.6108 37.4223 23.4971C37.5512 23.3834 37.5133 23.2166 37.2404 23.0877C37.204 23.0006 37.1748 22.9106 37.1532 22.8186C37.1532 22.7656 37.1229 22.6292 37.1532 22.5988C37.3447 22.4835 37.5668 22.4293 37.7899 22.4434C37.6194 22.9816 36.9637 25.2177 37.3579 25.6156C37.4106 25.66 37.4787 25.6818 37.5474 25.6763C38.1083 25.6498 40.8257 24.3801 41.3373 24.1603C41.4435 24.111 41.3828 24.1338 41.7694 22.6443C42.1219 23.5691 42.1711 23.8306 42.3493 23.8344C42.5274 23.8381 42.4364 23.5425 44.4641 22.4586C46.0255 21.6248 47.7841 20.9123 47.7841 20.9123C47.8077 20.9033 47.8284 20.8879 47.8438 20.8678C47.8592 20.8477 47.8687 20.8238 47.8712 20.7986L47.9508 19.2371C49.0878 19.5441 49.1257 19.5555 49.1901 19.5138C50.1397 18.9279 51.012 18.2251 51.7863 17.4217C52.1653 17.2095 52.7527 16.9594 53.0408 17.1034C53.234 17.2019 52.8399 17.8614 52.6921 18.0433C52.6831 18.0592 52.6795 18.0776 52.6819 18.0957C52.6844 18.1138 52.6927 18.1306 52.7056 18.1435C52.7185 18.1564 52.7353 18.1647 52.7534 18.1671C52.7715 18.1696 52.7899 18.166 52.8058 18.157C52.9915 18.0206 53.867 17.4445 54.2535 17.6378C54.6401 17.8311 53.8556 18.3389 54.0944 18.4981C54.1664 18.5436 54.2573 18.4791 54.3369 18.4261C54.502 18.3272 54.6903 18.2736 54.8827 18.2707C55.1025 20.5826 55.3754 23.4743 55.6672 26.5556C55.0283 26.7145 54.4418 27.0371 53.9655 27.4917C53.3577 27.4366 52.7457 27.533 52.1842 27.7721C51.9871 27.8555 52.0326 28.0412 52.2297 28.0374C52.1842 28.0374 52.3434 28.0374 52.6087 28.1057C52.7072 28.0753 31.7411 27.9048 25.6696 27.8858ZM54.5984 35.8827C54.5984 35.8827 54.7235 35.9471 54.8865 36.0418C54.2043 36.4966 52.7035 37.3115 52.5632 37.5881C52.5459 37.6279 52.5425 37.6723 52.5535 37.7142C52.5645 37.7562 52.5893 37.7932 52.6239 37.8193C52.7186 37.9255 52.6959 37.8459 52.6807 37.9937V38.6493C52.6429 38.989 52.5718 39.3241 52.4685 39.6499C52.2954 39.6915 52.1135 39.6769 51.9492 39.6082C51.0207 39.2027 50.4901 38.5243 50.5886 37.5086C51.0586 37.5768 51.3277 37.6564 51.4187 37.6639C51.5096 37.6715 51.756 37.5048 51.4679 37.3949C51.2936 37.3304 51.3012 35.2497 51.5248 35.3483C51.5385 35.351 51.5528 35.3489 51.5652 35.3423C51.5776 35.3356 51.5872 35.3249 51.5926 35.312C51.598 35.299 51.5987 35.2846 51.5946 35.2712C51.5905 35.2578 51.5819 35.2462 51.5702 35.2384C51.9492 34.6623 51.9492 34.6737 51.9492 34.5941C51.944 34.5748 51.9345 34.5569 51.9213 34.5418C51.9082 34.5267 51.8918 34.5148 51.8734 34.5069C51.7298 34.4294 51.6086 34.3161 51.5216 34.178C51.4346 34.0399 51.3848 33.8816 51.377 33.7186C51.3587 33.4729 51.387 33.2261 51.4603 32.9909C51.6051 33.0586 51.7639 33.0904 51.9236 33.0838C52.0832 33.0772 52.2389 33.0324 52.3775 32.953C52.2979 33.116 52.2108 33.3093 52.3245 33.4457C52.4127 33.5367 52.5285 33.596 52.6539 33.6145C52.7793 33.633 52.9073 33.6097 53.018 33.548C53.025 33.5453 53.0313 33.5412 53.0367 33.536C53.0421 33.5308 53.0464 33.5246 53.0494 33.5178C53.0524 33.5109 53.054 33.5035 53.0542 33.496C53.0543 33.4885 53.053 33.4811 53.0502 33.4741C53.0475 33.4672 53.0434 33.4608 53.0382 33.4554C53.033 33.45 53.0268 33.4457 53.0199 33.4427C53.0131 33.4397 53.0057 33.4381 52.9982 33.438C52.9907 33.4378 52.9833 33.4392 52.9763 33.4419C52.8231 33.4478 52.6731 33.3965 52.5556 33.2979C52.6611 33.0353 52.7879 32.7818 52.9346 32.5399C53.3402 32.7408 53.3136 32.5399 53.2682 32.7446C53.1582 33.6921 54.2384 33.9953 54.894 33.3661C55.0028 33.2518 55.097 33.1245 55.1745 32.9871C55.2832 33.0093 55.3959 33.0015 55.5004 32.9644C55.7089 33.097 55.6824 33.0212 55.671 33.1349C55.6635 33.1887 55.67 33.2434 55.6899 33.2939C55.7099 33.3444 55.7425 33.3888 55.7847 33.423C55.7925 33.4668 55.7925 33.5118 55.7847 33.5556C55.2238 33.8702 55.2579 33.6845 55.1631 33.9687C54.9623 34.0748 54.9699 34.2909 54.9206 34.4842C54.8978 34.5713 54.6553 35.4317 54.5605 35.7424C54.5528 35.7664 54.5523 35.7921 54.5591 35.8163C54.5658 35.8406 54.5795 35.8623 54.5984 35.8789V35.8827ZM52.8437 38.0278C53.053 38.1813 53.2008 38.4043 53.2606 38.6569C53.3136 38.9222 53.2606 38.9866 53.3136 39.0776C53.3321 39.106 53.3584 39.1284 53.3894 39.142C53.1767 39.3245 52.9378 39.474 52.6807 39.5855C52.7596 39.2855 52.8166 38.9803 52.8513 38.6721C52.8664 38.5356 52.8323 38.2514 52.8437 38.024V38.0278ZM52.8437 37.6488C53.2682 37.2698 54.9926 36.2048 55.2048 35.9168C55.4739 36.0797 55.8794 36.3299 56.1334 36.5118C55.3754 37.1182 54.3938 37.8989 53.5448 38.691C53.4918 38.168 53.2113 37.9975 52.8588 37.6602L52.8437 37.6488ZM44.8052 45.1302C45.9351 45.0787 47.0612 44.9635 48.1782 44.7853C48.6747 45.6611 49.2909 46.4634 50.0088 47.1692C50.7577 47.8597 51.6092 48.4299 52.5329 48.8595C51.9758 49.8449 51.0586 51.1676 50.1225 51.8081L47.568 50.3793C47.3065 49.4962 47.2118 48.7155 46.9275 47.8627C46.7612 47.2781 46.4327 46.7524 45.9801 46.3468C45.6503 45.9981 44.8431 45.2098 44.79 45.1378C44.7369 45.0658 44.7862 45.1491 44.8052 45.1302ZM48.0911 44.5124C47.28 44.6337 45.097 44.8914 44.3466 44.827C44.4964 43.3806 44.5534 41.926 44.5171 40.4723C45.0856 40.9612 45.855 41.6093 46.594 42.2612C46.2771 42.3592 46.0021 42.5607 45.8133 42.8335C45.7896 42.8813 45.7772 42.9339 45.777 42.9873C45.7769 43.0407 45.789 43.0934 45.8124 43.1414C45.8358 43.1894 45.87 43.2313 45.9122 43.264C45.9544 43.2967 46.0035 43.3193 46.0559 43.3299C46.1099 43.3377 46.1648 43.3377 46.2188 43.3299C46.2026 43.3839 46.1985 43.4409 46.2071 43.4966C46.2156 43.5523 46.2364 43.6054 46.2681 43.6521C46.3238 43.7394 46.4043 43.808 46.4993 43.8492C46.5406 43.8569 46.583 43.8569 46.6243 43.8492C46.615 43.8865 46.615 43.9255 46.6243 43.9629C46.7001 44.5844 47.3103 44.2547 47.894 44.0462C48.182 43.9477 48.1782 43.9629 48.3564 44.1069L48.0911 44.5124ZM51.1534 37.3115C50.7311 37.2038 50.2968 37.1503 49.861 37.1523C49.6866 37.1523 49.7056 37.194 49.7132 37.1523C49.7776 36.652 50.0315 35.2573 50.3726 34.8783L51.3959 35.2573C51.1458 35.5643 51.0359 36.7923 51.1458 37.3266L51.1534 37.3115ZM51.1534 35.0375C51.0321 34.9769 50.4939 34.7154 50.3954 34.6585C50.2968 34.6017 50.2551 34.6585 50.1755 34.7608L50.0505 34.7381L51.0965 33.5784C51.0892 33.7716 51.1257 33.964 51.2031 34.1411C51.2806 34.3183 51.397 34.4757 51.5437 34.6017L51.1534 35.0375ZM50.0505 34.9086C49.8127 35.3348 49.6463 35.7969 49.5578 36.2768C49.4702 36.651 49.4094 37.031 49.3759 37.4138C49.3748 37.4333 49.3778 37.4529 49.3846 37.4713C49.3913 37.4896 49.4018 37.5064 49.4153 37.5206C49.4287 37.5348 49.445 37.5461 49.463 37.5538C49.4809 37.5615 49.5003 37.5654 49.5199 37.5654C49.7528 37.4432 50.0221 37.4096 50.2779 37.4707C50.2328 37.857 50.2876 38.2485 50.4371 38.6076C49.2491 39.8187 47.9979 40.9662 46.6888 42.0451L44.4944 40.2677C44.4944 39.8204 44.4944 39.4111 44.4641 39.0814C44.43 38.2249 44.4072 38.2173 44.3011 38.096C44.008 37.8005 43.6924 37.5281 43.3574 37.2812C45.241 36.1555 47.8296 34.6054 50.0694 34.9162L50.0505 34.9086ZM48.1365 43.8037C47.8826 43.8037 47.2762 44.0955 46.9541 44.0879C46.8859 44.0879 46.8669 44.0046 46.8631 43.9363C47.1019 43.6483 47.7462 43.5573 47.7462 43.3262C47.7462 43.3262 47.6817 43.1404 47.5377 43.2049C47.2307 43.358 46.9112 43.4848 46.5827 43.5839C46.554 43.5605 46.5296 43.5323 46.5106 43.5005C46.4803 43.4436 46.5106 43.4323 46.5106 43.4171C46.7943 43.2242 47.1046 43.0735 47.4316 42.9699C47.4627 42.9525 47.4865 42.9244 47.4986 42.8909C47.5107 42.8573 47.5102 42.8205 47.4973 42.7873C47.4844 42.754 47.4598 42.7266 47.4283 42.71C47.3967 42.6934 47.3602 42.6888 47.3255 42.697C46.9086 42.8373 46.8934 42.8903 46.5675 42.9851C46.4652 43.0116 46.1051 43.1177 46.0596 43.023C46.0142 42.9282 46.2643 42.7387 46.3704 42.6781C46.7921 42.4387 47.2624 42.2975 47.7462 42.265C48.1707 42.265 48.2123 42.2915 49.0992 42.9206L48.4284 43.9818C48.3511 43.8946 48.2494 43.8326 48.1365 43.8037ZM48.2919 42.1247C47.8911 41.9983 47.461 41.9983 47.0602 42.1247C48.2892 41.0931 49.4549 39.9882 50.5507 38.8161C50.8475 39.3012 51.2967 39.6744 51.828 39.8773C51.9903 39.9474 52.1671 39.9773 52.3434 39.9645C51.7787 41.2 50.1301 41.8898 49.7473 42.4999L49.5919 42.4052C49.5616 42.3866 49.5252 42.3805 49.4906 42.3883C49.4559 42.3961 49.4256 42.4171 49.4062 42.4469L49.1864 42.7956C48.8491 42.5227 48.4322 42.2043 48.2919 42.1285V42.1247ZM55.1139 31.4219C55.1139 31.5507 55.0115 31.6341 55.0153 31.8009C55.0146 31.8637 55.0266 31.926 55.0507 31.984C55.0748 32.0419 55.1105 32.0944 55.1556 32.1382C55.2111 32.1817 55.2708 32.2198 55.3337 32.2519C55.3626 32.2619 55.3886 32.2788 55.4095 32.3011C55.3578 32.4223 55.3221 32.5497 55.3034 32.6801H55.273C55.3375 32.4793 55.2996 32.3011 55.1707 32.2405C54.6718 32.0121 54.1211 31.9205 53.5751 31.9752C53.4766 31.9752 53.3553 32.2898 53.3212 32.3959C53.2034 32.3237 53.0757 32.2688 52.9422 32.2329C53.0104 32.051 52.9839 31.8994 52.8702 31.8236C52.5899 31.6584 52.2769 31.5562 51.953 31.5242L52.0326 31.3195C52.1277 31.2786 52.2083 31.2099 52.2638 31.1225C52.351 31.005 52.5026 30.7094 52.5519 30.7435C52.6656 30.7776 52.7944 30.9936 53.0862 30.7662C53.1865 30.6714 53.279 30.5687 53.3629 30.4592C53.4775 30.5332 53.5965 30.6003 53.7192 30.6601C53.9579 30.7131 54.1285 30.4895 54.227 30.4554C54.2763 30.5161 54.3597 30.6298 54.3824 30.6525C54.4448 30.6984 54.5168 30.7295 54.593 30.7432C54.6692 30.757 54.7475 30.7532 54.822 30.7321C54.7462 31.1035 54.9357 31.1642 55.1101 31.4257L55.1139 31.4219ZM55.7468 28.8144C55.0104 28.5011 54.2499 28.2476 53.4728 28.0564C53.3174 28.0223 52.2449 27.901 52.207 27.8934L52.2524 27.8669C52.8836 27.6204 53.5744 27.5702 54.2346 27.7229C55.6179 28.1019 57.9109 29.1706 58.7068 30.3758C58.988 30.7564 59.2138 31.175 59.3776 31.6189C59.0094 31.3103 58.6649 30.9746 58.3467 30.6146C57.6208 29.8324 56.732 29.2191 55.743 28.8182L55.7468 28.8144ZM58.6878 29.2843C58.6878 29.4549 58.6461 29.6216 58.6272 29.7884C57.6683 28.731 55.3792 27.7153 54.155 27.4841C55.4929 26.4229 56.9861 26.5025 57.8654 27.215C58.1554 27.4717 58.3807 27.7933 58.523 28.1535C58.6653 28.5138 58.7204 28.9025 58.684 29.2881L58.6878 29.2843ZM47.4013 28.3027C53.0521 28.3027 52.5443 28.3027 52.5026 28.3406H52.3207C52.1054 28.3872 51.9119 28.5047 51.7711 28.6741C51.5702 28.9849 51.6271 28.9736 51.6461 29.2313C51.5739 29.2977 51.5103 29.3728 51.4566 29.4549C51.3914 29.5531 51.3548 29.6674 51.3508 29.7852C51.3468 29.9029 51.3755 30.0195 51.4338 30.1219C51.3997 30.2053 51.3277 30.2887 51.2974 30.3796C51.2795 30.4246 51.2746 30.4737 51.2834 30.5213C51.2921 30.5688 51.314 30.613 51.3466 30.6487C51.3729 30.6698 51.4008 30.6888 51.43 30.7056C51.4435 30.7113 51.4553 30.7204 51.4641 30.7321C51.4452 30.8079 51.3959 30.8647 51.3807 30.9405C51.3752 30.9947 51.3838 31.0494 51.4058 31.0992C51.4277 31.149 51.4622 31.1923 51.5058 31.2248C51.5888 31.2865 51.6776 31.3398 51.7711 31.384L51.7256 31.5053H51.449C51.3732 31.5053 51.2633 31.6948 51.2292 31.763C51.1242 31.92 51.0682 32.1047 51.0682 32.2936C51.0682 32.4825 51.1242 32.6671 51.2292 32.8242C51.1699 32.9925 51.128 33.1665 51.1041 33.3434L49.8269 34.7381C48.7422 34.695 47.6607 34.8836 46.6547 35.2914C45.426 35.789 44.2461 36.3993 43.13 37.1144C42.6714 36.7657 42.1408 36.3791 41.6784 36.057C45.0288 35.1474 49.8155 30.4592 47.4013 28.3027ZM38.0704 33.8702C39.3135 34.5334 43.4408 37.5161 44.0964 38.2552C44.1684 38.3424 44.176 38.2552 44.2063 39.0966C44.2518 40.4079 44.2632 43.4361 44.0661 44.7209C43.9562 44.6337 38.1651 40.0819 37.8316 39.8394C37.8089 39.2557 37.9567 34.4917 38.0704 33.8702ZM24.9571 47.8931C24.9306 47.8931 24.9116 47.8931 24.9003 47.8703C24.8889 47.8476 24.9003 47.7187 24.9533 47.6391C25.1656 47.2601 25.6507 47.0062 26.3253 46.3316C26.4839 46.189 26.6127 46.0164 26.7043 45.8237C26.7536 45.6342 26.8369 44.8308 26.8597 44.6034H29.0616C28.9368 45.2666 28.7786 45.9231 28.5879 46.5704C28.0497 46.8357 25.5559 48.0257 24.9571 47.8931ZM27.9891 48.3782C27.6631 48.3782 25.6431 48.4237 25.3361 48.3782C25.3227 48.3043 25.3227 48.2285 25.3361 48.1546C26.0902 47.9815 26.8234 47.7273 27.5229 47.3966H28.6599C28.4325 47.6998 28.2165 48.0333 28.0004 48.3782H27.9891ZM30.8088 44.4177C30.0516 45.2982 29.36 46.233 28.7395 47.2147L27.811 47.2336C28.315 46.9986 28.6902 46.8016 28.7395 46.7788C28.7805 46.7525 28.8123 46.7141 28.8305 46.6689C29.008 45.9832 29.1422 45.287 29.2322 44.5844C29.7097 44.5844 29.8803 44.5844 29.9258 44.4631C30.047 44.1979 32.2604 40.0516 32.6166 39.396C32.7379 39.396 32.4991 39.1913 34.3107 41.5487C36.1148 41.0711 37.7482 41.0446 40.2193 42.03L41.0607 42.697C39.4689 41.9807 37.7445 41.4046 35.9821 41.5032C35.2387 41.5422 34.5017 41.6617 33.7839 41.8594C32.6394 42.4734 31.7146 43.455 30.8202 44.4177H30.8088ZM32.0254 52.2894C33.3822 50.8038 34.5533 49.4053 35.5197 48.4275H37.536C36.1034 50.0382 34.6708 51.6565 33.4201 53.0702C32.9453 52.835 32.4835 52.5744 32.0368 52.2894H32.0254ZM30.0925 58.9636C29.7105 58.9755 29.3386 58.8398 29.0541 58.5846C29.471 57.9137 33.9545 52.8693 37.9036 48.4047H39.4196C31.347 57.584 30.1948 58.8991 30.0925 58.9636ZM35.0801 53.722C36.4483 52.1492 38.0401 50.33 39.7152 48.4161C40.2534 48.4161 40.6286 48.4388 40.7764 48.4616C41.9665 50.6597 44.5399 51.4935 47.0109 51.8195L49.0386 52.9565C47.9069 53.584 46.6806 54.0231 45.4078 54.2564C42.1332 54.8969 37.6724 54.5861 35.0801 53.722ZM49.103 53.0626L46.5675 56.1969L43.8501 54.6809C45.6937 54.5086 47.482 53.9576 49.103 53.0626ZM41.6709 54.8249C42.3265 54.8249 42.9367 54.7794 43.509 54.7226L46.4083 56.375L45.8777 57.0307L41.6709 54.8249ZM51.9038 59.5017C51.8313 59.6849 51.7358 59.8581 51.6195 60.0172C51.2936 59.8542 49.3834 58.8574 47.2573 57.7432L47.7575 57.1368L51.9038 59.5017ZM42.4289 63.0567C42.1657 62.9883 41.9269 62.8478 41.7391 62.6512C41.7618 62.6171 45.15 58.414 49.41 53.146L50.2892 53.6349C44.8014 60.2711 42.6866 62.8407 42.4289 63.0567ZM63.736 59.786C63.6165 60.0496 63.4758 60.3031 63.3154 60.544C62.1784 59.9906 41.7126 48.4161 40.8788 48.2228C40.4619 48.1167 36.0314 48.2228 35.5463 48.2228L36.4255 47.3208C36.8841 47.3208 41.1744 47.3208 41.5231 47.4117C42.66 47.7453 63.5958 59.786 63.7323 59.786H63.736ZM51.2708 52.4486L50.3878 51.9635C51.3277 51.2699 52.2183 49.9813 52.7868 48.9694C53.1373 49.1048 53.5023 49.199 53.8745 49.2499C53.9276 49.2537 54.0375 49.1096 51.2671 52.4486H51.2708ZM58.3467 46.4188C57.9764 47.2197 57.3778 47.8934 56.6261 48.3554C54.3521 49.7426 52.2032 48.7344 50.1831 46.9532C49.4704 46.2493 48.8594 45.4495 48.3677 44.5768L49.5464 42.7008C53.0749 44.7891 52.711 44.5124 53.6093 45.0316C53.6813 45.0695 53.7608 45.1112 53.9503 45.2211L54.3483 45.4599C54.6212 45.6191 54.5492 45.657 54.6325 45.6608C54.7803 45.6608 54.6325 45.3727 54.4014 45.1757C54.1065 44.9629 53.7822 44.7944 53.4387 44.6754C54.138 43.4817 54.9048 42.329 55.7354 41.2227C55.745 41.2107 55.7493 41.1953 55.7476 41.18C55.7458 41.1647 55.738 41.1508 55.726 41.1412C55.7139 41.1317 55.6985 41.1273 55.6832 41.1291C55.668 41.1309 55.654 41.1387 55.6445 41.1507C54.7803 42.2467 53.9806 43.3919 53.2492 44.5806C52.783 44.3494 50.3764 42.8865 49.9292 42.6136C50.2817 42.0414 52.0099 41.2985 52.5481 39.9228C53.416 39.7105 54.3066 38.6645 54.822 37.9406L56.2622 36.6748C56.9746 37.1703 57.5454 37.8431 57.9184 38.6266C58.5686 40.0564 58.9194 41.6041 58.9493 43.1746C59.0133 44.2887 58.8065 45.4019 58.3467 46.4188ZM66.1919 32.3618C66.4876 32.3618 67.1356 32.5627 67.2418 32.7673C67.2683 32.809 66.6392 33.7186 59.1957 42.8145C59.1685 42.2936 59.1026 41.7755 58.9986 41.2644C62.9705 36.3526 66.082 32.4982 66.1957 32.3618H66.1919ZM65.0549 33.5594C63.8005 35.0754 61.5606 37.7966 58.9417 40.984C58.7442 40.1488 58.4649 39.335 58.1079 38.5546C57.7176 37.7603 57.1288 37.0802 56.3987 36.58C56.4142 36.5571 56.4205 36.5291 56.4163 36.5016C56.4121 36.4742 56.3977 36.4494 56.3759 36.4322C56.0727 36.2313 55.5346 35.9585 55.2389 35.7955C55.2309 35.7911 55.2219 35.7888 55.2128 35.7886C55.2036 35.7885 55.1946 35.7905 55.1864 35.7946C55.1782 35.7987 55.1711 35.8047 55.1658 35.8121C55.1604 35.8195 55.1569 35.8281 55.1556 35.8372L54.8524 35.6704L55.0987 34.9124C55.1883 34.975 55.2924 35.0138 55.4012 35.025C55.5099 35.0363 55.6197 35.0197 55.7203 34.9769C55.7661 34.9437 55.807 34.9042 55.8415 34.8594C55.9482 34.9249 56.0695 34.9631 56.1945 34.9703C56.3194 34.9776 56.4443 34.9538 56.5578 34.9011C56.7175 34.7998 56.8481 34.6587 56.9368 34.4917C57.0202 34.3705 57.0354 34.3477 57.2552 34.3515C57.4679 34.3848 57.6851 34.3345 57.8616 34.2113C58.0579 34.008 58.1668 33.7359 58.1648 33.4533C58.359 33.3736 58.5238 33.2358 58.6365 33.0586C58.7491 32.8815 58.8041 32.6738 58.7939 32.4641C60.2038 32.6726 63.6527 33.1918 65.0549 33.5708V33.5594ZM59.37 18.3541C59.4496 18.1684 59.6277 18.2214 59.8096 18.3124C59.9916 18.4033 59.9953 18.5701 60.0257 18.7596C60.1924 19.7336 61.2991 18.3275 61.6175 18.8089C61.7638 19.0522 61.8139 19.3415 61.7577 19.6199C61.6839 19.7515 61.6016 19.8781 61.5113 19.9989C61.495 20.0186 61.4861 20.0434 61.4861 20.069C61.4861 20.0946 61.495 20.1194 61.5113 20.1391C61.807 20.4348 62.6256 19.9345 62.9364 20.2491C63.0613 20.3988 63.1403 20.5816 63.1639 20.7752C63.1874 20.9689 63.1545 21.1652 63.069 21.3406C62.9591 21.6172 62.7127 21.8598 62.7734 21.9886C62.834 22.1175 62.906 22.0834 62.9932 21.9886C63.0804 21.8939 63.9634 21.6362 64.1302 21.7385C64.1772 21.7767 64.2154 21.8245 64.2423 21.8788C64.2691 21.9331 64.2839 21.9925 64.2856 22.0531C64.3197 22.3866 64.1416 22.4624 64.0392 22.6102C63.9369 22.758 63.9975 22.8717 64.1416 22.8717C64.6191 22.8717 65.199 22.2009 65.6576 22.4359C65.775 22.4965 65.6576 22.8565 65.559 23.0006C65.4605 23.1446 65.3771 23.1976 65.415 23.3076C65.4908 23.5274 65.9153 23.3076 66.1199 23.1976C66.5406 22.974 66.931 22.7391 67.1963 23.137C67.3398 23.3772 67.3898 23.662 67.3365 23.9367C67.3176 24.0125 67.1356 24.2247 67.1205 24.3157C67.0902 24.4787 67.2835 24.5014 67.4426 24.4711C67.7724 24.4104 68.3977 24.0921 68.4091 24.2892C68.4091 24.5658 67.9619 25.195 67.9619 25.3503C67.9656 25.3859 67.9824 25.4187 68.009 25.4425C68.0357 25.4663 68.0702 25.4794 68.1059 25.4792C68.1438 25.4792 69.0117 25.4072 69.0647 25.4224C69.6598 25.5702 69.042 26.3244 69.3225 26.6048C69.5044 26.7905 69.8303 26.6048 70.107 26.5177C70.1373 26.5177 70.232 26.4873 70.2472 26.5177C70.3495 26.7261 69.8265 26.8967 69.6143 27.0141C69.402 27.1316 69.4096 27.3514 69.5461 27.3931C69.6114 27.4025 69.6778 27.4025 69.7431 27.3931C70.1221 27.5182 70.1752 27.9503 70.1638 28.3482C69.6294 28.3217 62.3527 28.0753 62.3262 28.0753C61.5273 25.0477 60.5258 22.0773 59.3283 19.1841C59.2952 18.907 59.3093 18.6264 59.37 18.3541ZM62.7544 30.861C61.9704 30.9495 61.1921 31.0836 60.4236 31.2627C60.2038 31.3195 60.0105 31.384 59.8513 31.4332C59.8362 31.4363 59.823 31.4451 59.8145 31.4579C59.8059 31.4707 59.8028 31.4864 59.8058 31.5015C59.8089 31.5165 59.8177 31.5298 59.8305 31.5383C59.8433 31.5469 59.859 31.55 59.8741 31.5469L60.2303 31.5204C60.8628 31.4616 61.4899 31.3552 62.1064 31.2021C62.3349 31.1377 62.5601 31.0618 62.781 30.9747C62.9376 31.619 63.0867 32.2797 63.2282 32.9568C62.6028 32.8507 59.5368 32.3921 58.7371 32.2822C58.7322 32.2138 58.7057 32.1487 58.6613 32.0965C58.7505 31.9218 58.8192 31.7374 58.8659 31.5469C59.0036 31.6891 59.1561 31.8162 59.3207 31.9259C59.4913 31.9979 59.7452 31.8615 59.6353 31.4674C59.4413 30.9883 59.1865 30.5361 58.8773 30.1219C58.8963 29.8604 58.9417 29.6027 58.9721 29.3298C59.0271 28.7848 58.9106 28.2362 58.6388 27.7606C58.367 27.285 57.9535 26.9061 57.4561 26.6768C56.9992 26.5053 56.5089 26.4417 56.0235 26.4911C55.9325 25.5777 55.8415 24.6378 55.7468 23.7207C55.9012 23.7224 56.0556 23.7148 56.2092 23.6979C56.9748 23.603 57.729 23.4316 58.4604 23.1863C58.4755 23.1833 58.4887 23.1744 58.4973 23.1616C58.5058 23.1488 58.5089 23.1331 58.5059 23.1181C58.5029 23.103 58.494 23.0897 58.4812 23.0812C58.4684 23.0727 58.4527 23.0696 58.4377 23.0726C57.522 23.1472 56.6164 23.3161 55.7354 23.5766C55.1063 17.3156 54.8599 15.5343 54.7349 13.1315C54.8805 12.7537 54.9772 12.3589 55.0229 11.9566C55.6034 12.8091 56.1106 13.7093 56.5389 14.6475C56.5654 14.7005 56.592 14.693 56.8762 14.7726C59.5216 19.5479 61.4583 25.4186 62.7544 30.8685V30.861ZM56.6905 14.5073C56.2318 13.5307 55.6783 12.6015 55.0381 11.733C55.0478 11.5835 55.0402 11.4335 55.0153 11.2858C55.0096 11.2674 54.9992 11.2509 54.9853 11.2376C54.9714 11.2244 54.9543 11.2149 54.9357 11.21C56.0462 10.9977 58.9379 10.4823 60.0749 10.5771C65.0853 10.9864 68.5152 12.3167 71.1682 16.5349C72.0133 17.8727 71.7139 20.2263 71.081 21.4164C71.0211 21.5341 70.9445 21.6426 70.8536 21.7385C70.4367 21.3595 68.3181 19.0855 67.924 18.6838L67.761 17.308C67.7577 17.2867 67.7498 17.2664 67.7378 17.2485C67.7258 17.2306 67.7101 17.2155 67.6917 17.2043C67.6733 17.1931 67.6526 17.1861 67.6312 17.1837C67.6098 17.1813 67.5881 17.1837 67.5677 17.1905L66.4307 17.6302L62.3148 15.9436C61.788 14.5262 61.8259 14.5603 61.7311 14.5414C61.6364 14.5224 61.6819 14.511 60.6548 15.5571L56.6905 14.5073Z" fill="url(#paint1_linear_353_7595)"/>
<defs>
<linearGradient id="paint0_linear_353_7595" x1="6.62254" y1="6.19235" x2="75.5547" y2="22.6185" gradientUnits="userSpaceOnUse">
<stop stop-color="#086158"/>
<stop offset="1" stop-color="#2DAB35"/>
</linearGradient>
<linearGradient id="paint1_linear_353_7595" x1="1.71" y1="2.71044" x2="80.1081" y2="23.2295" gradientUnits="userSpaceOnUse">
<stop stop-color="#086158"/>
<stop offset="1" stop-color="#2DAB35"/>
</linearGradient>
</defs>
</svg>
