<svg width="64" height="59" viewBox="0 0 64 59" fill="none" xmlns="http://www.w3.org/2000/svg">
<path fill-rule="evenodd" clip-rule="evenodd" d="M17.1824 9.15265C16.7699 9.15265 16.4356 8.81552 16.4356 8.39949C16.4356 7.98346 16.7699 7.64634 17.1824 7.64634C19.7995 7.64634 22.2958 8.09823 24.593 8.93029L28.3338 3.37127C28.092 3.0198 27.9427 2.5966 27.9427 2.13753C27.9427 1.54935 28.1774 1.01138 28.5614 0.624044C28.9454 0.236706 29.4717 0 30.062 0C30.6523 0 31.1786 0.236706 31.5626 0.624044C31.9467 1.01138 32.1814 1.54218 32.1814 2.13753C32.1814 2.73288 31.9467 3.26368 31.5626 3.65102C31.1786 4.03836 30.6523 4.27506 30.062 4.27506C29.8913 4.27506 29.7277 4.25354 29.5642 4.21768L26.0082 9.50412C28.4405 10.5872 30.6167 12.1079 32.4587 13.9657C33.3904 14.9053 34.2367 15.9311 34.9834 17.0357L43.1479 12.9902C43.5177 12.8108 43.9658 12.9615 44.1436 13.3345C44.3214 13.7075 44.172 14.1594 43.8022 14.3387L35.7871 18.3125C37.558 21.3538 38.6105 24.8829 38.7314 28.6487H46.398C46.5047 28.3617 46.6683 28.1035 46.8817 27.8955C47.2657 27.5082 47.792 27.2715 48.3823 27.2715C48.9726 27.2715 49.4988 27.5082 49.8829 27.8955C50.2669 28.2828 50.5016 28.8136 50.5016 29.409C50.5016 30.0043 50.2669 30.5351 49.8829 30.9225C49.4988 31.3098 48.9726 31.5465 48.3823 31.5465C47.792 31.5465 47.2657 31.3098 46.8817 30.9225C46.6683 30.7073 46.5047 30.4562 46.398 30.1693H38.7243C38.5963 33.9279 37.5224 37.4427 35.7373 40.484L43.7951 44.4793C44.1649 44.6586 44.3214 45.1105 44.1365 45.4835C43.9587 45.8565 43.5106 46.0143 43.1408 45.8278L34.9337 41.7608C34.1869 42.851 33.3477 43.8624 32.4232 44.7949C30.5741 46.6599 28.3978 48.1805 25.9798 49.278L29.5571 54.5931C29.7135 54.5573 29.8842 54.5357 30.0549 54.5357C30.6381 54.5357 31.1715 54.7725 31.5555 55.1598C31.9395 55.5471 32.1742 56.0779 32.1742 56.6733C32.1742 57.2686 31.9395 57.7994 31.5555 58.1868C31.1715 58.5741 30.6452 58.8108 30.0549 58.8108C29.4646 58.8108 28.9383 58.5741 28.5543 58.1868C28.1702 57.7994 27.9355 57.2686 27.9355 56.6733C27.9355 56.2142 28.0778 55.791 28.3267 55.4395L24.5716 49.8518C22.2674 50.6982 19.7711 51.1645 17.1752 51.1645C16.7628 51.1645 16.4285 50.8273 16.4285 50.4113C16.4285 49.9953 16.7628 49.6582 17.1752 49.6582C22.7154 49.6582 27.7364 47.3915 31.3706 43.7261C35.0048 40.0608 37.2521 35.0039 37.2521 29.409C37.2521 23.8141 35.0403 18.707 31.399 15.0416C27.8004 11.4121 22.8008 9.167 17.1752 9.167L17.1824 9.15265ZM30.5029 56.2142C30.3892 56.0994 30.2327 56.0349 30.062 56.0349C29.8913 56.0349 29.7349 56.1066 29.6211 56.2142C29.5073 56.329 29.4433 56.4868 29.4433 56.6589C29.4433 56.8311 29.5144 56.9889 29.6211 57.1037C29.7349 57.2184 29.8913 57.283 30.062 57.283C30.2327 57.283 30.3892 57.2112 30.5029 57.1037C30.6167 56.9961 30.6807 56.8311 30.6807 56.6589C30.6807 56.4868 30.6096 56.329 30.5029 56.2142ZM48.8303 28.9499C48.7165 28.8352 48.5601 28.7706 48.3894 28.7706C48.2187 28.7706 48.0622 28.8423 47.9484 28.9499C47.8346 29.0647 47.7635 29.2225 47.7635 29.3946C47.7635 29.5668 47.8346 29.7246 47.9484 29.8394C48.0622 29.9541 48.2187 30.0187 48.3894 30.0187C48.5601 30.0187 48.7165 29.947 48.8303 29.8394C48.9441 29.7318 49.0081 29.5668 49.0081 29.3946C49.0081 29.2225 48.937 29.0647 48.8303 28.9499ZM30.5029 1.69281C30.3892 1.57804 30.2327 1.51349 30.062 1.51349C29.8913 1.51349 29.7349 1.58522 29.6211 1.69281C29.5073 1.80758 29.4433 1.96538 29.4433 2.13753C29.4433 2.30968 29.5144 2.46749 29.6211 2.58225C29.7349 2.69702 29.8913 2.76158 30.062 2.76158C30.2327 2.76158 30.3892 2.68985 30.5029 2.58225C30.6167 2.47466 30.6807 2.30968 30.6807 2.13753C30.6807 1.96538 30.6096 1.80758 30.5029 1.69281ZM20.2618 30.4562L21.5562 37.9017L17.1824 42.3131L12.8014 37.8946L14.1598 30.4419C12.4387 30.779 10.8172 31.4031 9.34504 32.2566C7.08345 33.5693 5.18458 35.4414 3.81198 37.6794C4.45916 38.7338 5.22014 39.7093 6.08068 40.5772C8.91832 43.4392 12.837 45.2109 17.1681 45.2109C21.4993 45.2109 25.4179 43.4392 28.2556 40.5772C29.1232 39.7021 29.8842 38.7338 30.5243 37.6794C29.1588 35.4414 27.2528 33.5693 24.9912 32.2566C23.5404 31.4102 21.9402 30.7934 20.2405 30.4562H20.2618ZM15.7244 30.2195L14.4158 37.3853L17.1824 40.1755L19.9489 37.3853L18.7043 30.2267C18.2065 30.1765 17.7015 30.155 17.1895 30.155C16.6774 30.155 16.2151 30.1765 15.7315 30.2195H15.7244ZM55.039 4.46873C55.7929 4.46873 56.4756 4.77717 56.9663 5.2721C57.4571 5.76703 57.7629 6.45563 57.7629 7.21596C57.7629 7.97629 57.4571 8.66489 56.9663 9.15982C56.4756 9.65476 55.7929 9.96319 55.039 9.96319C54.2851 9.96319 53.6024 9.65476 53.1117 9.15982C52.621 8.66489 52.3151 7.97629 52.3151 7.21596C52.3151 6.45563 52.621 5.76703 53.1117 5.2721C53.6024 4.77717 54.2851 4.46873 55.039 4.46873ZM55.9067 6.34087C55.6862 6.1185 55.3804 5.97505 55.039 5.97505C54.6976 5.97505 54.3918 6.11133 54.1714 6.34087C53.9509 6.56323 53.8087 6.87166 53.8087 7.21596C53.8087 7.56026 53.9438 7.8687 54.1714 8.09106C54.3918 8.31342 54.6976 8.45688 55.039 8.45688C55.3804 8.45688 55.6862 8.32059 55.9067 8.09106C56.1271 7.86152 56.2694 7.56026 56.2694 7.21596C56.2694 6.87166 56.1342 6.56323 55.9067 6.34087ZM48.048 13.4277C48.745 12.5526 49.5984 11.8138 50.5727 11.2471C51.8955 10.4796 53.4175 10.0421 55.0461 10.0421C56.6747 10.0421 58.1967 10.4796 59.5195 11.2471C60.4938 11.8138 61.3473 12.5526 62.0442 13.4277C62.35 12.61 62.5136 11.7206 62.5136 10.7953C62.5136 8.7151 61.6815 6.8358 60.3303 5.47294C58.979 4.11009 57.1157 3.27085 55.0532 3.27085C52.9908 3.27085 51.1275 4.11009 49.7762 5.47294C48.4249 6.8358 47.5928 8.7151 47.5928 10.7953C47.5928 11.7206 47.7564 12.61 48.0622 13.4277H48.048ZM61.2761 14.934C60.6361 13.9585 59.7755 13.1336 58.7728 12.5526C57.6775 11.9142 56.4045 11.5484 55.0461 11.5484C53.6877 11.5484 52.4076 11.9142 51.3195 12.5526C50.3096 13.1408 49.4562 13.9585 48.8161 14.934C49.0935 15.3572 49.4135 15.7589 49.7762 16.1176C51.1275 17.4804 52.9908 18.3196 55.0532 18.3196C57.1157 18.3196 58.979 17.4804 60.3303 16.1176C60.6859 15.7589 61.0059 15.3644 61.2904 14.934H61.2761ZM55.039 1.75019C52.5641 1.75019 50.3238 2.76158 48.7023 4.397C47.0808 6.03243 46.078 8.2919 46.078 10.7881C46.078 13.2843 47.0808 15.5437 48.7023 17.1792C50.3238 18.8146 52.5641 19.826 55.039 19.826C57.5139 19.826 59.7542 18.8146 61.3757 17.1792C62.9972 15.5437 64 13.2843 64 10.7881C64 8.2919 62.9972 6.03243 61.3757 4.397C59.7542 2.76158 57.5139 1.75019 55.039 1.75019ZM55.039 40.4553C55.7929 40.4553 56.4756 40.7637 56.9663 41.2587C57.4571 41.7536 57.7629 42.4422 57.7629 43.2025C57.7629 43.9629 57.4571 44.6515 56.9663 45.1464C56.4756 45.6413 55.7929 45.9498 55.039 45.9498C54.2851 45.9498 53.6024 45.6413 53.1117 45.1464C52.621 44.6515 52.3151 43.9629 52.3151 43.2025C52.3151 42.4422 52.621 41.7536 53.1117 41.2587C53.6024 40.7637 54.2851 40.4553 55.039 40.4553ZM55.9067 42.3346C55.6862 42.1122 55.3804 41.9688 55.039 41.9688C54.6976 41.9688 54.3918 42.1051 54.1714 42.3346C53.9509 42.557 53.8087 42.8654 53.8087 43.2097C53.8087 43.554 53.9438 43.8624 54.1714 44.0848C54.3918 44.3072 54.6976 44.4506 55.039 44.4506C55.3804 44.4506 55.6862 44.3143 55.9067 44.0848C56.1271 43.8553 56.2694 43.554 56.2694 43.2097C56.2694 42.8654 56.1342 42.557 55.9067 42.3346ZM48.048 49.4143C48.745 48.5392 49.5984 47.8004 50.5727 47.2337C51.8955 46.4662 53.4175 46.0287 55.0461 46.0287C56.6747 46.0287 58.1967 46.4662 59.5195 47.2337C60.4938 47.8004 61.3473 48.5392 62.0442 49.4143C62.35 48.5966 62.5136 47.7071 62.5136 46.7818C62.5136 44.7017 61.6815 42.8224 60.3303 41.4595C58.979 40.0966 57.1157 39.2574 55.0532 39.2574C52.9908 39.2574 51.1275 40.0966 49.7762 41.4595C48.4249 42.8224 47.5928 44.7017 47.5928 46.7818C47.5928 47.7071 47.7564 48.5966 48.0622 49.4143H48.048ZM61.2761 50.9206C60.6361 49.9451 59.7755 49.1202 58.7728 48.5392C57.6775 47.9008 56.4045 47.535 55.0461 47.535C53.6877 47.535 52.4076 47.9008 51.3195 48.5392C50.3096 49.1274 49.4562 49.9451 48.8161 50.9206C49.0935 51.3438 49.4135 51.7455 49.7762 52.1041C51.1275 53.467 52.9908 54.3062 55.0532 54.3062C57.1157 54.3062 58.979 53.467 60.3303 52.1041C60.6859 51.7455 61.0059 51.351 61.2904 50.9206H61.2761ZM55.039 37.7368C52.5641 37.7368 50.3238 38.7481 48.7023 40.3836C47.0808 42.019 46.078 44.2785 46.078 46.7746C46.078 49.2708 47.0808 51.5303 48.7023 53.1657C50.3238 54.8011 52.5641 55.8125 55.039 55.8125C57.5139 55.8125 59.7542 54.8011 61.3757 53.1657C62.9972 51.5303 64 49.2708 64 46.7746C64 44.2785 62.9972 42.019 61.3757 40.3836C59.7542 38.7481 57.5139 37.7368 55.039 37.7368ZM17.1824 17.5091C15.8809 17.5091 14.7074 18.0399 13.854 18.9007C13.0006 19.7614 12.4743 20.9449 12.4743 22.2576C12.4743 23.5702 13.0006 24.7538 13.854 25.6145C14.7074 26.4753 15.8809 27.0061 17.1824 27.0061C18.4838 27.0061 19.6573 26.4753 20.5107 25.6145C21.3642 24.7538 21.8904 23.5702 21.8904 22.2576C21.8904 20.9449 21.3642 19.7614 20.5107 18.9007C19.6573 18.0399 18.4838 17.5091 17.1824 17.5091ZM19.4511 19.9622C18.8679 19.3741 18.0713 19.0154 17.1824 19.0154C16.2934 19.0154 15.4968 19.3741 14.9137 19.9622C14.3305 20.5504 13.9749 21.3538 13.9749 22.2504C13.9749 23.147 14.3305 23.9504 14.9137 24.5386C15.4968 25.1268 16.2934 25.4854 17.1824 25.4854C18.0713 25.4854 18.8679 25.1268 19.4511 24.5386C20.0342 23.9504 20.3898 23.147 20.3898 22.2504C20.3898 21.3538 20.0342 20.5504 19.4511 19.9622ZM3.00833 36.1731C4.45916 34.0427 6.37226 32.2495 8.6054 30.9512C11.1301 29.4807 14.0602 28.6415 17.1824 28.6415C20.3045 28.6415 23.2275 29.4807 25.7593 30.9512C27.9924 32.2495 29.9055 34.0427 31.3564 36.1731C32.3236 34.1216 32.8641 31.8191 32.8641 29.3946C32.8641 25.0263 31.1075 21.0741 28.2698 18.2121C25.4322 15.3501 21.5135 13.5783 17.1824 13.5783C12.8512 13.5783 8.93255 15.3501 6.0949 18.2121C3.25725 21.0741 1.50061 25.0263 1.50061 29.3946C1.50061 31.8191 2.04112 34.1144 3.00833 36.1731ZM17.1824 12.0649C12.4387 12.0649 8.14313 14.0015 5.03523 17.1433C1.92733 20.2779 0 24.6103 0 29.3946C0 34.179 1.92021 38.5114 5.03523 41.646C8.14313 44.7806 12.4387 46.7244 17.1824 46.7244C21.926 46.7244 26.2216 44.7877 29.3295 41.646C32.4374 38.5043 34.3647 34.179 34.3647 29.3946C34.3647 24.6103 32.4445 20.2779 29.3295 17.1433C26.2216 14.0087 21.926 12.0649 17.1824 12.0649Z" fill="url(#paint0_linear_353_7546)"/>
<defs>
<linearGradient id="paint0_linear_353_7546" x1="1.52" y1="2.51589" x2="71.5798" y2="20.0756" gradientUnits="userSpaceOnUse">
<stop stop-color="#086158"/>
<stop offset="1" stop-color="#2DAB35"/>
</linearGradient>
</defs>
</svg>
