<svg width="70" height="68" viewBox="0 0 70 68" fill="none" xmlns="http://www.w3.org/2000/svg">
<path d="M69.164 2.85324C69.1367 2.17248 69.0859 1.49208 69.0391 0.811678C69.0391 0.0171584 68.3811 -0.149882 68.0261 0.174118C65.4366 2.6106 61.0327 6.432 58.6391 8.52612C58.5501 8.60465 58.487 8.70826 58.4581 8.82332C58.4291 8.93839 58.4356 9.05952 58.4768 9.1708C58.518 9.28209 58.5919 9.37831 58.6887 9.44681C58.7856 9.51532 58.901 9.55291 59.0196 9.55464C59.0034 9.61476 58.9883 9.6756 58.975 9.73752C54.8332 11.295 50.6114 12.6306 46.3274 13.7389C45.4397 13.9708 43.0633 14.5457 42.7656 14.618C42.8501 14.379 43.0167 14.1778 43.2358 14.0503C44.2884 13.3148 44.5404 13.4383 45.0387 12.9242C45.1508 12.8059 45.2182 12.6521 45.229 12.4894C45.2399 12.3268 45.1935 12.1654 45.0981 12.0332C44.8882 11.8003 44.4774 11.7622 44.3993 11.4842C44.2398 10.9111 45.2345 10.0442 45.1827 9.27168C45.1236 8.39256 43.9947 7.20096 42.2785 6.9522C41.3012 6.79688 40.3036 6.82349 39.3359 7.03068C38.6093 7.18091 37.9446 7.54587 37.4279 8.07828C37.0215 8.50056 36.4112 8.9934 36.206 9.55428C36.0836 9.87828 36.0426 10.2523 35.7741 10.437C35.6668 10.4947 35.5487 10.5294 35.4273 10.5391C35.3059 10.5488 35.1838 10.5331 35.0688 10.4932C33.8376 10.1825 33.0935 8.91636 31.9166 8.367C31.3929 8.13021 30.8135 8.0445 30.2436 8.11957C29.6738 8.19463 29.1363 8.42746 28.6918 8.7918C28.4885 9.01846 28.2347 9.19398 27.9509 9.30408C27.7762 9.33486 27.5969 9.32687 27.4256 9.28068C26.0908 8.93796 25.1883 8.06784 23.9031 7.8882C23.3054 7.80699 22.6969 7.87194 22.1299 8.07747C21.5628 8.28301 21.0541 8.62299 20.6472 9.06828C20.4476 9.26418 20.2956 9.50327 20.2028 9.76714C20.1101 10.031 20.0791 10.3126 20.1122 10.5904C20.2922 11.3435 21.1048 11.7182 21.4464 11.8446C22.0224 12.0577 22.6625 12.2107 23.1298 12.6233C23.205 12.6792 23.2617 12.7565 23.2925 12.845C23.3584 13.0517 23.1309 13.241 22.9239 13.2893C22.6902 13.3078 22.458 13.3407 22.2283 13.3876C22.2229 13.3886 22.2179 13.3915 22.2143 13.3956C22.2106 13.3998 22.2084 13.4051 22.208 13.4106C22.2077 13.4162 22.2091 13.4217 22.2122 13.4263C22.2153 13.4309 22.2198 13.4344 22.2251 13.4362C22.7645 13.6301 23.3394 13.7054 23.9106 13.6568C24.1958 13.6233 24.4637 13.5026 24.6777 13.3111C24.8917 13.1196 25.0413 12.8667 25.1062 12.5869C25.1258 12.4205 25.1336 12.2529 25.1296 12.0854C25.1951 11.5094 25.5785 11.6336 26.0515 11.9702C26.5759 12.3496 27.1818 12.601 27.8207 12.7043C28.4596 12.8077 29.1138 12.7602 29.7311 12.5657C30.216 12.4105 30.5037 11.9098 31.0141 11.9098C31.1391 11.9099 31.2615 11.9452 31.3673 12.0116C31.4732 12.078 31.5583 12.1728 31.6128 12.2852C31.6525 12.445 31.7005 12.6025 31.7568 12.7572C30.4855 12.862 29.2384 13.1649 28.0607 13.655C27.4142 13.927 26.8393 14.3447 26.3809 14.8754C25.9193 14.7663 25.4386 14.7663 24.9769 14.8754C23.8249 15.1696 23.4584 16.1974 23.282 16.9652C23.2806 16.9878 23.2855 17.0103 23.2962 17.0302C23.3069 17.0501 23.323 17.0666 23.3426 17.0778C23.3622 17.0891 23.3845 17.0946 23.4071 17.0938C23.4297 17.093 23.4516 17.0859 23.4703 17.0732C24.1606 16.5782 24.9238 16.1939 25.7326 15.9342C25.4121 16.7726 25.3855 17.6948 25.657 18.5503C24.947 18.7368 24.1745 18.9038 23.7364 19.5018C23.3647 20.0341 23.1505 20.6603 23.1183 21.3086C22.9978 23.0019 23.2199 24.7021 23.7713 26.3076C23.7758 26.3216 23.7823 26.3348 23.7907 26.3468C23.3439 26.5895 22.9112 26.8573 22.4947 27.1489C22.2127 27.2982 21.9274 27.4422 21.6386 27.5809C21.6397 27.5728 21.6397 27.5646 21.6386 27.5564C21.6303 27.4463 21.5876 27.3415 21.5166 27.2569C21.4455 27.1723 21.3497 27.1121 21.2426 27.0848C20.9185 27.0017 20.5855 26.9576 20.2508 26.9534C18.1711 26.7504 18.2222 26.7374 17.9058 26.7374C17.7739 26.7221 17.6403 26.7411 17.518 26.7927C17.3957 26.8443 17.2888 26.9267 17.2078 27.0319C17.1817 27.0769 17.1658 27.127 17.1612 27.1788C17.1566 27.2305 17.1634 27.2827 17.1812 27.3315C17.1989 27.3804 17.2272 27.4247 17.2639 27.4615C17.3007 27.4982 17.345 27.5265 17.3939 27.5442C18.3619 28.1587 18.6334 27.982 19.3559 28.4935C14.1146 30.2107 9.41629 29.3766 9.00949 29.459C8.935 29.4933 8.86617 29.5387 8.80537 29.5937C8.49799 29.3438 8.17383 29.1152 7.83517 28.9097C7.71675 28.8393 7.5796 28.807 7.44222 28.817C7.30485 28.8271 7.17386 28.879 7.06693 28.9658C6.80125 29.1617 6.59893 29.4058 6.35521 29.6059C5.35765 30.4253 4.13113 30.7849 4.10089 31.412C4.08397 31.762 4.37089 31.7825 4.49689 31.7915C5.60461 31.8476 6.39553 31.4059 7.95685 31.3746C8.05621 31.3724 8.07133 31.3768 8.10085 31.3631C8.14225 32.1706 8.91049 32.5356 9.67513 32.7772C15.3228 34.5714 22.2312 34.5178 29.321 31.9088C29.6049 31.7738 29.8961 31.6549 30.1933 31.5528C29.0413 33.1105 28.9607 33.1814 28.7814 33.5749C28.0319 33.2927 27.8234 33.1706 27.516 33.0504C26.6467 33.3923 25.7503 33.6606 24.8362 33.8525C24.0261 34.024 23.2057 34.1423 22.3802 34.2067C22.6866 34.5253 22.5113 34.4108 25.4255 37.2048C26.1355 37.9782 26.9679 38.6297 27.8893 39.133C28.5319 39.4647 29.2399 39.6503 29.9626 39.6766C30.6397 39.6368 31.2924 39.4093 31.8475 39.0196C32.9529 38.2608 33.9465 37.351 34.7995 36.3167C36.5409 34.2139 36.7543 34.175 38.0352 31.7713C38.3232 31.9513 40.9041 31.5859 42.3106 28.054C42.6708 27.0911 42.9819 26.1105 43.2426 25.116C43.7848 23.3707 44.1585 21.5775 44.3586 19.761C46.3804 19.2678 47.5302 18.5978 50.7738 17.0297C52.8829 16.0211 54.9057 14.8412 56.8218 13.5017C57.8711 12.7414 58.8427 11.8795 59.7227 10.9284C59.738 10.9049 59.7457 10.8772 59.7447 10.8492C60.024 10.7371 60.2677 10.5513 60.4498 10.3117C60.632 10.0721 60.7457 9.78755 60.7789 9.4884C60.916 9.48838 61.0529 9.49813 61.1886 9.51756C59.3379 13.7404 55.1601 19.262 52.3067 23.1212C43.8107 34.5984 31.4213 49.0384 18.9052 55.7837C18.5963 55.9478 15.8621 57.5318 15.6745 57.3482L17.2114 58.9124C14.0017 61.0648 10.3671 62.5027 6.55357 63.1287C6.52117 63.1313 6.4907 63.1452 6.46753 63.168C6.46061 63.182 6.45701 63.1974 6.45701 63.213C6.45701 63.2286 6.46061 63.244 6.46753 63.258C6.57553 63.807 6.93553 63.8927 8.69665 65.418C6.58489 66.6294 4.28485 67.3998 0.800049 67.8066V67.8811C5.39977 68.366 9.74497 67.0088 11.861 65.7963C11.1101 65.1433 10.1165 64.7326 9.36157 64.0756C11.8218 63.4693 17.6027 61.9123 21.0054 59.6558C20.4971 59.1396 19.2533 58.3534 18.7406 57.8371C18.9167 58.0326 22.2373 56.202 22.5894 56.0184C30.2121 51.9896 36.7928 46.9241 43.3463 40.5416C45.4426 38.504 47.5223 36.5014 49.4789 34.3464C52.1134 31.4434 58.0721 24.356 63.3911 16.9843C64.5654 15.4371 65.6368 13.8145 66.5983 12.1268C66.684 11.9555 66.8014 11.9782 66.8723 12.1502C67.0325 12.5412 67.1733 12.8933 67.3065 13.2662C67.3512 13.3869 67.4341 13.4897 67.5426 13.559C67.6511 13.6283 67.7792 13.6602 67.9075 13.65C68.0358 13.6399 68.1573 13.5881 68.2535 13.5026C68.3497 13.417 68.4153 13.3025 68.4405 13.1762C69.0565 9.77182 69.2992 6.31032 69.164 2.85324ZM8.10481 31.1633C7.35366 31.1329 6.60214 31.2137 5.87461 31.403C5.42467 31.4903 4.96779 31.5369 4.50949 31.5424C4.33669 31.524 4.39825 31.3336 4.46809 31.2475C4.89469 30.7892 5.20645 30.8281 6.65545 29.7172C6.91429 29.4922 7.25233 29.0108 7.58245 29.1052C7.76884 29.1838 7.94153 29.2915 8.09401 29.4245L8.64085 29.8072C8.37232 30.2183 8.18997 30.6796 8.10481 31.1633ZM19.5528 28.4302C19.4453 28.2528 19.2777 28.1201 19.0805 28.0561C18.5517 27.8714 18.0431 27.6332 17.5627 27.3451C17.5138 27.312 17.4576 27.2616 17.4677 27.2083C17.481 27.1363 17.5948 27.0539 17.71 27.0283C17.9332 26.9945 17.9425 27.0121 20.7926 27.2936C21.0763 27.3214 21.3546 27.3656 21.3726 27.5654C21.3724 27.5883 21.3784 27.6108 21.39 27.6306C21.4015 27.6503 21.4181 27.6666 21.4381 27.6778C20.824 27.9627 20.1947 28.2139 19.5532 28.4302H19.5528ZM40.6308 10.262C41.0148 10.0824 41.3894 9.88343 41.7533 9.66588C41.8908 9.59874 42.0437 9.56977 42.1962 9.582C42.3487 9.59422 42.4951 9.64718 42.6202 9.73536C42.5756 9.7528 42.5361 9.78099 42.505 9.81742C42.474 9.85385 42.4525 9.89739 42.4423 9.94416C42.4417 9.96898 42.4496 9.99327 42.4648 10.0129C42.48 10.0326 42.5015 10.0464 42.5257 10.0521C42.5498 10.0577 42.5752 10.0549 42.5976 10.044C42.6199 10.0332 42.6378 10.0149 42.6483 9.9924C42.6579 9.97296 42.6738 9.95732 42.6934 9.94798C42.7129 9.93865 42.7351 9.93616 42.7562 9.94092C42.8188 9.95976 42.8757 9.99377 42.9218 10.0399C42.9557 10.0743 42.9989 10.098 43.046 10.1083C43.0643 10.1093 43.0826 10.1057 43.0991 10.0978C43.1156 10.0899 43.1299 10.0781 43.1407 10.0633L43.1987 10.0766C43.5184 10.6766 43.7181 11.3331 43.7866 12.0095C43.8071 12.2956 43.7663 12.5827 43.667 12.8518C43.5676 13.1208 43.412 13.3656 43.2106 13.5697C42.7098 14.0071 42.2854 13.9553 42.0507 14.3617C41.8635 14.6378 42.1893 14.4902 41.5081 14.4953C40.8979 14.5028 40.2968 14.3464 39.7675 14.0424C39.8917 13.9717 40.0234 13.9153 40.1603 13.8743C40.3569 13.8122 40.5267 13.6853 40.642 13.5143C40.7135 13.3403 40.7192 13.1462 40.6581 12.9683C40.5969 12.7904 40.4731 12.6409 40.3097 12.5477C40.1979 12.4865 40.0988 12.4045 40.0177 12.3061C39.6649 11.7478 40.3659 10.8755 39.8831 10.2541C40.0003 10.3076 40.1274 10.336 40.2563 10.3373C40.3851 10.3387 40.5128 10.313 40.6312 10.262H40.6308ZM38.5399 11.8363C38.7534 11.7622 39.1962 12.0656 39.3078 12.2348C39.4619 12.4667 39.9447 13.0733 39.9454 13.3069C39.9336 13.368 39.909 13.4259 39.8734 13.4769C39.8377 13.5279 39.7917 13.5708 39.7384 13.6028C39.6477 13.6568 39.5593 13.7146 39.4734 13.776C39.3955 13.6861 39.3253 13.5897 39.2635 13.488C39.3705 13.3786 39.4474 13.2435 39.4867 13.0956C39.4877 13.0918 39.4878 13.0878 39.487 13.084C39.4863 13.0802 39.4846 13.0766 39.4822 13.0735C39.4798 13.0704 39.4767 13.0679 39.4732 13.0661C39.4697 13.0644 39.4658 13.0635 39.4619 13.0636C38.5698 13.0632 38.1997 11.9537 38.5403 11.8363H38.5399ZM32.1161 12.9934C32.5438 13.1014 32.588 12.7748 35.8622 13.0366C36.7759 13.2688 37.7724 13.7504 38.536 13.7548C38.4712 13.9852 38.3891 14.5558 38.1259 15.4684C37.0519 15.2049 35.9411 15.124 34.8402 15.229C34.8245 15.2122 34.804 15.2007 34.7816 15.1958C34.7592 15.1909 34.7358 15.1929 34.7145 15.2016C34.6933 15.2102 34.6751 15.2251 34.6625 15.2442C34.6498 15.2634 34.6433 15.2859 34.6437 15.3089C34.6486 15.491 34.6653 15.6725 34.6937 15.8525C34.2634 15.5867 33.876 15.2571 33.5446 14.8751C33.5215 14.858 33.4934 14.8492 33.4647 14.8501C33.436 14.851 33.4085 14.8616 33.3865 14.8801C32.8816 15.3398 32.2825 15.6837 31.6309 15.8879C30.9793 16.092 30.291 16.1514 29.6141 16.062C29.5926 16.062 29.5714 16.0677 29.5527 16.0784C29.534 16.0892 29.5185 16.1046 29.5076 16.1231C29.4967 16.1417 29.4908 16.1628 29.4905 16.1844C29.4903 16.2059 29.4956 16.2271 29.5061 16.246C29.9014 16.8 30.4082 17.2652 30.994 17.6118C31.0465 17.7652 31.0936 17.9201 31.1351 18.0766C31.1351 18.0766 30.8385 18.0938 30.7143 18.0992C30.6927 18.1025 30.6725 18.1118 30.6559 18.1259C30.6393 18.14 30.627 18.1585 30.6203 18.1792C30.6136 18.2 30.6128 18.2222 30.618 18.2433C30.6232 18.2645 30.6343 18.2838 30.6498 18.299C31.9843 20.0915 32.2792 21.5311 32.7378 22.8192C32.7706 22.9116 32.7814 23.0103 32.7694 23.1076C32.7574 23.2049 32.7229 23.2981 32.6687 23.3797C32.5055 23.6988 32.2363 23.9511 31.9073 24.0932C31.7608 24.1238 31.5397 23.9852 31.4292 23.9237C30.3475 23.4156 29.3351 22.7716 28.4164 22.0074C27.5423 21.2925 26.8186 20.4116 26.287 19.4154C25.987 18.8748 25.8102 18.2745 25.7692 17.6576C25.7282 17.0407 25.824 16.4223 26.0497 15.8467C26.3525 15.772 26.661 15.7233 26.972 15.7013C27.4814 15.7964 27.9683 15.9868 28.407 16.2625C28.4311 16.2767 28.4594 16.2815 28.4868 16.2762C28.5142 16.2709 28.5387 16.2558 28.5557 16.2337C28.5727 16.2116 28.5811 16.184 28.5792 16.1562C28.5774 16.1283 28.5654 16.1022 28.5456 16.0825C28.1136 15.4864 27.4706 15.1688 26.6171 14.9334C27.948 13.5802 30.225 13.1514 32.1161 12.9934ZM39.292 17.4466L40.228 18.8628C40.1128 19.1698 39.9913 19.4747 39.8637 19.7776C39.5504 19.0244 39.1067 18.3324 38.5529 17.7335C38.7207 17.1935 38.8877 16.6438 39.0231 16.093C39.4776 16.5894 39.848 17.1568 40.1196 17.7727C40.2996 18.1651 40.2636 18.19 40.377 18.4538L40.336 18.569L39.5022 17.309C39.4931 17.2952 39.4813 17.2834 39.4676 17.2741C39.4539 17.2648 39.4385 17.2584 39.4223 17.2551C39.4061 17.2517 39.3894 17.2517 39.3731 17.2548C39.3569 17.258 39.3414 17.2643 39.3276 17.2734C39.3138 17.2825 39.3019 17.2943 39.2927 17.308C39.2834 17.3217 39.2769 17.3371 39.2736 17.3533C39.2703 17.3695 39.2702 17.3862 39.2734 17.4025C39.2765 17.4187 39.2828 17.4342 39.292 17.448V17.4466ZM37.9438 20.9454L38.6515 22.25C38.192 23.0973 37.6829 23.9168 37.1269 24.7042L36.4217 23.1562C36.5878 22.8425 36.7462 22.5248 36.8969 22.2032L37.3717 23.0543C37.388 23.0835 37.4152 23.105 37.4474 23.1142C37.4796 23.1233 37.5141 23.1193 37.5433 23.1031C37.5725 23.0868 37.594 23.0596 37.6032 23.0274C37.6123 22.9952 37.6083 22.9607 37.592 22.9315C37.1305 22.1057 37.0603 21.9624 37.0258 21.9235C37.3498 21.2035 37.699 20.2988 37.9423 19.6109L38.6155 20.9274C38.6229 20.9424 38.6332 20.9557 38.6458 20.9667C38.6584 20.9777 38.6731 20.986 38.6889 20.9913C38.7048 20.9965 38.7215 20.9986 38.7382 20.9973C38.7549 20.996 38.7711 20.9914 38.786 20.9838C38.8008 20.9762 38.814 20.9657 38.8248 20.9529C38.8356 20.9402 38.8437 20.9254 38.8487 20.9095C38.8537 20.8935 38.8555 20.8767 38.854 20.8601C38.8525 20.8435 38.8476 20.8273 38.8398 20.8126L38.0568 19.2815C38.1072 19.1336 38.1569 18.9847 38.2058 18.8347L38.7988 19.8787C38.8069 19.8931 38.8179 19.9058 38.8309 19.9159C38.844 19.9261 38.859 19.9336 38.8749 19.938C38.8909 19.9424 38.9075 19.9436 38.924 19.9415C38.9404 19.9395 38.9563 19.9342 38.9707 19.9261C38.9851 19.9179 38.9977 19.9069 39.0079 19.8939C39.018 19.8808 39.0255 19.8659 39.0299 19.8499C39.0343 19.8339 39.0355 19.8173 39.0335 19.8008C39.0315 19.7844 39.0262 19.7686 39.018 19.7542L38.312 18.5082C38.3282 18.4567 38.4668 18.0128 38.4668 18.0128C39.0067 18.6264 39.4342 19.3303 39.7297 20.0922C39.4468 20.7373 39.1362 21.3696 38.7981 21.989L38.1652 20.8241C38.1575 20.8092 38.1469 20.796 38.134 20.7852C38.1212 20.7744 38.1063 20.7664 38.0902 20.7614C38.0742 20.7565 38.0574 20.7548 38.0407 20.7565C38.024 20.7581 38.0078 20.7631 37.9931 20.7711C37.9783 20.7791 37.9653 20.79 37.9549 20.8031C37.9444 20.8162 37.9366 20.8312 37.932 20.8474C37.9274 20.8635 37.9261 20.8804 37.9281 20.897C37.9301 20.9137 37.9355 20.9298 37.9438 20.9443V20.9454ZM34.2581 23.7401C34.2751 23.7211 34.2913 23.701 34.3067 23.6796C34.3384 23.6142 34.3487 23.5404 34.3361 23.4688C34.3235 23.3972 34.2886 23.3314 34.2365 23.2807C34.1747 23.238 34.1029 23.2118 34.0281 23.2047C33.9533 23.1975 33.8779 23.2097 33.8092 23.24C33.6969 23.2673 33.582 23.2821 33.4664 23.2843C33.512 23.2469 33.5497 23.2009 33.5774 23.1488C33.6052 23.0968 33.6224 23.0399 33.6281 22.9812C33.6162 22.913 33.581 22.851 33.5284 22.8058C33.4759 22.7606 33.4093 22.7351 33.3401 22.7335C33.462 22.3529 33.5772 21.97 33.6857 21.5848C34.207 21.9088 34.2617 21.952 34.6904 22.2576C34.8106 22.3694 34.9483 22.4607 35.098 22.528C34.7329 23.4838 34.73 23.4956 34.441 24.1228C34.4287 24.1519 34.3546 24.3647 34.3279 24.4255C34.2851 24.4002 34.2448 24.3708 34.2077 24.3377C34.2016 24.3111 34.1916 24.2855 34.1782 24.2617C34.4759 24.0828 34.4241 23.8074 34.2581 23.7401ZM33.9168 24.4241L33.9125 24.4284C33.7018 24.521 33.4719 24.5611 33.2423 24.5455C33.0127 24.5299 32.7904 24.459 32.5942 24.3388C32.4953 24.2964 32.4035 24.2393 32.3216 24.1696C32.447 24.0782 32.5583 23.969 32.6521 23.8456C32.8192 23.6661 32.9379 23.447 32.997 23.2091C33.0841 23.0921 33.2088 23.0087 33.3502 22.9729C33.3311 23.0089 33.3862 23.0046 33.2584 23.1115C33.1749 23.1719 33.1163 23.2606 33.0935 23.361C33.0893 23.3788 33.0891 23.3973 33.0928 23.4152C33.0966 23.4331 33.1042 23.4499 33.1152 23.4645C33.1262 23.4791 33.1403 23.4911 33.1564 23.4997C33.1726 23.5082 33.1904 23.5131 33.2087 23.514C33.4456 23.5361 33.6846 23.515 33.9139 23.4517C33.9813 23.4492 34.1087 23.4157 34.0489 23.5367C34.0062 23.6123 33.941 23.6728 33.8624 23.7098C33.8435 23.7114 33.8253 23.7176 33.8094 23.728C33.7935 23.7384 33.7804 23.7525 33.7714 23.7692C33.7623 23.7859 33.7576 23.8046 33.7576 23.8236C33.7576 23.8426 33.7623 23.8613 33.7714 23.878C33.7714 24.036 34.0468 23.9525 34.1364 23.9654C34.0787 24.0363 33.9997 24.0868 33.911 24.1094C33.7537 24.1166 33.7138 24.2264 33.7545 24.3035C33.7887 24.3701 33.884 24.3902 33.9168 24.4262V24.4241ZM33.371 20.4378C33.281 20.4108 32.0081 20.1466 31.9721 20.139C31.8266 19.8349 31.6692 19.5365 31.4998 19.2437C31.5129 19.089 31.5072 18.9333 31.4829 18.78C31.7575 18.816 32.0383 18.8434 32.3108 18.8686C32.907 18.9236 33.3729 18.9787 34.0234 19.0601C33.997 19.187 33.9702 19.3134 33.9431 19.4392C33.5785 19.3662 33.2103 19.3125 32.8401 19.2782C32.8176 19.2764 32.7953 19.283 32.7775 19.2968C32.7597 19.3106 32.7477 19.3305 32.7439 19.3527C32.7401 19.375 32.7447 19.3978 32.7569 19.4167C32.7692 19.4356 32.788 19.4493 32.8098 19.455C32.9513 19.491 33.2915 19.5295 33.8927 19.6631C33.6522 20.7474 33.3556 21.8029 33.0287 22.8757C33.0129 22.8894 32.9977 22.9031 32.983 22.9168C32.9403 22.6662 32.8603 22.4236 32.7457 22.1968C32.5694 21.5709 32.3458 20.9593 32.0768 20.3672C32.2615 20.4133 32.4466 20.4551 32.6305 20.4979C32.865 20.5638 33.103 20.6168 33.3433 20.6567C33.3704 20.6566 33.3964 20.6467 33.4167 20.6288C33.4369 20.6109 33.4499 20.5862 33.4533 20.5594C33.4567 20.5326 33.4503 20.5055 33.4351 20.4831C33.42 20.4607 33.3972 20.4446 33.371 20.4378ZM31.1178 17.3321C31.5639 17.3922 32.0128 17.4282 32.4628 17.4401C32.5996 17.4448 33.3369 17.43 33.838 17.3742C33.9136 17.3742 34.2433 17.2993 34.347 17.2896C34.3261 17.488 34.2924 17.6848 34.2462 17.8789C34.2034 18.1248 34.0849 18.7609 34.0702 18.8333C33.4733 18.7613 32.0581 18.5932 31.4555 18.5759C31.3851 18.151 31.272 17.7342 31.1178 17.3321ZM31.3014 18.9139C31.1814 18.7219 31.0564 18.5316 30.9263 18.343L31.1959 18.3282C31.2394 18.5212 31.2745 18.716 31.3014 18.9128V18.9139ZM30.8525 17.2388C30.8586 17.2532 30.8644 17.268 30.8701 17.2824C30.6605 17.1259 30.4617 16.9555 30.275 16.7723C30.1285 16.628 29.9907 16.4752 29.8621 16.3147C30.6309 16.3756 31.4031 16.2522 32.1147 15.9547C32.0999 16.0598 32.1276 16.0764 32.1737 16.1495C31.9678 16.3262 32.0211 16.5095 32.223 16.6049C32.3138 16.6383 32.4106 16.6518 32.507 16.6445C32.6186 16.642 32.772 16.6502 32.8289 16.7464C32.8649 16.8054 32.7285 16.8497 32.6543 16.8335C32.4189 16.782 32.3775 16.6996 32.3037 16.7474C32.2874 16.7587 32.2748 16.7745 32.2674 16.7929C32.26 16.8112 32.2581 16.8313 32.2619 16.8508C32.2619 16.9228 32.4419 17.0952 32.6741 17.0952C32.7281 17.0943 32.7818 17.0874 32.8343 17.0747C32.844 17.0819 32.9268 17.1467 32.9369 17.1514C32.8868 17.165 32.8364 17.1776 32.786 17.1899C32.1792 17.2003 31.5725 17.1635 30.9713 17.0801C30.9518 17.0789 30.9323 17.0826 30.9145 17.0908C30.8968 17.099 30.8813 17.1114 30.8696 17.127C30.8578 17.1426 30.8501 17.1609 30.8471 17.1802C30.8441 17.1996 30.846 17.2193 30.8525 17.2378V17.2388ZM36.6611 18.06C36.6464 18.0588 36.6316 18.0607 36.6177 18.0656C36.6037 18.0705 36.591 18.0783 36.5804 18.0886C36.5697 18.0988 36.5613 18.1111 36.5558 18.1248C36.5503 18.1385 36.5478 18.1532 36.5484 18.168C36.5493 18.1884 36.5568 18.2079 36.5698 18.2237C36.5828 18.2394 36.6006 18.2504 36.6204 18.2551C36.9444 18.3466 37.1813 18.4351 37.3987 18.5161C37.6096 18.5644 37.8079 18.6565 37.9808 18.7865C37.9405 18.9079 37.8995 19.0291 37.8577 19.1501L37.236 18.8934C37.2205 18.8861 37.2038 18.8821 37.1867 18.8815C37.1696 18.8809 37.1526 18.8838 37.1366 18.89C37.1207 18.8961 37.1062 18.9055 37.094 18.9174C37.0817 18.9294 37.0721 18.9437 37.0655 18.9595C37.059 18.9753 37.0558 18.9922 37.056 19.0093C37.0562 19.0264 37.0598 19.0433 37.0668 19.0589C37.0737 19.0745 37.0837 19.0886 37.0962 19.1003C37.1087 19.1119 37.1234 19.1209 37.1395 19.1267L37.7749 19.3891C37.3545 20.6344 36.8359 21.8443 36.2241 23.0075L35.6707 22.745C35.6558 22.7379 35.6396 22.7339 35.623 22.733C35.6065 22.7322 35.5899 22.7347 35.5743 22.7402C35.5588 22.7458 35.5444 22.7544 35.5321 22.7655C35.5199 22.7766 35.5099 22.79 35.5028 22.805C35.4957 22.8199 35.4916 22.8362 35.4908 22.8527C35.49 22.8692 35.4924 22.8858 35.498 22.9014C35.5035 22.917 35.5121 22.9313 35.5232 22.9436C35.5343 22.9559 35.5478 22.9658 35.5627 22.9729L36.1027 23.2296C35.8195 23.7485 35.5157 24.2554 35.1912 24.7502C35.0384 24.5562 34.8664 24.378 34.6779 24.2185C35.233 22.9945 36.1758 20.4094 36.4058 18.8156C36.4234 18.8057 36.4384 18.7919 36.4497 18.7753C36.461 18.7587 36.4683 18.7396 36.4711 18.7197C36.4738 18.6998 36.4719 18.6795 36.4655 18.6604C36.4592 18.6413 36.4485 18.624 36.4343 18.6097C35.9908 18.1885 35.5245 17.7919 35.0375 17.4217C35.0375 17.3497 35.0375 17.2752 35.0339 17.2057C36.1398 17.2617 37.2282 17.5045 38.253 17.9239C38.2246 18.0175 38.095 18.4301 38.0586 18.5431C37.6092 18.3378 37.1412 18.1757 36.6611 18.0589V18.06ZM35.4421 20.4C35.2354 20.229 35.0104 20.0814 34.7711 19.9601C34.5791 19.8418 34.3775 19.7398 34.1685 19.6552C34.2073 19.478 34.2449 19.3007 34.2811 19.1231C34.555 19.2681 34.8214 19.4268 35.0793 19.5986C35.351 19.7788 35.6113 19.9758 35.8587 20.1883C35.7715 20.5051 35.5534 21.2485 35.3885 21.7342C34.9285 21.3575 34.4335 21.0258 33.9103 20.7434C33.984 20.4535 34.054 20.1626 34.1202 19.8708C34.18 19.9028 34.2401 19.9342 34.3002 19.9655C34.6513 20.1493 34.9907 20.3547 35.3165 20.5804C35.3403 20.5928 35.3678 20.5962 35.3939 20.5898C35.42 20.5834 35.4429 20.5678 35.4583 20.5458C35.4737 20.5238 35.4805 20.4969 35.4775 20.4702C35.4746 20.4435 35.462 20.4188 35.4421 20.4007V20.4ZM35.3215 21.9246C35.2715 22.0668 35.2189 22.2086 35.1653 22.3501C34.7186 21.9888 34.2413 21.6672 33.7386 21.3889C33.7782 21.2449 33.8169 21.1009 33.8545 20.9569C35.2027 21.7961 35.0026 21.7151 35.3215 21.9253V21.9246ZM36.2133 18.7447C36.0977 19.1407 36.0257 19.5324 35.9274 19.9284C35.4345 19.5272 34.8963 19.1852 34.3236 18.9096C34.3673 18.6883 34.4087 18.4668 34.4478 18.245C34.9839 18.5068 35.7942 19.0327 35.8025 19.037C35.8164 19.0461 35.8319 19.0523 35.8482 19.0553C35.8644 19.0583 35.8811 19.0581 35.8973 19.0547C35.9135 19.0513 35.9289 19.0447 35.9426 19.0353C35.9562 19.026 35.9679 19.014 35.9769 19.0001C35.9859 18.9863 35.9921 18.9707 35.9952 18.9545C35.9982 18.9382 35.998 18.9215 35.9946 18.9053C35.9912 18.8891 35.9846 18.8737 35.9752 18.8601C35.9658 18.8464 35.9539 18.8347 35.94 18.8257C35.4727 18.5202 34.9895 18.2398 34.4924 17.9855C34.5251 17.7896 34.5563 17.5939 34.586 17.3983C35.1599 17.8079 35.7037 18.2581 36.2133 18.7454V18.7447ZM34.6199 17.1388C34.6174 17.1226 34.6116 17.1071 34.6029 17.0932C34.5942 17.0793 34.5828 17.0674 34.5693 17.0581C34.5558 17.0488 34.5406 17.0424 34.5245 17.0393C34.5084 17.0361 34.4919 17.0363 34.4759 17.0398C34.2227 17.0808 33.9688 17.1137 33.7141 17.1384C34.0841 16.9902 34.4353 16.7988 34.7603 16.5682C34.7794 16.7935 34.7963 17.0185 34.815 17.2651C34.7513 17.2241 34.6861 17.1802 34.6199 17.1395V17.1388ZM34.5681 16.3997C34.1293 16.7091 33.6429 16.9447 33.1281 17.097C33.1302 17.0896 33.1313 17.082 33.1313 17.0743C33.1313 17.0023 33.1313 16.9962 33.028 16.926C33.1587 16.7136 33.015 16.517 32.7911 16.445C32.6644 16.4044 32.3756 16.445 32.2871 16.373C32.3189 16.335 32.3552 16.3009 32.3951 16.2715C32.4057 16.2824 32.4188 16.2904 32.4332 16.295C32.4476 16.2996 32.463 16.3006 32.4779 16.2978H32.4844C32.5614 16.3147 32.6226 16.2258 32.6075 16.1466C32.6006 16.1166 32.586 16.089 32.5652 16.0664C32.5444 16.0438 32.518 16.027 32.4887 16.0177C32.4519 16.01 32.4137 16.0134 32.3789 16.0274C32.3735 16.0184 32.358 15.9958 32.3519 15.9871C32.3365 15.9444 32.3054 15.9092 32.2648 15.8888C32.6901 15.6946 33.0869 15.4431 33.4441 15.1415C33.8178 15.5363 34.246 15.8757 34.7156 16.1495C34.721 16.1909 34.7264 16.2312 34.7318 16.2773C34.676 16.3162 34.621 16.3601 34.5681 16.3997ZM34.5796 24.4363C35.0249 24.9043 35.162 25.0663 35.162 25.0663C35.162 25.0663 35.5379 25.7611 35.6221 25.9382C35.1933 25.5633 34.7855 25.1649 34.4006 24.7448C34.4554 24.7196 34.4601 24.6901 34.5785 24.4363H34.5796ZM35.3403 24.9824C35.6719 24.4784 35.9827 23.9624 36.2727 23.4344L36.9531 24.9274C36.6379 25.3177 36.295 25.6848 35.927 26.0257C35.9065 25.9894 35.4155 25.1081 35.3392 24.9824H35.3403ZM38.4683 17.1899C38.0493 17.0066 37.087 16.7006 36.7914 16.6186C36.7677 16.6134 36.7429 16.6173 36.722 16.6295C36.7011 16.6417 36.6855 16.6614 36.6784 16.6846C36.6714 16.7078 36.6733 16.7328 36.6838 16.7547C36.6943 16.7765 36.7127 16.7936 36.7353 16.8025C37.8732 17.1769 37.803 17.2046 38.4017 17.4224C38.3765 17.5092 38.3513 17.5963 38.3257 17.6831C37.2874 17.2221 36.1638 16.9844 35.0278 16.9854C35.0256 16.9418 34.9792 16.2215 34.9756 16.1779C35.8066 16.1266 36.6407 16.1834 37.457 16.3468C37.4846 16.3474 37.5114 16.3375 37.5319 16.319C37.5524 16.3005 37.565 16.2749 37.5672 16.2474C37.5696 16.2222 37.5624 16.197 37.547 16.177C37.5315 16.1569 37.509 16.1435 37.4841 16.1394C37.0425 16.0008 36.582 15.9321 36.1193 15.936C35.7301 15.9106 35.3394 15.92 34.9518 15.9641C34.9201 15.7049 34.9345 15.6808 34.8989 15.4536C36.2317 15.3551 37.571 15.5139 38.8438 15.9216C38.7207 16.3054 38.5896 16.759 38.4672 17.1899H38.4683ZM26.3204 15.4457C26.3587 15.4027 26.3824 15.3489 26.3883 15.2917C26.3943 15.2345 26.3821 15.177 26.3536 15.1271C26.6718 15.2088 26.9838 15.3134 27.287 15.4399C26.8778 15.444 26.4702 15.4939 26.072 15.5886C26.0735 15.582 26.0742 15.5752 26.0742 15.5684V15.5594C26.1681 15.5554 26.2565 15.5145 26.3204 15.4457ZM23.6064 16.6895C23.9628 15.5353 24.7026 14.9255 25.914 15.0504C25.9858 15.1125 26.0617 15.1698 26.1412 15.2218C26.1916 15.2599 26.1278 15.3197 26.072 15.3186C25.9511 15.306 25.9468 15.2646 25.8031 15.2138C25.7797 15.2069 25.7546 15.2074 25.7315 15.2154C25.7084 15.2234 25.6884 15.2385 25.6743 15.2585C25.664 15.2773 25.6589 15.2984 25.6596 15.3198C25.6602 15.3412 25.6665 15.362 25.6779 15.3802C25.7329 15.4507 25.8083 15.5026 25.8939 15.5288C25.8967 15.5692 25.8827 15.5922 25.9104 15.6289C25.0907 15.8572 24.3129 16.2152 23.6064 16.6895ZM25.0921 26.0549C24.182 26.138 24.4153 26.0988 24.1921 26.1229C24.119 26.1369 24.0439 26.1369 23.9707 26.1229C23.9181 26.0305 23.8816 25.9298 23.8627 25.8252C23.6957 25.2831 23.5634 24.731 23.4667 24.1721C23.2705 23.0825 23.2627 21.9674 23.4437 20.8752C23.5132 20.3517 23.7501 19.8648 24.1191 19.487C24.5547 19.091 25.1879 18.969 25.7466 18.8174C26.5663 21.1139 28.9409 23.0316 31.1466 24.1148C29.2715 25.1436 27.216 25.8023 25.0921 26.0549ZM38.1364 27.5525C37.4338 27.5433 36.734 27.4611 36.0484 27.3073C34.228 26.8244 32.6068 25.7786 31.4162 24.3193C31.4056 24.2911 31.3966 24.2622 31.3893 24.2329C31.5171 24.3196 31.6669 24.3683 31.8212 24.3733C31.9178 24.375 32.0133 24.3533 32.0995 24.31C32.253 24.4552 32.4346 24.5675 32.6331 24.6401C33.02 24.8305 33.4666 24.8601 33.8754 24.7225C33.931 24.7056 33.9851 24.6844 34.0374 24.6592C34.5488 25.2523 35.1022 25.8079 35.6934 26.3216C35.6979 26.3413 35.7073 26.3595 35.7207 26.3747C35.734 26.3898 35.751 26.4013 35.7699 26.4083C35.7889 26.4152 35.8093 26.4172 35.8292 26.4142C35.8492 26.4112 35.8681 26.4033 35.8842 26.3911C37.0924 25.4771 37.8865 24.0907 38.5878 22.8667C38.9248 22.2601 39.6567 20.9299 39.9893 20.1988C40.2372 19.6564 40.4355 19.0928 40.5818 18.5147C40.6004 18.4933 40.6099 18.4655 40.6081 18.4373C40.5617 18.1951 40.4807 17.9609 40.3677 17.7418C40.0782 17.0282 39.6393 16.3849 39.0807 15.855C39.099 15.7733 38.9964 15.7092 38.9474 15.697C38.767 15.6386 38.5847 15.585 38.4006 15.536C38.5756 14.95 38.6977 14.3496 38.7657 13.7418C38.8914 13.7227 39.0116 13.6768 39.1181 13.6072C39.1677 13.7132 39.2292 13.8134 39.3013 13.9056C39.2413 13.9536 39.1827 14.0034 39.1253 14.055C39.0278 14.1463 38.964 14.268 38.9444 14.4001C38.9248 14.5323 38.9505 14.6672 39.0173 14.7829C39.123 14.899 39.2632 14.978 39.4172 15.0083C39.5107 15.0469 39.6125 15.0608 39.7128 15.0486C39.8131 15.0363 39.9086 14.9984 39.99 14.9384C39.9942 14.9352 39.9972 14.9307 39.9988 14.9257C40.0003 14.9207 40.0002 14.9153 39.9986 14.9102C39.9969 14.9052 39.9938 14.9009 39.9895 14.8977C39.9853 14.8946 39.9802 14.8928 39.9749 14.8927C39.8734 14.8938 39.7734 14.8687 39.6844 14.82C39.5954 14.7713 39.5204 14.7005 39.4666 14.6144C39.4453 14.5388 39.444 14.4589 39.463 14.3827C39.4819 14.3064 39.5204 14.2364 39.5746 14.1796C40.0605 14.4987 40.6241 14.6797 41.205 14.703C41.4498 14.7093 41.6939 14.7327 41.9355 14.7728C41.9355 14.7728 42.0726 15.0079 42.0859 15.0248C42.0103 15.0767 41.9382 15.1335 41.8699 15.1948C41.8233 15.2538 41.7921 15.3236 41.7791 15.3977C41.7661 15.4718 41.7718 15.548 41.7956 15.6194C41.8193 15.6909 41.8605 15.7552 41.9153 15.8068C41.9702 15.8583 42.037 15.8954 42.1097 15.9148C42.6191 19.4068 42.0229 23.1547 40.3353 27.0773C39.6907 27.5126 38.9032 27.6827 38.1364 27.5525ZM59.2324 11.0584C56.0734 14.2886 51.8045 16.2334 47.788 18.1795C46.703 18.7361 45.5589 19.1691 44.3773 19.4705C44.4221 18.6434 44.3927 17.814 44.2895 16.9922C44.2895 16.968 44.2827 16.9443 44.2697 16.9238C44.2567 16.9034 44.2382 16.8871 44.2163 16.8767C44.1944 16.8664 44.17 16.8626 44.146 16.8656C44.122 16.8687 44.0993 16.8785 44.0807 16.894C44.0591 16.9085 44.042 16.9287 44.0314 16.9525C44.0208 16.9762 44.017 17.0025 44.0206 17.0282C44.4684 20.2942 43.3913 23.8092 42.3336 27.2029C42.0275 28.2213 41.5369 29.1748 40.8864 30.016C40.2605 30.8114 39.3604 31.3447 38.3621 31.5118C41.2345 26.6158 43.3794 21.0422 42.2541 15.5231C42.2507 15.5073 42.2432 15.4926 42.2323 15.4807C42.2214 15.4687 42.2076 15.4599 42.1921 15.455C42.1766 15.4467 42.159 15.4428 42.1413 15.4439C42.1236 15.4449 42.1066 15.4509 42.0922 15.4611C42.0778 15.4713 42.0665 15.4854 42.0596 15.5017C42.0527 15.518 42.0505 15.5358 42.0532 15.5533C41.9535 15.3564 42.1583 15.2981 42.2749 15.1847C42.4048 15.2454 42.5474 15.2739 42.6906 15.2676C42.8339 15.2614 42.9735 15.2205 43.0975 15.1487C43.1023 15.1458 43.106 15.1415 43.1081 15.1364C43.1102 15.1312 43.1106 15.1255 43.1092 15.1202C43.1077 15.1148 43.1046 15.11 43.1002 15.1066C43.0959 15.1032 43.0905 15.1013 43.0849 15.1012C43.0107 15.0957 42.9403 15.0659 42.8846 15.0165C42.8289 14.967 42.791 14.9006 42.7768 14.8276C52.4305 12.736 58.7521 9.99384 58.9696 10.0165C59.1909 10.2327 59.3554 10.5002 59.4487 10.7952C59.4383 10.8827 59.3051 10.982 59.2317 11.0584H59.2324ZM60.451 9.88764C60.3173 10.2027 60.0659 10.4531 59.7504 10.5857C59.7209 10.5997 59.6914 10.6138 59.6622 10.6285C59.5432 10.3465 59.3895 10.0805 59.2047 9.83652C59.2347 9.66287 59.2783 9.49183 59.335 9.32496C59.3733 9.24179 59.4349 9.17152 59.5123 9.12266C59.5898 9.07379 59.6797 9.04843 59.7713 9.04965C59.8628 9.05087 59.952 9.07862 60.0282 9.12953C60.1043 9.18043 60.164 9.25232 60.2001 9.33648C60.2155 9.36284 60.2261 9.39173 60.2314 9.4218C60.188 9.44685 60.1386 9.45943 60.0885 9.45816C60.0385 9.45689 59.9897 9.44181 59.9477 9.4146C59.9257 9.40318 59.9009 9.39815 59.8761 9.4001C59.8514 9.40205 59.8277 9.41088 59.8077 9.42561C59.7877 9.44034 59.7723 9.46037 59.7631 9.48343C59.7539 9.50649 59.7514 9.53165 59.7558 9.55608C59.7724 9.6367 59.7707 9.72001 59.7508 9.79989C59.731 9.87977 59.6934 9.95416 59.641 10.0176C59.6237 10.0454 59.6174 10.0787 59.6232 10.111C59.629 10.1432 59.6466 10.1722 59.6725 10.1922C59.6984 10.2123 59.7308 10.222 59.7635 10.2195C59.7962 10.2171 59.8268 10.2026 59.8494 10.1789C59.9607 10.0487 60.025 9.88488 60.0319 9.71376C60.0991 9.72138 60.167 9.71526 60.2317 9.69577C60.2964 9.67627 60.3564 9.64381 60.4081 9.60036C60.4456 9.57901 60.4734 9.54409 60.4859 9.5028C60.5187 9.49956 60.5514 9.49704 60.5845 9.49488C60.5566 9.63072 60.5121 9.76263 60.4521 9.88764H60.451Z" fill="url(#paint0_linear_353_7535)"/>
<path d="M41.1305 11.1789C41.1874 11.405 41.3504 11.6279 41.5301 11.4623C41.6651 11.3381 41.5488 10.9626 41.4278 10.8683C41.3069 10.7739 41.0257 10.7621 41.1305 11.1789Z" fill="url(#paint1_linear_353_7535)"/>
<path d="M42.7346 10.6936C42.8037 10.9456 43.0089 10.9619 43.0946 10.8488C43.199 10.7084 43.0888 10.4247 42.9981 10.3232C42.8703 10.1824 42.6234 10.2872 42.7346 10.6936Z" fill="url(#paint2_linear_353_7535)"/>
<path d="M42.5564 11.0825C42.8059 11.4461 42.8804 11.6207 42.9819 11.7813C42.8728 11.8049 42.7658 11.8373 42.6619 11.8781C42.6361 11.8875 42.6142 11.9054 42.6 11.9289C42.5858 11.9523 42.58 11.98 42.5836 12.0072C42.5873 12.0344 42.6002 12.0596 42.6201 12.0785C42.64 12.0974 42.6658 12.1089 42.6932 12.111C42.8747 12.0908 43.0503 12.0342 43.2095 11.9447C43.329 11.8133 43.1443 11.5721 43.0831 11.4702C42.9039 11.1551 42.6881 10.8622 42.4401 10.5976C42.4237 10.5845 42.4031 10.5775 42.3821 10.5779C42.361 10.5784 42.3407 10.5862 42.3249 10.6C42.309 10.6139 42.2984 10.6328 42.2951 10.6536C42.2917 10.6745 42.2958 10.6958 42.3066 10.7139C42.3825 10.8416 42.466 10.9647 42.5564 11.0825Z" fill="url(#paint3_linear_353_7535)"/>
<path d="M40.7816 10.8953C40.7858 10.9157 40.797 10.934 40.8132 10.9471C40.8294 10.9603 40.8497 10.9674 40.8705 10.9673H40.9065C40.9214 10.9673 40.9361 10.9636 40.9493 10.9566C40.9624 10.9495 40.9736 10.9393 40.9818 10.9268C40.99 10.9143 40.995 10.9 40.9963 10.8852C40.9976 10.8703 40.9952 10.8553 40.9893 10.8416C40.9892 10.7451 41.0221 10.6514 41.0824 10.5761C41.1428 10.5008 41.227 10.4483 41.3212 10.4273C41.5038 10.4273 41.5581 10.316 41.5059 10.2325C41.5008 10.2198 41.4929 10.2084 41.4829 10.199C41.3844 10.1717 41.28 10.1737 41.1827 10.2048C41.0853 10.2359 40.9991 10.2947 40.9346 10.374C40.8703 10.443 40.8229 10.526 40.7964 10.6165C40.7698 10.707 40.7647 10.8025 40.7816 10.8953Z" fill="url(#paint4_linear_353_7535)"/>
<path d="M41.3871 12.0325C41.4273 12.5127 41.643 12.9612 41.993 13.2925C42.2061 13.4556 42.4445 13.3573 42.6587 13.1935C42.8654 13.04 43.0412 12.8488 43.1771 12.6301C43.1888 12.6058 43.1917 12.5781 43.1855 12.5519C43.1792 12.5256 43.1641 12.5024 43.1427 12.4859C43.1212 12.4695 43.0948 12.461 43.0678 12.4618C43.0408 12.4627 43.015 12.4727 42.9945 12.4904C42.8069 12.7385 42.5741 12.9489 42.3084 13.1107C42.2659 13.1223 42.2209 13.1206 42.1794 13.106C42.1379 13.0913 42.1019 13.0643 42.0762 13.0286C41.8774 12.8018 41.7368 12.5299 41.6665 12.2366C41.8762 12.3296 42.1 12.3871 42.3285 12.4069C42.6329 12.4768 42.9524 12.4319 43.2257 12.2809C43.3311 12.2226 43.2285 12.0289 43.1288 12.1038C42.8829 12.2074 42.6103 12.2296 42.3509 12.1671C42.0737 12.1351 41.8068 12.0429 41.5689 11.8971C41.5479 11.8876 41.5246 11.8839 41.5016 11.8864C41.4786 11.8889 41.4567 11.8975 41.4382 11.9113C41.4196 11.9251 41.4051 11.9436 41.3961 11.9649C41.3872 11.9862 41.3841 12.0096 41.3871 12.0325Z" fill="url(#paint5_linear_353_7535)"/>
<path d="M17.792 21.04C19.002 21.4044 20.492 21.2629 21.4824 20.3701C22.0024 19.8892 22.4402 19.3264 22.7784 18.704C22.841 18.6201 22.7935 18.4779 22.6326 18.5056C21.8098 18.6428 20.9712 18.6559 20.1446 18.5445C20.1236 18.5441 20.1028 18.5488 20.0841 18.5583C20.0653 18.5678 20.0492 18.5819 20.0372 18.5991C20.0252 18.6163 20.0177 18.6363 20.0152 18.6572C20.0128 18.6781 20.0156 18.6992 20.0233 18.7188C19.619 19.2934 19.034 19.716 18.3614 19.9194C17.6889 20.1227 16.9677 20.0949 16.3128 19.8405C16.2876 19.8356 16.2616 19.8383 16.238 19.8483C16.2144 19.8583 16.1944 19.8751 16.1804 19.8966C16.1664 19.918 16.1592 19.9432 16.1596 19.9688C16.1601 19.9944 16.1681 20.0193 16.1828 20.0403C16.5902 20.5465 17.1577 20.8991 17.792 21.04ZM22.4 18.7904C22.0417 19.3889 21.5783 19.9179 21.032 20.3517C21.0391 20.3359 21.0426 20.3187 21.0422 20.3014C21.0418 20.284 21.0376 20.267 21.0298 20.2515C21.022 20.2361 21.0108 20.2225 20.9971 20.2119C20.9835 20.2012 20.9676 20.1938 20.9507 20.1901C20.9125 20.168 20.8716 20.1511 20.829 20.14C20.8327 20.0762 20.8219 20.0124 20.7974 19.9534C20.7728 19.8944 20.7351 19.8417 20.6871 19.7995C20.5869 19.7271 20.4636 19.694 20.3406 19.7066C20.2176 19.7192 20.1035 19.7766 20.0201 19.8679C19.8573 20.0029 19.7112 20.2214 19.524 20.153C19.4286 20.1206 19.439 20.081 19.4451 20.0572C19.4639 20.0105 19.492 19.9681 19.5278 19.9327C19.5636 19.8972 19.6063 19.8696 19.6532 19.8513C19.6596 19.8618 19.6682 19.8709 19.6783 19.8779C19.6884 19.885 19.6998 19.8899 19.7119 19.8924C19.7504 19.9014 19.7724 19.8837 19.8091 19.8564C19.9063 19.7872 19.8005 19.6364 19.668 19.6267C19.553 19.636 19.4451 19.686 19.3638 19.7678C19.3386 19.7713 19.313 19.7713 19.2878 19.7678H19.2479C19.6312 19.52 19.9589 19.1953 20.2101 18.8142C20.9372 18.9031 21.6729 18.8953 22.3979 18.7908L22.4 18.7904ZM19.1183 19.9449C19.1298 19.9601 19.1453 19.9718 19.1631 19.9786C19.1809 19.9855 19.2003 19.9873 19.2191 19.9838C19.1989 20.0665 19.2122 20.1538 19.2559 20.2268C19.2996 20.2998 19.3703 20.3527 19.4527 20.374C19.7407 20.4741 19.9866 20.2232 20.0705 20.1364C20.1451 20.0477 20.2418 19.9801 20.3509 19.9406C20.3935 19.926 20.44 19.9276 20.4815 19.9449C20.5231 19.9622 20.5569 19.9941 20.5766 20.0346C20.5945 20.0768 20.5955 20.1243 20.5796 20.1674C20.5636 20.2104 20.5317 20.2457 20.4906 20.266C20.381 20.3021 20.2664 20.3205 20.1511 20.3204C20.1189 20.3172 20.0867 20.3267 20.0613 20.3469C20.036 20.367 20.0195 20.3963 20.0154 20.4284C20.0133 20.4548 20.021 20.4811 20.0371 20.5022C20.0532 20.5234 20.0764 20.5378 20.1025 20.5429C20.2169 20.5762 20.3383 20.5766 20.4529 20.5441C20.5674 20.5116 20.6706 20.4476 20.7505 20.3593C20.8481 20.3881 20.8585 20.4266 20.9219 20.4273C20.5879 20.6549 20.2121 20.8139 19.8163 20.8953C19.2113 21.0116 18.5881 20.9916 17.9918 20.8366C17.5207 20.7511 17.0816 20.5396 16.721 20.2246C17.5309 20.4034 18.3783 20.2731 19.097 19.8592C19.0924 19.8893 19.0992 19.92 19.1161 19.9453L19.1183 19.9449Z" fill="url(#paint6_linear_353_7535)"/>
<path d="M6.13919 19.555C6.14161 19.5793 6.15086 19.6024 6.16587 19.6216C6.18088 19.6408 6.20104 19.6554 6.224 19.6636C6.24695 19.6718 6.27177 19.6734 6.29557 19.668C6.31936 19.6627 6.34116 19.6507 6.35843 19.6335C7.06866 18.8398 7.94386 18.2109 8.92271 17.791C9.39337 17.5949 9.90259 17.5087 10.4116 17.5391C10.9206 17.5694 11.416 17.7156 11.8599 17.9664C11.8836 17.9785 11.9103 17.9833 11.9367 17.9804C11.9631 17.9774 11.988 17.9667 12.0084 17.9497C12.0288 17.9327 12.0437 17.91 12.0513 17.8845C12.0589 17.8591 12.0588 17.8319 12.0511 17.8065C11.8285 17.1898 11.5349 16.6011 11.1763 16.0522C11.165 16.0383 11.1511 16.0267 11.1353 16.0181C11.1195 16.0096 11.1021 16.0043 11.0842 16.0026C11.0664 16.0009 11.0483 16.0028 11.0312 16.0082C11.014 16.0135 10.9981 16.0223 10.9844 16.0339C9.85979 15.6819 8.64276 15.7769 7.58639 16.2992C7.05106 16.523 6.62259 16.9445 6.39011 17.476C6.15491 18.1422 6.06925 18.852 6.13919 19.555ZM10.9949 16.252C11.2569 16.6777 11.4856 17.1231 11.6789 17.584C10.8991 17.2348 10.0204 17.1751 9.20063 17.4156C9.21414 17.3994 9.22153 17.379 9.22151 17.358C9.22151 17.2672 9.20171 17.286 9.15923 17.1855C9.22247 17.1664 9.28116 17.1346 9.33173 17.0921C9.38229 17.0496 9.42367 16.9972 9.45335 16.9382C9.55883 16.6783 9.26219 16.4342 8.94755 16.396C8.87605 16.393 8.80484 16.385 8.73443 16.3723C8.71675 16.3666 8.70197 16.3542 8.69318 16.3379C8.68439 16.3215 8.68227 16.3023 8.68727 16.2844C8.73936 16.2077 8.81647 16.1515 8.90543 16.1253C8.91396 16.1226 8.92198 16.1184 8.92919 16.1131C9.61936 16.0018 10.3258 16.0493 10.9949 16.252ZM8.48603 16.2096C8.41799 16.3953 8.51087 16.5696 8.76719 16.6088C8.90991 16.5999 9.05114 16.642 9.16571 16.7276C9.19199 16.7506 9.25175 16.8086 9.23771 16.8414C9.15239 17.0073 8.85611 16.9882 8.68907 16.8554C8.67467 16.8464 8.65849 16.8406 8.64164 16.8384C8.62479 16.8362 8.60766 16.8376 8.59143 16.8426C8.57519 16.8477 8.56024 16.8561 8.54757 16.8675C8.53491 16.8788 8.52485 16.8927 8.51807 16.9083C8.51288 16.9265 8.5118 16.9457 8.51492 16.9644C8.51803 16.983 8.52525 17.0008 8.53607 17.0163C8.58741 17.0743 8.65003 17.1211 8.7201 17.1541C8.79016 17.187 8.86621 17.2053 8.94359 17.2078C8.9544 17.2597 8.97413 17.3093 9.00191 17.3544C9.01196 17.3756 9.02625 17.3946 9.04389 17.4101C9.06153 17.4257 9.08216 17.4374 9.10451 17.4447C8.06394 17.8268 7.1246 18.4419 6.35843 19.2429C6.34205 18.7225 6.40691 18.2026 6.55067 17.7021C6.65468 17.4266 6.81427 17.1754 7.01952 16.9641C7.22476 16.7529 7.47126 16.5861 7.74371 16.4742C7.98436 16.368 8.23246 16.2795 8.48603 16.2096Z" fill="url(#paint7_linear_353_7535)"/>
<path d="M65.8185 16.9278C65.8276 16.9007 65.83 16.8719 65.8257 16.8438C65.8214 16.8156 65.8105 16.7888 65.7938 16.7657C65.7772 16.7426 65.7552 16.7237 65.7299 16.7107C65.7045 16.6977 65.6764 16.6909 65.6479 16.6909C65.6078 16.6875 65.5677 16.6976 65.534 16.7197C65.5004 16.7417 65.475 16.7744 65.4622 16.8126C58.6322 36.7695 46.4282 54.3761 27.8123 64.6361C27.7694 64.6652 27.7391 64.7093 27.7272 64.7596C27.7153 64.81 27.7227 64.8631 27.7479 64.9083C27.7732 64.9535 27.8145 64.9875 27.8637 65.0038C27.9128 65.02 27.9663 65.0173 28.0135 64.9961C46.2986 55.1378 59.1449 36.9492 65.8185 16.9278Z" fill="url(#paint8_linear_353_7535)"/>
<path d="M66.6383 15.5162C65.2208 30.9811 59.2325 45.6742 49.436 57.7241C48.6556 58.6806 48.6638 58.6395 48.6638 58.7299C48.662 58.7707 48.6728 58.811 48.6948 58.8454C48.7169 58.8798 48.749 58.9065 48.7869 58.9218C48.8247 58.9371 48.8664 58.9403 48.9061 58.931C48.9458 58.9216 48.9817 58.9002 49.0087 58.8696C57.0334 49.3212 62.6555 37.9903 65.4049 25.8245C66.1695 22.4399 66.7027 19.0071 67.0008 15.5501C67.022 15.3117 66.6588 15.3017 66.6383 15.5162Z" fill="url(#paint9_linear_353_7535)"/>
<defs>
<linearGradient id="paint0_linear_353_7535" x1="2.42455" y1="2.92581" x2="77.9472" y2="20.4317" gradientUnits="userSpaceOnUse">
<stop stop-color="#086158"/>
<stop offset="1" stop-color="#2DAB35"/>
</linearGradient>
<linearGradient id="paint1_linear_353_7535" x1="41.119" y1="10.8444" x2="41.6674" y2="10.9309" gradientUnits="userSpaceOnUse">
<stop stop-color="#086158"/>
<stop offset="1" stop-color="#2DAB35"/>
</linearGradient>
<linearGradient id="paint2_linear_353_7535" x1="42.7168" y1="10.2918" x2="43.2063" y2="10.3663" gradientUnits="userSpaceOnUse">
<stop stop-color="#086158"/>
<stop offset="1" stop-color="#2DAB35"/>
</linearGradient>
<linearGradient id="paint3_linear_353_7535" x1="42.3166" y1="10.6435" x2="43.4052" y2="10.7997" gradientUnits="userSpaceOnUse">
<stop stop-color="#086158"/>
<stop offset="1" stop-color="#2DAB35"/>
</linearGradient>
<linearGradient id="paint4_linear_353_7535" x1="40.7897" y1="10.2136" x2="41.6252" y2="10.3976" gradientUnits="userSpaceOnUse">
<stop stop-color="#086158"/>
<stop offset="1" stop-color="#2DAB35"/>
</linearGradient>
<linearGradient id="paint5_linear_353_7535" x1="41.4307" y1="11.9494" x2="43.4515" y2="12.5377" gradientUnits="userSpaceOnUse">
<stop stop-color="#086158"/>
<stop offset="1" stop-color="#2DAB35"/>
</linearGradient>
<linearGradient id="paint6_linear_353_7535" x1="16.3174" y1="18.6187" x2="22.1944" y2="21.9201" gradientUnits="userSpaceOnUse">
<stop stop-color="#086158"/>
<stop offset="1" stop-color="#2DAB35"/>
</linearGradient>
<linearGradient id="paint7_linear_353_7535" x1="6.25665" y1="15.9893" x2="12.3926" y2="18.1723" gradientUnits="userSpaceOnUse">
<stop stop-color="#086158"/>
<stop offset="1" stop-color="#2DAB35"/>
</linearGradient>
<linearGradient id="paint8_linear_353_7535" x1="28.6266" y1="18.7575" x2="71.5457" y2="26.5523" gradientUnits="userSpaceOnUse">
<stop stop-color="#086158"/>
<stop offset="1" stop-color="#2DAB35"/>
</linearGradient>
<linearGradient id="paint9_linear_353_7535" x1="49.0992" y1="17.227" x2="70.236" y2="19.2757" gradientUnits="userSpaceOnUse">
<stop stop-color="#086158"/>
<stop offset="1" stop-color="#2DAB35"/>
</linearGradient>
</defs>
</svg>
