<svg width="70" height="53" viewBox="0 0 70 53" fill="none" xmlns="http://www.w3.org/2000/svg">
<path fill-rule="evenodd" clip-rule="evenodd" d="M61.2296 19.4204C61.2872 19.5392 61.5068 19.5752 61.6508 19.6004C62.8244 19.8092 67.9112 19.9172 68.4008 19.496C68.8292 19.136 68.5916 13.2536 68.174 13.016C67.634 12.6956 61.7444 12.6344 61.334 12.962C61.0352 13.2104 60.848 18.5888 61.2296 19.4204ZM61.424 13.0376C61.7516 12.764 67.5044 12.9692 68.0228 13.2212C68.3 13.9628 68.48 18.6212 68.21 19.2836C67.7708 19.586 62.3888 19.5752 61.4492 19.2836C61.082 18.4016 61.2188 13.2104 61.424 13.0376ZM46.9124 12.4076C46.7696 12.6519 46.5768 12.8631 46.3466 13.0275C46.1165 13.192 45.8541 13.3058 45.5768 13.3616C45.5683 13.3594 45.5594 13.3592 45.5508 13.361C45.5422 13.3628 45.5341 13.3665 45.5272 13.3719C45.5202 13.3773 45.5146 13.3842 45.5108 13.3921C45.5069 13.4 45.5049 13.4086 45.5049 13.4174C45.5049 13.4262 45.5069 13.4349 45.5108 13.4428C45.5146 13.4506 45.5202 13.4575 45.5272 13.4629C45.5341 13.4683 45.5422 13.472 45.5508 13.4738C45.5594 13.4756 45.5683 13.4754 45.5768 13.4732C46.2104 13.6388 47.0348 13.0628 47.0348 12.4292C47.0376 12.413 47.0339 12.3963 47.0245 12.3828C47.015 12.3693 47.0006 12.3601 46.9844 12.3572C46.9681 12.3544 46.9514 12.3581 46.9379 12.3675C46.9244 12.377 46.9152 12.3914 46.9124 12.4076ZM43.9712 9.18562V9.54562C43.9712 9.59336 43.9901 9.63915 44.0239 9.6729C44.0576 9.70666 44.1034 9.72562 44.1512 9.72562C44.1986 9.7247 44.2439 9.70544 44.2774 9.67188C44.311 9.63832 44.3302 9.59307 44.3312 9.54562V9.18562C44.3312 9.13788 44.3122 9.0921 44.2784 9.05834C44.2447 9.02459 44.1989 9.00562 44.1512 9.00562C44.1034 9.00562 44.0576 9.02459 44.0239 9.05834C43.9901 9.0921 43.9712 9.13788 43.9712 9.18562ZM47.5604 9.52762C47.5604 9.57536 47.5793 9.62115 47.6131 9.6549C47.6468 9.68866 47.6926 9.70762 47.7404 9.70762C47.7881 9.70762 47.8339 9.68866 47.8676 9.6549C47.9014 9.62115 47.9204 9.57536 47.9204 9.52762V9.08122C47.9204 9.03348 47.9014 8.9877 47.8676 8.95395C47.8339 8.92019 47.7881 8.90122 47.7404 8.90122C47.6926 8.90122 47.6468 8.92019 47.6131 8.95395C47.5793 8.9877 47.5604 9.03348 47.5604 9.08122C47.546 9.23602 47.5604 9.41602 47.5604 9.52762Z" fill="url(#paint0_linear_353_7554)"/>
<path fill-rule="evenodd" clip-rule="evenodd" d="M68.4332 35.57C68.4096 35.5299 68.3761 35.4964 68.336 35.4728C68.0264 35.3216 66.3416 35.3972 65.9924 35.4116C66.0536 25.9688 61.0784 20.0792 53.8568 18.3908C52.532 18.0812 52.5284 18.0596 52.4924 18.0812L52.2476 17.408C52.9388 17.3864 53.504 16.8536 54.1376 16.9616C54.6164 17.0408 54.8576 17.4656 55.3292 17.6456C56.1284 17.948 57.5504 17.4836 57.986 16.724C58.2092 16.328 58.0112 15.9176 58.1516 15.644C58.4036 15.4244 59.12 15.0716 59.3252 14.816C59.7464 14.2904 59.7644 13.1132 59.5736 12.476C59.2291 11.755 58.7599 11.1005 58.1876 10.5428C57.565 9.9429 57.013 9.27376 56.5424 8.54843C55.9628 7.39283 55.9412 5.79443 55.4624 4.58843C54.9346 3.49952 54.1177 2.57668 53.1008 1.92083C52.1076 1.21929 50.9101 0.866128 49.6952 0.91643C48.5612 0.98843 48.1184 1.47083 47.5892 1.63643C47.06 1.80203 46.9484 1.63643 46.088 2.01443C45.7463 2.22258 45.4421 2.48666 45.188 2.79563C45.08 2.91083 45.0872 2.91803 44.9036 2.92523C44.7058 2.91036 44.5073 2.91036 44.3096 2.92523C43.9725 3.00004 43.6501 3.1302 43.3556 3.31043C41.3504 4.51283 41.8904 6.93203 41.1344 8.71043C40.6196 9.92003 39.1868 11.0828 39.0644 12.3464C39.021 12.9274 39.146 13.5086 39.4244 14.0204C40.2992 15.5576 41.5556 14.3516 42.2072 15.2912C42.4124 15.5864 42.5672 15.8744 42.9488 15.932C43.4348 15.9968 44.0972 15.6116 44.4932 15.3272C44.5764 15.4242 44.6706 15.5112 44.774 15.5864C45.1249 15.823 45.5018 16.0187 45.8972 16.1696L44.9828 17.4476C43.2692 17.2532 40.6376 17.8076 38.942 18.3296C38.8808 17.8976 38.348 14.33 37.9448 14.1572C37.3868 13.9124 31.5296 14.5928 31.1732 14.978C30.9104 15.2588 31.382 20.6048 31.8932 21.404C31.9688 21.5264 32.228 21.53 32.372 21.5336C31.5296 22.1096 30.716 22.6928 30.4244 22.9052C30.1976 22.1204 29.006 17.9696 28.5668 17.2892C28.4408 17.0912 28.3256 17.0948 27.746 17.2892C27.4156 15.6409 26.9974 14.0114 26.4932 12.4076C26.6822 12.0968 26.8333 11.7644 26.9432 11.4176C27.0773 10.8683 27.0969 10.2973 27.0008 9.74003C27.44 9.88763 30.0644 10.6076 30.4892 10.3988C30.6033 10.3174 30.6879 10.2012 30.7304 10.0676C31.1948 9.05243 31.9904 5.58563 32.0516 4.48763C32.0768 4.34703 32.0526 4.20205 31.9832 4.07723C31.562 3.63803 25.8956 2.00723 25.4168 2.22323C25.1252 2.35643 24.3368 4.94483 24.254 5.25083C23.5664 7.55843 23.9156 7.05083 23.534 7.18403C23.0948 7.33883 22.7168 8.26403 22.562 8.69243C22.4072 9.12083 22.2452 9.69683 22.4288 10.0352C22.3542 10.1729 22.3242 10.3302 22.3429 10.4856C22.3616 10.641 22.4281 10.7868 22.5332 10.9028C22.4187 11.0304 22.3441 11.1888 22.3185 11.3583C22.2929 11.5278 22.3175 11.7011 22.3892 11.8568C22.4936 12.1844 23.1452 12.4004 23.4692 12.494C23.2134 13.1834 23.0005 13.8879 22.832 14.6036C22.5448 15.7142 22.3153 16.8389 22.1444 17.9732C22.0379 18.5244 22.0028 19.0871 22.04 19.6472L21.4496 19.9136C21.4269 19.924 21.4076 19.9408 21.3942 19.9619C21.3808 19.9829 21.3738 20.0074 21.374 20.0324C21.374 20.0324 21.4856 24.3956 22.922 28.0208C24.6572 32.4092 27.512 33.878 31.8572 32.2364C31.8963 32.5809 31.9811 32.9187 32.1092 33.2408C32.174 33.356 32.3936 33.3776 32.5412 33.392C33.8192 33.4339 35.0986 33.3942 36.3716 33.2732L37.4516 40.1132C37.16 40.9556 33.8516 50.5532 33.8984 51.446C33.8984 51.5396 33.9344 51.6116 34.0892 51.6836C35.0432 52.1264 44.0828 53.3072 44.4248 52.3208C44.5112 52.0796 44.72 50.5424 44.7596 50.2508L49.8464 49.6892L54.6956 50.0096C54.7478 50.4952 54.8344 50.9764 54.9548 51.4496C54.998 51.5576 55.0484 51.6152 55.1744 51.6044C55.6532 51.5576 58.2056 51.0968 58.9112 50.9636C61.6184 50.4524 61.5572 50.4092 61.478 50.1428C61.2872 49.5128 59.516 44.5988 58.8248 42.3056C59.8359 42.4135 60.8556 42.4135 61.8668 42.3056C61.8777 42.3446 61.8983 42.3802 61.9266 42.4091C61.9549 42.4381 61.99 42.4594 62.0288 42.4712C62.6876 42.7124 68.5736 42.3776 69.056 41.8952C69.4916 41.51 68.7608 36.1172 68.4332 35.57ZM25.424 2.37803C25.4636 2.31683 25.4492 2.29163 25.766 2.33843C27.0872 2.52563 31.4072 3.91883 31.7816 4.24643C31.8536 5.07083 30.7844 9.59603 30.3632 10.1432C30.0572 10.2476 28.0268 9.72923 27.7136 9.64643C25.3304 9.02363 25.424 8.92643 24.8804 8.80043C24.5996 8.70323 24.5708 8.69963 24.578 8.66003C24.5789 8.65112 24.583 8.64286 24.5897 8.63687C24.5964 8.63088 24.605 8.62758 24.614 8.62763C24.938 8.62763 25.8056 8.60243 26.018 8.35043C26.0649 8.29919 26.0998 8.23822 26.1204 8.17188C26.141 8.10555 26.1467 8.03548 26.1371 7.9667C26.1274 7.89791 26.1027 7.8321 26.0647 7.77397C26.0267 7.71584 25.9763 7.66683 25.9172 7.63043C25.4545 7.44507 24.9709 7.31692 24.4772 7.24883C24.3296 7.22003 24.1496 7.16963 23.9696 7.14803C24.218 6.02483 25.0388 2.97563 25.424 2.37803ZM22.3316 19.5284V18.9704C22.364 18.2864 22.6916 16.49 22.7888 15.9968C22.9472 15.1976 22.9832 15.0176 23.444 13.2824C23.444 13.2356 23.7212 12.4616 23.7212 12.4616C23.7261 12.4482 23.7282 12.4338 23.7272 12.4196C23.7262 12.4053 23.7221 12.3913 23.7153 12.3787C23.7085 12.3661 23.6991 12.3551 23.6877 12.3465C23.6763 12.3378 23.6631 12.3316 23.6492 12.3284C23.6096 12.3284 22.6736 12.098 22.5692 11.7992C22.4648 11.5004 22.4432 11.1404 22.706 10.982C22.7156 10.975 22.7235 10.9658 22.7289 10.9552C22.7344 10.9445 22.7372 10.9328 22.7372 10.9208C22.7372 10.9089 22.7344 10.8971 22.7289 10.8865C22.7235 10.8758 22.7156 10.8666 22.706 10.8596C22.5909 10.7652 22.5135 10.6326 22.4877 10.486C22.462 10.3394 22.4896 10.1884 22.5656 10.0604C22.6484 9.89123 22.2056 9.97403 22.7312 8.76083C22.8644 8.46203 23.3144 7.54403 23.6204 7.44323C23.8913 7.41679 24.1648 7.44745 24.4232 7.53323C24.8744 7.6043 25.3179 7.71759 25.748 7.87163C25.7753 7.88633 25.7989 7.90714 25.8169 7.93245C25.8349 7.95776 25.8468 7.98688 25.8516 8.01755C25.8565 8.04821 25.8543 8.07958 25.845 8.10922C25.8358 8.13887 25.8198 8.16597 25.7984 8.18843C25.6402 8.27806 25.4669 8.33785 25.2872 8.36483C24.1532 8.58803 24.3548 8.33963 24.2072 8.72483C23.774 8.69942 23.3409 8.77715 22.9436 8.95163C22.7888 8.98403 22.8536 9.08483 22.9652 9.06683C23.4475 8.90876 23.9633 8.88266 24.4592 8.99123C24.7468 9.0438 25.0281 9.12708 25.298 9.23963C25.5427 9.33906 25.76 9.49587 25.9316 9.69683C25.9622 9.77299 25.9736 9.85551 25.9648 9.93713C25.956 10.0187 25.9273 10.0969 25.8812 10.1648C25.7948 10.298 25.3772 10.208 25.2188 10.1648C25.0028 10.1 24.776 10.046 24.5636 9.97763C24.2648 9.88403 24.2972 9.85883 24.2036 9.86603C23.8734 9.91281 23.5504 10.0011 23.2424 10.1288C23.2337 10.1298 23.2253 10.1328 23.2179 10.1375C23.2105 10.1422 23.2043 10.1486 23.1997 10.1561C23.1952 10.1636 23.1924 10.172 23.1916 10.1807C23.1907 10.1895 23.1919 10.1983 23.1951 10.2065C23.1982 10.2147 23.2031 10.2221 23.2095 10.2281C23.2159 10.2341 23.2236 10.2385 23.232 10.2411C23.2404 10.2437 23.2492 10.2443 23.2579 10.243C23.2665 10.2416 23.2748 10.2383 23.282 10.2332C23.5577 10.1555 23.8395 10.1013 24.1244 10.0712C24.2864 10.0712 24.182 10.0712 24.5888 10.2332C24.7724 10.3016 24.9488 10.3556 25.1432 10.4204C25.2682 10.4633 25.3973 10.4934 25.5284 10.5104C25.7588 10.7264 25.9244 11.2304 25.6148 11.3204C25.4931 11.3414 25.368 11.3264 25.2548 11.2772C24.4304 11.0072 24.9884 10.8128 23.1992 11.18C23.1845 11.1818 23.1711 11.1892 23.1618 11.2006C23.1524 11.212 23.1477 11.2265 23.1488 11.2412C23.1488 11.3348 23.21 11.2772 24.2 11.2412C24.3197 11.2292 24.4403 11.2292 24.56 11.2412C24.8696 11.3996 25.3304 11.6696 25.6868 11.5652C26.1224 11.4248 26.108 10.9424 25.8272 10.5896C25.7264 10.4672 25.7156 10.5032 25.802 10.4888C25.8651 10.482 25.9262 10.4621 25.9814 10.4305C26.0365 10.3989 26.0845 10.3563 26.1224 10.3052C26.2076 10.1876 26.2553 10.047 26.2592 9.90177C26.263 9.75657 26.2229 9.6136 26.144 9.49163L26.7488 9.67163C26.8685 10.2292 26.8587 10.8069 26.72 11.36C26.6814 11.4951 26.6308 11.6264 26.5688 11.7524C26.306 12.3068 26.2088 12.3248 26.2412 12.4292C26.7414 14.0558 27.1536 15.7082 27.476 17.3792C26.1188 17.8544 23.6312 18.9488 22.3316 19.5284ZM50.8184 44.5448C52.3592 44.6096 55.6712 44.7284 57.1904 44.6816C57.086 45.1352 57.0212 45.4232 57.0032 45.488C56.2796 45.488 51.6032 44.678 50.8184 44.5448ZM57.7736 44.3612C56.8088 44.588 44.2844 44.0984 43.2116 43.6412C43.3232 42.8348 44.3744 38.3024 44.5868 37.3772C45.5316 37.6665 46.5146 37.8121 47.5028 37.8092C47.8628 37.9964 48.4568 38.3204 48.8132 38.4896C48.7736 38.7956 48.6764 39.5192 48.8924 39.7352C49.1084 39.9512 54.08 41.7764 58.4396 42.2876C58.2637 42.9928 58.0412 43.6855 57.7736 44.3612ZM44.4716 35.696C44.3058 35.6457 44.1525 35.5611 44.0216 35.4476C43.928 35.3468 43.9604 35.0408 44.0216 34.8968C44.055 34.8268 44.1144 34.7726 44.1872 34.7456C44.2751 34.7074 44.3688 34.6843 44.4644 34.6772C44.493 34.6766 44.5207 34.6672 44.5438 34.6503C44.5669 34.6335 44.5843 34.61 44.5937 34.583C44.6031 34.556 44.604 34.5267 44.5964 34.4992C44.5887 34.4716 44.5728 34.4471 44.5508 34.4288C44.3402 34.2514 44.1935 34.0099 44.1332 33.7412C44.1332 33.5432 44.2088 33.338 44.5256 33.158C44.8856 33.1868 45.9656 34.0796 46.466 33.5648C46.9664 33.05 46.376 31.844 46.934 31.7432C47.492 31.6424 47.7728 33.32 47.87 33.5036C48.194 34.1336 49.0652 34.5836 49.562 35.102C49.262 36.1751 49.0216 37.264 48.842 38.3636C48.122 37.9784 47.5892 37.6436 47.5352 37.6436C46.7828 37.6184 44.7632 37.4096 44.2376 36.8732C44.1441 36.801 44.0801 36.6973 44.0576 36.5813C44.0351 36.4654 44.0555 36.3452 44.1152 36.2432C44.1535 36.1756 44.2051 36.1164 44.267 36.0694C44.3289 36.0223 44.3997 35.9884 44.4752 35.9696C44.506 35.9621 44.5334 35.9443 44.5528 35.9192C44.5723 35.8941 44.5826 35.8631 44.5822 35.8314C44.5818 35.7996 44.5706 35.769 44.5505 35.7444C44.5304 35.7198 44.5026 35.7028 44.4716 35.696ZM48.482 23.708C47.8132 23.644 47.1413 23.6176 46.4696 23.6288C46.3832 23.6288 46.3112 23.672 46.286 23.7548C46.2248 23.9852 45.206 31.4732 45.1556 31.8404C44.9396 28.2404 44.7164 24.4496 44.5508 21.6704C45.8036 23.6684 45.9116 23.8664 46.1096 23.726C46.7771 23.177 47.4085 22.5854 47.9996 21.9548C48.1076 22.3544 48.2804 23.006 48.482 23.708ZM51.776 22.4444C51.5312 22.0844 51.29 21.7244 51.2 21.5912L52.3628 18.6644L51.776 22.4444ZM52.6148 18.3116C53.9764 18.5924 55.304 19.0184 56.5748 19.5824C56.5208 19.7516 55.826 21.8756 54.9944 24.41C54.6128 24.3632 52.4276 24.0968 51.7544 24.0248L52.6148 18.3116ZM51.1424 21.9908L51.7112 22.8476L51.5312 23.9996L50.9732 23.9276C51.056 23.1464 51.1136 22.4048 51.1424 21.9908ZM61.082 25.7888C61.0775 26.2575 61.0317 26.7249 60.9452 27.1856C59.7104 26.8688 48.9392 24.2192 47.8448 24.842C47.2976 25.1588 45.4976 32.546 45.3248 33.212L45.1952 33.1472C45.764 29.1476 46.52 23.9024 46.52 23.888C47.7476 23.7476 59.5736 25.0868 61.082 25.7888ZM54.8 33.3164C53.9936 33.2624 50.7932 33.104 50.12 33.5504C50.0156 33.6224 49.9724 33.6368 49.6016 34.9688C49.1228 34.4612 48.32 33.9824 48.05 33.4172C47.9276 33.1688 47.7296 31.3544 46.8908 31.4948C45.7604 31.6856 47.204 34.0148 45.5336 33.2948C45.6416 32.8376 47.4128 25.2128 47.906 24.932C48.95 24.338 60.3368 27.236 61.7768 27.6428C61.694 28.5212 60.6356 33.2084 60.4412 34.0652C58.5768 33.707 56.6932 33.457 54.8 33.3164ZM49.256 8.13443C49.4576 8.27123 49.4504 8.59883 49.4144 8.83643C49.1624 10.4456 47.5496 11.4212 46.43 9.88043C46.1744 9.52043 45.9764 8.37563 46.1492 8.12363C46.2644 7.97603 47.1932 7.96883 47.3804 7.96883C47.726 7.97243 49.076 8.02643 49.2416 8.13443H49.256ZM44.9684 8.39363C44.9684 9.07043 44.7416 10.1936 44.1404 10.5176C43.172 11.0216 42.1892 10.2224 42.164 9.18203C42.1271 8.80221 42.1453 8.41905 42.218 8.04443L42.254 8.02643C42.1964 7.92563 44.7272 7.89323 44.954 8.12003C44.9616 8.21107 44.9616 8.30259 44.954 8.39363H44.9684ZM46.2212 16.2308C46.844 16.4108 47.8484 16.3244 48.3308 15.8312C48.3409 15.8205 48.3465 15.8064 48.3465 15.7916C48.3465 15.7769 48.3409 15.7627 48.3308 15.752C48.248 15.6512 48.3308 15.8456 47.3948 15.986C46.4588 16.1264 45.8936 15.986 44.9468 15.3704C44.5116 14.9706 44.1857 14.4663 44 13.9052C43.6123 12.9557 43.3696 11.9533 43.28 10.9316C43.6188 10.9871 43.9665 10.9302 44.27 10.7696C44.5646 10.5974 44.7928 10.3311 44.918 10.0136C44.7965 10.3941 44.6967 10.7811 44.6192 11.1728C44.6023 11.223 44.5998 11.2768 44.6119 11.3284C44.624 11.3799 44.6502 11.427 44.6876 11.4644C44.9365 11.6166 45.2296 11.68 45.5192 11.6444C45.5277 11.6466 45.5366 11.6468 45.5452 11.645C45.5538 11.6432 45.5618 11.6395 45.5688 11.6341C45.5757 11.6287 45.5813 11.6218 45.5852 11.614C45.589 11.6061 45.5911 11.5974 45.5911 11.5886C45.5911 11.5798 45.589 11.5712 45.5852 11.5633C45.5813 11.5554 45.5757 11.5485 45.5688 11.5431C45.5618 11.5377 45.5538 11.534 45.5452 11.5322C45.5366 11.5304 45.5277 11.5307 45.5192 11.5328C45.3056 11.5091 45.0995 11.4403 44.9144 11.3312C44.8316 11.2736 44.8676 11.3096 44.8928 11.1908C44.918 11.072 45.386 9.35483 45.4112 9.24683C45.5228 9.24683 45.9476 9.18923 45.9476 9.08483C45.9476 8.98043 45.6092 8.95163 45.4832 8.95883C45.4832 8.91203 45.5048 8.87243 45.5156 8.83643C45.5213 8.82211 45.5211 8.8061 45.515 8.79192C45.5089 8.77774 45.4975 8.76656 45.4832 8.76083C45.4688 8.7551 45.4528 8.7553 45.4387 8.76137C45.4245 8.76745 45.4133 8.77891 45.4076 8.79323C45.2816 9.03803 45.368 8.94803 45.1988 8.99123C45.2637 8.65837 45.2637 8.31609 45.1988 7.98323C44.9936 7.66643 43.7588 7.73843 43.3556 7.76363C43.5608 6.55763 44.36 5.96363 44.8496 4.99883C44.9867 4.77489 45.1695 4.58232 45.386 4.43363C45.494 4.40483 45.7064 4.67483 45.836 4.73963C45.9656 4.80443 46.088 5.16083 46.196 5.28323C46.5356 5.66988 46.9268 6.00787 47.3588 6.28763C47.7188 6.54323 48.2804 6.58283 48.5252 6.91043C48.6286 7.189 48.6786 7.48454 48.6728 7.78163C48.2084 7.75283 46.2716 7.72403 46.0412 8.05523C45.8324 8.32163 45.9224 9.53843 46.2284 10.0064C46.9988 11.1728 48.1832 11.2448 49.1084 10.1936C49.2078 10.0695 49.2924 9.93422 49.3604 9.79043C50.0516 10.8704 50.5952 11.5148 50.6204 12.782C50.6492 14.3876 50.1956 17.048 51.9344 17.3828L52.2332 18.2072C50.7932 21.8288 50.8688 21.602 50.8688 21.638C50.8688 21.674 50.8004 22.718 50.6744 23.9132C49.9832 23.8412 49.3388 23.78 48.7664 23.7332C48.7232 23.5856 48.1868 21.6776 48.1976 21.638C48.2516 21.458 47.9816 21.1052 47.7728 20.792C46.9898 19.6584 46.1348 18.5762 45.2132 17.552L46.2212 16.2308ZM44.954 17.6492C45.0152 17.7428 47.6072 20.594 47.924 21.6416C47.3416 22.2872 46.7123 22.8888 46.0412 23.4416C45.8 23.1248 45.1484 22.0808 44.5292 21.1052C44.4176 19.2224 44.342 17.912 44.324 17.6384C44.5256 17.624 44.7524 17.6348 44.9396 17.6492H44.954ZM32.0984 21.2492C31.688 20.5292 31.1192 15.8492 31.2524 15.1292C31.2524 15.0644 31.2524 15.0428 31.5548 14.96C32.8436 14.6252 37.3652 14.24 37.8404 14.402C38.2004 15.104 38.9888 19.6868 38.8016 20.3924C38.4344 20.6876 33.1568 21.4328 32.084 21.2492H32.0984ZM32.3504 33.0932C31.9364 32.2796 31.6304 27.0632 31.8356 26.8652C32.1416 26.57 37.8872 26.318 38.4308 26.5304C38.7908 27.2864 39.302 31.9304 39.0896 32.5604C38.6 32.9276 33.2 33.2876 32.336 33.0932H32.3504ZM40.5692 27.0596C40.8284 26.9912 42.6356 26.5304 42.8516 26.4008C43.0064 26.3108 43.1828 26.6024 40.1552 18.2936C40.5152 17.9624 43.6616 17.5376 44.1584 17.6924C44.1584 17.8904 44.63 26.2928 45.0008 33.0356C44.8244 32.9492 44.5688 32.816 44.4068 32.906C43.73 33.266 43.6868 33.8636 44.1872 34.4468C44.0937 34.4697 44.0069 34.5142 43.9338 34.5768C43.8606 34.6393 43.8032 34.7181 43.766 34.8068C43.7083 34.942 43.6837 35.0889 43.6944 35.2355C43.705 35.382 43.7506 35.5239 43.8272 35.6492C43.9111 35.7296 44.0071 35.7964 44.1116 35.8472C44.004 35.9193 43.9191 36.0204 43.8668 36.1388C43.8196 36.2408 43.7915 36.3507 43.784 36.4628L40.5692 27.0596ZM49.5296 49.4624L44.828 49.9844C44.8496 49.8116 45.3788 45.6392 45.548 44.2244C46.5272 44.3108 47.708 44.3864 48.9716 44.4548C49.1804 47.0504 49.5476 48.8432 49.5152 49.4624H49.5296ZM49.778 49.4336C49.8284 48.6128 49.1516 44.498 49.148 44.462L49.508 44.48C50.732 44.7068 53.8856 45.2648 54.2276 45.3224C54.3428 46.4816 54.6308 49.1816 54.6992 49.736C49.3316 49.3904 49.9112 49.4192 49.76 49.4336H49.778ZM68.8796 41.7296C68.5196 42.0176 63.2312 42.5 62.1404 42.2624C61.7192 41.4452 61.4204 36.2324 61.6256 36.0344C61.9352 35.7356 67.6808 35.4908 68.2172 35.6996C68.5556 36.452 69.0776 41.114 68.8652 41.7296H68.8796Z" fill="url(#paint1_linear_353_7554)"/>
<path fill-rule="evenodd" clip-rule="evenodd" d="M32.3576 39.0837C32.3288 38.9541 32.2892 38.7669 32.1848 38.7237C31.8248 38.5077 29.4524 38.4644 29.0312 38.4572C28.9376 36.74 28.772 34.7564 28.502 34.2236C28.3256 33.8636 16.6904 33.8276 16.2908 33.824C16.3196 31.8872 16.3232 28.9352 16.2908 26.984C16.7984 26.984 19.3328 26.984 19.682 26.696C20.1284 26.336 19.8296 21.53 19.628 20.576C19.5992 20.4464 19.556 20.2592 19.4552 20.216C18.9296 19.9028 13.0328 19.8272 12.6152 20.162C12.3956 20.3456 12.3128 22.5956 12.302 22.88C11.4776 22.88 6.38 22.7756 4.5584 22.8188V19.8776C5.03 19.8776 7.79841 19.9532 8.15841 19.6508C8.59401 19.2908 8.45001 13.4084 8.03601 13.1708C7.62201 12.9332 5.0372 12.8576 4.5908 12.8468C4.5908 12.3356 4.5512 11.0468 4.5476 11.0144C6.2144 10.9532 10.6064 11.0936 12.4172 11.0936C12.4172 11.6588 12.3848 13.6712 12.6224 14.186C12.68 14.3084 12.8996 14.3444 13.0436 14.3696C14.1884 14.5712 19.2932 14.69 19.7936 14.2652C20.294 13.8404 19.9448 8.45845 19.6532 7.87885C19.6339 7.83718 19.6041 7.80122 19.5668 7.77445C19.0232 7.45405 13.1336 7.41445 12.7268 7.72045C12.4928 7.91845 12.4136 10.496 12.4064 10.8056C10.5668 10.8056 6.2396 10.6652 4.526 10.7264C4.526 10.0316 4.49 9.32965 4.49 8.63845C5.0012 8.63845 8.09001 8.59165 8.47521 8.25325C8.86041 7.91485 8.4752 2.46085 8.1656 1.87045C8.14635 1.82861 8.11501 1.7935 8.0756 1.76965C7.5284 1.46365 1.6388 1.55725 1.2356 1.89565C0.929605 2.16205 0.875605 7.54405 1.286 8.37565C1.31428 8.42208 1.35741 8.4576 1.4084 8.47645C1.8188 8.64925 3.734 8.65285 4.184 8.65285C4.184 10.262 4.256 11.5688 4.2704 12.854C3.9104 12.854 1.4552 12.8 1.1816 13.0196C0.908005 13.2392 0.576805 18.6176 0.958405 19.4996C1.0124 19.6184 1.232 19.6616 1.376 19.6868C2.33009 19.8246 3.29211 19.9004 4.256 19.9136V25.2272C3.914 25.2272 1.5704 25.184 1.3076 25.3964C1.0448 25.6088 0.699205 30.9944 1.0808 31.8764C1.1348 31.9988 1.3544 32.0384 1.4984 32.0672C2.6648 32.2904 7.74801 32.4848 8.24841 32.0672C8.74881 31.6496 8.48961 26.2532 8.21601 25.6808C8.19653 25.6383 8.16685 25.6012 8.12961 25.5728C7.73721 25.3352 5.0084 25.2561 4.5296 25.2453V23.1644C6.3944 23.1176 11.2832 23.222 12.2696 23.2256C12.2696 23.834 12.212 26.1273 12.4712 26.6853C12.4947 26.7336 12.536 26.771 12.5864 26.7896C13.0508 27.002 15.4664 27.0452 15.9596 27.0488C16.0064 29.0072 16.0028 31.9664 15.9596 33.8888C11.1212 33.8636 6.1028 33.914 5.0912 34.1192C4.9832 34.1408 4.8068 34.1768 4.7996 34.328C4.7996 34.328 4.6052 37.4384 4.5152 38.5076C4.1948 38.5076 2.0888 38.5077 1.844 38.7237C1.5992 38.9397 1.3292 44.3325 1.7252 45.2037C1.7792 45.3225 1.9988 45.362 2.1428 45.3872C3.2912 45.5888 8.39241 45.7077 8.89281 45.2829C9.39321 44.8581 9.04041 39.4652 8.75241 38.8964C8.76685 38.8621 8.77147 38.8243 8.76575 38.7875C8.76003 38.7506 8.7442 38.716 8.72001 38.6876C8.30601 38.4392 5.3504 38.4177 4.8608 38.4141C4.9472 37.3341 5.13441 34.328 5.13441 34.328C6.36561 33.968 26.846 34.0112 28.2788 34.3748C28.4984 34.9004 28.6388 36.704 28.754 38.4284C28.394 38.4284 25.658 38.4069 25.3736 38.6445C25.0892 38.8821 24.8732 44.2856 25.2548 45.1244C25.2801 45.1728 25.3224 45.21 25.3736 45.2288C26.0108 45.5168 31.904 45.6465 32.4224 45.2037C32.5115 45.0957 32.5633 44.9618 32.57 44.822C32.7392 43.7276 32.5916 40.1637 32.3576 39.0837ZM12.8024 7.76365C13.1228 7.49725 18.8684 7.68805 19.4012 7.94725C19.5349 8.51544 19.6121 9.09546 19.6316 9.67885C17.324 9.44485 14.2064 9.62485 12.6152 9.67885C12.6224 9.46285 12.68 7.85005 12.8024 7.75285V7.76365ZM12.6116 9.87685C15.2324 9.95965 18.3428 9.82285 19.6424 9.83725C19.682 10.4744 19.8224 13.4588 19.5884 14.0096C19.322 14.1932 17.2232 14.2256 16.9028 14.2292C16.1288 14.2292 13.5764 14.2292 12.8276 14.0132C12.5684 13.3832 12.5936 10.586 12.6116 9.86605V9.87685ZM1.3292 1.92445C1.6496 1.64365 7.406 1.69765 7.9316 1.92445C8.04973 2.32571 8.12455 2.73846 8.15481 3.15565C5.82928 3.08708 3.50204 3.20747 1.196 3.51565C1.1996 3.38605 1.2248 2.01805 1.3292 1.92445ZM1.52 8.17045C1.2284 7.51885 1.1888 4.48765 1.196 3.63805C1.4984 3.60205 8.036 3.27805 8.1692 3.27805C8.2484 3.99805 8.52921 7.35685 8.27721 7.98685C7.79481 8.33605 2.3768 8.40445 1.52 8.17045ZM1.2716 13.0412C1.5992 12.7784 7.3412 13.0628 7.8704 13.3292C7.98815 13.8664 8.05326 14.4138 8.06481 14.9636C8.10081 14.9636 2.9744 14.762 1.0628 14.8232C1.0736 14.6108 1.16 13.1276 1.2716 13.0412ZM8.05761 31.7612C7.66161 32.0204 2.3516 31.988 1.3004 31.6532C1.0412 31.0088 1.1204 28.0532 1.1564 27.3008C1.1924 27.3008 6.11361 27.6824 8.17281 27.4412C8.20881 28.1 8.30601 31.1996 8.05761 31.7576V31.7612ZM7.97121 25.6916C8.08841 26.2302 8.1547 26.7786 8.1692 27.3296C8.2052 27.3296 3.0896 27.128 1.1636 27.1856C1.17965 26.6069 1.24104 26.0304 1.3472 25.4612C1.3724 25.3892 1.3472 25.3748 1.6712 25.3388C2.96 25.1948 7.51041 25.4576 7.97121 25.688V25.6916ZM1.196 19.2872C0.940405 18.6428 1.0196 15.7088 1.0556 14.9384C1.0988 14.9384 6.00561 15.32 8.07201 15.0788C8.10801 15.7412 8.2088 18.8228 7.9568 19.3988C7.4708 19.7156 2.0636 19.5644 1.196 19.2872ZM8.7992 40.7612C8.8424 41.4308 8.97921 44.4081 8.74521 44.9733C8.36361 45.2397 3.032 45.2937 1.9844 44.9733C1.7252 44.3469 1.7504 41.528 1.7684 40.7756C4.0904 40.8656 6.2 40.7612 8.7992 40.7612ZM8.558 38.9108C8.69118 39.478 8.76954 40.0567 8.79201 40.6388C6.50241 40.4084 3.2768 40.592 1.772 40.6604C1.772 40.4336 1.8404 38.8244 1.9592 38.7272C2.2832 38.4608 8.0252 38.6516 8.558 38.9108ZM12.68 20.2088C13.0112 19.9316 18.7568 20.1404 19.2788 20.3924C19.4157 20.9834 19.4953 21.5862 19.5164 22.1924C17.954 22.1096 14.066 21.8612 12.4964 22.0556C12.5144 21.8504 12.5756 20.306 12.68 20.2088ZM12.716 26.4476C12.4532 25.8176 12.482 22.9376 12.5036 22.1852C13.0112 22.1348 16.6832 22.3652 18.3896 22.3508C18.8252 22.3508 19.2176 22.3328 19.5344 22.322C19.574 22.9628 19.7072 25.8896 19.4768 26.444C19.0052 26.7788 13.5908 26.7248 12.716 26.4476ZM25.4348 38.7272C25.7588 38.4608 31.5008 38.6516 32.0372 38.9108C32.1692 39.4794 32.2463 40.0592 32.2676 40.6424C29.9996 40.412 26.7164 40.5956 25.2512 40.6424C25.2548 40.4516 25.316 38.8352 25.4348 38.738V38.7272ZM32.2244 44.9733C31.832 45.2397 26.5004 45.2937 25.4636 44.9733C25.2008 44.3505 25.226 41.5208 25.2476 40.772C27.6704 40.8656 29.4884 40.772 32.2748 40.772C32.318 41.4344 32.4548 44.4224 32.2244 44.984V44.9733Z" fill="url(#paint2_linear_353_7554)"/>
<defs>
<linearGradient id="paint0_linear_353_7554" x1="42.8733" y1="8.51564" x2="67.11" y2="21.0244" gradientUnits="userSpaceOnUse">
<stop stop-color="#086158"/>
<stop offset="1" stop-color="#2DAB35"/>
</linearGradient>
<linearGradient id="paint1_linear_353_7554" x1="22.5096" y1="3.12733" x2="75.7356" y2="14.4453" gradientUnits="userSpaceOnUse">
<stop stop-color="#086158"/>
<stop offset="1" stop-color="#2DAB35"/>
</linearGradient>
<linearGradient id="paint2_linear_353_7554" x1="1.54237" y1="3.46576" x2="37.6033" y2="9.48104" gradientUnits="userSpaceOnUse">
<stop stop-color="#086158"/>
<stop offset="1" stop-color="#2DAB35"/>
</linearGradient>
</defs>
</svg>
