<svg width="72" height="72" viewBox="0 0 72 72" fill="none" xmlns="http://www.w3.org/2000/svg">
<path d="M41.8007 43.2608C41.7997 43.236 41.7936 43.2116 41.7828 43.1892C41.772 43.1668 41.7568 43.1468 41.738 43.1305C41.7362 43.0554 41.7163 42.9819 41.68 42.9161C41.6438 42.8503 41.5922 42.7943 41.5298 42.7526C41.4673 42.7109 41.3957 42.6849 41.321 42.6768C41.2464 42.6686 41.1708 42.6785 41.1008 42.7057C40.8128 42.3457 40.2105 42.8879 40.4168 43.1064C40.4121 43.1111 40.4121 43.1161 40.4071 43.1208C40.2631 43.4876 40.6533 43.8746 40.9914 43.9365C41.0907 43.958 41.1937 43.9565 41.2924 43.9322C41.3911 43.9079 41.4829 43.8614 41.561 43.7963C41.639 43.7311 41.7011 43.649 41.7427 43.5562C41.7842 43.4635 41.804 43.3624 41.8007 43.2608Z" fill="url(#paint0_linear_353_7472)"/>
<path d="M31.2873 46.9199C31.2483 46.8552 31.1903 46.8043 31.1212 46.774C31.0521 46.7437 30.9753 46.7355 30.9013 46.7507C30.8656 46.7607 30.8331 46.7797 30.8068 46.8059C30.7806 46.8322 30.7616 46.8647 30.7516 46.9004C30.6342 47.2475 30.9838 47.6204 31.2246 47.4653C31.3852 47.3922 31.3708 47.052 31.2873 46.9199Z" fill="url(#paint1_linear_353_7472)"/>
<path d="M33.3533 46.215C33.3149 46.1499 33.2569 46.0985 33.1876 46.0682C33.1184 46.0379 33.0413 46.0302 32.9674 46.0462C32.9317 46.0562 32.8991 46.0752 32.8729 46.1014C32.8467 46.1277 32.8276 46.1602 32.8176 46.1959C32.7003 46.5426 33.0495 46.9138 33.2907 46.7604C33.4505 46.688 33.4376 46.3511 33.3533 46.215Z" fill="url(#paint2_linear_353_7472)"/>
<path d="M33.503 48.3293C33.2514 47.8018 32.9508 47.2992 32.6051 46.8281C32.5175 46.6719 32.3932 46.5393 32.243 46.4418C32.2276 46.4335 32.2101 46.4299 32.1927 46.4314C32.1752 46.4329 32.1586 46.4394 32.1448 46.4502C32.131 46.4609 32.1206 46.4754 32.1149 46.492C32.1092 46.5085 32.1084 46.5263 32.1127 46.5433C32.1357 46.6927 32.1807 46.7139 32.5569 47.3205C32.8504 47.799 33.1101 48.2974 33.3341 48.812V48.8264C33.1023 48.8217 32.4748 48.8221 32.4071 48.8362C32.2433 48.8722 32.2768 49.0881 32.4071 49.1353C32.6055 49.1873 32.8112 49.2054 33.0155 49.1886C33.1963 49.2112 33.3798 49.1982 33.5555 49.1501C33.9022 48.996 33.6045 48.5417 33.503 48.3293Z" fill="url(#paint3_linear_353_7472)"/>
<path d="M32.4749 49.9658C32.4812 50.1338 32.5467 50.2942 32.6597 50.4187C32.7727 50.5431 32.926 50.6237 33.0926 50.6462C33.2686 50.6452 33.4384 50.5808 33.5707 50.4646C33.7029 50.3485 33.7889 50.1885 33.8126 50.0141C33.8425 49.8888 33.8763 49.6876 33.7161 49.6328C33.5675 49.5817 33.4904 49.7297 33.4555 49.8449C33.404 50.0144 33.354 50.2697 33.1272 50.2697C32.886 50.2697 32.8104 50.0177 32.6541 49.8884C32.6388 49.8749 32.6199 49.866 32.5997 49.8628C32.5795 49.8596 32.5588 49.8623 32.54 49.8704C32.5212 49.8785 32.5051 49.8918 32.4936 49.9087C32.482 49.9256 32.4756 49.9454 32.4749 49.9658Z" fill="url(#paint4_linear_353_7472)"/>
<path d="M27.4787 53.46C27.09 53.5188 26.7093 53.6224 26.3444 53.7689C23.7229 54.6872 20.9919 55.7536 18.6548 57.4229C18.2989 57.6701 17.9587 57.9393 17.6363 58.2289C17.3042 58.4959 17.0617 58.8581 16.9412 59.2668C16.9124 59.3971 17.0852 59.5328 17.1874 59.4108C17.4093 59.1235 17.6462 58.8481 17.897 58.5857C18.7814 57.8257 19.7442 57.162 20.7691 56.6057C22.5484 55.6638 24.3999 54.8648 26.3059 54.2164C26.7331 54.0881 27.1444 53.9115 27.5317 53.69C27.6429 53.6296 27.6137 53.446 27.4787 53.46Z" fill="url(#paint5_linear_353_7472)"/>
<path d="M34.2947 53.7358C37.6545 55.3352 40.8672 55.4638 43.5827 58.7898C44.4384 59.8374 44.6187 60.4631 45.0356 60.9811C45.1476 61.1204 45.3348 60.9667 45.306 60.822C45.2012 60.4289 45.0297 60.0567 44.7991 59.7215C44.165 58.6879 43.3642 57.7663 42.4292 56.9941C40.8053 55.6596 39.5247 55.2794 37.7517 54.6286C35.1295 53.6666 35.0463 53.6544 34.4016 53.5039C34.2561 53.4701 34.16 53.6717 34.2947 53.7358Z" fill="url(#paint6_linear_353_7472)"/>
<path d="M50.9097 44.622C50.8226 44.766 50.7398 45.0616 50.8856 45.2012C50.9117 45.2248 50.9422 45.243 50.9754 45.2545C51.0086 45.2661 51.0437 45.2709 51.0788 45.2687C51.1139 45.2664 51.1482 45.2572 51.1796 45.2414C51.211 45.2257 51.239 45.2038 51.2618 45.1771C51.3361 45.0816 51.3784 44.9651 51.3828 44.8441C51.4242 44.4463 51.0591 44.3765 50.9097 44.622Z" fill="url(#paint7_linear_353_7472)"/>
<path d="M53.1493 44.7959C53.1191 44.7786 53.0857 44.7676 53.0511 44.7637C53.0165 44.7597 52.9815 44.7627 52.9481 44.7727C52.9147 44.7826 52.8837 44.7992 52.8569 44.8214C52.8301 44.8436 52.8081 44.8711 52.7922 44.9021C52.7055 45.0461 52.6223 45.3416 52.7681 45.4813C52.7942 45.5048 52.8248 45.5229 52.858 45.5344C52.8912 45.5459 52.9264 45.5507 52.9614 45.5485C52.9965 45.5462 53.0308 45.537 53.0623 45.5213C53.0937 45.5056 53.1217 45.4838 53.1446 45.4572C53.219 45.3617 53.2612 45.2451 53.2652 45.1242C53.2799 45.0641 53.2768 45.0011 53.2562 44.9428C53.2356 44.8845 53.1985 44.8334 53.1493 44.7959Z" fill="url(#paint8_linear_353_7472)"/>
<path d="M51.2716 46.656C51.5003 46.5025 51.6917 46.2996 51.8318 46.0624C52.0262 45.7268 52.1448 45.3528 52.1792 44.9665C52.1882 44.8556 52.0298 44.8269 51.9765 44.9136C51.7245 45.3226 51.6093 45.8791 51.1607 46.2506C51.0632 46.3316 50.8947 46.3857 50.8227 46.4969C50.6672 46.7374 51.0207 46.989 51.1848 47.1197C51.3972 47.2885 51.7011 47.5247 51.9862 47.4574C52.0064 47.4515 52.0251 47.4412 52.0407 47.4271C52.0564 47.413 52.0686 47.3955 52.0765 47.376C52.0845 47.3565 52.0878 47.3354 52.0864 47.3144C52.085 47.2934 52.0788 47.273 52.0683 47.2547C51.9228 47.016 51.5837 46.98 51.2716 46.656Z" fill="url(#paint9_linear_353_7472)"/>
<path d="M52.6681 47.7792C52.2209 47.9873 51.714 48.0283 51.2392 47.8948C51.0994 47.837 50.951 47.8028 50.8 47.7936C50.7828 47.7943 50.7661 47.7994 50.7514 47.8083C50.7367 47.8172 50.7244 47.8297 50.7158 47.8446C50.7071 47.8594 50.7024 47.8763 50.7019 47.8935C50.7015 47.9107 50.7054 47.9277 50.7132 47.943C50.8821 48.2425 51.3973 48.3156 51.7076 48.339C51.9681 48.3563 52.2296 48.327 52.4798 48.2522C52.0946 49.4082 51.3008 49.5122 51.1766 49.1501C51.0891 48.8945 51.1222 48.6194 51.0416 48.3631C51.0318 48.3326 51.0126 48.306 50.9867 48.2871C50.9608 48.2682 50.9296 48.258 50.8976 48.258C50.8655 48.258 50.8343 48.2682 50.8084 48.2871C50.7826 48.306 50.7633 48.3326 50.7536 48.3631C50.6643 48.7123 50.7002 49.0817 50.8551 49.4071C50.9441 49.5444 51.0772 49.6473 51.2324 49.699C51.3876 49.7508 51.5558 49.7483 51.7094 49.6919C52.3538 49.5511 52.8153 48.6479 52.9402 47.9977C52.9522 47.9617 52.9529 47.9228 52.9422 47.8863C52.9314 47.8499 52.9098 47.8176 52.8802 47.7938C52.8505 47.77 52.8143 47.7558 52.7764 47.7532C52.7385 47.7506 52.7007 47.7597 52.6681 47.7792Z" fill="url(#paint10_linear_353_7472)"/>
<path d="M54.81 54.036C54.6583 53.9963 54.4975 54.0117 54.3561 54.0795C53.5172 54.3134 52.6205 54.2167 51.8508 53.8092C51.5376 53.649 51.2712 53.4157 50.9677 53.2443C50.9527 53.2355 50.9357 53.2304 50.9182 53.2294C50.9008 53.2284 50.8834 53.2316 50.8674 53.2386C50.8514 53.2456 50.8372 53.2563 50.8262 53.2698C50.8151 53.2833 50.8073 53.2993 50.8036 53.3163C50.6398 53.2695 50.6275 53.3207 49.8575 53.384C48.4449 53.5003 45.3935 53.1112 43.524 54.9817C43.0571 55.3962 42.747 55.9586 42.6456 56.5747C42.6463 56.6136 42.6595 56.6512 42.6833 56.682C42.7071 56.7127 42.7403 56.7349 42.7778 56.7453C42.8153 56.7556 42.8551 56.7535 42.8913 56.7393C42.9275 56.7251 42.9582 56.6996 42.9786 56.6665C43.1837 56.1976 43.457 55.7616 43.7897 55.3727C45.5307 53.5396 48.3826 53.9762 49.891 53.7991C50.1855 53.7631 50.6538 53.7462 50.863 53.5046C50.8677 53.4999 50.8677 53.4999 50.8677 53.4949C51.3915 54.3276 52.8038 54.7362 53.8654 54.6149C54.1599 54.5814 54.7557 54.5461 54.8935 54.2239C54.902 54.2063 54.9064 54.187 54.9067 54.1675C54.907 54.1479 54.903 54.1286 54.895 54.1107C54.8871 54.0929 54.8754 54.0769 54.8607 54.064C54.846 54.0511 54.8288 54.0416 54.81 54.036Z" fill="url(#paint11_linear_353_7472)"/>
<path d="M45.7783 41.1369C45.59 40.8809 44.9953 40.6199 44.7984 41.0116C44.7912 41.0233 44.7869 41.0365 44.7859 41.0501C44.7848 41.0638 44.7869 41.0775 44.7921 41.0902C44.7973 41.1029 44.8054 41.1141 44.8157 41.1231C44.826 41.1321 44.8383 41.1385 44.8516 41.1419C44.9675 41.1603 45.0831 41.1279 45.1944 41.1513C45.2615 41.1672 45.324 41.1987 45.3768 41.2431C45.4296 41.2876 45.4713 41.3438 45.4986 41.4072C45.8262 42.0819 45.239 42.9819 44.7065 42.7975C44.5913 42.7576 44.5233 42.6535 44.4218 42.5949C44.2727 42.5099 44.0978 42.6719 44.2191 42.9376C44.1883 42.9513 44.1617 42.9729 44.1421 43.0002C43.8417 43.5242 43.4297 43.9758 42.9354 44.3229C41.6725 45.0954 40.3074 44.532 40.068 43.3815C39.888 42.5095 40.0625 41.0188 40.2173 40.1523C40.2857 39.771 40.3945 39.3797 40.4251 38.9938C40.4251 38.9688 40.4168 38.9444 40.4016 38.9245C40.3864 38.9047 40.3651 38.8903 40.341 38.8837C40.3169 38.8771 40.2912 38.8787 40.268 38.8881C40.2448 38.8975 40.2254 38.9143 40.2127 38.9358C39.7447 39.8769 39.47 42.5895 39.7252 43.5892C39.8769 44.1214 40.2333 44.5719 40.7165 44.8418C41.1996 45.1117 41.7701 45.1791 42.3028 45.0292C42.2895 45.1768 42.3259 45.2848 42.2931 45.8399C42.2528 46.5264 42.1491 46.6132 42.2643 46.7813C42.2731 46.7962 42.2848 46.8091 42.2987 46.8194C42.3125 46.8296 42.3283 46.837 42.3451 46.8411C42.3619 46.8451 42.3793 46.8458 42.3964 46.843C42.4134 46.8402 42.4297 46.834 42.4443 46.8249C42.5973 46.7215 42.6027 46.5639 42.6276 46.3853C42.6766 46.0395 42.6864 45.6893 42.6567 45.3413C42.6526 45.2056 42.6316 45.071 42.5941 44.9406C42.6952 44.9021 42.7978 44.8657 42.8979 44.82C43.6053 44.4774 44.1559 43.8785 44.438 43.1449C45.5083 43.6554 46.4241 42.0149 45.7783 41.1369Z" fill="url(#paint12_linear_353_7472)"/>
<path d="M45.18 43.4106C45.0008 43.8637 44.9235 44.3507 44.9534 44.837C44.9834 45.3233 45.12 45.7971 45.3536 46.2247C45.4504 46.3838 45.7434 46.2784 45.6675 46.0897C45.2254 44.9892 45.2438 44.6173 45.373 43.4635C45.3733 43.4406 45.3661 43.4182 45.3523 43.3999C45.3386 43.3816 45.3191 43.3684 45.297 43.3623C45.2749 43.3563 45.2514 43.3577 45.2303 43.3665C45.2091 43.3752 45.1914 43.3907 45.18 43.4106Z" fill="url(#paint13_linear_353_7472)"/>
<path d="M49.2927 37.1401C49.4214 36.9197 49.5021 36.6746 49.5295 36.4209C49.5569 36.1672 49.5304 35.9105 49.4518 35.6677C49.3786 35.488 49.2548 35.3335 49.0954 35.2229C48.936 35.1123 48.7479 35.0505 48.5539 35.0449C48.6796 34.4513 48.6407 33.7421 48.2163 33.3025C48.0843 33.1687 47.9143 33.0788 47.7294 33.0451C47.5445 33.0114 47.3537 33.0355 47.1831 33.1142C47.1445 32.8908 47.048 32.6813 46.9031 32.5068C46.7582 32.3324 46.5701 32.1989 46.3576 32.1199C46.1553 32.0559 45.9384 32.0543 45.7352 32.1155C45.532 32.1766 45.3519 32.2976 45.2185 32.4626C44.8305 32.1433 44.3572 31.9453 43.8574 31.8931C43.6983 31.8592 43.5325 31.8774 43.3846 31.9452C43.2368 32.013 43.1147 32.1266 43.0366 32.2693C42.8183 32.1283 42.5655 32.0502 42.3058 32.0434C42.0461 32.0366 41.7895 32.1014 41.5642 32.2308C41.3607 32.3618 41.2013 32.551 41.1066 32.7737C41.0119 32.9965 40.9863 33.2425 41.0332 33.48C40.7899 33.4678 40.5473 33.5156 40.3268 33.6191C40.1063 33.7226 39.9146 33.8787 39.7685 34.0736C39.6324 34.2738 39.5553 34.5082 39.546 34.75C39.5366 34.9919 39.5954 35.2315 39.7156 35.4416C39.513 35.4993 39.3342 35.6204 39.2056 35.7872C39.077 35.954 39.0053 36.1577 39.001 36.3683C39.0094 36.5003 39.0471 36.6288 39.1114 36.7444C39.1757 36.8601 39.265 36.9599 39.3728 37.0366C39.4806 37.1134 39.6041 37.1652 39.7344 37.1882C39.8647 37.2112 39.9984 37.2048 40.126 37.1696C40.1513 37.1625 40.175 37.1505 40.1957 37.1343C40.2164 37.118 40.2337 37.0979 40.2466 37.0749C40.2595 37.052 40.2678 37.0267 40.2709 37.0006C40.2741 36.9745 40.272 36.948 40.2649 36.9227C40.2578 36.8973 40.2458 36.8736 40.2296 36.8529C40.2133 36.8322 40.1932 36.8149 40.1702 36.802C40.1473 36.7891 40.1221 36.7809 40.0959 36.7777C40.0698 36.7746 40.0433 36.7766 40.018 36.7837C39.9477 36.7987 39.8751 36.7981 39.8051 36.782C39.7351 36.7658 39.6695 36.7346 39.6128 36.6904C39.5562 36.6462 39.51 36.5901 39.4773 36.5261C39.4447 36.4622 39.4265 36.3918 39.424 36.32C39.4533 36.1664 39.5376 36.0287 39.6611 35.9327C39.7846 35.8368 39.9389 35.7891 40.095 35.7987C40.1362 35.7983 40.1763 35.7858 40.2105 35.7628C40.2446 35.7398 40.2713 35.7073 40.2872 35.6694C40.3031 35.6314 40.3076 35.5896 40.3001 35.5492C40.2925 35.5087 40.2733 35.4713 40.2448 35.4416C40.0873 35.2962 39.9882 35.0983 39.9661 34.8851C39.9439 34.6719 40.0001 34.4579 40.1242 34.2831C40.2658 34.1144 40.4541 33.9913 40.6655 33.9295C40.8769 33.8676 41.1019 33.8696 41.3122 33.9354C41.4713 33.9797 41.6517 33.7849 41.544 33.6315C41.4869 33.5446 41.4483 33.4467 41.4307 33.3442C41.4131 33.2416 41.4169 33.1365 41.4418 33.0354C41.4667 32.9344 41.5122 32.8396 41.5754 32.7569C41.6387 32.6743 41.7183 32.6056 41.8093 32.5551C42.0226 32.4555 42.2627 32.4284 42.4929 32.478C42.723 32.5277 42.9305 32.6514 43.0837 32.8302C43.2335 32.994 43.5244 32.7841 43.3977 32.5886C43.2983 32.436 43.4941 32.3197 43.6291 32.3006C43.9102 32.2995 44.1887 32.3545 44.4483 32.4622C44.7079 32.5699 44.9434 32.7283 45.1411 32.9281C45.1661 32.9518 45.1967 32.9687 45.2301 32.9773C45.2634 32.9859 45.2984 32.9859 45.3317 32.9772C45.3651 32.9685 45.3956 32.9515 45.4205 32.9277C45.4454 32.9039 45.4639 32.8742 45.4741 32.8413C45.5067 32.7657 45.5541 32.6973 45.6136 32.6403C45.6731 32.5833 45.7434 32.5389 45.8204 32.5096C45.8974 32.4803 45.9795 32.4668 46.0618 32.4699C46.1441 32.4729 46.225 32.4925 46.2996 32.5274C46.4795 32.6319 46.6257 32.7858 46.7207 32.9708C46.8157 33.1559 46.8556 33.3643 46.8357 33.5714C46.8373 33.6186 46.8555 33.6637 46.8872 33.6988C46.9188 33.7338 46.9619 33.7565 47.0087 33.7629C47.0555 33.7693 47.103 33.7589 47.1429 33.7336C47.1828 33.7083 47.2124 33.6697 47.2266 33.6247C47.2636 33.5549 47.3221 33.499 47.3935 33.465C47.4648 33.4311 47.5451 33.4211 47.6226 33.4364C47.7206 33.4562 47.8121 33.5002 47.8888 33.5642C47.9656 33.6282 48.0252 33.7104 48.0622 33.8033C48.2538 34.2696 48.2572 34.7921 48.0715 35.2609C48.0053 35.4499 48.2217 35.5565 48.3711 35.4927C48.7386 35.3358 49.0705 35.6954 49.1238 36.0284C49.1421 36.4484 49.0327 36.8641 48.8103 37.2207C48.791 37.256 48.7824 37.2961 48.7856 37.3361C48.7888 37.3761 48.8036 37.4144 48.8281 37.4462C48.8527 37.4779 48.8859 37.5019 48.9239 37.515C48.9618 37.5282 49.0028 37.53 49.0417 37.5203C49.2448 37.4817 49.3902 37.6938 49.4089 37.8677C49.4126 38.1012 49.3489 38.3308 49.2253 38.529C49.1563 38.706 49.045 38.8634 48.901 38.9874C48.757 39.1113 48.5848 39.1981 48.3995 39.24C48.2501 39.2594 48.2195 39.4715 48.3127 39.564C48.406 39.6565 48.3541 40.0082 48.3513 40.1335C48.3536 40.3481 48.3042 40.5601 48.2073 40.7516C48.1391 40.8989 48.0199 41.0165 47.8717 41.0827C47.7235 41.1489 47.5564 41.1592 47.4012 41.1116C47.3648 41.0917 47.3229 41.0841 47.2818 41.09C47.2407 41.0959 47.2026 41.115 47.1732 41.1443C47.1438 41.1736 47.1247 41.2117 47.1188 41.2528C47.1128 41.2939 47.1204 41.3358 47.1402 41.3723C47.1881 41.4805 47.208 41.599 47.198 41.7169C47.1881 41.8348 47.1486 41.9482 47.0832 42.0469C47.0178 42.1455 46.9286 42.226 46.8239 42.2811C46.7191 42.3361 46.6022 42.3639 46.4839 42.3619C46.439 42.3635 46.396 42.381 46.3628 42.4114C46.3295 42.4417 46.3081 42.4828 46.3023 42.5274C46.2965 42.572 46.3067 42.6173 46.3312 42.6551C46.3556 42.6928 46.3926 42.7207 46.4357 42.7338C46.4863 42.7609 46.5298 42.7996 46.5627 42.8467C46.5955 42.8939 46.6168 42.948 46.6248 43.0049C46.6328 43.0618 46.6273 43.1198 46.6087 43.1741C46.5901 43.2285 46.5589 43.2777 46.5178 43.3177C46.2816 43.5452 45.864 43.4019 45.6487 43.2212C45.5465 43.1352 45.3647 43.245 45.4461 43.3706C45.5174 43.4822 45.6126 43.5766 45.7249 43.647C45.8371 43.7174 45.9635 43.7621 46.095 43.7778C46.2266 43.7935 46.36 43.7799 46.4856 43.7378C46.6112 43.6958 46.726 43.6265 46.8216 43.5348C46.9243 43.4143 46.9861 43.2644 46.9983 43.1066C47.0105 42.9488 46.9723 42.7912 46.8893 42.6564C47.1116 42.5697 47.299 42.4119 47.4222 42.2075C47.5453 42.0032 47.5973 41.7638 47.5701 41.5267C47.7596 41.5278 47.9462 41.4794 48.1113 41.3862C48.2764 41.2931 48.4143 41.1585 48.5115 40.9957C48.6582 40.7295 48.7362 40.431 48.7383 40.127C48.7595 39.9342 48.7545 39.7393 48.7235 39.5478C48.9629 39.4281 49.1751 39.2605 49.347 39.0554C49.5189 38.8503 49.6468 38.6121 49.7229 38.3555C49.9551 37.7359 49.6822 37.2697 49.2927 37.1401Z" fill="url(#paint14_linear_353_7472)"/>
<path d="M41.1203 40.0025C41.1046 39.9765 41.083 39.9547 41.0572 39.9388C41.0314 39.9229 41.0022 39.9133 40.972 39.911C40.9418 39.9086 40.9115 39.9135 40.8835 39.9252C40.8556 39.9369 40.8309 39.9551 40.8114 39.9783C40.751 40.0382 40.7086 40.1138 40.689 40.1965C40.6693 40.2792 40.6732 40.3657 40.7001 40.4463C40.7074 40.4732 40.7207 40.498 40.7391 40.5188C40.7575 40.5396 40.7804 40.5558 40.8062 40.5663C40.8319 40.5768 40.8597 40.5811 40.8874 40.5791C40.9151 40.577 40.9419 40.5685 40.9658 40.5543C41.0549 40.4974 41.1199 40.4097 41.1484 40.3079C41.1769 40.2061 41.1669 40.0973 41.1203 40.0025Z" fill="url(#paint15_linear_353_7472)"/>
<path d="M42.4476 40.176C42.432 40.15 42.4104 40.1281 42.3846 40.1121C42.3588 40.0962 42.3296 40.0866 42.2994 40.0843C42.2691 40.0819 42.2388 40.0868 42.2108 40.0986C42.1829 40.1103 42.1582 40.1286 42.1387 40.1519C42.0783 40.2117 42.0359 40.2873 42.0163 40.37C41.9967 40.4527 42.0007 40.5393 42.0278 40.6199C42.0351 40.6467 42.0484 40.6714 42.0668 40.6922C42.0851 40.7129 42.1081 40.7292 42.1337 40.7396C42.1594 40.7501 42.1872 40.7545 42.2148 40.7524C42.2425 40.7504 42.2693 40.742 42.2932 40.7279C42.3819 40.6707 42.4466 40.5829 42.4751 40.4812C42.5035 40.3796 42.4937 40.271 42.4476 40.176Z" fill="url(#paint16_linear_353_7472)"/>
<path d="M41.4245 40.3114C41.2396 40.5306 41.0883 40.7762 40.9756 41.04C40.8384 41.305 40.733 41.5854 40.6617 41.8752C40.5425 42.5077 41.3572 42.3925 41.719 42.242C41.8688 42.1798 41.7817 41.9573 41.6416 41.9573C41.4137 41.9573 41.147 42.043 41.0624 42.0005C41.0141 42.0343 41.0048 42.0152 41.0285 41.9522C41.0433 41.9137 41.053 41.8655 41.0671 41.827C41.3975 40.9154 41.4854 40.8146 41.5934 40.4125C41.6193 40.3168 41.4926 40.235 41.4245 40.3114Z" fill="url(#paint17_linear_353_7472)"/>
<path d="M45.3006 38.2842C44.8107 36.9781 43.4646 36.4572 42.129 36.6815C41.4308 36.7651 40.7829 37.0874 40.2948 37.5937C40.261 37.584 40.265 37.6319 40.2948 37.5937L40.2902 37.6081C40.2754 37.6034 40.2707 37.6081 40.261 37.6229C40.1595 37.8061 40.0432 38.0628 40.1984 38.2504C40.3665 38.4538 40.6815 38.3724 40.8982 38.318C41.562 38.1506 42.2129 37.742 43.1428 38.0041C44.0637 38.2651 44.5468 39.0319 44.7887 39.9542C44.8571 40.2152 44.8676 40.5691 45.1462 40.6638C45.1731 40.672 45.2015 40.6746 45.2295 40.6715C45.2575 40.6683 45.2846 40.6595 45.309 40.6454C45.3334 40.6314 45.3547 40.6125 45.3715 40.5899C45.3884 40.5673 45.4004 40.5415 45.4068 40.514C45.538 39.7721 45.5017 39.0103 45.3006 38.2842Z" fill="url(#paint18_linear_353_7472)"/>
<path d="M41.8057 46.9487C41.9342 47.3 42.3903 47.4829 42.723 47.5812C43.1295 47.6877 43.548 47.7412 43.9682 47.7403C44.4341 47.7726 44.9018 47.7114 45.3438 47.5603C45.6627 47.4354 46.1275 47.1888 46.1743 46.8122C46.1804 46.7844 46.1785 46.7553 46.1687 46.7285C46.1588 46.7018 46.1415 46.6783 46.1188 46.6611C46.0961 46.6438 46.0689 46.6334 46.0404 46.6311C46.012 46.6288 45.9835 46.6347 45.9583 46.6481C45.6148 46.8519 45.4903 47.3886 43.9261 47.3288C42.4195 47.2709 42.2845 46.9156 41.918 46.8249C41.9013 46.8201 41.8836 46.8201 41.8668 46.8249C41.8501 46.8296 41.8351 46.839 41.8234 46.8519C41.8117 46.8648 41.8038 46.8807 41.8007 46.8978C41.7976 46.9149 41.7993 46.9325 41.8057 46.9487Z" fill="url(#paint19_linear_353_7472)"/>
<path d="M41.652 46.9728C40.4104 47.1163 39.1863 47.3832 37.9976 47.7695C37.174 48.0152 36.4044 48.4148 35.7296 48.9471C35.6364 49.0292 35.5566 49.1254 35.4931 49.2322C35.424 49.3485 35.3921 49.4831 35.4017 49.6181C35.4026 49.6439 35.4109 49.669 35.4255 49.6903C35.4402 49.7116 35.4606 49.7283 35.4844 49.7384C35.5082 49.7486 35.5344 49.7517 35.5599 49.7475C35.5854 49.7432 35.6092 49.7318 35.6285 49.7146C35.784 49.5468 35.9417 49.3524 36.1112 49.203C36.7775 48.7151 37.524 48.3476 38.317 48.1169C39.4225 47.7648 40.5907 47.5859 41.6768 47.1852C41.7816 47.137 41.7769 46.9638 41.652 46.9728Z" fill="url(#paint20_linear_353_7472)"/>
<path d="M46.3868 46.9631C46.8122 47.2 47.2712 47.3709 47.7479 47.47C47.951 47.5362 48.1576 47.592 48.356 47.673C48.5342 47.7851 48.73 47.8667 48.9352 47.9142C48.955 47.9142 48.9746 47.9095 48.9923 47.9006C49.01 47.8916 49.0253 47.8786 49.0371 47.8627C49.0489 47.8467 49.0567 47.8282 49.06 47.8086C49.0633 47.7891 49.062 47.769 49.0562 47.7501C48.9658 47.3559 48.3002 47.2079 47.97 47.1128C47.034 46.8425 46.7651 46.7338 46.4447 46.746C46.4195 46.7468 46.3953 46.7557 46.3755 46.7714C46.3558 46.7871 46.3416 46.8087 46.3351 46.833C46.3286 46.8574 46.3302 46.8832 46.3395 46.9066C46.3487 46.93 46.3653 46.9498 46.3868 46.9631Z" fill="url(#paint21_linear_353_7472)"/>
<path d="M23.6941 38.0815C23.2599 37.7335 22.9224 37.2796 22.7142 36.7635C22.6759 36.5961 22.626 36.4315 22.5648 36.2711C22.5553 36.2568 22.5421 36.2454 22.5266 36.2381C22.511 36.2309 22.4938 36.2282 22.4767 36.2302C22.4597 36.2322 22.4436 36.2389 22.4301 36.2496C22.4167 36.2602 22.4065 36.2744 22.4006 36.2905C22.3461 36.597 22.3954 36.913 22.5407 37.1883C22.6592 37.4642 22.8223 37.7186 23.0234 37.9415C23.2666 38.1998 23.5386 38.4293 23.8342 38.6255C23.873 38.6496 23.873 38.6687 23.8198 38.6928C23.7812 38.7648 23.647 38.8436 23.5832 38.8958C23.45 39.0038 23.2632 39.0935 23.2308 39.2771C23.2234 39.307 23.2278 39.3387 23.2431 39.3655C23.2583 39.3923 23.2833 39.4122 23.3129 39.4211C23.4965 39.4502 23.6124 39.3393 23.7571 39.2281C23.9356 39.1225 24.0888 38.9791 24.206 38.808C24.372 38.4537 23.9108 38.2561 23.6941 38.0815Z" fill="url(#paint22_linear_353_7472)"/>
<path d="M22.4586 40.5914C22.4338 40.6393 22.3906 40.7401 22.338 40.7603C22.2552 40.7923 22.1786 40.6883 22.14 40.635C22.032 40.4708 22.0371 40.2563 21.9276 40.099C21.8916 40.0453 21.7865 40.027 21.7538 40.099C21.6989 40.2717 21.7074 40.4583 21.7779 40.6253C21.8188 40.7977 21.9198 40.9499 22.0626 41.0548C22.1327 41.1012 22.2138 41.1284 22.2978 41.1335C22.3817 41.1386 22.4655 41.1215 22.5407 41.0839C22.6094 41.0406 22.6663 40.9812 22.7067 40.9108C22.7471 40.8403 22.7695 40.7611 22.7722 40.68C22.7942 40.509 22.5339 40.4456 22.4586 40.5914Z" fill="url(#paint23_linear_353_7472)"/>
<path d="M21.3433 36.9616C21.2878 36.9758 21.2382 37.0073 21.2017 37.0516C21.1653 37.0958 21.1439 37.1506 21.1406 37.2078C21.171 37.3514 21.2356 37.4855 21.3289 37.5988C21.4729 37.737 21.7055 37.6823 21.7055 37.3572C21.7055 37.1642 21.5755 36.9097 21.3433 36.9616Z" fill="url(#paint24_linear_353_7472)"/>
<path d="M18.2444 39.5345C18.23 39.5107 18.207 39.4934 18.1802 39.4862C18.1534 39.479 18.1248 39.4823 18.1004 39.4956C17.9305 39.5907 17.8981 39.7761 17.7818 39.9157C17.6549 40.0713 17.4738 40.1731 17.275 40.2005C17.0527 40.194 16.8358 40.1302 16.6455 40.0151C16.4552 39.9 16.2979 39.7377 16.1888 39.5439C15.6978 38.6921 16.5193 37.4429 17.1544 37.9415C17.1797 37.9673 17.2137 37.9829 17.2498 37.9853C17.2859 37.9877 17.3217 37.9768 17.3503 37.9546C17.3788 37.9324 17.3982 37.9004 17.4048 37.8648C17.4114 37.8292 17.4046 37.7924 17.3858 37.7615C17.3164 37.6516 17.2164 37.5643 17.0981 37.5103C16.9798 37.4564 16.8484 37.4381 16.7198 37.4577C16.0222 37.5325 15.349 38.6457 15.7738 39.6105C15.9041 39.895 16.1106 40.1381 16.3703 40.3127C16.6301 40.4873 16.9331 40.5868 17.2458 40.6001C17.53 40.5838 17.7983 40.4639 18 40.2631C18.1778 40.0857 18.4147 39.78 18.2444 39.5345Z" fill="url(#paint25_linear_353_7472)"/>
<path d="M17.443 40.712C17.7139 41.5346 17.7879 42.4092 17.659 43.2655C17.578 43.6846 17.4517 43.6975 17.456 43.9416C17.4564 43.9609 17.4611 43.9798 17.4698 43.9969C17.4785 44.0141 17.4911 44.0291 17.5064 44.0407C17.5218 44.0523 17.5396 44.0603 17.5585 44.064C17.5774 44.0677 17.5969 44.0671 17.6155 44.0622C17.9006 44.0262 17.987 43.6806 18.0403 43.4394C18.2528 42.4833 18.114 41.4827 17.6493 40.6206C17.6339 40.599 17.6115 40.5835 17.5859 40.5765C17.5604 40.5695 17.5332 40.5716 17.5089 40.5823C17.4847 40.593 17.4649 40.6118 17.4529 40.6354C17.4409 40.6591 17.4374 40.6861 17.443 40.712Z" fill="url(#paint26_linear_353_7472)"/>
<path d="M16.7335 34.1712C16.8088 34.0647 16.8399 33.9333 16.8203 33.8044C16.8116 33.7747 16.7918 33.7495 16.7649 33.7342C16.738 33.7189 16.7062 33.7146 16.6763 33.7223C16.4203 33.7601 16.3066 34.2007 16.2418 34.4174C15.9917 35.4189 16.119 36.4774 16.5992 37.391C16.6561 37.499 16.8008 37.4202 16.7825 37.314C16.6032 36.2725 16.2205 35.3016 16.7335 34.1712Z" fill="url(#paint27_linear_353_7472)"/>
<path d="M19.4127 31.6951C19.0964 31.8429 18.8298 32.0793 18.6452 32.3755C17.972 33.2035 17.3823 34.2875 17.4287 35.3542C17.4341 35.4748 17.6213 35.5133 17.6447 35.383C17.8219 34.3649 18.2691 33.4131 18.9396 32.6268C19.1882 32.3995 19.3913 32.1271 19.5383 31.824C19.5433 31.8064 19.5436 31.7879 19.5392 31.7702C19.5347 31.7524 19.5256 31.7362 19.5129 31.7231C19.5001 31.7101 19.4841 31.7006 19.4665 31.6957C19.4489 31.6907 19.4304 31.6906 19.4127 31.6951Z" fill="url(#paint28_linear_353_7472)"/>
<path d="M21.9035 30.888C21.903 30.8706 21.8985 30.8536 21.8906 30.8381C21.8827 30.8227 21.8715 30.8091 21.8577 30.7985C21.844 30.7879 21.828 30.7804 21.8111 30.7767C21.7941 30.7729 21.7765 30.7729 21.7595 30.7768C21.5356 30.8488 21.5641 30.9874 21.1115 31.4575C20.4398 32.157 19.6053 32.7348 19.3785 33.7165C19.3551 33.818 19.5095 33.8965 19.5585 33.7885C20.1457 32.472 21.9781 31.4896 21.9035 30.888Z" fill="url(#paint29_linear_353_7472)"/>
<path d="M22.8784 31.9172C23.0462 31.7636 23.1526 31.5544 23.1779 31.3283C23.174 31.2563 23.1002 31.1778 23.0235 31.2077C22.743 31.3157 22.7394 31.527 22.1062 32.2067C21.7848 32.5604 21.4344 32.8866 21.0586 33.1819C20.9628 33.2539 21.0827 33.394 21.1796 33.341C21.8368 32.9869 22.4148 32.5024 22.8784 31.9172Z" fill="url(#paint30_linear_353_7472)"/>
<path d="M23.791 32.688C23.9055 32.5325 24.0696 32.3359 24.0178 32.1329C24.0143 32.1194 24.0082 32.1067 23.9996 32.0957C23.9911 32.0846 23.9804 32.0755 23.9682 32.0687C23.956 32.062 23.9425 32.0578 23.9286 32.0564C23.9148 32.0551 23.9008 32.0566 23.8875 32.0609C23.7136 32.0994 23.6207 32.2819 23.5253 32.418C23.1437 32.9428 22.7049 33.4236 22.2171 33.8515C22.1264 33.93 22.2405 34.0722 22.338 34.011C22.9078 33.6741 23.4024 33.2238 23.791 32.688Z" fill="url(#paint31_linear_353_7472)"/>
<path d="M24.5159 33.592C24.638 33.4436 24.787 33.2492 24.7139 33.052C24.7078 33.0321 24.6945 33.0153 24.6767 33.0046C24.6589 32.9939 24.6379 32.9901 24.6175 32.994C24.3453 33.0588 24.3467 33.3641 23.7581 33.8288C23.3728 34.1133 22.9698 34.3729 22.5514 34.6061C22.4603 34.6608 22.5179 34.8145 22.6234 34.78C23.3586 34.5814 24.0176 34.1677 24.5159 33.592Z" fill="url(#paint32_linear_353_7472)"/>
<path d="M24.9202 33.5343C24.9088 33.5136 24.8905 33.4975 24.8686 33.4886C24.8466 33.4797 24.8223 33.4787 24.7996 33.4857C24.6067 33.5534 24.521 33.8004 24.4281 33.9638C24.3043 34.1718 24.1587 34.366 23.9936 34.5431C23.6625 34.8935 23.276 35.187 22.8495 35.4117C22.8282 35.4248 22.8122 35.4452 22.8047 35.469C22.7972 35.4929 22.7986 35.5187 22.8086 35.5416C22.8186 35.5646 22.8365 35.5831 22.8591 35.5939C22.8818 35.6046 22.9075 35.6068 22.9316 35.6C23.6868 35.3591 24.3307 34.8557 24.7467 34.1809C24.8522 34.0049 25.0199 33.7446 24.9202 33.5343Z" fill="url(#paint33_linear_353_7472)"/>
<path d="M16.4631 52.6784C16.61 53.2116 16.8293 53.7264 17.0136 54.2524C17.3531 55.2222 17.388 55.5123 17.5928 55.7244C17.6056 55.7372 17.6214 55.7465 17.6388 55.7513C17.6562 55.7562 17.6745 55.7564 17.692 55.7521C17.7095 55.7477 17.7256 55.7389 17.7387 55.7265C17.7518 55.7141 17.7614 55.6985 17.7667 55.6812C17.7891 55.426 17.7493 55.1692 17.6508 54.9328C17.4076 54.1215 17.0792 53.3383 16.6709 52.5964C16.658 52.5718 16.6365 52.5529 16.6105 52.5433C16.5845 52.5336 16.5559 52.5339 16.5302 52.5441C16.5044 52.5543 16.4833 52.5736 16.4709 52.5984C16.4585 52.6232 16.4558 52.6517 16.4631 52.6784Z" fill="url(#paint34_linear_353_7472)"/>
<path d="M21.4883 44.7426C21.4545 44.7507 21.4219 44.7638 21.3919 44.7815C21.4416 44.628 21.4432 44.4629 21.3965 44.3084C21.2482 43.3069 21.3634 42.6798 21.2662 42.4004C21.2617 42.3851 21.2528 42.3714 21.2406 42.361C21.2284 42.3506 21.2135 42.344 21.1976 42.342C21.1817 42.34 21.1656 42.3426 21.1512 42.3496C21.1368 42.3566 21.1247 42.3676 21.1165 42.3814C21.0386 42.5528 20.9976 42.7385 20.9959 42.9268C20.962 43.378 20.9749 43.8315 21.0344 44.28C21.0592 44.4683 21.0538 44.6904 21.2144 44.82C21.23 44.8332 21.2481 44.8431 21.2677 44.8492C21.1712 44.9021 21.0837 44.9572 20.9829 45.0083C20.3844 45.2452 19.7247 45.2791 19.1051 45.1048C17.9794 44.8394 17.5528 44.1133 17.0971 43.618C17.0813 43.6037 17.0614 43.5948 17.0403 43.5926C17.0191 43.5904 16.9978 43.595 16.9795 43.6058C16.9612 43.6166 16.9467 43.6329 16.9384 43.6525C16.93 43.672 16.9281 43.6937 16.9329 43.7144C17.1169 44.4132 17.9539 45.2624 19.0666 45.5101C19.5438 45.6251 20.0385 45.6481 20.5243 45.5778C20.9253 45.5119 21.5027 45.3409 21.6442 44.9118C21.6513 44.8895 21.6523 44.8658 21.6473 44.843C21.6422 44.8202 21.6312 44.7991 21.6154 44.782C21.5996 44.7648 21.5795 44.7521 21.5572 44.7452C21.5349 44.7383 21.5111 44.7374 21.4883 44.7426Z" fill="url(#paint35_linear_353_7472)"/>
<path d="M16.5165 43.7195C15.9395 43.7573 15.373 43.8928 14.8414 44.1202C11.3944 45.3359 9.66999 47.6593 9.36255 49.8982C9.00039 52.5377 10.1751 55.8742 11.3512 57.1583C11.4621 57.2789 11.6352 57.1248 11.5672 56.9891C10.9919 55.9999 10.5257 54.9512 10.1769 53.8614C9.84815 52.7631 9.70137 51.6184 9.74235 50.4727C9.84351 48.2954 11.2684 46.4864 13.0828 45.3895C14.6164 44.4625 16.1194 44.177 16.5679 43.9175C16.5883 43.906 16.6042 43.8881 16.6133 43.8667C16.6225 43.8452 16.6242 43.8213 16.6183 43.7987C16.6125 43.7761 16.5993 43.7561 16.5809 43.7418C16.5624 43.7274 16.5398 43.7196 16.5165 43.7195Z" fill="url(#paint36_linear_353_7472)"/>
<path d="M24.2349 45.013C24.1845 44.8204 23.9595 44.7145 23.791 44.6364C23.1694 44.3397 22.4758 44.2273 21.7923 44.3124C21.7713 44.3192 21.7531 44.3324 21.7401 44.3502C21.7272 44.368 21.7202 44.3894 21.7202 44.4114C21.7202 44.4334 21.7272 44.4548 21.7401 44.4726C21.7531 44.4904 21.7713 44.5036 21.7923 44.5104C22.4143 44.5967 23.0227 44.7622 23.6027 45.0029C23.7669 45.0749 23.9706 45.2002 24.1578 45.1426C24.1847 45.1348 24.2077 45.1171 24.222 45.093C24.2363 45.0689 24.2409 45.0403 24.2349 45.013Z" fill="url(#paint37_linear_353_7472)"/>
<path d="M44.4849 25.6032C44.6086 25.6293 44.7352 25.6392 44.8615 25.6324C44.9165 25.6324 44.9694 25.6105 45.0083 25.5715C45.0473 25.5326 45.0692 25.4797 45.0692 25.4246C45.0692 25.3695 45.0473 25.3167 45.0083 25.2778C44.9694 25.2388 44.9165 25.2169 44.8615 25.2169C44.7352 25.2063 44.608 25.2162 44.4849 25.2461C44.4471 25.2582 44.4141 25.2821 44.3907 25.3142C44.3673 25.3462 44.3547 25.3849 44.3547 25.4246C44.3547 25.4643 44.3673 25.503 44.3907 25.5351C44.4141 25.5672 44.4471 25.591 44.4849 25.6032Z" fill="url(#paint38_linear_353_7472)"/>
<path d="M44.8708 27.2927C44.7445 27.2836 44.6176 27.2934 44.4942 27.3218C44.4556 27.3332 44.4218 27.3567 44.3977 27.3889C44.3736 27.4211 44.3606 27.4602 44.3606 27.5004C44.3606 27.5406 44.3736 27.5797 44.3977 27.6119C44.4218 27.6441 44.4556 27.6676 44.4942 27.679C44.6178 27.7057 44.7445 27.7154 44.8708 27.7078C44.9257 27.7073 44.9782 27.6853 45.017 27.6465C45.0558 27.6078 45.0779 27.5553 45.0785 27.5004C45.0787 27.4731 45.0734 27.446 45.0631 27.4207C45.0527 27.3954 45.0374 27.3724 45.0181 27.3531C44.9987 27.3338 44.9758 27.3185 44.9505 27.3081C44.9252 27.2977 44.8981 27.2925 44.8708 27.2927Z" fill="url(#paint39_linear_353_7472)"/>
<path d="M45.8413 24.3241C45.8217 24.3138 45.7994 24.31 45.7775 24.3134C45.7556 24.3167 45.7353 24.3269 45.7197 24.3426C45.704 24.3582 45.6938 24.3785 45.6905 24.4003C45.6872 24.4222 45.691 24.4446 45.7013 24.4642C45.9275 24.7707 46.1169 25.1027 46.2657 25.4535C46.5217 26.2573 46.4859 27.1257 46.1646 27.9058C45.9147 28.5919 45.6721 28.7741 45.788 29.0063C45.7948 29.0182 45.8047 29.028 45.8166 29.0348C45.8285 29.0416 45.842 29.045 45.8557 29.0448C46.0584 29.0304 46.1502 28.8036 46.2323 28.6395C46.572 27.9943 46.7664 27.2826 46.8018 26.5543C46.818 25.7915 46.5552 24.732 45.8413 24.3241Z" fill="url(#paint40_linear_353_7472)"/>
<path d="M36.4679 16.929C33.9782 12.2972 27.5345 12.105 24.1491 14.3751C21.6565 16.0473 20.5909 19.0674 20.6445 21.9683C20.7071 25.3346 23.1242 28.0569 25.9883 28.5332C26.389 28.5998 26.7944 28.6297 27.1997 28.6589C27.2491 29.1517 27.9089 30.1601 28.9522 30.6957C29.1884 30.8171 29.5408 31.0287 29.8112 30.8984C30.0499 30.8984 29.8929 30.3876 29.8832 30.2663C29.8274 29.5369 29.9771 28.9645 29.9509 28.4126C31.6622 28.384 33.3038 27.7297 34.5657 26.5734C35.8556 25.4214 36.6335 23.7355 37.0565 22.0892C37.5174 20.3564 37.3071 18.5135 36.4679 16.929ZM36.8337 20.52C36.6818 22.2338 36.084 23.878 35.0999 25.2893C33.8738 26.9705 31.8484 27.8917 29.7755 28.0458C29.7393 28.0474 29.7044 28.0596 29.675 28.0808C29.6456 28.1021 29.6232 28.1315 29.6103 28.1654C29.5975 28.1993 29.5949 28.2362 29.6028 28.2716C29.6107 28.3069 29.6289 28.3392 29.6549 28.3644C29.4886 29.0445 29.4268 29.7461 29.4717 30.4448C29.3662 30.4095 29.263 30.3676 29.1628 30.3192C28.4534 29.9214 27.8749 29.3261 27.4975 28.6056C27.5079 28.5897 27.5143 28.5715 27.5161 28.5525C27.518 28.5336 27.5153 28.5145 27.5082 28.4969C27.5012 28.4792 27.49 28.4635 27.4756 28.4511C27.4612 28.4387 27.444 28.43 27.4255 28.4256C26.5655 28.3463 25.7202 28.152 24.9119 27.8478C23.9347 27.4146 23.0786 26.7482 22.4189 25.9072C21.7591 25.0661 21.3157 24.0761 21.1276 23.0238C20.9172 21.4747 21.071 19.8979 21.5765 18.4187C22.4863 15.8331 24.4789 14.0429 27.5669 13.5385C29.0663 13.2894 30.6031 13.3918 32.0561 13.8377C33.4707 14.2806 34.7024 15.1726 35.5645 16.3784C36.4266 17.5842 36.8722 19.0382 36.8337 20.52Z" fill="url(#paint41_linear_353_7472)"/>
<path d="M25.1863 20.7C25.0876 20.7684 25.0073 20.86 24.9523 20.9667C24.8973 21.0734 24.8694 21.192 24.8709 21.312C24.8761 21.4792 24.9436 21.6383 25.0602 21.7582C25.1768 21.8781 25.334 21.9501 25.5009 21.96C25.6408 21.9535 25.7739 21.8974 25.8762 21.8016C25.9784 21.7059 26.0432 21.5769 26.0589 21.4377C26.1583 20.8044 25.5873 20.448 25.1863 20.7Z" fill="url(#paint42_linear_353_7472)"/>
<path d="M28.4065 20.7029C28.3056 20.7703 28.2234 20.862 28.1673 20.9696C28.1112 21.0772 28.0832 21.1972 28.0857 21.3185C28.0908 21.4857 28.1584 21.645 28.2751 21.7649C28.3917 21.8848 28.5491 21.9567 28.7161 21.9665C28.856 21.96 28.989 21.9039 29.0913 21.8082C29.1935 21.7124 29.2582 21.5833 29.2737 21.4441C29.372 20.817 28.8187 20.4624 28.4065 20.7029Z" fill="url(#paint43_linear_353_7472)"/>
<path d="M32.0648 20.7742C31.9795 20.6634 31.8565 20.5878 31.7191 20.5619C31.5818 20.5361 31.4397 20.5616 31.3199 20.6338C31.2214 20.7023 31.1412 20.7939 31.0863 20.9006C31.0314 21.0073 31.0035 21.1258 31.0049 21.2458C31.01 21.413 31.0774 21.5722 31.194 21.6922C31.3106 21.8121 31.4679 21.884 31.6349 21.8938C32.1861 21.8959 32.3639 21.1432 32.0648 20.7742Z" fill="url(#paint44_linear_353_7472)"/>
<path d="M11.7425 14.9015C11.6676 14.7046 11.6104 14.3899 11.39 14.3125C11.368 14.3062 11.3447 14.3061 11.3225 14.312C11.3004 14.318 11.2803 14.3299 11.2644 14.3464C11.092 14.5454 11.2482 14.8781 11.3321 15.0898C11.5582 15.6596 12.3019 17.0089 12.7721 17.0446C12.804 17.0443 12.8345 17.0315 12.857 17.0089C12.8796 16.9864 12.8924 16.9559 12.8927 16.924C12.8822 16.488 12.3649 16.5442 11.7425 14.9015Z" fill="url(#paint45_linear_353_7472)"/>
<path d="M15.7586 12.5748C15.6342 12.8129 15.5606 13.0743 15.5426 13.3423C15.4468 14.0123 15.4018 15.1754 15.6506 15.8137C15.6591 15.8433 15.678 15.8689 15.7038 15.8857C15.7297 15.9026 15.7607 15.9096 15.7912 15.9055C15.8218 15.9014 15.8498 15.8865 15.8703 15.8634C15.8907 15.8403 15.9022 15.8107 15.9026 15.7799C15.9782 14.9494 15.8036 14.8374 15.9656 13.3808C16.012 13.1245 16.0249 12.8633 16.0041 12.6036C15.9757 12.488 15.8122 12.4884 15.7586 12.5748Z" fill="url(#paint46_linear_353_7472)"/>
<path d="M20.7932 11.1219C20.7846 11.0347 20.701 10.9321 20.5999 10.9721C20.3767 11.061 20.2888 11.2777 20.1801 11.4743C19.8094 12.1063 19.5115 12.7783 19.292 13.4773C19.2857 13.5046 19.2892 13.5333 19.3019 13.5582C19.3146 13.5832 19.3357 13.6029 19.3615 13.6139C19.3873 13.6248 19.4161 13.6263 19.4429 13.6182C19.4697 13.61 19.4927 13.5926 19.508 13.5691C19.9573 12.8131 20.098 12.5032 20.5412 11.7252C20.6438 11.5467 20.8152 11.3436 20.7932 11.1219Z" fill="url(#paint47_linear_353_7472)"/>
<path d="M56.8566 32.5879C56.5774 32.5293 56.2923 32.5035 56.007 32.5109C55.4346 32.4821 54.4119 32.3982 53.7527 32.3226C54.1394 31.7509 54.8777 30.497 54.9548 29.9426C54.971 29.8271 54.8198 29.687 54.7233 29.8123C54.4538 30.2265 54.2133 30.6588 54.0033 31.1062C53.7497 31.5477 53.4742 31.9763 53.1778 32.3903C53.0716 32.5397 53.2163 32.6981 53.3611 32.7143C53.8453 32.7665 56.3678 33.0466 56.8462 32.9364C56.8841 32.9264 56.9178 32.9044 56.9422 32.8737C56.9666 32.843 56.9804 32.8052 56.9816 32.7661C56.9827 32.7269 56.9712 32.6883 56.9487 32.6562C56.9262 32.6241 56.8939 32.6002 56.8566 32.5879Z" fill="url(#paint48_linear_353_7472)"/>
<path d="M70.3389 27.0079C70.2936 24.1405 68.8755 21.1342 66.2349 19.8155C63.1969 18.2977 58.1508 18.6908 55.881 21.6306C54.2066 23.7985 53.9589 28.0076 54.7369 29.4505C54.8197 29.6042 55.0497 29.4941 55.0119 29.3346C54.7039 27.9588 54.6809 26.5346 54.9443 25.1496C55.2153 23.6192 55.7705 22.1576 56.9718 21.1176C59.0396 19.3295 62.5539 18.9936 65.0667 19.8097C67.8175 20.7032 69.4152 23.1379 69.8263 25.974C70.0581 27.5738 69.7957 28.8698 69.2615 30.3955C68.7438 31.8744 68.0457 32.94 66.5535 33.8083C64.4922 34.9666 62.0587 35.2698 59.7762 34.6529C58.7888 34.4201 57.8881 33.9111 57.1791 33.1855C57.0769 33.0905 56.8764 33.2215 56.9718 33.345C59.378 36.4223 66.8153 36.009 69.0926 31.8485C69.8747 30.3522 70.3012 28.6958 70.3389 27.0079Z" fill="url(#paint49_linear_353_7472)"/>
<path d="M66.4675 24.9034C66.1649 24.8074 65.849 24.7602 65.5315 24.7633C65.2032 24.746 59.3673 24.5606 59.2031 24.5606C59.0251 24.569 58.8477 24.5884 58.6721 24.6186C58.5324 24.6348 58.4691 24.8508 58.6336 24.889C59.1963 25.0186 58.5886 24.9908 65.4927 25.2461C65.8195 25.274 66.1487 25.2497 66.4679 25.1741C66.4957 25.164 66.5197 25.1455 66.5366 25.1213C66.5536 25.097 66.5626 25.0682 66.5626 25.0386C66.5625 25.009 66.5534 24.9802 66.5364 24.956C66.5194 24.9318 66.4953 24.9134 66.4675 24.9034Z" fill="url(#paint50_linear_353_7472)"/>
<path d="M66.1198 27.2347C65.8267 27.1591 65.5245 27.125 65.222 27.1335C64.8486 27.113 60.8591 26.897 59.75 26.897C59.4395 26.8775 59.1279 26.8986 58.823 26.9597C58.7967 26.9678 58.7737 26.9841 58.7573 27.0063C58.741 27.0285 58.7322 27.0553 58.7322 27.0828C58.7322 27.1103 58.741 27.1371 58.7573 27.1593C58.7737 27.1814 58.7967 27.1978 58.823 27.2059C59.1122 27.2753 59.409 27.3077 59.7064 27.3024C66.0676 27.6055 65.7688 27.6591 66.1216 27.5871C66.3081 27.5486 66.28 27.2909 66.1198 27.2347Z" fill="url(#paint51_linear_353_7472)"/>
<path d="M65.7965 29.2043C65.2181 29.1033 64.6315 29.0564 64.0444 29.0642C63.4637 29.0383 62.8828 29.0189 62.3016 29.0063C61.1407 28.9494 59.9771 28.9817 58.8212 29.1028C58.6718 29.1226 58.7247 29.3407 58.855 29.3548C60.2738 29.4962 61.3001 29.3713 64.0008 29.5092C64.5794 29.5728 65.1618 29.5953 65.7436 29.5765C65.9463 29.556 66.0186 29.2576 65.7965 29.2043Z" fill="url(#paint52_linear_353_7472)"/>
<path d="M23.0861 39.9398C23.1663 40.25 23.2195 40.5666 23.2452 40.8859C23.2959 41.1601 23.2499 41.4433 23.1149 41.6873C22.5389 42.4793 20.7774 41.6642 19.939 41.161C19.6897 41.0321 19.4711 40.8512 19.2978 40.6305C19.1245 40.4099 19.0006 40.1546 18.9346 39.8819C18.8917 39.65 18.5386 39.7469 18.5774 39.9784C18.6552 40.2982 18.8005 40.5977 19.0037 40.8566C19.2069 41.1156 19.4632 41.328 19.7554 41.4796C20.3882 41.8515 21.0685 42.1357 21.7778 42.3245C22.3481 42.4379 23.0738 42.4051 23.4385 41.8705C23.5967 41.6013 23.6627 41.2879 23.6268 40.9777C23.6013 40.5917 23.541 40.2088 23.4468 39.8336C23.4285 39.7911 23.3953 39.7567 23.3534 39.737C23.3115 39.7173 23.2638 39.7136 23.2193 39.7267C23.1749 39.7398 23.1368 39.7687 23.1122 39.808C23.0877 39.8472 23.0784 39.8942 23.0861 39.9398Z" fill="url(#paint53_linear_353_7472)"/>
<path d="M63.6048 56.8105C62.3448 55.1477 60.6809 54.8222 59.3957 54.455C59.328 54.4406 59.2704 54.4162 59.2027 54.3971C59.6174 54.3057 60.0099 54.1328 60.3571 53.8883C60.7043 53.6438 60.9994 53.3326 61.2252 52.9729C61.2462 52.9344 61.2542 52.8902 61.2481 52.8467C61.242 52.8033 61.2221 52.763 61.1913 52.7317C59.2959 51.053 59.414 48.2764 59.333 45.9497C59.2549 43.7144 58.8794 41.1509 56.8278 39.848C56.3404 39.5189 55.7731 39.3276 55.1858 39.2945C54.5986 39.2613 54.0134 39.3875 53.492 39.6598C52.448 38.7378 49.1277 41.3878 49.7945 44.1684C49.8167 44.2664 49.8596 44.3586 49.9201 44.4388C49.7031 45.1206 49.5653 45.8252 49.5097 46.5386C49.4096 47.3376 49.4504 48.1478 49.6303 48.9326C49.706 49.2575 49.8464 49.5638 50.0429 49.8334C50.2395 50.1029 50.4882 50.3301 50.7744 50.5015C51.1171 50.6765 51.5005 50.7566 51.8846 50.7334C51.8979 51.2281 51.8495 51.7226 51.7406 52.2054C51.6789 52.4807 51.5899 52.7491 51.4749 53.0068C51.413 53.1421 51.2852 53.4128 51.5088 53.4701C51.7702 53.5374 51.9095 53.015 51.9966 52.7605C52.2223 52.0998 52.2851 51.3944 52.1798 50.7042C53.1158 50.5577 54.252 49.982 54.6707 49.1562C54.6879 49.124 54.6931 49.0868 54.6853 49.0511C54.6776 49.0154 54.6573 48.9837 54.6283 48.9617C54.5992 48.9396 54.5632 48.9286 54.5268 48.9307C54.4903 48.9327 54.4558 48.9477 54.4295 48.973C54.04 49.4373 53.554 49.8111 53.0053 50.0684C52.4243 50.3204 51.6582 50.4893 51.0613 50.2085C49.7909 49.612 49.828 47.8724 49.8982 46.6895C49.9671 45.9073 50.0848 45.1303 50.2506 44.3628C51.8267 42.6168 52.5816 42.4361 52.862 42.0314C53.3116 43.3152 54.1354 44.4349 55.2272 45.2462C55.5034 45.4371 55.8058 45.5867 56.1251 45.6905C56.1395 45.6905 56.1539 45.6952 56.1636 45.6905C56.1948 45.7135 56.224 45.7393 56.2507 45.7675C56.282 45.7983 56.3223 45.8182 56.3657 45.8243C56.4092 45.8304 56.4534 45.8223 56.4919 45.8014C56.6391 45.7223 56.8094 45.6978 56.9729 45.7323C57.1364 45.7667 57.2824 45.8579 57.3851 45.9896C57.4895 46.1285 57.5586 46.2907 57.5863 46.4623C57.614 46.6338 57.5996 46.8095 57.5442 46.9742C57.4914 47.1383 57.4043 47.2891 57.2886 47.4168C57.1729 47.5445 57.0312 47.646 56.8732 47.7145C56.7151 47.7831 56.5442 47.8171 56.3719 47.8144C56.1997 47.8116 56.0299 47.7721 55.8741 47.6986C55.8356 47.6774 55.7913 47.6693 55.7478 47.6754C55.7042 47.6815 55.6638 47.7015 55.6326 47.7324C55.5162 47.9025 55.4357 48.0946 55.3961 48.2969C54.832 50.2466 54.8975 52.3836 54.9569 54.2779C54.9599 54.3132 54.9716 54.3472 54.9909 54.377C55.0102 54.4067 55.0366 54.4312 55.0676 54.4484C55.0986 54.4655 55.1334 54.4748 55.1688 54.4753C55.2042 54.4758 55.2393 54.4676 55.2708 54.4514C55.7219 54.637 56.207 54.7258 56.6946 54.7121C57.3204 54.7026 57.9447 54.6479 58.5626 54.5483C59.3694 54.9515 60.6866 55.1326 61.7101 55.7114C62.3819 56.091 62.9585 56.6187 63.3959 57.2544C63.8334 57.8901 64.1202 58.6171 64.2348 59.3802C64.2834 59.6718 64.3237 60.2611 64.3939 60.4566C64.399 60.4734 64.4088 60.4884 64.4223 60.4997C64.4358 60.511 64.4523 60.5181 64.4697 60.5201C64.4872 60.5221 64.5048 60.519 64.5205 60.5111C64.5362 60.5032 64.5493 60.4909 64.5581 60.4757C64.8018 59.8968 64.6596 58.2008 63.6048 56.8105ZM55.2636 44.1875C55.236 44.2043 55.2043 44.2131 55.172 44.2131C55.1397 44.2131 55.108 44.2043 55.0804 44.1875C54.4114 43.7676 53.9005 43.1379 53.6274 42.3968C53.5147 42.1699 53.4727 41.9143 53.5068 41.6632C53.5112 41.647 53.5198 41.6324 53.5318 41.6207C53.5438 41.609 53.5586 41.6008 53.5749 41.5968C53.5911 41.5928 53.6081 41.5933 53.6241 41.5981C53.6402 41.603 53.6546 41.612 53.6659 41.6243C53.8156 41.8562 53.9355 42.1059 54.023 42.3677C54.2711 42.8804 54.6273 43.3333 55.067 43.6954C55.2002 43.8073 55.5059 44.0248 55.2636 44.1875ZM56.3594 40.2199C56.1499 40.2584 56.0668 40.0828 55.6063 39.9445C55.3183 39.8578 55.0206 39.8747 54.7279 39.8095C54.7149 39.8058 54.7032 39.7983 54.6945 39.788C54.6857 39.7777 54.6802 39.765 54.6787 39.7515C54.6771 39.7381 54.6796 39.7244 54.6858 39.7124C54.692 39.7004 54.7017 39.6904 54.7135 39.6839C55.0145 39.5747 55.3424 39.5647 55.6495 39.6551C55.8814 39.7073 56.3695 39.8286 56.4268 40.104C56.4318 40.1569 56.4077 40.2149 56.3594 40.2199Z" fill="url(#paint54_linear_353_7472)"/>
<path d="M35.5882 41.6822C35.7545 40.7552 35.7869 39.7127 35.3035 38.8681C35.114 38.5113 34.8256 38.2167 34.4728 38.0198C34.1201 37.8229 33.718 37.7319 33.3148 37.7579C32.4461 37.8659 31.8748 38.5708 31.1861 39.037C29.4552 40.212 27.4256 39.7969 26.1901 41.2625C24.8221 42.8825 25.0845 45.1865 25.9294 46.9865C25.5993 47.1344 25.3276 47.3876 25.1568 47.7065C25.0367 47.9418 24.9774 48.2033 24.9842 48.4674C24.991 48.7315 25.0637 48.9897 25.1957 49.2185C25.3485 49.4678 25.5591 49.6765 25.8099 49.8269C26.0606 49.9774 26.3439 50.065 26.6357 50.0825C26.9415 50.1311 27.2546 50.0978 27.5433 49.986C27.9404 51.0169 28.0877 52.1272 27.9731 53.226C27.96 53.3124 27.9567 53.3999 27.9634 53.487C27.9296 53.4532 27.8964 53.4236 27.8619 53.3902C27.8445 53.3741 27.8224 53.3641 27.7989 53.3615C27.7754 53.3589 27.7516 53.3639 27.7312 53.3758C27.7107 53.3876 27.6945 53.4057 27.6851 53.4274C27.6756 53.4491 27.6734 53.4733 27.6787 53.4964C27.8417 54.0904 28.4562 54.4655 28.9962 54.679C30.1578 55.1132 31.4342 55.1304 32.607 54.7276C33.1535 54.5375 33.8422 54.2491 34.1806 53.762C34.2915 53.6026 34.0841 53.4575 33.9394 53.5205C33.784 53.5941 33.6353 53.6814 33.4952 53.7811C33.4854 53.5201 33.2324 53.4334 33.1863 52.425C33.1798 52.285 33.2007 52.1402 33.1863 52.0049C33.4934 51.9661 33.7901 51.8683 34.06 51.7169C34.3672 51.5152 34.6234 51.245 34.8085 50.9275C34.9935 50.6101 35.1025 50.254 35.1267 49.8874C35.1664 48.9614 35.0315 48.0362 34.7292 47.16C34.4772 46.2056 34.1261 45.2802 33.6816 44.3988C34.74 43.7198 35.3549 42.984 35.5882 41.6822ZM34.7292 49.14C34.7826 49.4945 34.7593 49.8563 34.661 50.201C34.5627 50.5457 34.3916 50.8653 34.1594 51.1384C33.6478 51.655 32.8176 51.6841 32.1322 51.6258C31.3983 51.5726 30.7033 51.2753 30.158 50.7812C30.1372 50.7619 30.1102 50.7506 30.0819 50.7492C30.0535 50.7479 30.0256 50.7566 30.0031 50.7738C29.9806 50.7911 29.9649 50.8157 29.9587 50.8434C29.9526 50.8711 29.9565 50.9001 29.9697 50.9252C30.1348 51.2372 30.3929 51.4902 30.7081 51.6492C31.3819 51.9681 32.1272 52.1061 32.8706 52.0499C32.7496 52.5641 32.7884 53.103 32.9818 53.5946C33.0372 53.7336 33.083 53.8938 33.2133 53.9662C32.612 54.3009 31.9463 54.5037 31.2606 54.5612C30.5748 54.6187 29.8846 54.5295 29.236 54.2995C28.8543 54.1544 28.5 53.9454 28.1884 53.6814C28.4404 53.5126 28.4275 53.073 28.4537 52.803C28.5657 51.6528 28.2039 50.2628 27.8745 49.8053C27.947 49.7588 28.0073 49.6954 28.0502 49.6207C28.093 49.5459 28.1172 49.4619 28.1207 49.3758C28.1205 49.3443 28.112 49.3134 28.0961 49.2861C28.0802 49.2589 28.0574 49.2364 28.03 49.2207C28.0026 49.2051 27.9716 49.1969 27.9401 49.197C27.9086 49.1971 27.8776 49.2055 27.8504 49.2214C27.5573 49.361 27.4843 49.756 26.6339 49.622C26.4193 49.6051 26.2118 49.5371 26.0287 49.4237C25.8457 49.3103 25.6924 49.1548 25.5816 48.9701C25.4939 48.81 25.4451 48.6316 25.4391 48.4492C25.4332 48.2667 25.4703 48.0855 25.5474 47.9201C25.6245 47.7546 25.7395 47.6097 25.883 47.497C26.0266 47.3843 26.1947 47.3069 26.3737 47.2712C26.6884 47.1819 27.0241 47.2015 27.3263 47.3267C27.6286 47.452 27.8797 47.6756 28.039 47.9614C28.1495 48.1644 28.5171 48.082 28.493 47.8408C28.3985 46.9302 28.5347 46.0105 28.889 45.1663C30.8819 45.5922 32.2053 45.2934 33.4361 44.568C33.5852 45.0054 34.5928 47.4224 34.7292 49.14ZM33.9567 42.3965C34.3658 41.8086 34.594 41.114 34.6133 40.3981C34.6227 40.176 34.5845 39.9539 34.5939 39.7318C34.5946 39.7063 34.6026 39.6817 34.6171 39.6607C34.6315 39.6398 34.6517 39.6235 34.6752 39.6138C34.6987 39.6041 34.7246 39.6015 34.7495 39.6062C34.7745 39.6109 34.7976 39.6228 34.816 39.6403C35.1836 39.987 35.068 40.6926 35.0043 41.1462C34.9342 41.6931 34.7266 42.2133 34.4009 42.6582C34.2051 42.9149 33.759 42.6575 33.9567 42.3968V42.3965Z" fill="url(#paint55_linear_353_7472)"/>
<defs>
<linearGradient id="paint0_linear_353_7472" x1="40.4085" y1="42.6439" x2="41.9773" y2="43.0211" gradientUnits="userSpaceOnUse">
<stop stop-color="#086158"/>
<stop offset="1" stop-color="#2DAB35"/>
</linearGradient>
<linearGradient id="paint1_linear_353_7472" x1="30.7429" y1="46.7757" x2="31.4397" y2="46.907" gradientUnits="userSpaceOnUse">
<stop stop-color="#086158"/>
<stop offset="1" stop-color="#2DAB35"/>
</linearGradient>
<linearGradient id="paint2_linear_353_7472" x1="32.8089" y1="46.0705" x2="33.5058" y2="46.2018" gradientUnits="userSpaceOnUse">
<stop stop-color="#086158"/>
<stop offset="1" stop-color="#2DAB35"/>
</linearGradient>
<linearGradient id="paint3_linear_353_7472" x1="32.1482" y1="46.5495" x2="33.987" y2="46.7956" gradientUnits="userSpaceOnUse">
<stop stop-color="#086158"/>
<stop offset="1" stop-color="#2DAB35"/>
</linearGradient>
<linearGradient id="paint4_linear_353_7472" x1="32.5072" y1="49.6662" x2="33.9566" y2="50.1106" gradientUnits="userSpaceOnUse">
<stop stop-color="#086158"/>
<stop offset="1" stop-color="#2DAB35"/>
</linearGradient>
<linearGradient id="paint5_linear_353_7472" x1="17.1912" y1="53.7159" x2="27.8159" y2="58.0648" gradientUnits="userSpaceOnUse">
<stop stop-color="#086158"/>
<stop offset="1" stop-color="#2DAB35"/>
</linearGradient>
<linearGradient id="paint6_linear_353_7472" x1="34.4933" y1="53.8225" x2="46.0571" y2="57.738" gradientUnits="userSpaceOnUse">
<stop stop-color="#086158"/>
<stop offset="1" stop-color="#2DAB35"/>
</linearGradient>
<linearGradient id="paint7_linear_353_7472" x1="50.8198" y1="44.5132" x2="51.4758" y2="44.6241" gradientUnits="userSpaceOnUse">
<stop stop-color="#086158"/>
<stop offset="1" stop-color="#2DAB35"/>
</linearGradient>
<linearGradient id="paint8_linear_353_7472" x1="52.7025" y1="44.7956" x2="53.3645" y2="44.9091" gradientUnits="userSpaceOnUse">
<stop stop-color="#086158"/>
<stop offset="1" stop-color="#2DAB35"/>
</linearGradient>
<linearGradient id="paint9_linear_353_7472" x1="50.8172" y1="44.9743" x2="52.4165" y2="45.1715" gradientUnits="userSpaceOnUse">
<stop stop-color="#086158"/>
<stop offset="1" stop-color="#2DAB35"/>
</linearGradient>
<linearGradient id="paint10_linear_353_7472" x1="50.7553" y1="47.8376" x2="53.2037" y2="48.4767" gradientUnits="userSpaceOnUse">
<stop stop-color="#086158"/>
<stop offset="1" stop-color="#2DAB35"/>
</linearGradient>
<linearGradient id="paint11_linear_353_7472" x1="42.9368" y1="53.3799" x2="51.6208" y2="60.3418" gradientUnits="userSpaceOnUse">
<stop stop-color="#086158"/>
<stop offset="1" stop-color="#2DAB35"/>
</linearGradient>
<linearGradient id="paint12_linear_353_7472" x1="39.7789" y1="39.2204" x2="46.9421" y2="40.5389" gradientUnits="userSpaceOnUse">
<stop stop-color="#086158"/>
<stop offset="1" stop-color="#2DAB35"/>
</linearGradient>
<linearGradient id="paint13_linear_353_7472" x1="44.9645" y1="43.4846" x2="45.8143" y2="43.5333" gradientUnits="userSpaceOnUse">
<stop stop-color="#086158"/>
<stop offset="1" stop-color="#2DAB35"/>
</linearGradient>
<linearGradient id="paint14_linear_353_7472" x1="39.2577" y1="32.3859" x2="51.3052" y2="34.9042" gradientUnits="userSpaceOnUse">
<stop stop-color="#086158"/>
<stop offset="1" stop-color="#2DAB35"/>
</linearGradient>
<linearGradient id="paint15_linear_353_7472" x1="40.6882" y1="39.939" x2="41.2401" y2="40.0317" gradientUnits="userSpaceOnUse">
<stop stop-color="#086158"/>
<stop offset="1" stop-color="#2DAB35"/>
</linearGradient>
<linearGradient id="paint16_linear_353_7472" x1="42.0156" y1="40.1123" x2="42.5667" y2="40.2047" gradientUnits="userSpaceOnUse">
<stop stop-color="#086158"/>
<stop offset="1" stop-color="#2DAB35"/>
</linearGradient>
<linearGradient id="paint17_linear_353_7472" x1="40.6772" y1="40.3702" x2="41.9908" y2="40.5372" gradientUnits="userSpaceOnUse">
<stop stop-color="#086158"/>
<stop offset="1" stop-color="#2DAB35"/>
</linearGradient>
<linearGradient id="paint18_linear_353_7472" x1="40.2503" y1="36.8039" x2="45.9552" y2="38.5467" gradientUnits="userSpaceOnUse">
<stop stop-color="#086158"/>
<stop offset="1" stop-color="#2DAB35"/>
</linearGradient>
<linearGradient id="paint19_linear_353_7472" x1="41.9032" y1="46.6784" x2="44.7122" y2="49.2121" gradientUnits="userSpaceOnUse">
<stop stop-color="#086158"/>
<stop offset="1" stop-color="#2DAB35"/>
</linearGradient>
<linearGradient id="paint20_linear_353_7472" x1="35.5509" y1="47.0913" x2="41.3349" y2="50.138" gradientUnits="userSpaceOnUse">
<stop stop-color="#086158"/>
<stop offset="1" stop-color="#2DAB35"/>
</linearGradient>
<linearGradient id="paint21_linear_353_7472" x1="46.396" y1="46.7951" x2="48.86" y2="48.1205" gradientUnits="userSpaceOnUse">
<stop stop-color="#086158"/>
<stop offset="1" stop-color="#2DAB35"/>
</linearGradient>
<linearGradient id="paint22_linear_353_7472" x1="22.4233" y1="36.3663" x2="24.5516" y2="36.6519" gradientUnits="userSpaceOnUse">
<stop stop-color="#086158"/>
<stop offset="1" stop-color="#2DAB35"/>
</linearGradient>
<linearGradient id="paint23_linear_353_7472" x1="21.7431" y1="40.0979" x2="22.9122" y2="40.3604" gradientUnits="userSpaceOnUse">
<stop stop-color="#086158"/>
<stop offset="1" stop-color="#2DAB35"/>
</linearGradient>
<linearGradient id="paint24_linear_353_7472" x1="21.154" y1="36.9853" x2="21.7902" y2="37.1011" gradientUnits="userSpaceOnUse">
<stop stop-color="#086158"/>
<stop offset="1" stop-color="#2DAB35"/>
</linearGradient>
<linearGradient id="paint25_linear_353_7472" x1="15.7046" y1="37.5848" x2="18.6884" y2="38.1655" gradientUnits="userSpaceOnUse">
<stop stop-color="#086158"/>
<stop offset="1" stop-color="#2DAB35"/>
</linearGradient>
<linearGradient id="paint26_linear_353_7472" x1="17.457" y1="40.7219" x2="18.2662" y2="40.7591" gradientUnits="userSpaceOnUse">
<stop stop-color="#086158"/>
<stop offset="1" stop-color="#2DAB35"/>
</linearGradient>
<linearGradient id="paint27_linear_353_7472" x1="16.1334" y1="33.8779" x2="16.9573" y2="33.914" gradientUnits="userSpaceOnUse">
<stop stop-color="#086158"/>
<stop offset="1" stop-color="#2DAB35"/>
</linearGradient>
<linearGradient id="paint28_linear_353_7472" x1="17.4764" y1="31.8532" x2="19.898" y2="32.1661" gradientUnits="userSpaceOnUse">
<stop stop-color="#086158"/>
<stop offset="1" stop-color="#2DAB35"/>
</linearGradient>
<linearGradient id="paint29_linear_353_7472" x1="19.4362" y1="30.9051" x2="22.2768" y2="31.4447" gradientUnits="userSpaceOnUse">
<stop stop-color="#086158"/>
<stop offset="1" stop-color="#2DAB35"/>
</linearGradient>
<linearGradient id="paint30_linear_353_7472" x1="21.0746" y1="31.2932" x2="23.4546" y2="31.8421" gradientUnits="userSpaceOnUse">
<stop stop-color="#086158"/>
<stop offset="1" stop-color="#2DAB35"/>
</linearGradient>
<linearGradient id="paint31_linear_353_7472" x1="22.2277" y1="32.1402" x2="24.2775" y2="32.5821" gradientUnits="userSpaceOnUse">
<stop stop-color="#086158"/>
<stop offset="1" stop-color="#2DAB35"/>
</linearGradient>
<linearGradient id="paint32_linear_353_7472" x1="22.559" y1="33.0692" x2="24.9541" y2="33.7546" gradientUnits="userSpaceOnUse">
<stop stop-color="#086158"/>
<stop offset="1" stop-color="#2DAB35"/>
</linearGradient>
<linearGradient id="paint33_linear_353_7472" x1="22.851" y1="33.5719" x2="25.2241" y2="34.1257" gradientUnits="userSpaceOnUse">
<stop stop-color="#086158"/>
<stop offset="1" stop-color="#2DAB35"/>
</linearGradient>
<linearGradient id="paint34_linear_353_7472" x1="16.4903" y1="52.674" x2="18.0053" y2="52.8164" gradientUnits="userSpaceOnUse">
<stop stop-color="#086158"/>
<stop offset="1" stop-color="#2DAB35"/>
</linearGradient>
<linearGradient id="paint35_linear_353_7472" x1="17.0424" y1="42.4815" x2="21.9894" y2="44.123" gradientUnits="userSpaceOnUse">
<stop stop-color="#086158"/>
<stop offset="1" stop-color="#2DAB35"/>
</linearGradient>
<linearGradient id="paint36_linear_353_7472" x1="9.46977" y1="44.2962" x2="17.8618" y2="45.3465" gradientUnits="userSpaceOnUse">
<stop stop-color="#086158"/>
<stop offset="1" stop-color="#2DAB35"/>
</linearGradient>
<linearGradient id="paint37_linear_353_7472" x1="21.78" y1="44.3221" x2="23.8117" y2="45.6721" gradientUnits="userSpaceOnUse">
<stop stop-color="#086158"/>
<stop offset="1" stop-color="#2DAB35"/>
</linearGradient>
<linearGradient id="paint38_linear_353_7472" x1="44.3717" y1="25.2308" x2="45.0931" y2="25.5123" gradientUnits="userSpaceOnUse">
<stop stop-color="#086158"/>
<stop offset="1" stop-color="#2DAB35"/>
</linearGradient>
<linearGradient id="paint39_linear_353_7472" x1="44.3776" y1="27.3074" x2="45.1012" y2="27.5917" gradientUnits="userSpaceOnUse">
<stop stop-color="#086158"/>
<stop offset="1" stop-color="#2DAB35"/>
</linearGradient>
<linearGradient id="paint40_linear_353_7472" x1="45.7158" y1="24.5147" x2="47.0071" y2="24.5846" gradientUnits="userSpaceOnUse">
<stop stop-color="#086158"/>
<stop offset="1" stop-color="#2DAB35"/>
</linearGradient>
<linearGradient id="paint41_linear_353_7472" x1="21.0381" y1="13.7286" x2="39.5698" y2="17.6817" gradientUnits="userSpaceOnUse">
<stop stop-color="#086158"/>
<stop offset="1" stop-color="#2DAB35"/>
</linearGradient>
<linearGradient id="paint42_linear_353_7472" x1="24.8993" y1="20.6759" x2="26.2381" y2="20.9516" gradientUnits="userSpaceOnUse">
<stop stop-color="#086158"/>
<stop offset="1" stop-color="#2DAB35"/>
</linearGradient>
<linearGradient id="paint43_linear_353_7472" x1="28.1141" y1="20.6844" x2="29.4528" y2="20.9605" gradientUnits="userSpaceOnUse">
<stop stop-color="#086158"/>
<stop offset="1" stop-color="#2DAB35"/>
</linearGradient>
<linearGradient id="paint44_linear_353_7472" x1="31.0335" y1="20.6095" x2="32.3769" y2="20.8871" gradientUnits="userSpaceOnUse">
<stop stop-color="#086158"/>
<stop offset="1" stop-color="#2DAB35"/>
</linearGradient>
<linearGradient id="paint45_linear_353_7472" x1="11.2272" y1="14.4248" x2="13.172" y2="14.704" gradientUnits="userSpaceOnUse">
<stop stop-color="#086158"/>
<stop offset="1" stop-color="#2DAB35"/>
</linearGradient>
<linearGradient id="paint46_linear_353_7472" x1="15.4793" y1="12.6583" x2="16.1154" y2="12.6819" gradientUnits="userSpaceOnUse">
<stop stop-color="#086158"/>
<stop offset="1" stop-color="#2DAB35"/>
</linearGradient>
<linearGradient id="paint47_linear_353_7472" x1="19.3247" y1="11.077" x2="21.0478" y2="11.3017" gradientUnits="userSpaceOnUse">
<stop stop-color="#086158"/>
<stop offset="1" stop-color="#2DAB35"/>
</linearGradient>
<linearGradient id="paint48_linear_353_7472" x1="53.2324" y1="29.9" x2="57.3832" y2="31.0477" gradientUnits="userSpaceOnUse">
<stop stop-color="#086158"/>
<stop offset="1" stop-color="#2DAB35"/>
</linearGradient>
<linearGradient id="paint49_linear_353_7472" x1="54.6947" y1="19.6497" x2="72.4412" y2="23.6409" gradientUnits="userSpaceOnUse">
<stop stop-color="#086158"/>
<stop offset="1" stop-color="#2DAB35"/>
</linearGradient>
<linearGradient id="paint50_linear_353_7472" x1="58.7263" y1="24.5904" x2="59.8875" y2="27.672" gradientUnits="userSpaceOnUse">
<stop stop-color="#086158"/>
<stop offset="1" stop-color="#2DAB35"/>
</linearGradient>
<linearGradient id="paint51_linear_353_7472" x1="58.9107" y1="26.921" x2="60.2175" y2="30.0392" gradientUnits="userSpaceOnUse">
<stop stop-color="#086158"/>
<stop offset="1" stop-color="#2DAB35"/>
</linearGradient>
<linearGradient id="paint52_linear_353_7472" x1="58.9018" y1="29.0049" x2="59.8823" y2="31.6984" gradientUnits="userSpaceOnUse">
<stop stop-color="#086158"/>
<stop offset="1" stop-color="#2DAB35"/>
</linearGradient>
<linearGradient id="paint53_linear_353_7472" x1="18.6947" y1="39.8327" x2="23.6341" y2="41.9987" gradientUnits="userSpaceOnUse">
<stop stop-color="#086158"/>
<stop offset="1" stop-color="#2DAB35"/>
</linearGradient>
<linearGradient id="paint54_linear_353_7472" x1="49.8174" y1="40.1975" x2="67.0386" y2="43.0379" gradientUnits="userSpaceOnUse">
<stop stop-color="#086158"/>
<stop offset="1" stop-color="#2DAB35"/>
</linearGradient>
<linearGradient id="paint55_linear_353_7472" x1="25.2381" y1="38.4921" x2="37.4554" y2="40.2386" gradientUnits="userSpaceOnUse">
<stop stop-color="#086158"/>
<stop offset="1" stop-color="#2DAB35"/>
</linearGradient>
</defs>
</svg>
